<svg xmlns="http://www.w3.org/2000/svg" xmlns:xlink="http://www.w3.org/1999/xlink" width="500" zoomAndPan="magnify" viewBox="0 0 375 374.999991" height="500" preserveAspectRatio="xMidYMid meet" version="1.0"><defs><clipPath id="cb9e6f2f9d"><path d="M 18.527344 18.527344 L 356.777344 18.527344 L 356.777344 356.777344 L 18.527344 356.777344 Z M 18.527344 18.527344 " clip-rule="nonzero"/></clipPath><clipPath id="ff9f66e08a"><path d="M 81.835938 112 L 306.835938 112 L 306.835938 241 L 81.835938 241 Z M 81.835938 112 " clip-rule="nonzero"/></clipPath><clipPath id="4aa711b40f"><path d="M 144 94.28125 L 196 94.28125 L 196 281 L 144 281 Z M 144 94.28125 " clip-rule="nonzero"/></clipPath></defs><rect x="-37.5" width="450" fill="rgba(255,255,255,0)" y="-37.499999" height="449.999989" fill-opacity="1"/><rect x="-37.5" width="450" fill="rgba(255,255,255,0)" y="-37.499999" height="449.999989" fill-opacity="1"/><g clip-path="url(#cb9e6f2f9d)"><path fill="#100f0d" d="M 307.3125 277.3125 L 306.378906 278.511719 L 321.976562 290.378906 L 323.042969 289.046875 C 323.445312 288.648438 323.710938 288.113281 323.976562 287.714844 L 308.246094 276.113281 C 307.84375 276.515625 307.578125 276.914062 307.3125 277.3125 Z M 312.113281 270.378906 L 328.378906 281.179688 C 329.042969 280.246094 329.578125 279.3125 330.246094 278.378906 L 313.710938 267.847656 C 313.3125 268.78125 312.644531 269.582031 312.113281 270.378906 Z M 317.445312 261.980469 L 334.378906 271.714844 L 335.976562 268.78125 L 318.777344 259.316406 Z M 300.113281 286.113281 L 314.777344 299.046875 C 315.578125 298.246094 316.246094 297.3125 316.910156 296.511719 L 301.980469 283.847656 C 301.445312 284.648438 300.777344 285.3125 300.113281 286.113281 Z M 293.3125 293.3125 L 307.179688 307.179688 L 309.578125 304.777344 L 295.445312 291.179688 Z M 321.976562 253.316406 L 339.578125 261.980469 C 340.109375 260.914062 340.511719 259.980469 341.042969 258.914062 L 323.3125 250.648438 C 322.910156 251.449219 322.511719 252.382812 321.976562 253.316406 Z M 332.378906 225.449219 L 351.308594 230.382812 C 351.578125 229.316406 351.84375 228.25 352.109375 227.050781 L 333.042969 222.515625 C 332.777344 223.582031 332.644531 224.515625 332.378906 225.449219 Z M 326.113281 244.25 L 344.242188 251.714844 C 344.644531 250.648438 345.042969 249.582031 345.445312 248.515625 L 327.179688 241.449219 C 326.777344 242.382812 326.378906 243.316406 326.113281 244.25 Z M 334.777344 214.382812 L 334.511719 215.851562 L 353.710938 219.582031 L 353.976562 217.984375 C 354.109375 217.449219 354.109375 216.917969 354.242188 216.382812 L 334.910156 213.050781 C 334.910156 213.449219 334.910156 213.851562 334.777344 214.382812 Z M 335.976562 206.117188 L 355.441406 208.515625 L 355.84375 205.183594 L 336.378906 203.183594 Z M 336.910156 196.25 L 356.511719 197.316406 C 356.644531 196.25 356.644531 195.050781 356.644531 193.984375 L 337.042969 193.316406 C 337.042969 194.25 337.042969 195.183594 336.910156 196.25 Z M 329.445312 234.914062 L 347.976562 241.050781 L 349.042969 237.847656 L 330.378906 231.984375 Z M 226.78125 331.976562 L 231.847656 350.910156 C 232.914062 350.644531 233.984375 350.375 235.050781 349.976562 L 229.582031 331.175781 C 228.78125 331.445312 227.714844 331.710938 226.78125 331.976562 Z M 207.449219 335.84375 L 209.984375 355.308594 L 213.316406 354.777344 L 210.382812 335.445312 Z M 236.25 329.042969 L 242.648438 347.578125 L 245.847656 346.511719 L 239.050781 328.109375 Z M 199.050781 336.644531 L 197.585938 336.777344 L 198.917969 356.375 L 200.652344 356.242188 L 202.382812 356.109375 L 200.785156 336.644531 Z M 187.71875 337.175781 L 187.71875 356.777344 L 191.050781 356.777344 L 190.652344 337.175781 Z M 217.183594 334.246094 L 221.050781 353.441406 C 222.117188 353.175781 223.316406 352.910156 224.382812 352.777344 L 220.117188 333.710938 C 219.183594 333.84375 218.117188 333.976562 217.183594 334.246094 Z M 279.582031 305.578125 L 291.578125 321.042969 C 292.511719 320.378906 293.3125 319.578125 294.246094 318.910156 L 281.847656 303.710938 C 281.046875 304.378906 280.378906 304.914062 279.582031 305.578125 Z M 288.246094 298.246094 L 287.179688 299.179688 L 300.246094 313.84375 L 301.445312 312.777344 L 302.644531 311.578125 L 289.3125 297.179688 Z M 271.582031 311.445312 L 282.648438 327.578125 L 285.445312 325.710938 L 274.113281 309.710938 Z M 263.179688 316.644531 L 273.046875 333.578125 C 273.980469 333.042969 275.046875 332.511719 275.980469 331.84375 L 265.714844 315.179688 C 264.914062 315.710938 263.980469 316.113281 263.179688 316.644531 Z M 255.847656 320.777344 L 254.515625 321.445312 L 263.316406 338.910156 L 264.78125 338.109375 L 266.246094 337.3125 L 257.179688 319.976562 Z M 245.449219 325.578125 L 253.046875 343.578125 C 254.113281 343.175781 255.046875 342.644531 256.113281 342.242188 L 248.113281 324.378906 C 247.316406 324.777344 246.382812 325.179688 245.449219 325.578125 Z M 123.589844 344.109375 C 124.65625 344.511719 125.722656 344.910156 126.789062 345.308594 L 133.855469 327.042969 C 132.921875 326.644531 131.988281 326.378906 131.054688 325.976562 Z M 134.121094 348.109375 L 137.320312 349.175781 L 143.1875 330.511719 L 140.386719 329.578125 Z M 121.988281 321.976562 L 113.320312 339.578125 C 114.386719 340.109375 115.320312 340.511719 116.386719 341.042969 L 124.65625 323.3125 C 123.855469 322.910156 122.921875 322.511719 121.988281 321.976562 Z M 144.921875 351.308594 C 145.988281 351.578125 147.054688 351.84375 148.253906 352.109375 L 152.785156 333.042969 C 151.851562 332.777344 150.785156 332.644531 149.851562 332.378906 Z M 159.453125 334.511719 L 155.71875 353.710938 L 157.320312 353.976562 C 157.851562 354.109375 158.386719 354.109375 158.917969 354.242188 L 162.253906 334.910156 C 161.71875 334.777344 161.320312 334.777344 160.785156 334.644531 Z M 81.988281 293.3125 L 68.125 307.179688 L 70.523438 309.578125 L 84.125 295.445312 Z M 89.191406 300.113281 L 76.257812 314.777344 C 77.058594 315.578125 77.992188 316.246094 78.789062 316.910156 L 91.457031 301.980469 C 90.65625 301.445312 89.988281 300.777344 89.191406 300.113281 Z M 113.320312 317.3125 L 103.589844 334.378906 L 106.523438 335.976562 L 115.988281 318.777344 Z M 104.921875 312.113281 L 94.121094 328.378906 C 95.054688 329.042969 95.988281 329.578125 96.921875 330.246094 L 107.457031 313.710938 C 106.523438 313.3125 105.722656 312.644531 104.921875 312.113281 Z M 97.988281 307.3125 L 96.789062 306.378906 L 84.921875 321.976562 L 86.257812 323.042969 C 86.65625 323.445312 87.191406 323.710938 87.589844 323.976562 L 99.1875 308.246094 C 98.789062 307.84375 98.390625 307.578125 97.988281 307.3125 Z M 166.785156 355.441406 L 170.117188 355.84375 L 172.117188 336.378906 L 169.1875 335.976562 Z M 177.984375 356.375 C 179.050781 356.511719 180.25 356.511719 181.320312 356.511719 L 181.984375 336.910156 C 181.050781 336.910156 179.984375 336.910156 179.050781 336.777344 Z M 63.859375 271.582031 L 47.726562 282.648438 L 49.589844 285.445312 L 65.589844 274.113281 Z M 69.722656 279.582031 L 54.257812 291.578125 C 54.925781 292.511719 55.726562 293.3125 56.390625 294.246094 L 71.589844 281.847656 C 70.925781 281.046875 70.390625 280.378906 69.722656 279.582031 Z M 77.058594 288.246094 L 76.125 287.179688 L 61.457031 300.246094 L 62.523438 301.445312 L 63.722656 302.644531 L 78.125 289.3125 Z M 43.324219 226.78125 L 24.394531 231.847656 C 24.660156 232.914062 24.925781 233.984375 25.328125 235.050781 L 44.125 229.582031 C 43.859375 228.648438 43.59375 227.714844 43.324219 226.78125 Z M 58.65625 263.179688 L 41.726562 273.046875 C 42.257812 273.980469 42.792969 275.046875 43.457031 275.980469 L 60.125 265.714844 C 59.589844 264.914062 59.191406 263.980469 58.65625 263.179688 Z M 54.523438 255.847656 L 53.859375 254.515625 L 36.390625 263.179688 L 37.191406 264.648438 L 37.992188 266.113281 L 55.324219 257.046875 Z M 49.726562 245.449219 L 31.726562 253.046875 C 32.125 254.113281 32.660156 255.046875 33.058594 256.113281 L 50.925781 248.113281 C 50.523438 247.316406 50.125 246.382812 49.726562 245.449219 Z M 38.125 187.71875 L 18.527344 187.71875 L 18.527344 191.050781 L 38.125 190.652344 Z M 41.058594 217.183594 L 21.859375 221.050781 C 22.125 222.117188 22.394531 223.316406 22.527344 224.382812 L 41.59375 220.117188 C 41.457031 219.050781 41.324219 218.117188 41.058594 217.183594 Z M 38.660156 199.050781 L 38.527344 197.585938 L 18.925781 198.917969 L 19.058594 200.652344 L 19.191406 202.382812 L 38.660156 200.785156 Z M 46.257812 236.25 L 27.726562 242.648438 L 28.792969 245.847656 L 47.191406 239.050781 Z M 39.457031 207.449219 L 19.992188 209.984375 L 20.527344 213.316406 L 39.859375 210.382812 Z M 43.058594 149.851562 L 24.125 144.921875 C 23.859375 145.988281 23.59375 147.054688 23.328125 148.253906 L 42.390625 152.785156 C 42.523438 151.71875 42.792969 150.785156 43.058594 149.851562 Z M 40.527344 160.917969 L 40.792969 159.453125 L 21.59375 155.71875 L 21.328125 157.320312 C 21.191406 157.851562 21.191406 158.386719 21.058594 158.917969 L 40.390625 162.253906 C 40.390625 161.851562 40.390625 161.453125 40.527344 160.917969 Z M 53.324219 121.988281 L 35.726562 113.320312 C 35.191406 114.386719 34.792969 115.320312 34.257812 116.386719 L 51.992188 124.65625 C 52.390625 123.855469 52.792969 122.921875 53.324219 121.988281 Z M 45.859375 140.386719 L 27.324219 134.253906 L 26.257812 137.453125 L 44.925781 143.320312 Z M 49.324219 131.054688 L 31.191406 123.589844 C 30.792969 124.65625 30.394531 125.722656 29.992188 126.789062 L 48.257812 133.855469 C 48.523438 132.921875 48.925781 131.988281 49.324219 131.054688 Z M 57.992188 113.320312 L 41.058594 103.589844 L 39.457031 106.523438 L 56.65625 115.988281 Z M 63.191406 104.921875 L 46.925781 94.121094 C 46.257812 95.054688 45.726562 95.988281 45.058594 96.921875 L 61.589844 107.457031 C 61.992188 106.523438 62.65625 105.722656 63.191406 104.921875 Z M 75.191406 89.191406 L 60.523438 76.257812 C 59.722656 77.058594 59.058594 77.992188 58.390625 78.789062 L 73.324219 91.457031 C 73.855469 90.65625 74.523438 89.855469 75.191406 89.191406 Z M 67.992188 97.988281 L 68.925781 96.789062 L 53.324219 84.921875 L 52.257812 86.257812 C 51.859375 86.65625 51.589844 87.191406 51.324219 87.589844 L 67.058594 99.1875 C 67.457031 98.789062 67.722656 98.390625 67.992188 97.988281 Z M 81.988281 81.988281 L 68.125 68.125 L 65.722656 70.523438 L 79.855469 84.125 Z M 38.390625 179.050781 L 18.792969 177.984375 C 18.660156 179.050781 18.660156 180.25 18.660156 181.320312 L 38.257812 181.984375 C 38.257812 181.050781 38.390625 180.117188 38.390625 179.050781 Z M 39.324219 169.1875 L 19.859375 166.785156 L 19.460938 170.117188 L 38.925781 172.117188 Z M 95.722656 69.722656 L 83.722656 54.257812 C 82.789062 54.925781 81.988281 55.726562 81.058594 56.390625 L 93.457031 71.589844 C 94.257812 70.925781 94.921875 70.257812 95.722656 69.722656 Z M 119.453125 54.523438 L 120.789062 53.859375 L 111.988281 36.390625 L 110.523438 37.191406 L 109.054688 37.992188 L 118.121094 55.324219 Z M 103.722656 63.859375 L 92.789062 47.726562 L 89.988281 49.589844 L 101.324219 65.589844 Z M 148.519531 43.324219 L 143.453125 24.394531 C 142.386719 24.660156 141.320312 24.925781 140.253906 25.328125 L 145.71875 44.125 C 146.652344 43.859375 147.585938 43.59375 148.519531 43.324219 Z M 129.855469 49.726562 L 122.253906 31.726562 C 121.1875 32.125 120.253906 32.660156 119.1875 33.058594 L 127.1875 50.925781 C 127.988281 50.523438 128.921875 50.125 129.855469 49.726562 Z M 87.054688 77.058594 L 88.125 76.125 L 75.058594 61.457031 L 73.855469 62.523438 L 72.65625 63.722656 L 85.988281 78.125 Z M 139.054688 46.257812 L 132.652344 27.726562 L 129.453125 28.792969 L 136.253906 47.191406 Z M 112.121094 58.65625 L 102.253906 41.726562 C 101.324219 42.257812 100.253906 42.792969 99.324219 43.457031 L 109.589844 60.125 C 110.390625 59.589844 111.320312 59.058594 112.121094 58.65625 Z M 187.585938 18.527344 L 184.25 18.527344 L 184.652344 38.125 L 187.585938 38.125 Z M 165.320312 19.992188 L 161.984375 20.527344 L 164.917969 39.859375 L 167.851562 39.457031 Z M 154.253906 21.859375 C 153.1875 22.125 151.988281 22.394531 150.921875 22.527344 L 155.1875 41.59375 C 156.121094 41.324219 157.1875 41.191406 158.121094 40.925781 Z M 174.785156 19.058594 L 173.050781 19.191406 L 174.652344 38.660156 L 176.117188 38.527344 L 177.585938 38.390625 L 176.253906 18.792969 Z M 277.3125 67.992188 L 278.515625 68.925781 L 290.378906 53.324219 L 289.046875 52.257812 C 288.648438 51.859375 288.113281 51.589844 287.714844 51.324219 L 276.113281 67.058594 C 276.515625 67.457031 276.914062 67.722656 277.3125 67.992188 Z M 270.378906 63.191406 L 281.179688 46.925781 C 280.246094 46.257812 279.3125 45.726562 278.378906 45.058594 L 267.847656 61.589844 C 268.78125 61.992188 269.582031 62.65625 270.378906 63.191406 Z M 286.113281 75.191406 L 299.046875 60.523438 C 298.246094 59.722656 297.3125 59.058594 296.511719 58.390625 L 283.847656 73.324219 C 284.648438 73.855469 285.445312 74.523438 286.113281 75.191406 Z M 227.183594 23.191406 L 222.648438 42.257812 C 223.582031 42.523438 224.648438 42.660156 225.582031 42.925781 L 230.515625 23.992188 C 229.316406 23.726562 228.25 23.460938 227.183594 23.191406 Z M 261.980469 57.859375 L 271.714844 40.925781 L 268.78125 39.324219 L 259.316406 56.523438 Z M 293.3125 81.988281 L 307.179688 68.125 L 304.777344 65.722656 L 291.179688 79.855469 Z M 217.851562 21.328125 C 217.316406 21.191406 216.785156 21.191406 216.25 21.058594 L 212.917969 40.390625 C 213.449219 40.527344 213.851562 40.527344 214.382812 40.660156 L 215.851562 40.925781 L 219.582031 21.726562 Z M 205.183594 19.460938 L 203.183594 38.925781 L 206.117188 39.324219 L 208.515625 19.859375 Z M 193.183594 38.257812 C 194.117188 38.257812 195.183594 38.257812 196.117188 38.390625 L 197.183594 18.792969 C 196.117188 18.660156 194.917969 18.660156 193.851562 18.660156 Z M 253.316406 53.324219 L 261.980469 35.726562 C 260.914062 35.191406 259.980469 34.792969 258.914062 34.257812 L 250.648438 51.992188 C 251.449219 52.390625 252.382812 52.792969 253.316406 53.324219 Z M 241.183594 27.191406 L 237.980469 26.125 L 232.117188 44.792969 L 234.914062 45.726562 Z M 251.714844 31.058594 C 250.648438 30.660156 249.582031 30.257812 248.515625 29.859375 L 241.449219 48.125 C 242.382812 48.523438 243.316406 48.792969 244.25 49.191406 Z M 334.246094 158.121094 L 353.441406 154.253906 C 353.175781 153.1875 352.910156 151.988281 352.777344 150.921875 L 333.710938 155.1875 C 333.84375 156.121094 334.109375 157.1875 334.246094 158.121094 Z M 331.976562 148.519531 L 350.910156 143.453125 C 350.644531 142.386719 350.375 141.320312 349.976562 140.253906 L 331.179688 145.71875 C 331.445312 146.519531 331.710938 147.585938 331.976562 148.519531 Z M 329.042969 139.054688 L 347.578125 132.652344 L 346.511719 129.453125 L 328.109375 136.253906 Z M 335.84375 167.851562 L 355.308594 165.320312 L 354.777344 161.984375 L 335.445312 164.917969 Z M 337.175781 187.585938 L 356.777344 187.585938 L 356.777344 184.25 L 337.175781 184.652344 Z M 336.777344 176.253906 L 336.910156 177.71875 L 356.511719 176.386719 L 356.375 174.652344 L 356.242188 172.917969 L 336.777344 174.519531 Z M 325.578125 129.855469 L 343.578125 122.253906 C 343.175781 121.1875 342.644531 120.253906 342.242188 119.1875 L 324.378906 127.1875 C 324.777344 127.988281 325.179688 128.921875 325.578125 129.855469 Z M 298.246094 87.054688 L 299.179688 88.125 L 313.84375 75.058594 L 312.777344 73.855469 L 311.578125 72.65625 L 297.179688 85.988281 Z M 320.777344 119.453125 L 321.445312 120.789062 L 338.910156 111.988281 L 338.109375 110.523438 L 337.3125 109.054688 L 319.976562 118.121094 Z M 305.578125 95.722656 L 321.046875 83.722656 C 320.378906 82.789062 319.578125 81.988281 318.910156 81.058594 L 303.710938 93.457031 C 304.378906 94.257812 305.046875 94.921875 305.578125 95.722656 Z M 311.445312 103.722656 L 327.578125 92.65625 L 325.710938 89.855469 L 309.710938 101.1875 Z M 316.644531 112.121094 L 333.578125 102.253906 C 333.042969 101.324219 332.511719 100.253906 331.84375 99.324219 L 315.179688 109.589844 C 315.710938 110.386719 316.246094 111.320312 316.644531 112.121094 Z M 316.644531 112.121094 " fill-opacity="1" fill-rule="nonzero"/></g><g clip-path="url(#ff9f66e08a)"><path fill="#100f0d" d="M 81.886719 235.863281 L 81.847656 222.808594 C 81.832031 218.371094 85.410156 214.753906 89.832031 214.742188 C 89.679688 165.949219 88.589844 166.160156 92.597656 166.144531 C 102.949219 126.90625 128.84375 112.628906 128.84375 112.628906 L 121.671875 166.046875 C 125.210938 166.035156 124.242188 170 124.285156 181.128906 L 192.953125 180.921875 C 196.214844 175.945312 201.726562 172.949219 207.65625 172.9375 L 292.726562 168.683594 C 300.355469 168.308594 306.753906 174.390625 306.78125 182.058594 L 306.824219 196.390625 C 306.851562 204.054688 300.480469 210.179688 292.851562 209.847656 L 207.765625 206.132812 C 201.839844 206.148438 196.296875 203.179688 193.007812 198.246094 L 124.339844 198.453125 L 124.382812 214.628906 C 128.816406 214.617188 132.410156 218.207031 132.425781 222.640625 L 132.464844 235.699219 C 132.480469 238.222656 130.449219 240.273438 127.933594 240.285156 L 86.449219 240.410156 C 83.933594 240.410156 81.886719 238.386719 81.886719 235.863281 " fill-opacity="1" fill-rule="nonzero"/></g><g clip-path="url(#4aa711b40f)"><path fill="#100f0d" d="M 181 234.355469 L 181 140.960938 C 200.679688 131.855469 200.914062 103.894531 181.46875 94.414062 L 181.46875 118.117188 C 181.46875 118.117188 171.160156 125.132812 170.273438 126.019531 C 169.390625 125.132812 159.082031 118.117188 159.082031 118.117188 L 159.082031 94.414062 C 139.597656 103.910156 139.914062 131.867188 159.539062 140.960938 L 159.539062 234.355469 C 139.871094 243.460938 139.636719 271.417969 159.082031 280.898438 L 159.082031 257.195312 C 159.082031 257.195312 169.390625 250.183594 170.273438 249.296875 C 171.160156 250.183594 181.46875 257.195312 181.46875 257.195312 L 181.46875 280.898438 C 200.953125 271.402344 200.636719 243.445312 181 234.355469 " fill-opacity="1" fill-rule="nonzero"/></g></svg>