<?xml version="1.0" encoding="UTF-8"?> <svg xmlns="http://www.w3.org/2000/svg" xmlns:xlink="http://www.w3.org/1999/xlink" width="2148px" height="2148px" viewBox="0 0 2148 2148" version="1.1"><title>Slice</title><g id="Page-1" stroke="none" stroke-width="1" fill="none" fill-rule="evenodd"><g id="Apple-Black" transform="translate(-0.328984, 1.200000)" fill="#000000" fill-rule="nonzero"><path d="M1461.02898,1141.3 C1464.02898,1466.4 1746.22898,1574.6 1749.32898,1576 C1746.92898,1583.6 1704.22898,1730.2 1600.62898,1881.6 C1511.12898,2012.5 1418.12898,2142.9 1271.72898,2145.6 C1127.82898,2148.3 1081.62898,2060.3 917.128984,2060.3 C752.728984,2060.3 701.328984,2142.9 565.128984,2148.3 C423.828984,2153.7 316.228984,2006.8 225.928984,1876.4 C41.5289841,1609.5 -99.4710159,1122.6 89.8289841,793.8 C183.828984,630.6 351.928984,527.2 534.328984,524.5 C673.128984,521.9 804.028984,617.9 888.928984,617.9 C973.728984,617.9 1132.82898,502.4 1300.22898,519.4 C1370.22898,522.3 1566.92898,547.7 1693.12898,732.5 C1683.02898,738.8 1458.52898,869.5 1461.02898,1141.3 M1190.62898,343 C1265.62898,252.2 1316.12898,125.8 1302.32898,0 C1194.22898,4.3 1063.42898,72.1 985.828984,162.8 C916.328984,243.2 855.428984,371.8 871.828984,495.1 C992.428984,504.4 1115.62898,433.8 1190.62898,343" id="Shape"></path></g></g></svg> 