<svg xmlns="http://www.w3.org/2000/svg" xmlns:xlink="http://www.w3.org/1999/xlink" width="100%" height="100%"
  viewBox="0 0 33.86 33.86" focusable="false">
  <defs>
    <clipPath>
      <rect width="33.86" height="33.86" transform="translate(410.514 914.07)" fill="#ff0090"></rect>
    </clipPath>
  </defs>
  <g transform="translate(-410.514 -914.07)"
    clip-path="url('/41382/smartpage/create/switchy2.zaions.com/CSY8?navigate=design#clip-path_audio_block')">
    <g transform="translate(410.514 914.07)">
      <path
        d="M16.94,27.485a1.538,1.538,0,0,1-2.519,1.184L6.015,21.7H1.538A1.537,1.537,0,0,1,0,20.165V14.039A1.538,1.538,0,0,1,1.538,12.5H6.015l8.406-6.966A1.538,1.538,0,0,1,16.941,6.72V27.485Zm5.909-2.4c-.037,0-.074,0-.111,0a1.536,1.536,0,0,1-1.087-.45l-.206-.206a1.537,1.537,0,0,1-.148-2,8.941,8.941,0,0,0-.237-10.957,1.536,1.536,0,0,1,.106-2.056l.205-.206a1.5,1.5,0,0,1,1.164-.448,1.54,1.54,0,0,1,1.114.562,12.314,12.314,0,0,1,.321,15.147A1.539,1.539,0,0,1,22.849,25.082Zm6.357,4.752a1.539,1.539,0,0,1-1.111.544h-.064a1.536,1.536,0,0,1-1.087-.45l-.2-.2a1.538,1.538,0,0,1-.09-2.077,16.386,16.386,0,0,0-.271-21.41,1.538,1.538,0,0,1,.062-2.1l.2-.2a1.5,1.5,0,0,1,1.134-.452,1.538,1.538,0,0,1,1.1.516,19.743,19.743,0,0,1,.324,25.837Z"
        fill="#ff0090"></path>
    </g>
  </g>
</svg>
