<?xml version="1.0" encoding="UTF-8"?> <svg xmlns="http://www.w3.org/2000/svg" xmlns:xlink="http://www.w3.org/1999/xlink" width="60px" height="60px" viewBox="0 0 60 60" version="1.1"><title>large / branding 2</title><g id="Icons" stroke="none" stroke-width="1" fill="none" fill-rule="evenodd"><g id="large-/-branding-2"><g id="Fill" transform="translate(27.437555, 32.563314) rotate(-270.000000) translate(-27.437555, -32.563314) translate(5.937555, 11.063314)"><path d="M14.8684608,0.140243583 C22.5541114,-0.848887763 29.9395763,3.47154785 32.8442185,10.6559067 C33.284939,11.7459872 32.7585624,12.9869603 31.6685235,13.4276977 C30.5784847,13.868435 29.3375591,13.3420383 28.8968386,12.2519577 C26.7178541,6.86244489 21.1774862,3.62137568 15.411932,4.36339358 C14.098945,4.26178946 13.4424514,3.59582933 13.4424514,2.36551317 C13.4424514,1.13519702 13.9177879,0.393440492 14.8684608,0.140243583 Z M4.36364671,15.4093474 C3.62018385,21.1749798 6.85969569,26.71643 12.2484093,28.8968895 C13.3383335,29.3379104 13.8643872,30.5790204 13.4233831,31.6689863 C12.9823791,32.7589521 11.7413166,33.285026 10.6513924,32.844005 C3.46809235,29.937394 -0.850256748,22.5505043 0.140796751,14.8647806 C0.469864076,13.937555 1.3135242,13.594729 2.67177713,13.8363026 C4.03003006,14.0778762 4.59398658,14.6022245 4.36364671,15.4093474 Z" id="Path" fill="#FFDF87" fill-rule="nonzero"></path><path d="M15.0734831,17.3384254 L20.9600547,36.9599617 C21.1440735,37.5750321 21.637904,38.0479909 22.2602322,38.2051871 C22.8825605,38.3623834 23.5416813,38.180653 23.9955928,37.7267198 L26.9937906,34.727795 L34.7298001,42.46568 C35.071712,42.807793 35.535515,43 36.019135,43 C36.502755,43 36.966558,42.807793 37.3084699,42.46568 L42.4658095,37.30709 C42.8078396,36.9650952 43,36.5011798 43,36.0174425 C43,35.5337053 42.8078396,35.0697898 42.4658095,34.727795 L34.7298001,26.98991 L37.727998,23.9997733 C38.1818673,23.5460623 38.3638484,22.887093 38.2071593,22.2646883 C38.0504701,21.6422835 37.5781863,21.148104 36.9636222,20.9634993 L17.3446454,15.0755005 C16.7039796,14.8853154 16.0106246,15.0605394 15.5371605,15.5322863 C15.0636963,16.0040332 14.8858287,16.6968719 15.0734831,17.3384254 Z" id="Path"></path></g><g id="Path" transform="translate(30.563314, 29.562445) rotate(-270.000000) translate(-30.563314, -29.562445) translate(6.063314, 5.062445)" stroke="#000000" stroke-linecap="round" stroke-linejoin="round" stroke-width="2.16"><path d="M21.0734831,23.3384254 L26.9600547,42.9599617 C27.1440735,43.5750321 27.637904,44.0479909 28.2602322,44.2051871 C28.8825605,44.3623834 29.5416813,44.180653 29.9955928,43.7267198 L32.9937906,40.727795 L40.7298001,48.46568 C41.071712,48.807793 41.535515,49 42.019135,49 C42.502755,49 42.966558,48.807793 43.3084699,48.46568 L48.4658095,43.30709 C48.8078396,42.9650952 49,42.5011798 49,42.0174425 C49,41.5337053 48.8078396,41.0697898 48.4658095,40.727795 L40.7298001,32.98991 L43.727998,29.9997733 C44.1818673,29.5460623 44.3638484,28.887093 44.2071593,28.2646883 C44.0504701,27.6422835 43.5781863,27.148104 42.9636222,26.9634993 L23.3446454,21.0755005 C22.7039796,20.8853154 22.0106246,21.0605394 21.5371605,21.5322863 C21.0636963,22.0040332 20.8858287,22.6968719 21.0734831,23.3384254 Z"></path><path d="M45,20.9243399 C44.1435523,8.92918945 34.0170107,-0.278545567 21.9947779,0.00643961143 C20.5508662,0.0406673159 19.140757,0.210376497 17.7766614,0.503358077 M0.366177415,18.4682141 C0.15741062,19.6144118 0.0351943712,20.790977 0.00653670159,21.990903 C-0.280589268,34.0131617 8.92528192,44.1414091 20.9202028,45" id="Shape"></path><path d="M35,18.1109947 C32.7890751,12.6424494 27.167489,9.35384958 21.3174128,10.1067496 M10.1071703,21.3146815 C9.35281014,27.1648565 12.6398066,32.7875649 18.1075129,35" id="Shape"></path></g><g id="Fill" transform="translate(41.005657, 4.482108)" fill="#FFDF87"><path d="M7.84909555,0.498058963 L9.64756102,4.65281109 L13.1476155,4.65281109 C13.5099355,4.63800869 13.8424257,4.85262995 13.9781274,5.18890359 C14.113829,5.52517724 14.0234254,5.91045532 13.7523124,6.1512719 L10.7147651,8.86225157 L12.3976038,12.7294992 C12.5492324,13.0927805 12.4521376,13.5123059 12.1563205,13.7720304 C11.8605035,14.0317549 11.4319417,14.0737511 11.0913335,13.8763921 L7.02877028,11.587294 L2.96620709,13.8763921 C2.6255989,14.0737511 2.19703705,14.0317549 1.90122003,13.7720304 C1.60540301,13.5123059 1.50830812,13.0927805 1.65993677,12.7294992 L3.34433797,8.86225157 L0.28804043,6.1512719 C0.0174558327,5.91081655 -0.073067509,5.52638649 0.0617938523,5.1904591 C0.196655214,4.85453171 0.527873002,4.63941379 0.889612288,4.65281109 L4.39122926,4.65281109 L6.19281978,0.498058963 C6.35544528,0.191597222 6.67401984,0 7.02095766,0 C7.36789548,0 7.68647005,0.191597222 7.84909555,0.498058963 Z"></path></g><path d="M47.8623139,3.48906462 C47.2102331,3.54443009 46.6253804,3.92679143 46.3151434,4.51142144 L44.741,8.134 L41.8952693,8.13491894 C41.1488473,8.10658901 40.4315164,8.57247803 40.139442,9.30000867 L40.0875064,9.44679188 C39.8752409,10.1371634 40.0824852,10.8948316 40.6294328,11.3808773 L43.143,13.61 L41.748783,16.8122851 C41.4258076,17.5857828 41.6287624,18.4627051 42.2471006,19.0056002 L42.3743312,19.1080976 C42.9840632,19.5579761 43.8087142,19.6087765 44.4732139,19.2237446 L48.034,17.217 L51.606093,19.2297173 C52.3076046,19.6362788 53.2034157,19.5484952 53.8217539,19.0056002 L53.9398522,18.8927013 C54.4648421,18.3463047 54.6219173,17.535159 54.3261017,16.8264258 L52.926,13.608 L55.4238326,11.3794536 C56.0092267,10.8594801 56.2050172,10.0250688 55.911123,9.29678823 L55.8467687,9.15471417 C55.5442043,8.55488184 54.9396283,8.16463014 54.2684215,8.13589661 L51.309,8.134 L49.7724634,4.58291777 C49.4019959,3.87807226 48.7436137,3.48210785 48.0266147,3.48210785 L47.8623139,3.48906462 Z M48.028,5.579 L49.7355072,9.53216797 L49.7955677,9.64920759 C49.9745012,9.94777869 50.2988081,10.1349189 50.653218,10.1349189 L53.814,10.134 L51.0545589,12.5982856 L50.9646059,12.6895157 C50.7149404,12.9774488 50.6484364,13.3870816 50.8034758,13.74337 L52.382,17.371 L48.5253247,15.1981845 L48.4081432,15.141842 C48.128561,15.0291572 47.8101787,15.047938 47.5435298,15.1981845 L43.686,17.371 L45.2668057,13.7436814 L45.3104757,13.6228488 C45.417046,13.2558467 45.3051008,12.8548417 45.013575,12.5962542 L42.238,10.134 L45.3968862,10.1349189 C45.7953675,10.1349189 46.1558175,9.8983393 46.3143453,9.53274907 L48.028,5.579 Z" id="Path" fill="#000000" fill-rule="nonzero"></path></g></g></svg> 