<svg xmlns="http://www.w3.org/2000/svg" width="100%" height="100%" viewBox="0 0 33.863 33.863" focusable="false">
  <defs>
    <clipPath>
      <path d="M0 0H33.863V33.863H0z" class="block_card_cls-1-card"></path>
    </clipPath>
    <style>
      .block_card_cls-1-card {
        fill: #70f
      }

    </style>
  </defs>
  <g>
    <g transform="translate(0 4.233)">
      <path d="M8.739 5.917A2.822 2.822 0 1 1 5.917 3.1a2.822 2.822 0 0 1 2.822 2.817zm0 0"
        class="block_card_cls-1-card" transform="translate(1.138 1.138)"></path>
      <path
        d="M29.63 0H4.233A4.238 4.238 0 0 0 0 4.233v16.932c0 .079.02.154.024.233a1.042 1.042 0 0 0 .051.5 4.231 4.231 0 0 0 4.158 3.5h25.4a4.238 4.238 0 0 0 4.233-4.233V4.233A4.238 4.238 0 0 0 29.63 0zM4.233 2.822h25.4a1.413 1.413 0 0 1 1.411 1.411v11.2l-7.424-7.42a2.476 2.476 0 0 0-3.5 0l-6.72 6.716-1.778-1.778a2.476 2.476 0 0 0-3.5 0l-5.3 5.305V4.233a1.413 1.413 0 0 1 1.411-1.411zm0 0"
        class="block_card_cls-1-card"></path>
    </g>
  </g>
</svg>
