<svg xmlns="http://www.w3.org/2000/svg" width="100%" height="100%" viewBox="0 0 24.76 24.76" focusable="false">
  <g transform="translate(13898 -20109)">
    <g transform="translate(-13898 20109)">
      <path d="M0,0H24.76V24.76H0Z" fill="none"></path>
      <g transform="translate(0 2.719)">
        <g transform="translate(0 0)" fill="none" stroke="#fff" stroke-width="2">
          <rect width="24.76" height="18.749" rx="4" stroke="none"></rect>
          <rect x="1" y="1" width="22.76" height="16.749" rx="3" fill="none"></rect>
        </g>
        <g transform="translate(0 0)" fill="none" stroke="#fff" stroke-width="2">
          <path d="M4,0H20.76a4,4,0,0,1,4,4v8.415a0,0,0,0,1,0,0H0a0,0,0,0,1,0,0V4A4,4,0,0,1,4,0Z" stroke="none"></path>
          <path d="M4,1H20.76a3,3,0,0,1,3,3v6.415a1,1,0,0,1-1,1H2a1,1,0,0,1-1-1V4A3,3,0,0,1,4,1Z" fill="none"></path>
        </g>
      </g>
    </g>
  </g>
</svg>
