<svg xmlns="http://www.w3.org/2000/svg" width="100%" height="100%" viewBox="0 0 24.761 24.761" focusable="false">
  <g transform="translate(-187.837 -232.837)">
    <g transform="translate(187.837 232.837)" fill="none" stroke="#fff" stroke-width="2">
      <rect width="24.761" height="24.761" rx="4" stroke="none"></rect>
      <rect x="1" y="1" width="22.761" height="22.761" rx="3" fill="none"></rect>
    </g>
    <g transform="translate(187.838 232.838)" fill="none" stroke="#fff" stroke-width="2">
      <path d="M4,0H20.761a4,4,0,0,1,4,4V18.761a0,0,0,0,1,0,0H0a0,0,0,0,1,0,0V4A4,4,0,0,1,4,0Z" stroke="none"></path>
      <path d="M4,1H20.761a3,3,0,0,1,3,3V16.761a1,1,0,0,1-1,1H2a1,1,0,0,1-1-1V4A3,3,0,0,1,4,1Z" fill="none"></path>
    </g>
  </g>
</svg>
