<svg xmlns="http://www.w3.org/2000/svg" xmlns:xlink="http://www.w3.org/1999/xlink" width="887" height="887"
  viewBox="0 0 887 887">
  <defs>
    <clipPath id="clip-path">
      <rect id="Rectangle_8874" data-name="Rectangle 8874" width="233.84" height="233.84" fill="#fff" />
    </clipPath>
  </defs>
  <g id="Groupe_10209" data-name="Groupe 10209" transform="translate(2057 -17705)">
    <rect id="Rectangle_8871" data-name="Rectangle 8871" width="887" height="887" transform="translate(-2057 17705)"
      fill="#fff" opacity="0" />
    <g id="Groupe_de_masques_988" data-name="Groupe de masques 988" transform="translate(-1730.617 18031.67)"
      clip-path="url(#clip-path)">
      <path id="carousel_1_" data-name="carousel (1)"
        d="M206.437,31.97H188.168V27.4A27.433,27.433,0,0,0,160.765,0H73.075a27.433,27.433,0,0,0-27.4,27.4V31.97H27.4A27.433,27.433,0,0,0,0,59.373V174.01a27.433,27.433,0,0,0,27.4,27.4H45.672v5.024a27.433,27.433,0,0,0,27.4,27.4h87.69a27.433,27.433,0,0,0,27.4-27.4v-5.024h18.269a27.433,27.433,0,0,0,27.4-27.4V59.373A27.433,27.433,0,0,0,206.437,31.97ZM27.4,183.144a9.145,9.145,0,0,1-9.134-9.134V59.373A9.145,9.145,0,0,1,27.4,50.239H45.672V183.144Zm142.5,23.293a9.145,9.145,0,0,1-9.134,9.134H73.075a9.145,9.145,0,0,1-9.134-9.134V27.4a9.145,9.145,0,0,1,9.134-9.134h87.69A9.145,9.145,0,0,1,169.9,27.4Zm45.672-32.427a9.145,9.145,0,0,1-9.134,9.134H188.168V50.239h18.269a9.145,9.145,0,0,1,9.134,9.134Zm0,0"
        fill="#fff" />
    </g>
  </g>
</svg>
