<svg xmlns="http://www.w3.org/2000/svg" width="100%" height="100%" viewBox="0 0 33.863 33.863" focusable="false">
  <defs>
    <clipPath>
      <path d="M0 0H33.863V33.863H0z" class="block_carousel_cls-1-carousel"></path>
    </clipPath>
    <style>
      .block_carousel_cls-1-carousel {
        fill: #ff01aa
      }

    </style>
  </defs>
  <g>
    <path
      d="M29.895 4.63h-2.646v-.662A3.973 3.973 0 0 0 23.281 0h-12.7a3.973 3.973 0 0 0-3.967 3.968v.662H3.968A3.973 3.973 0 0 0 0 8.6v16.6a3.973 3.973 0 0 0 3.968 3.968h2.646v.728a3.973 3.973 0 0 0 3.968 3.968h12.7a3.973 3.973 0 0 0 3.968-3.968v-.728h2.646a3.973 3.973 0 0 0 3.967-3.968V8.6a3.973 3.973 0 0 0-3.968-3.97zM3.968 26.522A1.324 1.324 0 0 1 2.646 25.2V8.6a1.324 1.324 0 0 1 1.322-1.325h2.646v19.247zM24.6 29.895a1.324 1.324 0 0 1-1.323 1.323h-12.7a1.324 1.324 0 0 1-1.323-1.323V3.968a1.324 1.324 0 0 1 1.323-1.323h12.7A1.324 1.324 0 0 1 24.6 3.968zm6.614-4.7a1.324 1.324 0 0 1-1.323 1.323h-2.642V7.275h2.646A1.324 1.324 0 0 1 31.218 8.6zm0 0"
      class="block_carousel_cls-1-carousel"></path>
  </g>
</svg>
