<?xml version="1.0" encoding="UTF-8"?> <svg xmlns="http://www.w3.org/2000/svg" xmlns:xlink="http://www.w3.org/1999/xlink" width="40px" height="40px" viewBox="0 0 40 40" version="1.1"><title>Checkmark</title><defs><rect id="path-1" x="920" y="523" width="360" height="291" rx="3"></rect><filter x="-4.3%" y="-5.0%" width="108.6%" height="110.7%" filterUnits="objectBoundingBox" id="filter-2"><feOffset dx="0" dy="1" in="SourceAlpha" result="shadowOffsetOuter1"></feOffset><feGaussianBlur stdDeviation="5" in="shadowOffsetOuter1" result="shadowBlurOuter1"></feGaussianBlur><feColorMatrix values="0 0 0 0 0 0 0 0 0 0 0 0 0 0 0 0 0 0 0.08 0" type="matrix" in="shadowBlurOuter1" result="shadowMatrixOuter1"></feColorMatrix><feOffset dx="0" dy="4" in="SourceAlpha" result="shadowOffsetOuter2"></feOffset><feGaussianBlur stdDeviation="2.5" in="shadowOffsetOuter2" result="shadowBlurOuter2"></feGaussianBlur><feColorMatrix values="0 0 0 0 0 0 0 0 0 0 0 0 0 0 0 0 0 0 0.1 0" type="matrix" in="shadowBlurOuter2" result="shadowMatrixOuter2"></feColorMatrix><feMorphology radius="0.5" operator="erode" in="SourceAlpha" result="shadowSpreadOuter3"></feMorphology><feOffset dx="0" dy="2" in="shadowSpreadOuter3" result="shadowOffsetOuter3"></feOffset><feGaussianBlur stdDeviation="2" in="shadowOffsetOuter3" result="shadowBlurOuter3"></feGaussianBlur><feColorMatrix values="0 0 0 0 0 0 0 0 0 0 0 0 0 0 0 0 0 0 0.12 0" type="matrix" in="shadowBlurOuter3" result="shadowMatrixOuter3"></feColorMatrix><feMerge><feMergeNode in="shadowMatrixOuter1"></feMergeNode><feMergeNode in="shadowMatrixOuter2"></feMergeNode><feMergeNode in="shadowMatrixOuter3"></feMergeNode></feMerge></filter></defs><g id="Page-components" stroke="none" stroke-width="1" fill="none" fill-rule="evenodd"><g id="Cards-/-3-Column-Group---XL" transform="translate(-956.000000, -559.000000)"><rect fill="#FFFFFF" x="0" y="0" width="1441" height="861"></rect><rect id="Rectangle" fill="#F5F6F7" x="0" y="165" width="1441" height="696"></rect><g id="Rectangle-Copy-7"><use fill="black" fill-opacity="1" filter="url(#filter-2)" xlink:href="#path-1"></use><use fill="#FFFFFF" fill-rule="evenodd" xlink:href="#path-1"></use></g><circle id="Oval" fill="#7DBF5C" cx="976" cy="579" r="20"></circle><g id="Group" transform="translate(963.233930, 567.781683)" fill="#FFFFFF"><path d="M6.49052314,10.0901128 L14.0211788,14.4379389 C15.6848053,15.3984341 16.2548059,17.5257051 15.2943107,19.1893316 C14.3338155,20.8529581 12.2065445,21.4229586 10.542918,20.4624634 L3.01226227,16.1146373 C1.34863576,15.1541421 0.778635218,13.0268711 1.73913043,11.3632446 C2.69962565,9.69961811 4.82689663,9.12961757 6.49052314,10.0901128 Z" id="Rectangle"></path><path d="M22.9782582,6.49052314 L15.7318814,19.041616 C14.7713862,20.7052425 12.6441152,21.275243 10.9804887,20.3147478 C9.31686215,19.3542526 8.74686161,17.2269816 9.70735683,15.5633551 L16.9537336,3.01226227 C17.9142289,1.34863576 20.0414998,0.778635218 21.7051263,1.73913043 C23.3687529,2.69962565 23.9387534,4.82689663 22.9782582,6.49052314 Z" id="Rectangle-Copy-2"></path></g></g></g></svg> 