<?xml version="1.0" encoding="UTF-8"?> <svg xmlns="http://www.w3.org/2000/svg" xmlns:xlink="http://www.w3.org/1999/xlink" width="327px" height="328px" viewBox="0 0 327 328" version="1.1"><title>Slice</title><defs><circle id="path-1" cx="163" cy="163" r="163"></circle><circle id="path-3" cx="163" cy="163" r="163"></circle><circle id="path-5" cx="163" cy="163" r="163"></circle><circle id="path-7" cx="163" cy="163" r="163"></circle><polygon id="path-9" points="5.68434189e-14 295.5 155.2 295.5 227.2 223.5 227.2 169.5 98.9 169.5 5.68434189e-14 -1.42108547e-14"></polygon><linearGradient x1="40.9861716%" y1="-4.81044477%" x2="49.246722%" y2="45.4291842%" id="linearGradient-11"><stop stop-color="#EA6100" offset="0%"></stop><stop stop-color="#EA6100" offset="66%"></stop></linearGradient><circle id="path-12" cx="163" cy="163" r="163"></circle><circle id="path-14" cx="163" cy="163" r="163"></circle><circle id="path-16" cx="163" cy="163" r="163"></circle></defs><g id="Page-1" stroke="none" stroke-width="1" fill="none" fill-rule="evenodd"><g id="Google-Chrome-2022-New" transform="translate(-14.200000, 1.300000)"><g id="Group" transform="translate(14.800000, -0.000000)"><g id="SVGID_1_-link" fill="#F4191C" fill-rule="nonzero"><circle id="SVGID_1_" cx="163" cy="163" r="163"></circle></g><g id="Clipped"><mask id="mask-2" fill="white"><use xlink:href="#path-1"></use></mask><g id="SVGID_1_"></g><g id="Group" mask="url(#mask-2)" fill="#F4191C" fill-rule="nonzero"><g transform="translate(25.900000, -0.100000)" id="Path"><polygon points="0 1.42108547e-14 0 200.1 73 200.1 137.1 88.9 300.1 88.9 300.1 1.42108547e-14"></polygon><polygon points="0 1.42108547e-14 0 200.1 73 200.1 137.1 88.9 300.1 88.9 300.1 1.42108547e-14"></polygon></g></g></g></g><g id="Clipped" transform="translate(14.800000, -0.000000)"><mask id="mask-4" fill="white"><use xlink:href="#path-3"></use></mask><g id="SVGID_5_"></g><polygon id="Path" fill-opacity="0.15" fill="#3E2723" fill-rule="nonzero" mask="url(#mask-4)" points="100.6 199.4 26.8 72.8 25.8 74.7 99 200.3"></polygon></g><g id="Clipped" transform="translate(14.800000, -0.000000)"><mask id="mask-6" fill="white"><use xlink:href="#path-5"></use></mask><g id="SVGID_7_"></g><g id="Group" mask="url(#mask-6)" fill-rule="nonzero"><g transform="translate(-0.000000, 30.500000)" id="Path"><polygon fill="#0F9D58" points="5.68434189e-14 295.5 155.2 295.5 227.2 223.5 227.2 169.5 98.9 169.5 5.68434189e-14 -1.42108547e-14"></polygon><polygon fill="#00A340" points="5.68434189e-14 295.5 155.2 295.5 227.2 223.5 227.2 169.5 98.9 169.5 5.68434189e-14 -1.42108547e-14"></polygon></g></g></g><g id="Clipped" transform="translate(14.800000, -0.000000)"><mask id="mask-8" fill="white"><use xlink:href="#path-7"></use></mask><g id="SVGID_11_"></g><polygon id="Path" fill-opacity="0.15" fill="#263238" fill-rule="nonzero" mask="url(#mask-8)" points="225.7 202.5 224.1 201.6 153 326 155.2 326 225.8 202.5"></polygon></g><g id="Group"><g id="Clipped" transform="translate(14.800000, 30.500000)"><mask id="mask-10" fill="white"><use xlink:href="#path-9"></use></mask><g id="SVGID_13_"></g><g id="Group" mask="url(#mask-10)" fill-rule="nonzero"><g transform="translate(155.200000, 58.300000)" id="Path"><polygon fill="#FFCD40" points="7.8 5.68434189e-14 72 111.2 -5.68434189e-14 237.2 170.8 237.2 170.8 5.68434189e-14"></polygon><polygon fill="url(#linearGradient-11)" points="7.8 5.68434189e-14 72 111.2 -5.68434189e-14 237.2 170.8 237.2 170.8 5.68434189e-14"></polygon></g></g></g><g id="Clipped" transform="translate(14.800000, -0.000000)"><mask id="mask-13" fill="white"><use xlink:href="#path-12"></use></mask><g id="SVGID_18_"></g><g id="Group" mask="url(#mask-13)" fill="#FFBD02" fill-rule="nonzero"><g transform="translate(155.200000, 81.600000)" id="Path"><polygon points="8 0 74.2 114.6 0 244.4 176 244.4 176 0"></polygon><polygon points="8 0 74.2 114.6 0 244.4 176 244.4 176 0"></polygon></g></g></g><g><g transform="translate(14.800000, -0.000000)" id="Clipped"><g><mask id="mask-15" fill="white"><use xlink:href="#path-14"></use></mask><g id="SVGID_24_"></g><g id="Group" mask="url(#mask-15)" fill-rule="nonzero"><g transform="translate(81.600000, 81.600000)" id="Oval"><circle fill="#F1F1F1" cx="81.4" cy="81.4" r="81.4"></circle><circle fill="#4285F4" cx="81.4" cy="81.4" r="65"></circle></g></g></g><g><mask id="mask-17" fill="white"><use xlink:href="#path-16"></use></mask><g id="SVGID_26_"></g><path d="M227.1,200 C214.3,222.2 190.4,237.1 163,237.1 C135.6,237.1 111.7,222.2 98.9,200 L98.8,200 L-5.68434189e-14,30.5 L-5.68434189e-14,32.4 L98.9,201.8 L99,201.8 C111.8,224 135.7,238.9 163.1,238.9 C190.5,238.9 214.4,224 227.2,201.8 L227.3,201.8 L227.3,199.9 L227.1,200 L227.1,200 Z" id="Path" fill-opacity="0.1" fill="#FFFFFF" fill-rule="nonzero" mask="url(#mask-17)"></path></g></g><rect id="Rectangle" x="5.68434189e-14" y="25.4" width="355.7" height="355.7"></rect></g></g></g></g></svg> 