<svg xmlns="http://www.w3.org/2000/svg" xmlns:xlink="http://www.w3.org/1999/xlink" width="457.854" height="221.313" viewBox="0 0 457.854 221.313">
  <defs>
    <filter id="Rectangle_6604" x="72" y="85.019" width="204.883" height="74.158" filterUnits="userSpaceOnUse">
      <feOffset dy="3" input="SourceAlpha"/>
      <feGaussianBlur stdDeviation="3" result="blur"/>
      <feFlood flood-opacity="0.161"/>
      <feComposite operator="in" in2="blur"/>
      <feComposite in="SourceGraphic"/>
    </filter>
    <filter id="Rectangle_6604-2" x="44" y="124.019" width="299.883" height="74.158" filterUnits="userSpaceOnUse">
      <feOffset dy="3" input="SourceAlpha"/>
      <feGaussianBlur stdDeviation="3" result="blur-2"/>
      <feFlood flood-opacity="0.161"/>
      <feComposite operator="in" in2="blur-2"/>
      <feComposite in="SourceGraphic"/>
    </filter>
    <filter id="Rectangle_6604-3" x="0" y="41.019" width="318.883" height="74.158" filterUnits="userSpaceOnUse">
      <feOffset dy="3" input="SourceAlpha"/>
      <feGaussianBlur stdDeviation="3" result="blur-3"/>
      <feFlood flood-opacity="0.161"/>
      <feComposite operator="in" in2="blur-3"/>
      <feComposite in="SourceGraphic"/>
    </filter>
  </defs>
  <g id="Groupe_7053" data-name="Groupe 7053" transform="translate(-985.439 -395.282)">
    <path id="Tracé_30317" data-name="Tracé 30317" d="M126.616-377.186C87.932-450.356,129-477.392,208.693-477.392s140.934,20.764,195.5,46.064,45.141,46.863,10.671,75.667-42.726,75.334-118.48,70.723S165.3-304.016,126.616-377.186Z" transform="matrix(1, 0.017, -0.017, 1, 992.109, 888.494)" fill="#e8f1fd"/>
    <g transform="matrix(1, 0, 0, 1, 985.44, 395.28)" filter="url(#Rectangle_6604)">
      <g id="Rectangle_6604-4" data-name="Rectangle 6604" transform="translate(81 91.02)" fill="none" stroke="#7c859d" stroke-width="2" stroke-dasharray="5">
        <rect width="186.883" height="56.158" rx="4" stroke="none"/>
        <rect x="1" y="1" width="184.883" height="54.158" rx="3" fill="none"/>
      </g>
    </g>
    <g transform="matrix(1, 0, 0, 1, 985.44, 395.28)" filter="url(#Rectangle_6604-2)">
      <rect id="Rectangle_6604-5" data-name="Rectangle 6604" width="281.883" height="56.158" rx="4" transform="translate(53 130.02)" fill="#fff"/>
    </g>
    <path id="Tracé_30546" data-name="Tracé 30546" d="M7.371-10.521q3.612,0,3.612,4.221v5.166a1.227,1.227,0,0,1-.346.924,1.315,1.315,0,0,1-.955.336A1.352,1.352,0,0,1,8.715-.21a1.207,1.207,0,0,1-.357-.924V-6.3a2.43,2.43,0,0,0-.452-1.628,1.791,1.791,0,0,0-1.418-.514,2.4,2.4,0,0,0-1.817.714A2.65,2.65,0,0,0,3.99-5.817v4.683a1.208,1.208,0,0,1-.357.924,1.352,1.352,0,0,1-.966.336A1.315,1.315,0,0,1,1.712-.21a1.227,1.227,0,0,1-.346-.924V-13.692a1.139,1.139,0,0,1,.367-.882,1.361,1.361,0,0,1,.956-.336,1.376,1.376,0,0,1,.945.315,1.089,1.089,0,0,1,.357.861v4.893a3.438,3.438,0,0,1,1.4-1.249A4.423,4.423,0,0,1,7.371-10.521ZM15.624.126A1.357,1.357,0,0,1,14.689-.2a1.183,1.183,0,0,1-.368-.935V-9.24a1.15,1.15,0,0,1,.368-.924,1.385,1.385,0,0,1,.934-.315,1.426,1.426,0,0,1,.945.315,1.134,1.134,0,0,1,.378.924v8.106a1.166,1.166,0,0,1-.378.935A1.4,1.4,0,0,1,15.624.126Zm0-12.474a1.6,1.6,0,0,1-1.134-.389,1.322,1.322,0,0,1-.42-1.019,1.29,1.29,0,0,1,.42-1.008,1.632,1.632,0,0,1,1.134-.378,1.641,1.641,0,0,1,1.123.378,1.275,1.275,0,0,1,.431,1.008,1.322,1.322,0,0,1-.42,1.019A1.6,1.6,0,0,1,15.624-12.348ZM21.567.126a1.49,1.49,0,0,1-1.113-.452,1.544,1.544,0,0,1-.441-1.124,1.544,1.544,0,0,1,.441-1.123,1.49,1.49,0,0,1,1.113-.452,1.49,1.49,0,0,1,1.113.452,1.544,1.544,0,0,1,.441,1.123A1.544,1.544,0,0,1,22.68-.326,1.49,1.49,0,0,1,21.567.126Zm8.4.042a6.752,6.752,0,0,1-3.7-.9A1.253,1.253,0,0,1,25.6-1.869a1,1,0,0,1,.231-.683.727.727,0,0,1,.567-.263,2.32,2.32,0,0,1,.987.336A9.193,9.193,0,0,0,28.612-2a5,5,0,0,0,1.417.168,2.7,2.7,0,0,0,1.375-.294A.911.911,0,0,0,31.9-2.94a.789.789,0,0,0-.2-.567,1.829,1.829,0,0,0-.714-.388,15.014,15.014,0,0,0-1.565-.41,6.011,6.011,0,0,1-2.677-1.071,2.383,2.383,0,0,1-.809-1.911,2.757,2.757,0,0,1,.546-1.669,3.538,3.538,0,0,1,1.5-1.155,5.47,5.47,0,0,1,2.174-.41,6.515,6.515,0,0,1,1.7.22,5.171,5.171,0,0,1,1.47.641A1.267,1.267,0,0,1,34-8.547a1.077,1.077,0,0,1-.231.7.706.706,0,0,1-.567.284,1.136,1.136,0,0,1-.452-.095,6.058,6.058,0,0,1-.556-.284,8.806,8.806,0,0,0-1.05-.472,3.275,3.275,0,0,0-1.092-.158,2.114,2.114,0,0,0-1.229.315,1,1,0,0,0-.451.861.874.874,0,0,0,.462.8,6.616,6.616,0,0,0,1.785.546,10.184,10.184,0,0,1,2.2.672,2.582,2.582,0,0,1,1.145.945,2.742,2.742,0,0,1,.347,1.449A2.693,2.693,0,0,1,33.127-.693,5.267,5.267,0,0,1,29.967.168ZM50.841-9.7a1.162,1.162,0,0,1,.431-.567,1.094,1.094,0,0,1,.619-.189,1.322,1.322,0,0,1,.871.325,1.014,1.014,0,0,1,.389.809,1.066,1.066,0,0,1-.1.483L49.581-.714a1.262,1.262,0,0,1-.514.609,1.45,1.45,0,0,1-.767.21,1.413,1.413,0,0,1-.745-.21,1.262,1.262,0,0,1-.514-.609l-2.5-6.006L42.126-.714a1.262,1.262,0,0,1-.515.609,1.45,1.45,0,0,1-.766.21,1.468,1.468,0,0,1-.756-.21,1.246,1.246,0,0,1-.525-.609L36.12-8.841a1.334,1.334,0,0,1-.105-.462,1.044,1.044,0,0,1,.42-.83,1.419,1.419,0,0,1,.924-.346,1.179,1.179,0,0,1,.651.189,1.139,1.139,0,0,1,.441.567l2.478,6.405L43.47-9.66a1.262,1.262,0,0,1,.483-.6,1.269,1.269,0,0,1,.693-.2,1.269,1.269,0,0,1,.693.2,1.262,1.262,0,0,1,.483.6L48.384-3.3ZM56.91.126A1.357,1.357,0,0,1,55.975-.2a1.183,1.183,0,0,1-.367-.935V-9.24a1.15,1.15,0,0,1,.367-.924,1.385,1.385,0,0,1,.935-.315,1.426,1.426,0,0,1,.945.315,1.134,1.134,0,0,1,.378.924v8.106a1.166,1.166,0,0,1-.378.935A1.4,1.4,0,0,1,56.91.126Zm0-12.474a1.6,1.6,0,0,1-1.134-.389,1.322,1.322,0,0,1-.42-1.019,1.29,1.29,0,0,1,.42-1.008,1.632,1.632,0,0,1,1.134-.378,1.641,1.641,0,0,1,1.124.378,1.275,1.275,0,0,1,.431,1.008,1.322,1.322,0,0,1-.42,1.019A1.6,1.6,0,0,1,56.91-12.348ZM66.948-1.827Q68-1.764,68-.882a.854.854,0,0,1-.41.767,1.954,1.954,0,0,1-1.166.221L65.856.063q-3.528-.252-3.528-3.78V-8.3h-1.05a1.333,1.333,0,0,1-.871-.252.9.9,0,0,1-.3-.735.9.9,0,0,1,.3-.735,1.333,1.333,0,0,1,.871-.252h1.05V-12.2a1.181,1.181,0,0,1,.357-.9,1.352,1.352,0,0,1,.966-.336,1.323,1.323,0,0,1,.945.336,1.181,1.181,0,0,1,.357.9v1.932h1.785a1.333,1.333,0,0,1,.871.252.9.9,0,0,1,.3.735.9.9,0,0,1-.3.735,1.333,1.333,0,0,1-.871.252H64.953v4.767q0,1.554,1.428,1.659Zm7.644,2a5.441,5.441,0,0,1-2.7-.651,4.437,4.437,0,0,1-1.8-1.848,5.913,5.913,0,0,1-.63-2.793,5.865,5.865,0,0,1,.662-2.824,4.673,4.673,0,0,1,1.858-1.9,5.523,5.523,0,0,1,2.751-.672,6.122,6.122,0,0,1,1.648.231,5.438,5.438,0,0,1,1.46.63,1.3,1.3,0,0,1,.672,1.113,1.181,1.181,0,0,1-.22.745.7.7,0,0,1-.577.284,1.255,1.255,0,0,1-.483-.105,4.23,4.23,0,0,1-.5-.252,5.641,5.641,0,0,0-.882-.43,2.741,2.741,0,0,0-.966-.158,2.456,2.456,0,0,0-2.006.851,3.747,3.747,0,0,0-.7,2.446,3.71,3.71,0,0,0,.7,2.426,2.456,2.456,0,0,0,2.006.85,2.59,2.59,0,0,0,.934-.158,7.916,7.916,0,0,0,.914-.431,4.158,4.158,0,0,1,.546-.283,1.212,1.212,0,0,1,.462-.095.7.7,0,0,1,.567.294,1.153,1.153,0,0,1,.231.735,1.181,1.181,0,0,1-.158.62,1.418,1.418,0,0,1-.515.472,5.522,5.522,0,0,1-1.512.662A6.5,6.5,0,0,1,74.592.168ZM86.961-10.521q3.612,0,3.612,4.221v5.166a1.227,1.227,0,0,1-.347.924,1.315,1.315,0,0,1-.955.336A1.352,1.352,0,0,1,88.3-.21a1.208,1.208,0,0,1-.357-.924V-6.3A2.43,2.43,0,0,0,87.5-7.928a1.791,1.791,0,0,0-1.418-.514,2.4,2.4,0,0,0-1.816.714,2.65,2.65,0,0,0-.683,1.911v4.683a1.208,1.208,0,0,1-.357.924,1.352,1.352,0,0,1-.966.336A1.315,1.315,0,0,1,81.3-.21a1.227,1.227,0,0,1-.347-.924V-13.692a1.139,1.139,0,0,1,.368-.882,1.361,1.361,0,0,1,.956-.336,1.376,1.376,0,0,1,.945.315,1.089,1.089,0,0,1,.357.861v4.893a3.438,3.438,0,0,1,1.4-1.249A4.423,4.423,0,0,1,86.961-10.521Zm14.112.8a1.215,1.215,0,0,1,.451-.556,1.14,1.14,0,0,1,.619-.179,1.322,1.322,0,0,1,.871.325,1.014,1.014,0,0,1,.389.809,1.08,1.08,0,0,1-.126.483L97.545,3.171a1.173,1.173,0,0,1-1.113.714,1.294,1.294,0,0,1-.851-.3.954.954,0,0,1-.368-.766,1.356,1.356,0,0,1,.126-.525l1.428-3L92.862-8.841a1.066,1.066,0,0,1-.105-.483,1.024,1.024,0,0,1,.41-.819,1.432,1.432,0,0,1,.935-.336,1.23,1.23,0,0,1,.651.178,1.191,1.191,0,0,1,.462.557l2.94,6.489Zm5,9.849a1.49,1.49,0,0,1-1.113-.452,1.544,1.544,0,0,1-.441-1.124,1.544,1.544,0,0,1,.441-1.123,1.49,1.49,0,0,1,1.113-.452,1.49,1.49,0,0,1,1.113.452,1.544,1.544,0,0,1,.441,1.123,1.544,1.544,0,0,1-.441,1.124A1.49,1.49,0,0,1,106.071.126Zm5.943,0a1.357,1.357,0,0,1-.935-.326,1.183,1.183,0,0,1-.368-.935V-9.24a1.15,1.15,0,0,1,.368-.924,1.385,1.385,0,0,1,.935-.315,1.426,1.426,0,0,1,.945.315,1.134,1.134,0,0,1,.378.924v8.106a1.166,1.166,0,0,1-.378.935A1.4,1.4,0,0,1,112.014.126Zm0-12.474a1.6,1.6,0,0,1-1.134-.389,1.322,1.322,0,0,1-.42-1.019,1.29,1.29,0,0,1,.42-1.008,1.632,1.632,0,0,1,1.134-.378,1.641,1.641,0,0,1,1.123.378,1.275,1.275,0,0,1,.431,1.008,1.322,1.322,0,0,1-.42,1.019A1.6,1.6,0,0,1,112.014-12.348ZM121.4.168a5.65,5.65,0,0,1-2.761-.651A4.5,4.5,0,0,1,116.8-2.352a5.926,5.926,0,0,1-.651-2.835,5.864,5.864,0,0,1,.651-2.825,4.52,4.52,0,0,1,1.838-1.859,5.65,5.65,0,0,1,2.761-.651,5.65,5.65,0,0,1,2.762.651,4.454,4.454,0,0,1,1.827,1.859,5.942,5.942,0,0,1,.641,2.825,6.005,6.005,0,0,1-.641,2.835,4.439,4.439,0,0,1-1.827,1.869A5.65,5.65,0,0,1,121.4.168Zm-.021-2.037a2.353,2.353,0,0,0,1.953-.84A3.9,3.9,0,0,0,124-5.187a3.91,3.91,0,0,0-.672-2.468,2.317,2.317,0,0,0-1.932-.851,2.347,2.347,0,0,0-1.942.851,3.867,3.867,0,0,0-.683,2.468,3.9,3.9,0,0,0,.672,2.478A2.329,2.329,0,0,0,121.38-1.869ZM129.948.714a1.08,1.08,0,0,1-.4.588,1.046,1.046,0,0,1-.609.189,1.1,1.1,0,0,1-.745-.284.918.918,0,0,1-.326-.724,1.189,1.189,0,0,1,.063-.378L132.8-15.162a1.08,1.08,0,0,1,.4-.588,1.046,1.046,0,0,1,.609-.189,1.1,1.1,0,0,1,.745.284.918.918,0,0,1,.326.724,1.189,1.189,0,0,1-.063.378Zm15.918-2.9q1.26,0,1.26,1.071,0,1.113-1.26,1.113h-7.1q-1.281,0-1.281-1.113,0-1.071,1.281-1.071h2.184V-11.76l-2.016,1.239a1.086,1.086,0,0,1-.525.168.925.925,0,0,1-.745-.378,1.307,1.307,0,0,1-.3-.84,1.053,1.053,0,0,1,.546-.945l3.255-2.016a2.339,2.339,0,0,1,1.2-.378,1.277,1.277,0,0,1,.945.357,1.334,1.334,0,0,1,.357.987V-2.184Zm15.834.147a1.218,1.218,0,0,1,.42.9,1.168,1.168,0,0,1-.368.851,1.191,1.191,0,0,1-.871.368,1.344,1.344,0,0,1-.966-.441l-6.993-6.552v5.67a1.356,1.356,0,0,1-.368.987,1.327,1.327,0,0,1-1,.378,1.3,1.3,0,0,1-.977-.378,1.356,1.356,0,0,1-.368-.987V-13.566a1.32,1.32,0,0,1,.368-.977,1.32,1.32,0,0,1,.977-.367,1.348,1.348,0,0,1,1,.367,1.32,1.32,0,0,1,.368.977v5.4l6.762-6.342a1.186,1.186,0,0,1,.861-.378,1.168,1.168,0,0,1,.851.368,1.168,1.168,0,0,1,.367.851,1.2,1.2,0,0,1-.42.882l-5.649,5.166ZM166.026,0a1.278,1.278,0,0,1-.945-.336,1.249,1.249,0,0,1-.336-.924V-13.566a1.32,1.32,0,0,1,.368-.977,1.32,1.32,0,0,1,.977-.367,1.348,1.348,0,0,1,1,.367,1.32,1.32,0,0,1,.367.977v11.34h5.9q1.26,0,1.26,1.113T173.355,0Zm19.908-2.184q1.26,0,1.26,1.071,0,1.113-1.26,1.113h-7.98a1.142,1.142,0,0,1-.861-.326,1.117,1.117,0,0,1-.315-.809,1.6,1.6,0,0,1,.483-1.134l4.788-5.145a8.289,8.289,0,0,0,1.292-1.775,3.532,3.532,0,0,0,.41-1.606,1.959,1.959,0,0,0-.567-1.512,2.294,2.294,0,0,0-1.617-.525,4.431,4.431,0,0,0-1.669.325,8.351,8.351,0,0,0-1.628.892,2.582,2.582,0,0,1-.42.241,1.016,1.016,0,0,1-.42.095.77.77,0,0,1-.62-.336,1.258,1.258,0,0,1-.262-.8,1.208,1.208,0,0,1,.115-.546,1.4,1.4,0,0,1,.368-.441,7.277,7.277,0,0,1,2.163-1.166,7.509,7.509,0,0,1,2.478-.431,5.174,5.174,0,0,1,3.454,1.092,3.652,3.652,0,0,1,1.291,2.94,5.429,5.429,0,0,1-.546,2.4,10.656,10.656,0,0,1-1.848,2.51L180.39-2.184Zm11.4-5.418a3.519,3.519,0,0,1,2.027,1.27,3.748,3.748,0,0,1,.7,2.321A3.709,3.709,0,0,1,198.66-.966a5.885,5.885,0,0,1-3.8,1.134,8.246,8.246,0,0,1-2.625-.42,6.318,6.318,0,0,1-2.142-1.176,1.272,1.272,0,0,1-.483-.987,1.215,1.215,0,0,1,.262-.788.777.777,0,0,1,.62-.326.934.934,0,0,1,.378.074q.168.074.462.241a9.063,9.063,0,0,0,1.68.9A4.706,4.706,0,0,0,194.754-2a3.183,3.183,0,0,0,2.058-.556,2.069,2.069,0,0,0,.672-1.691,1.939,1.939,0,0,0-.7-1.649,3.586,3.586,0,0,0-2.174-.536h-1.2a.9.9,0,0,1-.745-.325A1.154,1.154,0,0,1,192.4-7.5a1.143,1.143,0,0,1,.263-.756.916.916,0,0,1,.745-.315h.84q2.877,0,2.877-2.163a1.979,1.979,0,0,0-.609-1.554,2.427,2.427,0,0,0-1.68-.546,5.807,5.807,0,0,0-3.276,1.218q-.294.168-.462.241a.934.934,0,0,1-.378.073.777.777,0,0,1-.62-.325,1.215,1.215,0,0,1-.262-.788,1.142,1.142,0,0,1,.115-.536,1.709,1.709,0,0,1,.368-.451,6.743,6.743,0,0,1,2.111-1.166,7.537,7.537,0,0,1,2.509-.431,5.275,5.275,0,0,1,3.476,1.071,3.522,3.522,0,0,1,1.291,2.856,3.828,3.828,0,0,1-.64,2.132A3.538,3.538,0,0,1,197.337-7.6Z" transform="translate(1079 560)" fill="#535461"/>
    <g transform="matrix(1, 0, 0, 1, 985.44, 395.28)" filter="url(#Rectangle_6604-3)">
      <rect id="Rectangle_6604-6" data-name="Rectangle 6604" width="300.883" height="56.158" rx="4" transform="translate(9 47.02)" fill="#fff"/>
    </g>
    <path id="Tracé_30545" data-name="Tracé 30545" d="M2.667.126A1.357,1.357,0,0,1,1.733-.2a1.183,1.183,0,0,1-.367-.935V-13.671a1.15,1.15,0,0,1,.367-.924,1.385,1.385,0,0,1,.934-.315,1.426,1.426,0,0,1,.945.315,1.134,1.134,0,0,1,.378.924V-1.134A1.166,1.166,0,0,1,3.612-.2,1.4,1.4,0,0,1,2.667.126Zm6.006,0A1.357,1.357,0,0,1,7.739-.2a1.183,1.183,0,0,1-.367-.935V-9.24a1.15,1.15,0,0,1,.367-.924,1.385,1.385,0,0,1,.935-.315,1.426,1.426,0,0,1,.945.315A1.134,1.134,0,0,1,10-9.24v8.106A1.166,1.166,0,0,1,9.618-.2,1.4,1.4,0,0,1,8.673.126Zm0-12.474a1.6,1.6,0,0,1-1.134-.389,1.322,1.322,0,0,1-.42-1.019,1.29,1.29,0,0,1,.42-1.008,1.632,1.632,0,0,1,1.134-.378,1.641,1.641,0,0,1,1.123.378,1.275,1.275,0,0,1,.431,1.008,1.323,1.323,0,0,1-.42,1.019A1.6,1.6,0,0,1,8.673-12.348Zm10.668,1.827a3.432,3.432,0,0,1,2.751,1.05,4.762,4.762,0,0,1,.9,3.171v5.166a1.227,1.227,0,0,1-.346.924,1.315,1.315,0,0,1-.955.336,1.352,1.352,0,0,1-.966-.336,1.207,1.207,0,0,1-.357-.924V-6.153A2.723,2.723,0,0,0,19.919-7.9,1.735,1.735,0,0,0,18.5-8.442a2.4,2.4,0,0,0-1.816.714A2.65,2.65,0,0,0,16-5.817v4.683a1.208,1.208,0,0,1-.357.924,1.352,1.352,0,0,1-.966.336,1.315,1.315,0,0,1-.955-.336,1.227,1.227,0,0,1-.347-.924V-9.261a1.155,1.155,0,0,1,.357-.882,1.352,1.352,0,0,1,.966-.336,1.251,1.251,0,0,1,.892.325,1.113,1.113,0,0,1,.346.851v.567a3.551,3.551,0,0,1,1.407-1.323A4.234,4.234,0,0,1,19.341-10.521ZM35.469-2.037a1.218,1.218,0,0,1,.42.9,1.239,1.239,0,0,1-.347.861,1.066,1.066,0,0,1-.808.378,1.234,1.234,0,0,1-.861-.378L28.959-4.725v3.591a1.134,1.134,0,0,1-.378.924,1.426,1.426,0,0,1-.945.315A1.385,1.385,0,0,1,26.7-.21a1.15,1.15,0,0,1-.368-.924V-13.671A1.15,1.15,0,0,1,26.7-14.6a1.385,1.385,0,0,1,.934-.315,1.426,1.426,0,0,1,.945.315,1.134,1.134,0,0,1,.378.924v7.9l4.494-4.3a1.186,1.186,0,0,1,.861-.378,1.149,1.149,0,0,1,.84.357,1.149,1.149,0,0,1,.357.84,1.224,1.224,0,0,1-.4.882l-3.3,3.066Zm4.3,2.163a1.49,1.49,0,0,1-1.113-.452,1.544,1.544,0,0,1-.441-1.124,1.544,1.544,0,0,1,.441-1.123,1.49,1.49,0,0,1,1.113-.452,1.49,1.49,0,0,1,1.113.452,1.544,1.544,0,0,1,.441,1.123,1.544,1.544,0,0,1-.441,1.124A1.49,1.49,0,0,1,39.774.126ZM48.7.168A5.441,5.441,0,0,1,46-.483a4.437,4.437,0,0,1-1.8-1.848,5.913,5.913,0,0,1-.63-2.793,5.865,5.865,0,0,1,.661-2.824,4.673,4.673,0,0,1,1.859-1.9,5.523,5.523,0,0,1,2.751-.672,6.122,6.122,0,0,1,1.648.231,5.438,5.438,0,0,1,1.459.63,1.3,1.3,0,0,1,.672,1.113,1.181,1.181,0,0,1-.22.745.7.7,0,0,1-.578.284,1.255,1.255,0,0,1-.483-.105,4.229,4.229,0,0,1-.5-.252,5.64,5.64,0,0,0-.882-.43,2.741,2.741,0,0,0-.966-.158,2.456,2.456,0,0,0-2.006.851,3.747,3.747,0,0,0-.7,2.446,3.71,3.71,0,0,0,.7,2.426,2.456,2.456,0,0,0,2.006.85,2.59,2.59,0,0,0,.935-.158,7.916,7.916,0,0,0,.913-.431,4.158,4.158,0,0,1,.546-.283,1.212,1.212,0,0,1,.462-.095.7.7,0,0,1,.567.294,1.153,1.153,0,0,1,.231.735,1.181,1.181,0,0,1-.157.62,1.418,1.418,0,0,1-.514.472,5.522,5.522,0,0,1-1.512.662A6.5,6.5,0,0,1,48.7.168Zm11.046,0a5.65,5.65,0,0,1-2.762-.651,4.5,4.5,0,0,1-1.837-1.869,5.926,5.926,0,0,1-.651-2.835,5.864,5.864,0,0,1,.651-2.825A4.52,4.52,0,0,1,56.983-9.87a5.65,5.65,0,0,1,2.762-.651,5.65,5.65,0,0,1,2.762.651,4.454,4.454,0,0,1,1.827,1.859,5.942,5.942,0,0,1,.641,2.825,6.005,6.005,0,0,1-.641,2.835A4.439,4.439,0,0,1,62.507-.483,5.65,5.65,0,0,1,59.745.168Zm-.021-2.037a2.353,2.353,0,0,0,1.953-.84,3.9,3.9,0,0,0,.672-2.478,3.91,3.91,0,0,0-.672-2.468,2.317,2.317,0,0,0-1.932-.851,2.347,2.347,0,0,0-1.943.851,3.867,3.867,0,0,0-.682,2.468,3.9,3.9,0,0,0,.672,2.478A2.329,2.329,0,0,0,59.724-1.869ZM80.01-10.521a3.272,3.272,0,0,1,2.573,1A4.769,4.769,0,0,1,83.475-6.3v5.166a1.183,1.183,0,0,1-.368.935,1.388,1.388,0,0,1-.955.326A1.357,1.357,0,0,1,81.217-.2a1.183,1.183,0,0,1-.368-.935V-6.3a2.6,2.6,0,0,0-.41-1.648,1.531,1.531,0,0,0-1.249-.494,2.056,2.056,0,0,0-1.638.7,2.837,2.837,0,0,0-.609,1.922v4.683a1.183,1.183,0,0,1-.368.935,1.357,1.357,0,0,1-.935.326A1.4,1.4,0,0,1,74.7-.2a1.166,1.166,0,0,1-.378-.935V-6.3a2.6,2.6,0,0,0-.41-1.648,1.531,1.531,0,0,0-1.249-.494,2.025,2.025,0,0,0-1.628.7,2.87,2.87,0,0,0-.6,1.922v4.683a1.166,1.166,0,0,1-.378.935,1.4,1.4,0,0,1-.945.326A1.357,1.357,0,0,1,68.176-.2a1.183,1.183,0,0,1-.368-.935V-9.261a1.109,1.109,0,0,1,.378-.9,1.426,1.426,0,0,1,.945-.315,1.3,1.3,0,0,1,.892.3,1.1,1.1,0,0,1,.347.872v.5a3.292,3.292,0,0,1,1.291-1.281,3.819,3.819,0,0,1,1.859-.441,3.009,3.009,0,0,1,3.087,1.932A3.47,3.47,0,0,1,77.973-10,3.978,3.978,0,0,1,80.01-10.521Zm12.705,0a4.256,4.256,0,0,1,2.363.672,4.456,4.456,0,0,1,1.617,1.9,6.568,6.568,0,0,1,.577,2.824,6.359,6.359,0,0,1-.577,2.793A4.374,4.374,0,0,1,95.088-.483a4.343,4.343,0,0,1-2.373.651,4.065,4.065,0,0,1-1.953-.462,3.242,3.242,0,0,1-1.323-1.281V2.709a1.089,1.089,0,0,1-.357.861,1.376,1.376,0,0,1-.945.315,1.361,1.361,0,0,1-.956-.336,1.139,1.139,0,0,1-.368-.882V-9.24a1.2,1.2,0,0,1,.347-.9,1.285,1.285,0,0,1,.935-.336,1.323,1.323,0,0,1,.945.336,1.181,1.181,0,0,1,.357.9v.525a3.222,3.222,0,0,1,1.334-1.333A4.1,4.1,0,0,1,92.715-10.521Zm-.693,8.652a2.354,2.354,0,0,0,1.932-.85,3.713,3.713,0,0,0,.693-2.4A3.924,3.924,0,0,0,93.954-7.6a2.318,2.318,0,0,0-1.932-.882,2.335,2.335,0,0,0-1.942.861A3.874,3.874,0,0,0,89.4-5.166,3.836,3.836,0,0,0,90.08-2.73,2.335,2.335,0,0,0,92.022-1.869Zm12.537-8.652a4.277,4.277,0,0,1,3.182,1.061,4.44,4.44,0,0,1,1.039,3.224v5.124a1.185,1.185,0,0,1-.336.893,1.272,1.272,0,0,1-.924.326,1.229,1.229,0,0,1-.893-.336,1.173,1.173,0,0,1-.346-.882v-.462a2.74,2.74,0,0,1-1.124,1.281,3.37,3.37,0,0,1-1.774.462,4.12,4.12,0,0,1-1.869-.42,3.325,3.325,0,0,1-1.323-1.155,2.918,2.918,0,0,1-.483-1.638,2.6,2.6,0,0,1,.577-1.785,3.471,3.471,0,0,1,1.879-.945,17.116,17.116,0,0,1,3.591-.294h.525v-.483a2.15,2.15,0,0,0-.441-1.5,1.876,1.876,0,0,0-1.428-.472,4.531,4.531,0,0,0-1.239.179q-.63.178-1.491.514a2.1,2.1,0,0,1-.8.273.79.79,0,0,1-.619-.273,1.038,1.038,0,0,1-.242-.714,1.075,1.075,0,0,1,.179-.62,1.694,1.694,0,0,1,.6-.493,6.845,6.845,0,0,1,1.754-.63A9.048,9.048,0,0,1,104.559-10.521Zm-.651,8.8a2.243,2.243,0,0,0,1.712-.7,2.545,2.545,0,0,0,.661-1.816v-.441H105.9a14.487,14.487,0,0,0-2.184.126,2.12,2.12,0,0,0-1.113.441,1.123,1.123,0,0,0-.336.861,1.425,1.425,0,0,0,.473,1.1A1.666,1.666,0,0,0,103.908-1.722Zm14.175-8.8a3.432,3.432,0,0,1,2.751,1.05,4.762,4.762,0,0,1,.9,3.171v5.166a1.227,1.227,0,0,1-.347.924,1.315,1.315,0,0,1-.955.336,1.352,1.352,0,0,1-.966-.336,1.208,1.208,0,0,1-.357-.924V-6.153a2.723,2.723,0,0,0-.451-1.743,1.735,1.735,0,0,0-1.418-.546,2.4,2.4,0,0,0-1.816.714,2.65,2.65,0,0,0-.683,1.911v4.683a1.208,1.208,0,0,1-.357.924,1.352,1.352,0,0,1-.966.336,1.315,1.315,0,0,1-.955-.336,1.227,1.227,0,0,1-.347-.924V-9.261a1.155,1.155,0,0,1,.357-.882,1.352,1.352,0,0,1,.966-.336,1.251,1.251,0,0,1,.892.325,1.113,1.113,0,0,1,.347.851v.567a3.551,3.551,0,0,1,1.407-1.323A4.234,4.234,0,0,1,118.083-10.521Zm14.154.8a1.215,1.215,0,0,1,.452-.556,1.14,1.14,0,0,1,.62-.179,1.322,1.322,0,0,1,.871.325,1.014,1.014,0,0,1,.389.809,1.08,1.08,0,0,1-.126.483L128.709,3.171a1.173,1.173,0,0,1-1.113.714,1.294,1.294,0,0,1-.851-.3.954.954,0,0,1-.368-.766,1.356,1.356,0,0,1,.126-.525l1.428-3-3.906-8.127a1.066,1.066,0,0,1-.105-.483,1.024,1.024,0,0,1,.41-.819,1.432,1.432,0,0,1,.935-.336,1.23,1.23,0,0,1,.651.178,1.191,1.191,0,0,1,.462.557l2.94,6.489Zm5,9.849a1.49,1.49,0,0,1-1.113-.452,1.544,1.544,0,0,1-.441-1.124,1.544,1.544,0,0,1,.441-1.123,1.49,1.49,0,0,1,1.113-.452,1.49,1.49,0,0,1,1.113.452,1.544,1.544,0,0,1,.441,1.123,1.544,1.544,0,0,1-.441,1.124A1.49,1.49,0,0,1,137.235.126Zm8.925.042a5.441,5.441,0,0,1-2.7-.651,4.437,4.437,0,0,1-1.8-1.848,5.913,5.913,0,0,1-.63-2.793,5.865,5.865,0,0,1,.661-2.824,4.673,4.673,0,0,1,1.858-1.9,5.523,5.523,0,0,1,2.751-.672,6.122,6.122,0,0,1,1.648.231,5.438,5.438,0,0,1,1.46.63,1.3,1.3,0,0,1,.672,1.113,1.181,1.181,0,0,1-.221.745.7.7,0,0,1-.577.284,1.255,1.255,0,0,1-.483-.105,4.23,4.23,0,0,1-.5-.252,5.641,5.641,0,0,0-.882-.43,2.741,2.741,0,0,0-.966-.158,2.456,2.456,0,0,0-2.006.851,3.747,3.747,0,0,0-.7,2.446,3.711,3.711,0,0,0,.7,2.426,2.456,2.456,0,0,0,2.006.85,2.59,2.59,0,0,0,.934-.158,7.916,7.916,0,0,0,.913-.431,4.158,4.158,0,0,1,.546-.283,1.212,1.212,0,0,1,.462-.095.7.7,0,0,1,.567.294,1.153,1.153,0,0,1,.231.735,1.181,1.181,0,0,1-.158.62,1.418,1.418,0,0,1-.514.472,5.522,5.522,0,0,1-1.512.662A6.5,6.5,0,0,1,146.16.168Zm11.046,0a5.65,5.65,0,0,1-2.762-.651,4.5,4.5,0,0,1-1.837-1.869,5.925,5.925,0,0,1-.651-2.835,5.864,5.864,0,0,1,.651-2.825,4.52,4.52,0,0,1,1.837-1.859,5.65,5.65,0,0,1,2.762-.651,5.65,5.65,0,0,1,2.761.651,4.454,4.454,0,0,1,1.827,1.859,5.942,5.942,0,0,1,.64,2.825,6.005,6.005,0,0,1-.64,2.835,4.439,4.439,0,0,1-1.827,1.869A5.65,5.65,0,0,1,157.206.168Zm-.021-2.037a2.353,2.353,0,0,0,1.953-.84,3.9,3.9,0,0,0,.672-2.478,3.91,3.91,0,0,0-.672-2.468,2.317,2.317,0,0,0-1.932-.851,2.347,2.347,0,0,0-1.943.851,3.867,3.867,0,0,0-.682,2.468,3.9,3.9,0,0,0,.672,2.478A2.329,2.329,0,0,0,157.185-1.869Zm20.286-8.652a3.272,3.272,0,0,1,2.573,1,4.769,4.769,0,0,1,.893,3.224v5.166a1.182,1.182,0,0,1-.368.935,1.388,1.388,0,0,1-.955.326,1.357,1.357,0,0,1-.935-.326,1.183,1.183,0,0,1-.367-.935V-6.3a2.6,2.6,0,0,0-.41-1.648,1.531,1.531,0,0,0-1.25-.494,2.056,2.056,0,0,0-1.638.7,2.837,2.837,0,0,0-.609,1.922v4.683a1.183,1.183,0,0,1-.367.935,1.357,1.357,0,0,1-.935.326,1.4,1.4,0,0,1-.945-.326,1.166,1.166,0,0,1-.378-.935V-6.3a2.6,2.6,0,0,0-.41-1.648,1.531,1.531,0,0,0-1.249-.494,2.025,2.025,0,0,0-1.628.7,2.87,2.87,0,0,0-.6,1.922v4.683a1.166,1.166,0,0,1-.378.935,1.4,1.4,0,0,1-.945.326,1.357,1.357,0,0,1-.935-.326,1.183,1.183,0,0,1-.367-.935V-9.261a1.109,1.109,0,0,1,.378-.9,1.426,1.426,0,0,1,.945-.315,1.3,1.3,0,0,1,.893.3,1.1,1.1,0,0,1,.346.872v.5a3.292,3.292,0,0,1,1.292-1.281,3.819,3.819,0,0,1,1.858-.441,3.009,3.009,0,0,1,3.087,1.932A3.47,3.47,0,0,1,175.434-10,3.978,3.978,0,0,1,177.471-10.521ZM184.758.714a1.08,1.08,0,0,1-.4.588,1.046,1.046,0,0,1-.609.189A1.1,1.1,0,0,1,183,1.207a.918.918,0,0,1-.326-.724,1.189,1.189,0,0,1,.063-.378l4.872-15.267a1.08,1.08,0,0,1,.4-.588,1.046,1.046,0,0,1,.609-.189,1.1,1.1,0,0,1,.745.284.918.918,0,0,1,.326.724,1.189,1.189,0,0,1-.063.378Zm15.918-2.9q1.26,0,1.26,1.071,0,1.113-1.26,1.113h-7.1Q192.3,0,192.3-1.113q0-1.071,1.281-1.071h2.184V-11.76l-2.016,1.239a1.086,1.086,0,0,1-.525.168.925.925,0,0,1-.745-.378,1.307,1.307,0,0,1-.3-.84,1.053,1.053,0,0,1,.546-.945l3.255-2.016a2.339,2.339,0,0,1,1.2-.378,1.277,1.277,0,0,1,.945.357,1.334,1.334,0,0,1,.357.987V-2.184Zm15.834.147a1.218,1.218,0,0,1,.42.9,1.168,1.168,0,0,1-.368.851,1.191,1.191,0,0,1-.871.368,1.344,1.344,0,0,1-.966-.441l-6.993-6.552v5.67a1.356,1.356,0,0,1-.367.987,1.327,1.327,0,0,1-1,.378,1.3,1.3,0,0,1-.977-.378,1.356,1.356,0,0,1-.368-.987V-13.566a1.32,1.32,0,0,1,.368-.977,1.32,1.32,0,0,1,.977-.367,1.348,1.348,0,0,1,1,.367,1.32,1.32,0,0,1,.367.977v5.4l6.762-6.342a1.186,1.186,0,0,1,.861-.378,1.168,1.168,0,0,1,.851.368,1.168,1.168,0,0,1,.367.851,1.2,1.2,0,0,1-.42.882L210.5-7.623ZM220.836,0a1.278,1.278,0,0,1-.945-.336,1.249,1.249,0,0,1-.336-.924V-13.566a1.32,1.32,0,0,1,.368-.977,1.32,1.32,0,0,1,.977-.367,1.348,1.348,0,0,1,1,.367,1.32,1.32,0,0,1,.368.977v11.34h5.9q1.26,0,1.26,1.113T228.165,0Zm19.908-2.184q1.26,0,1.26,1.071Q242,0,240.744,0h-7.98a1.142,1.142,0,0,1-.861-.326,1.117,1.117,0,0,1-.315-.809,1.6,1.6,0,0,1,.483-1.134l4.788-5.145a8.289,8.289,0,0,0,1.292-1.775,3.532,3.532,0,0,0,.41-1.606,1.959,1.959,0,0,0-.567-1.512,2.294,2.294,0,0,0-1.617-.525,4.431,4.431,0,0,0-1.669.325,8.351,8.351,0,0,0-1.628.892,2.582,2.582,0,0,1-.42.241,1.016,1.016,0,0,1-.42.095.77.77,0,0,1-.62-.336,1.258,1.258,0,0,1-.262-.8,1.208,1.208,0,0,1,.115-.546,1.4,1.4,0,0,1,.368-.441A7.277,7.277,0,0,1,234-14.564a7.509,7.509,0,0,1,2.478-.431,5.174,5.174,0,0,1,3.454,1.092,3.652,3.652,0,0,1,1.291,2.94,5.429,5.429,0,0,1-.546,2.4,10.656,10.656,0,0,1-1.848,2.51L235.2-2.184Zm11.4-5.418a3.519,3.519,0,0,1,2.026,1.27,3.748,3.748,0,0,1,.7,2.321A3.709,3.709,0,0,1,253.47-.966a5.885,5.885,0,0,1-3.8,1.134,8.246,8.246,0,0,1-2.625-.42A6.318,6.318,0,0,1,244.9-1.428a1.272,1.272,0,0,1-.483-.987,1.215,1.215,0,0,1,.262-.788.777.777,0,0,1,.62-.326.934.934,0,0,1,.378.074q.168.074.462.241a9.063,9.063,0,0,0,1.68.9A4.706,4.706,0,0,0,249.564-2a3.183,3.183,0,0,0,2.058-.556,2.069,2.069,0,0,0,.672-1.691,1.939,1.939,0,0,0-.7-1.649,3.586,3.586,0,0,0-2.174-.536h-1.2a.9.9,0,0,1-.746-.325,1.154,1.154,0,0,1-.262-.746,1.143,1.143,0,0,1,.262-.756.916.916,0,0,1,.746-.315h.84q2.877,0,2.877-2.163a1.979,1.979,0,0,0-.609-1.554,2.427,2.427,0,0,0-1.68-.546,5.807,5.807,0,0,0-3.276,1.218q-.294.168-.462.241a.934.934,0,0,1-.378.073.777.777,0,0,1-.62-.325,1.215,1.215,0,0,1-.262-.788,1.142,1.142,0,0,1,.115-.536,1.709,1.709,0,0,1,.368-.451,6.743,6.743,0,0,1,2.111-1.166,7.537,7.537,0,0,1,2.509-.431,5.275,5.275,0,0,1,3.476,1.071,3.522,3.522,0,0,1,1.291,2.856,3.828,3.828,0,0,1-.64,2.132A3.538,3.538,0,0,1,252.147-7.6Z" transform="translate(1017 477)" fill="#478bef"/>
    <g id="Groupe_6760" data-name="Groupe 6760" transform="translate(357.798 -3886.346)">
      <path id="Tracé_30222" data-name="Tracé 30222" d="M251.7,348.972s12.031-7.218,25.265,6.978c6.978,7.7,23.581,6.256,25.024,4.09.962-1.2-1.444,5.293-6.978,9.624-5.053,3.609-11.79,7.7-25.506,3.128-13.956-4.812-17.565-.722-17.565-.722v-23.1Z" transform="translate(739.412 3959.978)" fill="#2b216e"/>
      <path id="Tracé_30223" data-name="Tracé 30223" d="M245.492,433.791c1.2,2.647,17.806,25.5,19.009,27.91.962,2.647,7.94,13.474,7.94,13.474l4.331-2.887s-5.294-14.918-9.625-25.5h0a14.723,14.723,0,0,1-1.2-2.887,62.735,62.735,0,0,0-3.609-7.218c-3.128-3.128-7.7-7.459-5.294-10.827,2.647-3.368,12.993-22.617,13.475-24.542s15.4-28.632-16.362-17.8c0,0-5.534,16.6-6.256,28.873C246.695,424.889,244.289,431.145,245.492,433.791Z" transform="translate(730.221 4007.493)" fill="#db9b7b"/>
      <path id="Tracé_30224" data-name="Tracé 30224" d="M261.817,422.777a11.754,11.754,0,0,1-.241,3.85c-.481,1.444-1.684,7.7-3.609,8.421-1.684.962-5.249,1.233-5.249,1.474,0,1.2.917,2.376,4.767,2.376,3.609,0,7.219-4.812,9.865-8.18,2.406-3.368,5.775-5.053,3.609-7.218-1.925-2.165-5.053-4.812-5.294-5.293C265.186,417.964,261.817,422.777,261.817,422.777Z" transform="translate(740.845 4059.891)" fill="#de9673"/>
      <path id="Tracé_30225" data-name="Tracé 30225" d="M280.229,383.244s5.294,11.309,1.684,18.767c-3.609,7.218-17.565,23.579-19.009,26.226-1.2,2.647-4.091,6.015-1.925,6.978,2.887.962,6.737,1.684,12.272,5.534,3.609,2.406,9.625,3.609,13.715,5.293,1.684.722,1.925,4.571.241,5.293-1.2.722-32.724-6.256-37.3-9.384-1.925-1.2-1.925-4.331.481-12.752,1.2-3.85,6.015-16.361,7.7-20.933,1.444-4.572,4.331-11.309,4.331-11.309S259.536,369.529,280.229,383.244Z" transform="translate(734.944 4005.347)" fill="#eea886"/>
      <path id="Tracé_30226" data-name="Tracé 30226" d="M266.672,415.451a34.6,34.6,0,0,1,4.331.241c1.444.241,6.978.481,8.422.722,1.444.481,2.647,2.166,3.369,1.684.962-.481-.722-2.647-2.406-3.85s-6.737-4.812-9.384-7.218c-2.406-2.406-3.85-2.887-5.053-.722s-2.406,5.293-3.128,6.256C262.341,413.526,266.672,415.451,266.672,415.451Z" transform="translate(754.999 4041.232)" fill="#eea886"/>
      <path id="Tracé_30227" data-name="Tracé 30227" d="M240.344,341.158c-.241-.722-1.444-1.684-1.444-.722s.481,3.609.481,4.331A37.18,37.18,0,0,0,240.344,341.158Z" transform="translate(721.413 3949.987)" fill="#db9c7c"/>
      <path id="Tracé_30228" data-name="Tracé 30228" d="M239.673,336.679s3.85,8.181,3.609,10.587c0,2.406,0,8.421-1.684,8.662s-2.887-.241-2.887-2.887c-.241-2.647,1.925-7.218,1.684-8.9C240.4,342.694,237.748,335.476,239.673,336.679Z" transform="translate(721.121 3945.083)" fill="#eea987"/>
      <path id="Tracé_30229" data-name="Tracé 30229" d="M242.569,343.3s1.2,7.459,3.128,10.346-5.053,2.165-5.053,2.165L239.2,345.706Z" transform="translate(721.835 3954.583)" fill="#eea987"/>
      <path id="Tracé_30230" data-name="Tracé 30230" d="M271.383,394.206s1.2-4.09-.722-7.218c-1.684-3.128-5.294-5.534-6.5-6.5S253.337,368.22,253.337,367.5c-.241-.481-2.406-8.181-4.572-12.752s-4.572-10.346-4.572-10.346l-5.294,2.887s4.091,18.286,6.978,22.376c3.128,4.331,18.768,24.782,18.768,24.782S267.534,399.739,271.383,394.206Z" transform="translate(721.413 3956.129)" fill="#f9d048"/>
      <path id="Tracé_30231" data-name="Tracé 30231" d="M245.467,422.822s-3.128,3.368,23.34,3.368c0,0,26.709-25.264,18.287-40.9-4.331-8.421-32.484-3.128-32.484-3.128S250.52,387.212,245.467,422.822Z" transform="translate(730.486 4006.913)" fill="#478bef"/>
      <path id="Tracé_30232" data-name="Tracé 30232" d="M261.5,360.241a37.77,37.77,0,0,1-5.534,2.165c-1.444.241-6.978,7.459-7.94,10.105s0,6.5,1.925,11.068,0,6.256.962,10.827a93.213,93.213,0,0,1,1.444,16.842c-.241,2.647,23.1,3.128,28.393-1.684,0,0-5.294-7.94-6.015-9.143s0-7.459.481-8.9c.722-1.684,4.812-14.436,4.812-14.436s3.369-11.309.241-13.715c-2.647-2.165-9.865-2.887-11.309-3.368C267.992,360,264.142,360,261.5,360.241Z" transform="translate(733.707 3978.064)" fill="#f9d048"/>
      <path id="Tracé_30233" data-name="Tracé 30233" d="M263.624,348.443c-2.406-.962-11.309-2.887-13.475,8.421-2.166,11.549,4.331,19.489,10.106,17.324s9.384-10.105,9.625-16.121S266.752,349.646,263.624,348.443Z" transform="translate(736.632 3960.748)" fill="#eea886"/>
      <path id="Tracé_30234" data-name="Tracé 30234" d="M249.9,357.409s-.481-9.865,9.384-10.105c9.625-.241,12.271,7.7,11.55,13.474a14.1,14.1,0,0,1-4.812,8.9s.241-4.812-1.444-6.015c-1.925-1.2-9.384-3.609-12.753-9.384A8.765,8.765,0,0,0,249.9,357.409Z" transform="translate(736.879 3960.204)" fill="#2b216e"/>
      <path id="Tracé_30235" data-name="Tracé 30235" d="M252.5,361.38s.722,7.459.722,9.865c0,0,4.331,4.331,9.143-5.053a13.21,13.21,0,0,1-.481-8.9C263.328,352.237,252.5,361.38,252.5,361.38Z" transform="translate(740.537 3972.112)" fill="#eea886"/>
      <path id="Tracé_30236" data-name="Tracé 30236" d="M252.8,362.3v3.85l5.053-3.609Z" transform="translate(740.959 3981.298)" fill="#eea886"/>
      <path id="Tracé_30237" data-name="Tracé 30237" d="M253.968,414.3c1.925,9.143,26.709-1.2,26.709-1.2s-13.234-9.865-9.625-22.136c.481-1.444,2.647-7.459,3.128-8.662l.722-2.887c2.406-8.181,4.812-11.309,4.812-11.309s-2.406-5.534-7.459-6.5a47.833,47.833,0,0,0-7.459-1.2s-13.234,17.564-13.475,21.414C251.081,385.423,252.043,405.153,253.968,414.3Z" transform="translate(738.828 3978.626)" fill="#f9d048"/>
      <path id="Tracé_30238" data-name="Tracé 30238" d="M256.034,353.862a1.427,1.427,0,0,1,2.165-.722c.722.481,1.2,2.165,0,4.09C257.237,359.4,253.387,360.6,256.034,353.862Z" transform="translate(744.221 3968.081)" fill="#eea886"/>
      <path id="Tracé_30239" data-name="Tracé 30239" d="M252.6,360.769l.241,1.444s3.369.722,7.7-4.812A8.508,8.508,0,0,1,252.6,360.769Z" transform="translate(740.678 3974.408)" fill="#a77860"/>
      <path id="Tracé_30240" data-name="Tracé 30240" d="M261.644,359.5a14.4,14.4,0,0,1-8.662.722l-.481,2.165v8.9s7.94-6.256,7.94-6.5,2.166-3.369,2.166-3.369Z" transform="translate(740.537 3977.361)" fill="#fff"/>
      <rect id="Rectangle_6583" data-name="Rectangle 6583" width="31.762" height="23.339" transform="translate(1051.537 4400.723) rotate(166.143)" fill="#3f4685"/>
      <path id="Tracé_30241" data-name="Tracé 30241" d="M257.707,361.631a6.909,6.909,0,0,0-.241,6.737c1.925,3.368,6.015,6.015,7.219,7.218s12.031,13.715,12.031,14.436c.241.481,3.85,10.346,5.775,15.639,1.684,5.293,3.85,13.474,3.85,13.474l6.015-1.925s-4.812-25.264-8.422-29.595-11.79-20.211-11.79-20.211S265.888,357.782,257.707,361.631Z" transform="translate(746.399 3979.079)" fill="#f9d048"/>
      <g id="Groupe_6753" data-name="Groupe 6753" transform="translate(1033.412 4396.531)">
        <path id="Tracé_29576" data-name="Tracé 29576" d="M277.269,392.24s.241-.722,0-.962a5.458,5.458,0,0,1-.241-.962v-.241a3.637,3.637,0,0,0-.481-1.925,31.723,31.723,0,0,0-2.887-3.85l-1.925.722-1.925.481s-.722,5.293-.481,6.015v.241c.241.722.722.963.962,1.444,0,0,.722,1.2,1.2,1.2a1.838,1.838,0,0,0,1.2-.481,2.965,2.965,0,0,0,1.684-.481,2.6,2.6,0,0,0,1.684-.722C276.066,392.962,277.029,392.962,277.269,392.24Z" transform="translate(-269.28 -384.3)" fill="#eea886"/>
      </g>
      <path id="Tracé_30243" data-name="Tracé 30243" d="M263.9,410.014s.5-3.531,2.741-4.063c-.1-.129,4.015-3.488,5.043-2.681l.587,1.156s-3.849,2.3-2.636,3.673,4.319,1.692,6.053,1.008,3.675,4.11,3.675,4.11,3.065,7.144,1.862,7.625c-1.2.722-3.609-1.684-5.053-2.406C274.487,417.713,271.84,413.864,263.9,410.014Z" transform="translate(756.567 4038.729)" fill="#e2001a"/>
      <path id="Tracé_30244" data-name="Tracé 30244" d="M258.624,360.6s-4.572,12.271-2.166,20.451l2.647,32.723v.241h0s-.722,2.887-5.053,2.166h-.241c-4.091-.963-4.812-3.368-4.812-3.368s2.166-9.384,2.166-12.752c0-3.128-.481-15.639-.481-15.639-4.091-8.181-2.887-11.79-2.887-11.79,1.925-6.5,7.459-11.068,7.459-11.068Z" transform="translate(733.691 3978.907)" fill="#f9d048"/>
      <path id="Tracé_30245" data-name="Tracé 30245" d="M259.1,366.2l4.091,7.7.722-2.887C263.912,371.253,260.062,366.681,259.1,366.2Z" transform="translate(749.818 3986.781)" fill="#cc9f44"/>
      <path id="Tracé_30246" data-name="Tracé 30246" d="M259.887,408.969s-8.422-2.406-10.587-3.369c1.925.962,10.828,5.774,11.79,6.256C260.609,410.893,260.368,409.931,259.887,408.969Z" transform="translate(736.037 4042.18)" fill="#a77860"/>
      <path id="Tracé_30254" data-name="Tracé 30254" d="M0,8.6S.479,3.93,2.839,3.3C2.731,3.153,7.07-.8,8.153.147l.619,1.361s-4.056,2.7-2.778,4.325,4.551,1.992,6.378,1.187,3.872,4.84,3.872,4.84S19.183,23.532,17.916,24.1c0,0-.26,2.585-1.681,1.289s-4-6.471-4-6.471c-1.1-.527-1.6-4.534-5.158-7.5C5.84,10.381,3.179,10.324,0,8.6Z" transform="matrix(-0.174, 0.985, -0.985, -0.174, 1020.407, 4484.984)" fill="#e2001a"/>
    </g>
  </g>
</svg>
