<?xml version="1.0" encoding="UTF-8"?> <svg xmlns="http://www.w3.org/2000/svg" xmlns:xlink="http://www.w3.org/1999/xlink" width="835px" height="783px" viewBox="0 0 835 783" version="1.1"><title>Firefox Browser</title><defs><rect id="path-1" x="-5.68434189e-14" y="0" width="834.1" height="782"></rect><linearGradient x1="87.2429294%" y1="15.4864935%" x2="9.35785907%" y2="93.1068721%" id="linearGradient-3"><stop stop-color="#FFF44F" offset="4.8%"></stop><stop stop-color="#FFE847" offset="11.1%"></stop><stop stop-color="#FFC830" offset="22.5%"></stop><stop stop-color="#FF980E" offset="36.8%"></stop><stop stop-color="#FF8B16" offset="40.1%"></stop><stop stop-color="#FF672A" offset="46.2%"></stop><stop stop-color="#FF3647" offset="53.4%"></stop><stop stop-color="#E31587" offset="70.5%"></stop></linearGradient><radialGradient cx="85.9040094%" cy="-12.9361295%" fx="85.9040094%" fy="-12.9361295%" r="128.36402%" gradientTransform="translate(0.859040,-0.129361),scale(0.812997,1.000000),translate(-0.859040,0.129361)" id="radialGradient-4"><stop stop-color="#FFBD4F" offset="12.9%"></stop><stop stop-color="#FFAC31" offset="18.6%"></stop><stop stop-color="#FF9D17" offset="24.7%"></stop><stop stop-color="#FF980E" offset="28.3%"></stop><stop stop-color="#FF563B" offset="40.3%"></stop><stop stop-color="#FF3750" offset="46.7%"></stop><stop stop-color="#F5156C" offset="71%"></stop><stop stop-color="#EB0878" offset="78.2%"></stop><stop stop-color="#E50080" offset="86%"></stop></radialGradient><radialGradient cx="47.7707286%" cy="39.5425308%" fx="47.7707286%" fy="39.5425308%" r="128.36402%" gradientTransform="translate(0.477707,0.395425),scale(0.812997,1.000000),translate(-0.477707,-0.395425)" id="radialGradient-5"><stop stop-color="#960E18" offset="30%"></stop><stop stop-color="#B11927" stop-opacity="0.74" offset="35.1%"></stop><stop stop-color="#DB293D" stop-opacity="0.343" offset="43.5%"></stop><stop stop-color="#F5334B" stop-opacity="0.094" offset="49.7%"></stop><stop stop-color="#FF3750" stop-opacity="0" offset="53%"></stop></radialGradient><radialGradient cx="49.9786996%" cy="-29.9997049%" fx="49.9786996%" fy="-29.9997049%" r="314.977628%" gradientTransform="translate(0.499787,-0.299997),scale(1.000000,0.588841),translate(-0.499787,0.299997)" id="radialGradient-6"><stop stop-color="#FFF44F" offset="13.2%"></stop><stop stop-color="#FFDC3E" offset="25.2%"></stop><stop stop-color="#FF9D12" offset="50.6%"></stop><stop stop-color="#FF980E" offset="52.6%"></stop></radialGradient><radialGradient cx="19.4522742%" cy="110.103699%" fx="19.4522742%" fy="110.103699%" r="111.735711%" gradientTransform="translate(0.194523,1.101037),scale(1.000000,0.911902),translate(-0.194523,-1.101037)" id="radialGradient-7"><stop stop-color="#3A8EE6" offset="35.3%"></stop><stop stop-color="#5C79F0" offset="47.2%"></stop><stop stop-color="#9059FF" offset="66.9%"></stop><stop stop-color="#C139E6" offset="100%"></stop></radialGradient><radialGradient cx="58.2225888%" cy="36.6565943%" fx="58.2225888%" fy="36.6565943%" r="59.2416476%" gradientTransform="translate(0.582226,0.366566),scale(1.000000,0.911902),rotate(-13.591564),translate(-0.582226,-0.366566)" id="radialGradient-8"><stop stop-color="#9059FF" stop-opacity="0" offset="20.6%"></stop><stop stop-color="#8C4FF3" stop-opacity="0.064" offset="27.8%"></stop><stop stop-color="#7716A8" stop-opacity="0.45" offset="74.7%"></stop><stop stop-color="#6E008B" stop-opacity="0.6" offset="97.5%"></stop></radialGradient><radialGradient cx="208.264744%" cy="-103.900975%" fx="208.264744%" fy="-103.900975%" r="293.396351%" gradientTransform="translate(2.082647,-1.039010),scale(1.000000,0.995575),translate(-2.082647,1.039010)" id="radialGradient-9"><stop stop-color="#FFE226" offset="0%"></stop><stop stop-color="#FFDB27" offset="12.1%"></stop><stop stop-color="#FFC82A" offset="29.5%"></stop><stop stop-color="#FFA930" offset="50.2%"></stop><stop stop-color="#FF7E37" offset="73.2%"></stop><stop stop-color="#FF7139" offset="79.2%"></stop></radialGradient><radialGradient cx="79.3090249%" cy="-40.8903561%" fx="79.3090249%" fy="-40.8903561%" r="193.789946%" gradientTransform="translate(0.793090,-0.408904),scale(0.839610,1.000000),translate(-0.793090,0.408904)" id="radialGradient-10"><stop stop-color="#FFF44F" offset="11.3%"></stop><stop stop-color="#FF980E" offset="45.6%"></stop><stop stop-color="#FF5634" offset="62.2%"></stop><stop stop-color="#FF3647" offset="71.6%"></stop><stop stop-color="#E31587" offset="90.4%"></stop></radialGradient><radialGradient cx="6.34333187%" cy="-10.3612767%" fx="6.34333187%" fy="-10.3612767%" r="348.752156%" gradientTransform="translate(0.063433,-0.103613),scale(1.000000,0.473647),rotate(83.976003),translate(-0.063433,0.103613)" id="radialGradient-11"><stop stop-color="#FFF44F" offset="0%"></stop><stop stop-color="#FFE847" offset="6%"></stop><stop stop-color="#FFC830" offset="16.8%"></stop><stop stop-color="#FF980E" offset="30.4%"></stop><stop stop-color="#FF8B16" offset="35.6%"></stop><stop stop-color="#FF672A" offset="45.5%"></stop><stop stop-color="#FF3647" offset="57%"></stop><stop stop-color="#E31587" offset="73.7%"></stop></radialGradient><radialGradient cx="15.3599383%" cy="-42.6959182%" fx="15.3599383%" fy="-42.6959182%" r="238.635234%" gradientTransform="translate(0.153599,-0.426959),scale(0.981601,1.000000),translate(-0.153599,0.426959)" id="radialGradient-12"><stop stop-color="#FFF44F" offset="13.7%"></stop><stop stop-color="#FF980E" offset="48%"></stop><stop stop-color="#FF5634" offset="59.2%"></stop><stop stop-color="#FF3647" offset="65.5%"></stop><stop stop-color="#E31587" offset="90.4%"></stop></radialGradient><radialGradient cx="155.379337%" cy="-44.6173616%" fx="155.379337%" fy="-44.6173616%" r="312.935292%" gradientTransform="translate(1.553793,-0.446174),scale(0.895202,1.000000),translate(-1.553793,0.446174)" id="radialGradient-13"><stop stop-color="#FFF44F" offset="9.4%"></stop><stop stop-color="#FFE141" offset="23.1%"></stop><stop stop-color="#FFAF1E" offset="50.9%"></stop><stop stop-color="#FF980E" offset="62.6%"></stop></radialGradient><linearGradient x1="86.2890315%" y1="15.0685444%" x2="20.0514316%" y2="83.5053708%" id="linearGradient-14"><stop stop-color="#FFF44F" stop-opacity="0.8" offset="16.7%"></stop><stop stop-color="#FFF44F" stop-opacity="0.634" offset="26.6%"></stop><stop stop-color="#FFF44F" stop-opacity="0.217" offset="48.9%"></stop><stop stop-color="#FFF44F" stop-opacity="0" offset="60%"></stop></linearGradient></defs><g id="Page-1" stroke="none" stroke-width="1" fill="none" fill-rule="evenodd"><g id="Firefox-Browser" transform="translate(0.000000, 0.100000)"><mask id="mask-2" fill="white"><use xlink:href="#path-1"></use></mask><g id="SVGID_1_"></g><g id="Group" mask="url(#mask-2)" fill-rule="nonzero"><g transform="translate(47.700000, 0.025000)"><path d="M711.9,255.975 C695.8,217.275 663.2,175.575 637.7,162.375 C655.9,197.675 668.5,235.475 675.1,274.575 L675.2,275.175 C633.4,170.975 562.5,128.875 504.6,37.375 C501.7,32.775 498.7,28.075 495.9,23.175 C494.3,20.375 493,17.875 491.8,15.575 C489.4,10.875 487.5,5.975 486.3,0.975 C486.3,0.775 486.2,0.475 486.1,0.375 C485.9,0.175 485.7,0.075 485.5,0.075 C485.3,-0.025 485,-0.025 484.8,0.075 C484.8,0.075 484.7,0.175 484.6,0.175 C484.5,0.175 484.4,0.275 484.3,0.275 L484.4,0.075 C391.5,54.475 360,155.175 357.1,205.475 C320,208.075 284.5,221.675 255.3,244.675 C252.3,242.075 249.1,239.675 245.8,237.475 C237.4,207.975 237,176.775 244.8,147.075 C210.7,163.575 180.4,186.975 155.8,215.875 L155.6,215.875 C140.9,197.275 142,136.075 142.8,123.275 C138.5,124.975 134.3,127.175 130.5,129.875 C117.6,139.075 105.5,149.475 94.4,160.875 C81.7,173.675 70.2,187.575 59.8,202.375 L59.8,202.475 L59.8,202.375 C36,236.075 19.2,274.175 10.2,314.375 L9.7,316.775 C9,320.075 6.5,336.275 6.1,339.875 C6.1,340.175 6,340.375 6,340.675 C2.8,357.475 0.8,374.575 1.70530257e-13,391.675 L1.70530257e-13,393.575 C0.1,486.175 34.9,575.375 97.6,643.475 C160.3,711.675 246.2,753.775 338.5,761.675 C430.8,769.575 522.6,742.475 595.9,685.875 C669.2,629.275 718.6,547.275 734.3,456.075 C734.9,451.275 735.4,446.575 736,441.775 C743.5,378.775 735.2,314.875 711.9,255.975 L711.9,255.975 Z M285.7,545.475 C287.4,546.275 289,547.175 290.8,547.975 L291.1,548.175 C289.3,547.275 287.5,546.375 285.7,545.475 L285.7,545.475 Z M675.2,275.275 L675.2,274.875 L675.2,275.275 L675.2,275.275 Z" id="Shape" fill="url(#linearGradient-3)"></path><path d="M711.9,255.975 C695.8,217.275 663.2,175.575 637.7,162.375 C655.9,197.675 668.5,235.475 675.1,274.575 L675.1,274.975 L675.2,275.375 C703.7,356.975 699.6,446.375 663.7,524.975 C621.3,615.875 518.7,709.075 358.2,704.575 C184.7,699.675 31.9,570.875 3.3,402.275 C-1.9,375.675 3.3,362.175 5.9,340.575 C2.3,357.375 0.3,374.475 4.54747351e-13,391.575 L4.54747351e-13,393.475 C0.1,486.075 34.9,575.275 97.6,643.375 C160.3,711.575 246.2,753.675 338.5,761.575 C430.8,769.475 522.6,742.375 595.9,685.775 C669.2,629.175 718.6,547.175 734.3,455.975 C734.9,451.175 735.4,446.475 736,441.675 C743.5,378.775 735.2,314.875 711.9,255.975 L711.9,255.975 Z" id="Path" fill="url(#radialGradient-4)"></path><path d="M711.9,255.975 C695.8,217.275 663.2,175.575 637.7,162.375 C655.9,197.675 668.5,235.475 675.1,274.575 L675.1,274.975 L675.2,275.375 C703.7,356.975 699.6,446.375 663.7,524.975 C621.3,615.875 518.7,709.075 358.2,704.575 C184.7,699.675 31.9,570.875 3.3,402.275 C-1.9,375.675 3.3,362.175 5.9,340.575 C2.3,357.375 0.3,374.475 4.54747351e-13,391.575 L4.54747351e-13,393.475 C0.1,486.075 34.9,575.275 97.6,643.375 C160.3,711.575 246.2,753.675 338.5,761.575 C430.8,769.475 522.6,742.375 595.9,685.775 C669.2,629.175 718.6,547.175 734.3,455.975 C734.9,451.175 735.4,446.475 736,441.675 C743.5,378.775 735.2,314.875 711.9,255.975 L711.9,255.975 Z" id="Path" fill="url(#radialGradient-5)"></path><path d="M532.2,299.475 C533,300.075 533.7,300.575 534.5,301.175 C525.2,284.675 513.6,269.575 500.2,256.375 C385.3,141.375 470.1,7.175 484.4,0.275 L484.5,0.075 C391.6,54.475 360.1,155.175 357.2,205.475 C361.5,205.175 365.8,204.775 370.2,204.775 C403.2,204.875 435.5,213.575 464,230.275 C492.4,246.875 515.9,270.775 532.2,299.475 L532.2,299.475 Z" id="Path" fill="url(#radialGradient-6)"></path><path d="M370.4,322.375 C369.8,331.575 337.3,363.275 325.9,363.275 C220.7,363.275 203.7,426.875 203.7,426.875 C208.4,480.475 245.7,524.575 290.8,547.875 C292.9,548.975 295,549.875 297,550.875 C300.6,552.475 304.2,553.975 307.9,555.275 C323.4,560.775 339.6,563.875 356,564.575 C540.3,573.175 576,344.175 443,277.675 C474.4,273.575 506.2,281.275 532.2,299.275 C516,270.575 492.4,246.775 463.9,230.075 C435.4,213.475 403.1,204.675 370.1,204.575 C365.7,204.575 361.4,204.975 357.1,205.275 C320,207.775 284.5,221.475 255.3,244.475 C260.9,249.275 267.3,255.575 280.7,268.875 C305.9,293.775 370.2,319.375 370.4,322.375 L370.4,322.375 Z" id="Path" fill="url(#radialGradient-7)"></path><path d="M370.4,322.375 C369.8,331.575 337.3,363.275 325.9,363.275 C220.7,363.275 203.7,426.875 203.7,426.875 C208.4,480.475 245.7,524.575 290.8,547.875 C292.9,548.975 295,549.875 297,550.875 C300.6,552.475 304.2,553.975 307.9,555.275 C323.4,560.775 339.6,563.875 356,564.575 C540.3,573.175 576,344.175 443,277.675 C474.4,273.575 506.2,281.275 532.2,299.275 C516,270.575 492.4,246.775 463.9,230.075 C435.4,213.475 403.1,204.675 370.1,204.575 C365.7,204.575 361.4,204.975 357.1,205.275 C320,207.775 284.5,221.475 255.3,244.475 C260.9,249.275 267.3,255.575 280.7,268.875 C305.9,293.775 370.2,319.375 370.4,322.375 L370.4,322.375 Z" id="Path" fill="url(#radialGradient-8)"></path><path d="M238.1,232.375 C241.1,234.275 243.6,235.975 245.7,237.475 C237.3,207.975 236.9,176.775 244.7,147.075 C210.6,163.575 180.3,186.975 155.7,215.875 C157.5,215.875 211.2,214.875 238.1,232.375 L238.1,232.375 Z" id="Path" fill="url(#radialGradient-9)"></path><path d="M3.3,402.275 C31.9,570.875 184.7,699.675 358.2,704.575 C518.8,709.075 621.4,615.875 663.7,524.975 C699.6,446.375 703.7,356.975 675.2,275.375 L675.2,274.975 C675.2,274.675 675.1,274.575 675.2,274.575 L675.3,275.175 C688.4,360.775 644.9,443.775 576.8,499.875 L576.6,500.375 C443.9,608.475 316.9,565.575 291.2,548.075 C289.4,547.175 287.6,546.275 285.8,545.375 C208.4,508.375 176.5,437.875 183.3,377.475 C164.9,377.775 146.9,372.675 131.3,362.875 C115.8,353.075 103.4,338.975 95.7,322.375 C116,309.975 139.2,302.875 163,301.975 C186.8,300.975 210.4,306.175 231.7,316.975 C275.5,336.875 325.3,338.775 370.5,322.475 C370.4,319.475 306,293.875 280.9,269.175 C267.5,255.975 261.1,249.575 255.5,244.775 C252.5,242.175 249.3,239.775 246,237.575 C243.8,236.075 241.3,234.475 238.4,232.475 C211.4,214.975 157.8,215.875 156,215.975 L155.8,215.975 C141.1,197.375 142.2,136.175 143,123.375 C138.7,125.075 134.5,127.275 130.7,129.975 C117.8,139.175 105.7,149.575 94.6,160.975 C81.9,173.775 70.3,187.575 59.9,202.375 L59.9,202.475 L59.9,202.375 C36.1,236.075 19.3,274.175 10.3,314.375 C10,315.075 -3.1,372.475 3.3,402.275 L3.3,402.275 Z" id="Path" fill="url(#radialGradient-10)"></path><path d="M500.1,256.375 C513.6,269.675 525.2,284.775 534.4,301.175 C536.4,302.675 538.3,304.275 539.9,305.675 C623.7,382.975 579.8,492.175 576.5,499.975 C644.8,443.875 688.3,360.975 675.2,275.275 C633.4,170.975 562.5,128.975 504.6,37.475 C501.7,32.875 498.7,28.175 495.9,23.275 C494.3,20.475 493,17.975 491.8,15.675 C489.4,10.975 487.5,6.075 486.3,1.075 C486.3,0.875 486.2,0.575 486.1,0.475 C485.9,0.275 485.7,0.175 485.5,0.175 C485.3,0.075 485,0.075 484.8,0.175 C484.8,0.175 484.7,0.275 484.6,0.275 C484.5,0.275 484.4,0.375 484.3,0.375 C470,7.075 385.2,141.375 500.1,256.375 L500.1,256.375 Z" id="Path" fill="url(#radialGradient-11)"></path><path d="M540,305.675 C538.4,304.175 536.5,302.675 534.5,301.175 C533.7,300.575 533,300.075 532.2,299.475 C506.2,281.475 474.4,273.775 443,277.875 C576,344.375 540.3,573.375 356,564.775 C339.6,564.075 323.4,560.975 307.9,555.475 C304.3,554.075 300.7,552.675 297,551.075 C294.9,550.075 292.8,549.175 290.8,548.075 L291.1,548.275 C316.8,565.775 443.8,608.675 576.5,500.575 L576.7,500.075 C579.9,492.175 623.9,382.875 540,305.675 L540,305.675 Z" id="Path" fill="url(#radialGradient-12)"></path><path d="M203.7,426.975 C203.7,426.975 220.8,363.375 325.9,363.375 C337.3,363.375 369.8,331.675 370.4,322.475 C325.2,338.875 275.4,336.875 231.6,316.975 C210.4,306.175 186.7,301.075 162.9,301.975 C139.1,302.975 115.9,309.975 95.6,322.375 C103.3,339.075 115.7,353.175 131.2,362.875 C146.7,372.675 164.8,377.675 183.2,377.475 C176.3,437.975 208.3,508.475 285.7,545.375 C287.4,546.175 289,547.075 290.8,547.875 C245.6,524.575 208.4,480.475 203.7,426.975 Z" id="Path" fill="url(#radialGradient-13)"></path><path d="M711.9,255.975 C695.8,217.275 663.2,175.575 637.7,162.375 C655.9,197.675 668.5,235.475 675.1,274.575 L675.2,275.175 C633.4,170.975 562.5,128.875 504.6,37.375 C501.7,32.775 498.7,28.075 495.9,23.175 C494.3,20.375 493,17.875 491.8,15.575 C489.4,10.875 487.5,5.975 486.3,0.975 C486.3,0.775 486.2,0.475 486.1,0.375 C485.9,0.175 485.7,0.075 485.5,0.075 C485.3,-0.025 485,-0.025 484.8,0.075 C484.8,0.075 484.7,0.175 484.6,0.175 C484.5,0.175 484.4,0.275 484.3,0.275 L484.4,0.075 C391.5,54.475 360,155.175 357.1,205.475 C361.4,205.175 365.7,204.775 370.1,204.775 C403.1,204.875 435.4,213.575 463.9,230.275 C492.4,246.875 515.9,270.775 532.2,299.475 C506.2,281.475 474.4,273.775 443,277.875 C576,344.375 540.3,573.375 356,564.775 C339.6,564.075 323.4,560.975 307.9,555.475 C304.3,554.075 300.7,552.675 297,551.075 C294.9,550.075 292.8,549.175 290.8,548.075 L291.1,548.275 C289.3,547.375 287.5,546.475 285.7,545.575 C287.4,546.375 289,547.275 290.8,548.075 C245.6,524.775 208.4,480.575 203.7,427.075 C203.7,427.075 220.8,363.475 325.9,363.475 C337.3,363.475 369.8,331.775 370.4,322.575 C370.3,319.575 305.9,293.975 280.8,269.275 C267.4,256.075 261,249.675 255.4,244.875 C252.4,242.275 249.2,239.875 245.9,237.675 C237.5,208.175 237.1,176.975 244.9,147.275 C210.8,163.775 180.5,187.175 155.9,216.075 L155.7,216.075 C141,197.475 142.1,136.275 142.9,123.475 C138.6,125.175 134.4,127.375 130.6,130.075 C117.7,139.275 105.6,149.675 94.5,161.075 C81.8,173.875 70.3,187.775 59.9,202.575 L59.9,202.675 L59.9,202.575 C36.1,236.275 19.3,274.375 10.3,314.575 L9.8,316.975 C9.1,320.275 6,336.775 5.5,340.275 C5.5,340.575 5.5,339.975 5.5,340.275 C2.6,357.375 0.8,374.575 0,391.875 L0,393.775 C0.1,486.375 34.9,575.575 97.6,643.675 C160.3,711.875 246.2,753.975 338.5,761.875 C430.8,769.775 522.6,742.675 595.9,686.075 C669.2,629.475 718.6,547.475 734.3,456.275 C734.9,451.475 735.4,446.775 736,441.975 C743.5,378.775 735.2,314.875 711.9,255.975 L711.9,255.975 Z M675.2,274.975 L675.3,275.375 L675.2,274.975 Z" id="Shape" fill="url(#linearGradient-14)"></path></g></g></g></g></svg> 