<svg xmlns="http://www.w3.org/2000/svg" xmlns:xlink="http://www.w3.org/1999/xlink" width="100%" height="100%"
  viewBox="0 0 33.86 33.86" focusable="false">
  <defs>
    <clipPath id="clip-path-eba">
      <rect width="33.86" height="33.86" transform="translate(240.859 1300)" fill="#00b1df"></rect>
    </clipPath>
  </defs>
  <g transform="translate(-240.859 -1300)"
    clip-path="url('/41382/smartpage/create/switchy2.zaions.com/CSY8?navigate=design#clip-path-eba')">
    <path id="form"
      d="M9.655,32.537A1.323,1.323,0,0,1,8.333,33.86H5.291A5.3,5.3,0,0,1,0,28.569V5.291A5.3,5.3,0,0,1,5.291,0H21.552a5.3,5.3,0,0,1,5.291,5.291v7.87a1.323,1.323,0,1,1-2.645,0V5.291a2.648,2.648,0,0,0-2.645-2.645H5.291A2.648,2.648,0,0,0,2.645,5.291V28.569a2.648,2.648,0,0,0,2.645,2.645H8.333a1.323,1.323,0,0,1,1.323,1.323Zm11.9-23.279a1.323,1.323,0,0,0-1.323-1.323H6.606a1.323,1.323,0,1,0,0,2.645H20.229A1.323,1.323,0,0,0,21.552,9.259Zm-5.283,5.291a1.323,1.323,0,0,0-1.323-1.323H6.606a1.323,1.323,0,0,0,0,2.645h8.34A1.323,1.323,0,0,0,16.269,14.549ZM6.606,18.517a1.323,1.323,0,0,0,0,2.645h5.5a1.323,1.323,0,0,0,0-2.645ZM29.681,32.876a2.648,2.648,0,0,1-2.06.984H14.7a2.673,2.673,0,0,1-2.612-3.223,9.275,9.275,0,0,1,5.2-6.536,5.158,5.158,0,1,1,7.743,0,9.216,9.216,0,0,1,2.012,1.262,9.322,9.322,0,0,1,3.16,5.15c.01.035.019.07.027.106a2.7,2.7,0,0,1-.551,2.257ZM18.649,20.7a2.513,2.513,0,1,0,2.513-2.513A2.516,2.516,0,0,0,18.649,20.7Zm8.993,10.48v0a6.616,6.616,0,0,0-12.959,0,.034.034,0,0,0,.014.04H27.621a.063.063,0,0,0,.022-.037Zm0,0"
      transform="translate(242.645 1300)" fill="#00b1df"></path>
  </g>
</svg>
