<svg width="24" height="24" viewBox="0 0 24 24" fill="none" xmlns="http://www.w3.org/2000/svg">
  <rect x="0.75" y="1.75" width="22.5" height="20.5" rx="1.5" stroke="currentColor" stroke-width="1.5"></rect>
  <path
    d="M9.25 6.5C9.66421 6.5 10 6.16421 10 5.75C10 5.33579 9.66421 5 9.25 5V6.5ZM9.25 11.75H10C10 11.3358 9.66421 11 9.25 11V11.75ZM7.75 11C7.33579 11 7 11.3358 7 11.75C7 12.1642 7.33579 12.5 7.75 12.5V11ZM9.25 5H5.25V6.5H9.25V5ZM3 7.25V16.75H4.5V7.25H3ZM5.25 19H7.75V17.5H5.25V19ZM10 16.75V11.75H8.5V16.75H10ZM9.25 11H7.75V12.5H9.25V11ZM7.75 19C8.99264 19 10 17.9926 10 16.75H8.5C8.5 17.1642 8.16421 17.5 7.75 17.5V19ZM3 16.75C3 17.9926 4.00736 19 5.25 19V17.5C4.83579 17.5 4.5 17.1642 4.5 16.75H3ZM5.25 5C4.00736 5 3 6.00736 3 7.25H4.5C4.5 6.83579 4.83579 6.5 5.25 6.5V5Z"
    fill="currentColor"></path>
  <path d="M12 5.75V18.25" stroke="currentColor" stroke-width="1.5" stroke-linecap="round"></path>
  <path d="M14.75 18.25V12.25M20.25 5.75H16.25C15.4216 5.75 14.75 6.42157 14.75 7.25V12.25M14.75 12.25H19.25"
    stroke="currentColor" stroke-width="1.5" stroke-linecap="round"></path>
</svg>
