<?xml version="1.0" encoding="UTF-8"?> <svg xmlns="http://www.w3.org/2000/svg" width="60" height="60"><g fill="none" fill-rule="evenodd"><path d="M46.027 13.191l.815-.896a6.806 6.806 0 0 1 10.072 0 8.235 8.235 0 0 1 0 11.08l-5.756 6.33a6.806 6.806 0 0 1-10.052.022 7.698 7.698 0 0 1-1.186-.971l-5.676-5.676A7.662 7.662 0 1 1 45.08 12.244l.947.947zM45.5 25a3.5 3.5 0 1 0 0-7 3.5 3.5 0 0 0 0 7z" fill="#CEDAFA"></path><path d="M13.25 34.623C5.201 34.514 1 30.364 1 22.477v-9.27c0-5.75 2.54-9.042 7.432-9.53V2.209a1 1 0 1 1 2 0V8.25a1 1 0 0 1-2 0V5.69C4.752 6.13 3 8.528 3 13.206v9.271c0 6.871 3.403 10.148 10.576 10.148 7.204 0 10.937-3.325 11.515-10.148V12.66c.083-4.357-1.52-6.579-5.023-6.971V8.25a1 1 0 1 1-2 0V2.208a1 1 0 0 1 2 0V3.68c4.71.441 7.127 3.555 7.023 9l-.004 9.882c-.623 7.4-4.655 11.47-11.837 12.004v18.393a3.826 3.826 0 0 0 3.818 3.834 3.826 3.826 0 0 0 3.818-3.834V39.02c0-3.888 3.144-7.042 7.023-7.042 3.88 0 7.023 3.154 7.023 7.042v9.106a3.826 3.826 0 0 0 3.818 3.833 3.826 3.826 0 0 0 3.818-3.833V25.903A4.502 4.502 0 0 1 45.5 17a4.5 4.5 0 0 1 1.068 8.872v22.253c0 3.221-2.604 5.833-5.818 5.833-3.214 0-5.818-2.612-5.818-5.833v-9.106c0-2.785-2.25-5.042-5.023-5.042-2.773 0-5.023 2.257-5.023 5.042v13.94c0 3.22-2.604 5.833-5.818 5.833-3.214 0-5.818-2.613-5.818-5.834V34.623zM45.5 24a2.5 2.5 0 1 0 0-5 2.5 2.5 0 0 0 0 5z" fill="#000" fill-rule="nonzero"></path></g></svg> 