<?xml version="1.0" encoding="UTF-8"?> <svg xmlns="http://www.w3.org/2000/svg" width="60" height="60"><g fill="none" fill-rule="evenodd"><circle fill="#FFD767" cx="31" cy="14" r="12"></circle><path d="M33.917 51.27H6.312a2.208 2.208 0 0 1-2.208-2.208V9.313c0-1.22.989-2.208 2.208-2.208H17.907m21.532 18.978v13.043m15.458 18.77l-5.479-7.583-.042-10.083c.093-3.926-5.7-8.53-9.938-12.146m4.468 16.563l-5.94-6.113a2.343 2.343 0 0 0-3.313 3.313l5.94 7.217v3.312c0 2.122 3.445 5.52 3.445 5.52M23.988 13.73h6.625v6.625-6.625l-18.77 17.667m1.103 5.52v7.73m6.625-13.25v13.25m6.625-17.667v17.667" stroke="#252628" stroke-width="2" stroke-linecap="round" stroke-linejoin="round"></path></g></svg> 