<?xml version="1.0" encoding="UTF-8"?> <svg xmlns="http://www.w3.org/2000/svg" width="60" height="60"><g fill="none" fill-rule="evenodd"><path d="M25.267 16.917a7.196 7.196 0 0 1-.028-.785c-4.522-2.055-7.864-3.708-10.024-4.958-2.2-1.273-4.55-2.922-7.046-4.948 2.526-2.395 6.227-2.182 11.103.638 3.841 2.222 5.943 4.635 6.304 7.238.741-2.343 2.7-4.588 5.876-6.734 5.25-3.548 9.545-3.933 12.884-1.154l-13.588 9.182c1.479.05 3.102.379 4.868.988 5.989 2.066 8.744 5.666 8.267 10.8l-21.274-7.34c.16-.263.328-.514.502-.754L2.125 24.724c.276-3.532 3.642-6.164 10.1-7.898 5.76-1.546 9.788-1.252 12.083.883a8.56 8.56 0 0 1 .959-.792z" fill="#C6FAA0"></path><path d="M9.824 57.117l11.684-36.205-17.22 4.653a2.9 2.9 0 0 1-2.737-.675c-.735-.685-1.06-1.701-.874-2.597.616-5.41 4.566-9.856 9.917-11.131.453-.09.9-.166 1.342-.227L8.413 7.127a2.872 2.872 0 0 1-.642-2.834 2.89 2.89 0 0 1 2.174-1.95 34.271 34.271 0 0 1 6.609-.612 13.824 13.824 0 0 1 9.654 5.262c.683-1.473 1.635-2.715 2.889-3.65A13.316 13.316 0 0 1 42.953 1.95a2.877 2.877 0 0 1 1.628 2.121 2.864 2.864 0 0 1-.816 2.534l-6.41 6.417.15.03c5.249 1.24 9.173 5.597 9.828 10.854a2.88 2.88 0 0 1-.922 2.738 2.897 2.897 0 0 1-2.826.574l-14.838-4.836-1.813 34.735H58.37a1 1 0 1 1 0 2H1.63a1 1 0 0 1 0-2h8.194zm2.102 0H24.93l1.847-35.377-3.11-1.013-11.742 36.39zm2.563-46.368c4.272-.017 7.888 1.526 10.403 4.738l.029-.023.002-1.364a16.025 16.025 0 0 1 .467-4.78c-1.94-3.175-5.279-5.258-8.928-5.593a32.316 32.316 0 0 0-6.123.577.874.874 0 1 0-.462 1.46l4.612 4.985zm12.914-1.205c-.203.738-.34 1.507-.42 2.287-.08.769-.095 1.449-.073 1.98l.01.214v.14c2.19-1.144 4.83-1.705 7.942-1.478l7.497-7.505a.87.87 0 0 0-.262-1.424A11.327 11.327 0 0 0 30.3 4.94c-1.176.877-2.027 2.122-2.594 3.657-.093.252-.177.51-.253.77-.012.06-.028.12-.05.177zm-13.208 3.205c-.07.01-.14.011-.209.006-.95.035-1.94.156-2.965.36-4.496 1.073-7.836 4.832-8.37 9.49a.88.88 0 0 0 .263.821.9.9 0 0 0 .851.209l18.614-5.03.826-1.37c.071-.106.154-.219.248-.338-2.174-2.885-5.37-4.24-9.258-4.148zm21.03 1.975c-.055-.001-.11-.006-.166-.017-3.402-.318-6.117.413-8.23 1.838-.61.41-1.117.849-1.525 1.283-.235.25-.38.434-.411.48l-.36.597 3.58 1.167a.993.993 0 0 1 .026.009l16.073 5.238a.9.9 0 0 0 .879-.177c.238-.21.345-.529.27-.912a10.879 10.879 0 0 0-8.281-9.224c-.64-.127-1.257-.22-1.854-.282zm3.291 34.978a11.757 11.757 0 0 1-5.187-1.174 1 1 0 0 1 .872-1.8c1.34.649 2.813.982 4.301.974a10.72 10.72 0 0 0 7.785-3.444 1 1 0 0 1 1.427-.044 12.936 12.936 0 0 0 10.533 3.496 1 1 0 0 1 .245 1.985 14.94 14.94 0 0 1-11.432-3.382 12.727 12.727 0 0 1-8.544 3.39z" fill="#000" fill-rule="nonzero"></path></g></svg> 