<?xml version="1.0" encoding="UTF-8"?> <svg xmlns="http://www.w3.org/2000/svg" width="60" height="60"><g fill="none" fill-rule="evenodd"><path d="M11 28h13a2 2 0 0 1 2 2v2a2 2 0 0 1-2 2H11a2 2 0 0 1-2-2v-2a2 2 0 0 1 2-2zm-8 8h21a2 2 0 0 1 2 2v2a2 2 0 0 1-2 2H3a2 2 0 0 1-2-2v-2a2 2 0 0 1 2-2z" fill="#CEDAFA"></path><path d="M29.1 50.526h19.423c.17-3.694 1.287-6.672 3.058-8.983.287-.375.575-.713.858-1.017H39.33c-2.387 0-4.696-.853-6.51-2.408l-1.813-1.559a4 4 0 0 1 2.603-7.037h9.329l-2.031-1.875a8 8 0 0 0-5.426-2.121H13.5a1 1 0 0 1 0-2h21.982a10 10 0 0 1 6.782 2.651l3.86 3.564a1 1 0 0 1 .054.046l9.733 8.989c.017.014.033.03.049.045l1.204 1.112a7.258 7.258 0 0 1-4.924 12.593H41.384c-.557 3.312-3.418 6-6.884 6-2.54 0-4.736-1.42-5.947-3.482a7.002 7.002 0 0 1-12.982-2.518H13.5a1 1 0 0 1 0-2h2.999a.959.959 0 0 1 .002 0h10.134c-1.843-2.413-4.74-4-7.843-4H13.5a1 1 0 1 1 0-2h5.292a11.85 11.85 0 0 1 10.308 6zm26.043-9.737a10.224 10.224 0 0 0-1.974 1.97c-1.513 1.973-2.48 4.53-2.644 7.767h1.715a5.258 5.258 0 0 0 3.568-9.123l-.665-.614zm-2.451-2.263l-7.587-7.004H33.61a2 2 0 0 0-1.3 3.52l1.813 1.559a8 8 0 0 0 5.207 1.925h13.362zm-23.079 14c.52 2.213 2.52 4 4.887 4 2.36 0 4.36-1.795 4.885-4h-9.772zm-2.213 0h-9.8a5.002 5.002 0 0 0 9.8 0z" fill="#000" fill-rule="nonzero"></path></g></svg> 