<?xml version="1.0" encoding="UTF-8"?> <svg xmlns="http://www.w3.org/2000/svg" width="60" height="60"><g fill="none" fill-rule="evenodd"><path d="M32 24.513L49.377 11l8.546 10.938L40.22 35.513l-8.221-11zM44.5 27a3.5 3.5 0 1 0 0-7 3.5 3.5 0 0 0 0 7zM10.646 3L30 13.526 22.354 26 3 15.474 10.646 3zM16.5 18a3.5 3.5 0 1 0 0-7 3.5 3.5 0 0 0 0 7zm.572 13.677l13.006 5.002-3.152 6.714-13.007-5.003 3.153-6.713z" fill="#C6FAA0"></path><path d="M30 39.455l-1.709 4.346a2.1 2.1 0 0 1-2.72 1.187L13.834 40.39a2.1 2.1 0 0 1-1.19-2.72l2.578-6.554a2.1 2.1 0 0 1 2.72-1.187l11.737 4.597c.113.044.22.097.321.158V3a1 1 0 0 1 2 0v19.803c.046-.041.093-.08.142-.119l15.006-11.749a3.2 3.2 0 0 1 4.488.542l6.432 8.182a3.2 3.2 0 0 1-.538 4.494L42.525 35.9a3.2 3.2 0 0 1-4.488-.542L32 27.681V50h6.75c.708-.001 1.38.32 1.807.874.442.574.563 1.323.32 1.999l-1.944 5.462a1 1 0 0 1-1.884-.67l1.945-5.465c.012-.034.006-.069-.022-.105a.28.28 0 0 0-.22-.095H22.246a.278.278 0 0 0-.22.095c-.027.036-.033.071-.022.104l1.97 5.462a1 1 0 0 1-1.882.678l-1.97-5.464a2.105 2.105 0 0 1 .32-2A2.274 2.274 0 0 1 22.249 50H30V39.455zM16.5 19a4.5 4.5 0 1 1 0-9 4.5 4.5 0 0 1 0 9zm0-2a2.5 2.5 0 1 0 0-5 2.5 2.5 0 0 0 0 5zm28 11a4.5 4.5 0 1 1 0-9 4.5 4.5 0 0 1 0 9zm0-2a2.5 2.5 0 1 0 0-5 2.5 2.5 0 0 0 0 5zM11.433 3.91a1.2 1.2 0 0 0-1.638.439l-5.212 9.004a1.2 1.2 0 0 0 .44 1.64l15.931 9.184a1.2 1.2 0 0 0 1.638-.438l5.212-9.004a1.2 1.2 0 0 0-.44-1.64L11.433 3.91zm.999-1.733l15.931 9.184a3.2 3.2 0 0 1 1.174 4.37l-5.214 9.01a3.2 3.2 0 0 1-4.368 1.17L4.024 16.725a3.2 3.2 0 0 1-1.175-4.37l5.215-9.01a3.2 3.2 0 0 1 4.368-1.169zm44.064 18.718l-6.432-8.182a1.2 1.2 0 0 0-1.683-.203l-15 11.745a1.2 1.2 0 0 0-.204 1.686l6.432 8.182a1.2 1.2 0 0 0 1.683.204l15-11.745a1.2 1.2 0 0 0 .204-1.687zM17.083 31.848l-2.576 6.55a.1.1 0 0 0 .057.13L26.3 43.125a.1.1 0 0 0 .13-.056l2.576-6.551a.1.1 0 0 0-.056-.13l-11.737-4.597a.1.1 0 0 0-.13.057z" fill="#000" fill-rule="nonzero"></path></g></svg> 