<?xml version="1.0" encoding="UTF-8"?> <svg xmlns="http://www.w3.org/2000/svg" width="60" height="60"><g fill="none" fill-rule="evenodd"><ellipse fill="#FFDF87" cx="43" cy="19.5" rx="16" ry="16.5"></ellipse><path d="M38.144 51.932a21.137 21.137 0 0 1-11.402 2.985 21.717 21.717 0 0 1-11.425-3.03l-1.421 5.769a1 1 0 1 1-1.942-.478l1.59-6.458a22.123 22.123 0 0 1-5.81-6.303H2.575a1 1 0 0 1-1-1v-14a1 1 0 0 1 1-1h3.537a20.171 20.171 0 0 1 6.386-8.969l.768-6.225a2.746 2.746 0 0 1 1.698-2.218 2.706 2.706 0 0 1 2.756.447l4.56 3.857a1 1 0 1 1-1.29 1.527l-4.56-3.857a.706.706 0 0 0-.721-.118.747.747 0 0 0-.458.606l-.818 6.636a1 1 0 0 1-.385.672 18.176 18.176 0 0 0-6.265 8.944 1 1 0 0 1-.953.698H3.575v12h4.727a1 1 0 0 1 .866.499c3.644 6.3 10.347 10.12 17.584 10.001 4.136.11 8.074-1.11 11.346-3.33a.993.993 0 0 1 .235-.162A19.738 19.738 0 0 0 45.76 39.39a1 1 0 1 1 1.9.624c-.041.125-.083.249-.126.372a1.01 1.01 0 0 1-.034.131 20.205 20.205 0 0 1-6.268 9.182c-.426.37-.866.722-1.318 1.056l1.582 6.422a1 1 0 1 1-1.942.479l-1.41-5.724zM44 10.917h2.275a1 1 0 1 1 0 2H41.6c-.996 0-1.856.72-2.047 1.724-.192 1.007.345 2.007 1.272 2.385l4.75 1.928c1.813.74 2.851 2.675 2.482 4.613-.37 1.94-2.05 3.348-4.01 3.35H44v.992c0 .603-.448 1.091-1 1.091s-1-.488-1-1.09v-.993h-2.625a1 1 0 0 1 0-2h4.67c.996-.001 1.856-.721 2.047-1.725.192-1.006-.345-2.007-1.272-2.385l-4.749-1.928c-1.814-.74-2.852-2.675-2.483-4.612.37-1.942 2.05-3.349 4.011-3.35H42v-.826C42 9.488 42.448 9 43 9s1 .488 1 1.09v.827zm-24.038 16.75c0 1.032-.83 1.875-1.862 1.875a1.869 1.869 0 0 1-1.863-1.875c0-1.033.831-1.875 1.863-1.875s1.862.842 1.862 1.875z" fill="#000" fill-rule="nonzero"></path></g></svg> 