<?xml version="1.0" encoding="UTF-8"?> <svg xmlns="http://www.w3.org/2000/svg" width="60" height="60"><g fill="none" fill-rule="evenodd"><path d="M43.634 12.987l.056.04-4.14.016c-.856 0-1.55.624-1.55 1.393l.042 8.179c.004.766.697 1.385 1.55 1.385l10.857-.043c.413 0 .808-.148 1.1-.41.04-.037.079-.076.114-.116A21.957 21.957 0 0 1 53 31c0 12.15-9.85 22-22 22S9 43.15 9 31 18.85 9 31 9c3.6 0 7 .865 10 2.399V13l2.634-.013zM31 34a3 3 0 1 0 0-6 3 3 0 0 0 0 6z" fill="#E1EAFF"></path><path d="M31 9C18.85 9 9 18.85 9 31s9.85 22 22 22 22-9.85 22-22m-1-8.443c.002.371-.16.727-.452.99-.29.262-.686.41-1.099.41L39.593 24c-.854 0-1.547-.62-1.551-1.385L38 14.435c0-.768.694-1.392 1.55-1.392L50.408 13c.854 0 1.547.62 1.551 1.385L52 22.557zM44.981 7h0c-1.06.005-2.076.469-2.823 1.288-.746.819-1.163 1.927-1.158 3.08V13l8-.04V11.33c-.005-1.153-.43-2.257-1.184-3.07-.754-.811-1.774-1.264-2.835-1.259h0zM42 42l-8.735-8.735M31 34a3 3 0 1 0 0-6 3 3 0 0 0 0 6zm0-14v8" stroke="#252628" stroke-width="2" stroke-linecap="round" stroke-linejoin="round"></path></g></svg> 