<?xml version="1.0" encoding="UTF-8"?> <svg xmlns="http://www.w3.org/2000/svg" width="60" height="60"><g fill="none" fill-rule="evenodd"><circle fill="#C6FAA0" cx="42" cy="42" r="13"></circle><path d="M24.044 21.002c10.493 0 19-3.582 19-8s-8.507-8-19-8-19 3.582-19 8 8.507 8 19 8zm0 7.998c-10.492 0-19-3.58-19-8m16 16.9c-9.066-.6-16-3.91-16-7.898m17 16.956c-9.552-.42-17-3.822-17-7.956V13m38 .002v9m-4.006 29c6.627 0 12-5.373 12-12s-5.373-12-12-12-12 5.373-12 12 5.373 12 12 12zm5.348-15.488l-5.81 7.748a1.5 1.5 0 0 1-2.26.16l-3-3" stroke="#252628" stroke-width="2" stroke-linecap="round" stroke-linejoin="round"></path></g></svg> 