<?xml version="1.0" encoding="UTF-8"?> <svg xmlns="http://www.w3.org/2000/svg" width="60" height="60"><g fill="none" fill-rule="evenodd"><path d="M12 43h10.84l.314.035a1 1 0 0 1 .89.962c.075 2.384.197 4.365.366 5.943.107 1.003 1.717.111 2.044 1.707.11.537.12 2.33.03 5.382a1 1 0 0 1-.999.971H12a1 1 0 0 1-1-1V44a1 1 0 0 1 1-1zm30-15h12.836a1 1 0 0 0 .286-.042c1.096-.327 1.644.812 1.644 3.416 0 2.7-.589 4.075-1.766 4.126V43c.683.087 1.025 1.37 1.025 3.848 0 2.478-.342 3.695-1.025 3.652V57a1 1 0 0 1-1 1H42a1 1 0 0 1-1-1V29a1 1 0 0 1 1-1z" fill="#FFDF87"></path><path d="M53.87 4.241H39.545a1 1 0 1 1 0-2h16.738a1 1 0 0 1 1.217.976v18.024a1 1 0 0 1-2 0V5.387L39.899 22.035a3.455 3.455 0 0 1-4.661.341l-8.79-6.992a1.478 1.478 0 0 0-1.956.107L3.928 35.93a.988.988 0 0 1-1.396-.004.985.985 0 0 1 .003-1.394L23.1 14.093a3.455 3.455 0 0 1 4.575-.253l8.79 6.993c.601.476 1.47.412 1.993-.145L53.87 4.24zM5.5 49.565H23.41V44.13H3.01v5.435h2.489zm19.911 0h.489a2 2 0 0 1 2 2V57a2 2 0 0 1-2 2h-20.4a2 2 0 0 1-2-2v-5.435H3.01a2 2 0 0 1-2-2V44.13a2 2 0 0 1 2-2h20.4a2 2 0 0 1 2 2v5.435zm-2 2H5.499V57h20.4v-5.435H23.41zm31.867 0V57a2 2 0 0 1-2 2h-20.4a2 2 0 0 1-2-2v-5.435a2 2 0 0 1 2-2h.489V44.13h-.49a2 2 0 0 1-2-2v-5.434a2 2 0 0 1 2-2h.49V29.26a2 2 0 0 1 2-2h20.4a2 2 0 0 1 2 2v5.435a2 2 0 0 1-2 2h-.49v5.434h.49a2 2 0 0 1 2 2v5.435a2 2 0 0 1-2 2h-.49zm-2 0H32.876V57h20.4v-5.435zm0-2h2.489V44.13h-20.4v5.435h17.91zM35.366 42.13h17.91v-5.434h-20.4v5.434h2.49zm0-7.434h20.4V29.26h-20.4v5.435z" fill="#000" fill-rule="nonzero"></path></g></svg> 