<svg width="24" height="24" viewBox="0 0 24 24" fill="none" xmlns="http://www.w3.org/2000/svg">
  <path
    d="M22.3316 2.40639L19.2 1.20001V13.2V19.2C19.1415 21.1845 17.5854 22.8 15.6 22.8H13.2H12L16.1249 23.9101C17.5753 24.2911 19.0607 23.4266 19.4429 21.9789L23.9099 5.59891C24.2553 4.29072 23.5819 2.92852 22.3316 2.40639Z"
    fill="currentColor"></path>
  <path
    d="M0.75 2.25C0.75 1.42157 1.42157 0.75 2.25 0.75L15.75 0.75C16.5784 0.75 17.25 1.42157 17.25 2.25L17.25 19.75C17.25 20.5784 16.5784 21.25 15.75 21.25L2.25 21.25C1.42157 21.25 0.75 20.5784 0.75 19.75L0.75 2.25Z"
    stroke="currentColor" stroke-width="1.5"></path>
  <path
    d="M16.4751 17.5357C16.7709 17.8256 17.2457 17.8208 17.5357 17.5249C17.8256 17.2291 17.8208 16.7543 17.5249 16.4643L16.4751 17.5357ZM10.9514 13.2262L10.4025 12.7151L10.9514 13.2262ZM13.099 13.177L12.5741 13.7127L13.099 13.177ZM4.18176 21.5967L11.5002 13.7373L10.4025 12.7151L3.08399 20.5745L4.18176 21.5967ZM12.5741 13.7127L16.4751 17.5357L17.5249 16.4643L13.624 12.6414L12.5741 13.7127ZM11.5002 13.7373C11.7876 13.4286 12.2729 13.4175 12.5741 13.7127L13.624 12.6414C12.7204 11.7559 11.2646 11.7892 10.4025 12.7151L11.5002 13.7373Z"
    fill="currentColor"></path>
  <circle cx="5" cy="6" r="1.5" fill="currentColor"></circle>
  <path d="M9 16L5.04712 12.1657C4.46416 11.6002 3.53702 11.6014 2.95554 12.1684L0.5 14.5628" stroke="currentColor"
    stroke-width="1.5"></path>
</svg>
