<svg xmlns="http://www.w3.org/2000/svg" width="100%" height="100%" viewBox="0 0 24.761 24.761" focusable="false">
  <defs>
    <clipPath>
      <path d="M0 0H24.761V24.761H0z" class="jello_cls-1" transform="translate(187.837 232.837)"></path>
    </clipPath>
    <style>
      .jello_cls-1 {
        fill: #fff
      }

    </style>
  </defs>
  <g transform="translate(-187.837 -232.837)">
    <g transform="translate(187.837 232.837)">
      <path
        d="M16.8 4.869a.773.773 0 0 0-1.094 0L.227 20.345a.773.773 0 0 0 0 1.094l3.1 3.1a.774.774 0 0 0 1.094 0l15.471-15.48a.773.773 0 0 0 0-1.094l-3.1-3.1zM3.869 22.893l-2-2L12.38 10.38l2 2zm11.607-11.607l-2-2 2.775-2.775 2 2z"
        class="jello_cls-1"></path>
      <path
        d="M10.833 6.19a6.041 6.041 0 0 1 3.1-3.1 6.041 6.041 0 0 1-3.1-3.1 6.042 6.042 0 0 1-3.1 3.1 6.041 6.041 0 0 1 3.1 3.1z"
        class="jello_cls-1"></path>
      <path
        d="M23.213 10.833a3.021 3.021 0 0 1-1.548 1.548 3.021 3.021 0 0 1 1.548 1.548 3.021 3.021 0 0 1 1.548-1.548 3.021 3.021 0 0 1-1.548-1.548z"
        class="jello_cls-1"></path>
      <path
        d="M23.213 2.321A4.531 4.531 0 0 1 20.892 0a4.531 4.531 0 0 1-2.321 2.321 4.531 4.531 0 0 1 2.321 2.321 4.531 4.531 0 0 1 2.321-2.321z"
        class="jello_cls-1"></path>
    </g>
  </g>
</svg>
