<svg xmlns="http://www.w3.org/2000/svg" width="120" height="120" viewBox="0 0 120 120">
    <defs>
        <clipPath id="prefix__clip-path">
            <path id="prefix__Rectangle_8345" d="M0 0H120V120H0z" class="prefix__cls-1" data-name="Rectangle 8345" transform="translate(-6121 -18690)"/>
        </clipPath>
        <style>
            .prefix__cls-1{fill:#b8d9ff}
        </style>
    </defs>
    <g id="prefix__Groupe_de_masques_885" data-name="Groupe de masques 885" transform="translate(6121 18690)">
        <g id="prefix__game-console" transform="translate(-6121 -18690)">
            <g id="prefix__Groupe_9539" data-name="Groupe 9539" style="opacity:.2">
                <g id="prefix__Groupe_9538" data-name="Groupe 9538">
                    <path id="prefix__Rectangle_8344" d="M0 0H42.188V35.625H0z" class="prefix__cls-1" data-name="Rectangle 8344" transform="translate(38.906 21.094)"/>
                </g>
            </g>
            <g id="prefix__Groupe_9541" data-name="Groupe 9541">
                <g id="prefix__Groupe_9540" data-name="Groupe 9540">
                    <path id="prefix__Tracé_33884" d="M91.641 0H28.359a10.559 10.559 0 0 0-10.546 10.547v98.906A10.559 10.559 0 0 0 28.359 120h49.219a24.639 24.639 0 0 0 24.609-24.609V10.547A10.559 10.559 0 0 0 91.641 0zM49.453 84.844h-3.515v3.516a3.516 3.516 0 0 1-7.031 0v-3.516h-3.516a3.516 3.516 0 0 1 0-7.031h3.516V74.3a3.516 3.516 0 0 1 7.031 0v3.516h3.516a3.516 3.516 0 0 1 0 7.031zm14.063 21.094a3.516 3.516 0 1 1 3.516-3.516 3.516 3.516 0 0 1-3.516 3.516zm7.031-14.062a3.516 3.516 0 1 1 3.516-3.516 3.516 3.516 0 0 1-3.516 3.515zm7.031 14.063a3.516 3.516 0 1 1 3.516-3.516 3.516 3.516 0 0 1-3.516 3.515zM74.063 74.3a3.516 3.516 0 1 1 3.516 3.516 3.515 3.515 0 0 1-3.516-3.516zm10.546 17.575a3.516 3.516 0 1 1 3.516-3.516 3.516 3.516 0 0 1-3.516 3.516zm3.516-31.641a3.514 3.514 0 0 1-3.516 3.516H35.391a3.514 3.514 0 0 1-3.516-3.516V17.578a3.514 3.514 0 0 1 3.516-3.516h49.218a3.514 3.514 0 0 1 3.516 3.516z" class="prefix__cls-1" data-name="Tracé 33884"/>
                </g>
            </g>
        </g>
    </g>
</svg>
