<svg xmlns="http://www.w3.org/2000/svg" width="120" height="120" viewBox="0 0 120 120">
    <defs>
        <clipPath id="prefix__clip-path">
            <path id="prefix__Rectangle_8349" d="M0 0H120V120H0z" data-name="Rectangle 8349" transform="translate(-6403 -18133)" style="fill:#1579eb"/>
        </clipPath>
        <style>
            .prefix__cls-5{fill:#b8d9ff}
        </style>
    </defs>
    <g id="prefix__Groupe_de_masques_889" data-name="Groupe de masques 889" transform="translate(6403 18133)">
        <g id="prefix__wrench" transform="translate(-6403 -18133)">
            <path id="prefix__Tracé_33898" d="M112.1 73.989a26.8 26.8 0 0 0-25.366-7.136l-33.6-33.6A26.938 26.938 0 0 0 17.109 1.86a3.515 3.515 0 0 0-1.2 5.76L27.9 19.61l-2.072 6.215L19.61 27.9 7.619 15.905a3.515 3.515 0 0 0-5.76 1.2 26.913 26.913 0 0 0 31.395 36.036l33.6 33.6A26.948 26.948 0 1 0 112.1 73.989zm-9.944 28.172a12.89 12.89 0 1 1 0-18.23 12.849 12.849 0 0 1 0 18.23zm0 0" data-name="Tracé 33898" style="opacity:.8;fill:#b8d9ff"/>
            <path id="prefix__Tracé_33899" d="M64.144 69.317a3.515 3.515 0 0 1-2.486-1.03l-9.944-9.944a3.514 3.514 0 0 1 0-4.971l33.579-33.58 3.832-10.026a3.516 3.516 0 0 1 1.9-1.975l17.445-7.5a3.517 3.517 0 0 1 3.875.743l6.628 6.629a3.514 3.514 0 0 1 .744 3.875l-7.5 17.445a3.516 3.516 0 0 1-1.975 1.9l-10.032 3.824-33.58 33.58a3.516 3.516 0 0 1-2.486 1.03zm24.167-47.57zm0 0" data-name="Tracé 33899" style="fill:#e8f3ff"/>
            <path id="prefix__Tracé_33900" d="M17.581 120a17.572 17.572 0 0 1-12.43-30l25.02-25.019a3.514 3.514 0 0 1 4.971 0 3.516 3.516 0 0 0 4.972-4.972 3.514 3.514 0 0 1 0-4.971l6.628-6.629a3.517 3.517 0 0 1 4.971 0L71.6 68.3a3.515 3.515 0 0 1 0 4.972L64.973 79.9a3.515 3.515 0 0 1-4.973 0 3.516 3.516 0 1 0-4.971 4.972 3.516 3.516 0 0 1 0 4.971L30.01 114.859A17.528 17.528 0 0 1 17.581 120zM7.637 92.486zm0 0" class="prefix__cls-5" data-name="Tracé 33900"/>
            <path id="prefix__Tracé_33901" d="M17.581 105.937a3.516 3.516 0 0 1-2.486-6l18.749-18.75a3.516 3.516 0 1 1 4.972 4.972l-18.75 18.749a3.5 3.5 0 0 1-2.486 1.03zm0 0" class="prefix__cls-5" data-name="Tracé 33901"/>
            <path id="prefix__Tracé_33902" d="M17.581 105.937a3.505 3.505 0 0 0 2.486-1.03l18.748-18.749a3.515 3.515 0 0 0 0-4.972L15.1 104.907a3.5 3.5 0 0 0 2.486 1.03zm0 0" class="prefix__cls-5" data-name="Tracé 33902"/>
        </g>
    </g>
</svg>
