<svg xmlns="http://www.w3.org/2000/svg" width="120" height="120" viewBox="0 0 120 120">
    <defs>
        <clipPath id="prefix__clip-path">
            <path id="prefix__Rectangle_8346" d="M0 0H120V120H0z" class="prefix__cls-1" data-name="Rectangle 8346" transform="translate(-6412 -18265)"/>
        </clipPath>
        <style>
            .prefix__cls-1{fill:#b8d9ff}
        </style>
    </defs>
    <g id="prefix__Groupe_de_masques_886" data-name="Groupe de masques 886" transform="translate(6412 18265)">
        <g id="prefix__tag_1_" data-name="tag (1)" transform="translate(-6412 -18264.963)">
            <path id="prefix__Tracé_33885" d="M62.46 18.13l-45.054-4.8a3.637 3.637 0 0 0-4 4l4.8 45.054a3.637 3.637 0 0 0 1.046 2.186l54.288 54.289a3.636 3.636 0 0 0 5.143 0l40.253-40.252a3.638 3.638 0 0 0 0-5.143l-54.29-54.289a3.638 3.638 0 0 0-2.186-1.045zM47.322 47.247a9.68 9.68 0 1 1 0-13.69 9.692 9.692 0 0 1 0 13.69zm0 0" data-name="Tracé 33885" style="opacity:.8;fill:#b8d9ff"/>
            <path id="prefix__Tracé_33886" d="M97.185 79.4L79.474 97.109a3.638 3.638 0 0 1-5.143 0L45.691 68.47a3.638 3.638 0 0 1 0-5.143L63.4 45.616a3.638 3.638 0 0 1 5.143 0l28.642 28.64a3.636 3.636 0 0 1 0 5.143zm0 0" data-name="Tracé 33886" style="fill:#e8f3ff;stroke:#fff;stroke-width:4px"/>
            <path id="prefix__Tracé_33887" d="M31.061 30.985a13.317 13.317 0 1 0 18.832 0 13.331 13.331 0 0 0-18.832 0zm13.69 13.69a6.044 6.044 0 1 1 0-8.546 6.051 6.051 0 0 1 0 8.546zm0 0" class="prefix__cls-1" data-name="Tracé 33887"/>
            <path id="prefix__Tracé_33888" d="M39.022 16.157c-.379-1.712-2.037-3.364-3.2-4.59a42.891 42.891 0 0 0-5.037-4.485A37.42 37.42 0 0 0 20.4 1.334C14.311-.779 6.623-.894 2.431 4.811-1.9 10.7.275 18.91 3.374 24.824c3.381 6.452 8.513 12.423 15.162 15.6a41.853 41.853 0 0 0 16.384 3.721c2.9.114 8.516.808 9.147-3.171.83-5.247-5.783-3.987-8.823-4.1-5.806-.223-11.992-1.425-16.783-4.9a30.622 30.622 0 0 1-8.261-9.827c-1.82-3.265-3.735-7.723-2.613-11.517 1.126-3.81 5.522-3.736 8.713-2.94a29.875 29.875 0 0 1 12.053 6.805l10.509 1.121a3.509 3.509 0 0 1 .164.542c-.094-.428-.04-.183 0 0zm0 0" class="prefix__cls-1" data-name="Tracé 33888"/>
        </g>
    </g>
</svg>
