<svg xmlns="http://www.w3.org/2000/svg" width="120" height="120" viewBox="0 0 120 120">
    <defs>
        <clipPath id="prefix__clip-path">
            <path id="prefix__Rectangle_8347" d="M0 0H120V120H0z" class="prefix__cls-1" data-name="Rectangle 8347" transform="translate(-6241 -18517)"/>
        </clipPath>
        <style>
            .prefix__cls-1,.prefix__cls-3{fill:#b8d9ff}.prefix__cls-3{opacity:.8}
        </style>
    </defs>
    <g id="prefix__Groupe_de_masques_887" data-name="Groupe de masques 887" transform="translate(6241 18517)">
        <g id="prefix__search_3_" data-name="search (3)" transform="translate(-6241 -18517)">
            <path id="prefix__Tracé_33889" d="M34.277 70.141L3.219 101.2A11.019 11.019 0 0 0 18.8 116.78l31.059-31.057z" class="prefix__cls-3" data-name="Tracé 33889"/>
            <path id="prefix__Tracé_33890" d="M43.419 96.013a3.515 3.515 0 0 1-2.486-1.03L25.017 79.067a3.516 3.516 0 0 1 0-4.973l11.708-11.7a3.517 3.517 0 0 1 5.556.77 38.061 38.061 0 0 0 14.56 14.56 3.517 3.517 0 0 1 .77 5.555L45.906 94.983a3.52 3.52 0 0 1-2.487 1.03z" class="prefix__cls-1" data-name="Tracé 33890"/>
            <path id="prefix__Tracé_33891" d="M43.584 76.416a44.776 44.776 0 1 1 63.322 0 44.777 44.777 0 0 1-63.322 0z" class="prefix__cls-3" data-name="Tracé 33891"/>
            <path id="prefix__Tracé_33892" d="M75.279 82.5a37.742 37.742 0 1 1 26.655-11.054A37.536 37.536 0 0 1 75.279 82.5z" data-name="Tracé 33892" style="stroke:#fff;stroke-width:4px;fill:#b8d9ff"/>
        </g>
    </g>
</svg>
