<svg xmlns="http://www.w3.org/2000/svg" width="120" height="120" viewBox="0 0 120 120">
    <defs>
        <clipPath id="prefix__clip-path">
            <path id="prefix__Rectangle_8320" d="M0 0H120V120H0z" class="prefix__cls-1" data-name="Rectangle 8320" transform="translate(-6383 -18997.844)"/>
        </clipPath>
        <style>
            .prefix__cls-1{fill:#b8d9ff}
        </style>
    </defs>
    <g id="prefix__Groupe_871" data-name="Groupe 871" transform="translate(6383 18997.844)">
        <g id="prefix__pie-chart_6_" data-name="pie-chart (6)" transform="translate(-6382.936 -18997.99)">
            <path id="prefix__Tracé_33795" d="M77.75 89.985a2.5 2.5 0 0 0-3.275-.6 32.475 32.475 0 1 1-21.559-59.844 2.5 2.5 0 0 0 2.145-2.475V6.663a2.5 2.5 0 0 0-2.5-2.5C23.607 4.162.053 29.961.053 61.671a57.574 57.574 0 0 0 57.509 57.509 42.721 42.721 0 0 0 31.59-10.572 2.5 2.5 0 0 0 .385-3.466z" class="prefix__cls-1" data-name="Tracé 33795" transform="translate(-.053 .839)"/>
            <path id="prefix__Tracé_33796" d="M52.5 25A32.545 32.545 0 0 1 85 57.5a2.5 2.5 0 0 0 2.5 2.5h20a2.5 2.5 0 0 0 2.5-2.5A57.574 57.574 0 0 0 52.5 0 2.5 2.5 0 0 0 50 2.5v20a2.5 2.5 0 0 0 2.5 2.5z" data-name="Tracé 33796" transform="translate(10.009)" style="opacity:.6;fill:#b8d9ff"/>
            <path id="prefix__Tracé_33797" d="M103.73 54.109h-20.4a2.5 2.5 0 0 0-2.5 2.145 32.435 32.435 0 0 1-11.18 20.188 2.5 2.5 0 0 0-.33 3.5l14.942 18.5a2.5 2.5 0 0 0 1.77.925h.2a2.5 2.5 0 0 0 1.705-.67 57.728 57.728 0 0 0 18.3-42.091 2.5 2.5 0 0 0-2.507-2.497z" data-name="Tracé 33797" transform="translate(13.787 10.901)" style="opacity:.2;fill:#b8d9ff"/>
        </g>
    </g>
</svg>
