<svg xmlns="http://www.w3.org/2000/svg" width="120" height="120" viewBox="0 0 120 120">
    <defs>
        <clipPath id="prefix__clip-path">
            <path id="prefix__Rectangle_8348" d="M0 0H120V120H0z" class="prefix__cls-1" data-name="Rectangle 8348" transform="translate(-6412 -18529)"/>
        </clipPath>
        <style>
            .prefix__cls-1{fill:#b8d9ff}
        </style>
    </defs>
    <g id="prefix__Groupe_de_masques_888" data-name="Groupe de masques 888" transform="translate(6412 18529)">
        <g id="prefix__target_10_" data-name="target (10)" transform="translate(-6412 -18529)">
            <path id="prefix__Tracé_33893" d="M60 120a60 60 0 1 1 60-60 60.068 60.068 0 0 1-60 60zm0 0" data-name="Tracé 33893" style="opacity:.6;fill:#b8d9ff"/>
            <path id="prefix__Tracé_33894" d="M60 100.078A40.078 40.078 0 1 1 100.078 60 40.124 40.124 0 0 1 60 100.078zm0 0" data-name="Tracé 33894" style="fill:#fff"/>
            <path id="prefix__Tracé_33895" d="M60 78.984A18.984 18.984 0 1 1 78.984 60 19.006 19.006 0 0 1 60 78.984zm0 0" data-name="Tracé 33895" style="opacity:.2;fill:#b8d9ff"/>
            <path id="prefix__Tracé_33896" d="M60 63.516a3.516 3.516 0 0 1-2.486-6l25.854-25.855a3.515 3.515 0 1 1 4.971 4.971L62.486 62.486A3.5 3.5 0 0 1 60 63.516zm0 0" class="prefix__cls-1" data-name="Tracé 33896"/>
            <path id="prefix__Tracé_33897" d="M99.609 38.822c-.1 0-.2 0-.3-.012l-13.75-1.16a3.516 3.516 0 0 1-3.208-3.208L81.19 20.686a3.516 3.516 0 0 1 1.018-2.781L97.123 2.99a3.516 3.516 0 0 1 5.989 2.19l.91 10.8 10.8.911a3.515 3.515 0 0 1 2.19 5.989L102.1 37.792a3.516 3.516 0 0 1-2.486 1.03zm0 0" class="prefix__cls-1" data-name="Tracé 33897"/>
        </g>
    </g>
</svg>
