<?xml version="1.0" encoding="UTF-8"?> <svg xmlns="http://www.w3.org/2000/svg" xmlns:xlink="http://www.w3.org/1999/xlink" width="60px" height="60px" viewBox="0 0 60 60" version="1.1"><title>large / manage links</title><g id="large-/-manage-links" stroke="none" stroke-width="1" fill="none" fill-rule="evenodd"><path d="M50.0668738,33.4573664 L35.8744861,52.2399803 L28,55 L28.4970606,46.6256001 L42.6894483,27.8407923 C44.226307,25.7975415 47.1175993,25.393934 49.1490558,26.9390688 L49.1708567,26.9566206 C51.2011773,28.5032668 51.6022307,31.4129725 50.0668738,33.4573664 Z" id="Fill" fill="#CEDAFA" transform="translate(39.500000, 40.500000) rotate(-169.000000) translate(-39.500000, -40.500000) "></path><g id="Path" transform="translate(5.000000, 4.000000)" stroke="#000000" stroke-linecap="round" stroke-linejoin="round" stroke-width="2.2"><path d="M13.4522598,50 L3.33333333,50 C1.49238417,50 0,48.5076158 0,46.6666667 L0,3.33333333 C0,1.49238417 1.49238417,0 3.33333333,0 L46.6666667,0 C48.5076158,0 50,1.49238417 50,3.33333333 L50,13.5173262 L50,13.5173262"></path><circle id="Oval" cx="17" cy="17" r="10"></circle><polyline points="16 7 16 16.9583442 23 24"></polyline><line x1="33" y1="8" x2="44.3295411" y2="8"></line><line x1="8" y1="36" x2="16" y2="36"></line><line x1="33" y1="14" x2="39.5350285" y2="14" id="Path-Copy"></line><polyline transform="translate(44.000000, 47.000000) rotate(-270.000000) translate(-44.000000, -47.000000) " points="42 42 46 42 46 52"></polyline><path d="M45.0668738,29.4573664 L30.8744861,48.2399803 L23,51 L23.4970606,42.6256001 L37.6894483,23.8407923 C39.226307,21.7975415 42.1175993,21.393934 44.1490558,22.9390688 L44.1708567,22.9566206 C46.2011773,24.5032668 46.6022307,27.4129725 45.0668738,29.4573664 Z" transform="translate(34.500000, 36.500000) rotate(-169.000000) translate(-34.500000, -36.500000) "></path></g></g></svg> 