<svg xmlns="http://www.w3.org/2000/svg" width="100%" height="100%" viewBox="0 0 33.863 33.863" focusable="false">
  <defs>
    <clipPath>
      <path d="M0 0H33.863V33.863H0z" data-name="Rectangle 7831" style="fill:#354052"></path>
    </clipPath>
    <style>
      .block_maps_cls-7 {
        fill: #4086f4
      }

    </style>
  </defs>
  <g>
    <g transform="translate(4.2)">
      <path d="M24.372 4.527L9.479 8.5l3.968 23.7 10.167-13.468a12.736 12.736 0 0 0 .758-14.2z"
        transform="translate(-.715 1.664)" style="fill:#0f9d58"></path>
      <path d="M8.754 21.728l4.96 6.572V15.14z" transform="translate(-.982 5.566)" style="fill:#31aa52"></path>
      <path d="M13.447 17.283l3.831-5.09-3.831-2.883-3.968 3.99z" transform="translate(-.715 3.422)"
        style="fill:#f69411"></path>
      <path d="M13.447 0L9.479 4.363l3.968 4.363L16.71.423A12.749 12.749 0 0 0 13.447 0z" transform="translate(-.715)"
        style="fill:#4175df"></path>
      <path d="M4.942 5.075v7.657h10.173V0A12.712 12.712 0 0 0 4.942 5.075z" class="block_maps_cls-7"
        transform="translate(-2.383)"></path>
      <path d="M5.63 3.711a12.735 12.735 0 0 0-.752 14.2l9.078-7.93z" transform="translate(-3.071 1.364)"
        style="fill:#eb4132"></path>
      <path d="M16.933.309l-3.264 4.335L8.874 15.5H17.5l7.094-9.424A12.756 12.756 0 0 0 16.933.309z"
        class="block_maps_cls-7" transform="translate(-.938 .114)"></path>
      <path d="M13.41 3.479l-3.831 5.09 3.831 2.884z" transform="translate(-.679 1.279)" style="fill:#609af6"></path>
      <path d="M9.479 9.31l3.968 7.974 3.831-5.09z" transform="translate(-.715 3.422)" style="fill:#f8a808"></path>
      <path d="M11.486 7.2l-7.094 9.425a12.747 12.747 0 0 0 .758 1.124l5.207 6.9 4.959-6.589v-7.975z"
        transform="translate(-2.585 2.647)" style="fill:#fbbd00"></path>
      <path d="M13.025 5.8l-2.4 4.8 2.4 4.8a4.8 4.8 0 1 0 0-9.59z" data-name="Tracé 32810"
        transform="translate(-.293 2.133)" style="fill:#e3e7ea"></path>
      <path d="M8.874 10.6a4.8 4.8 0 0 0 4.8 4.8V5.8a4.8 4.8 0 0 0-4.8 4.8z" data-name="Tracé 32811"
        transform="translate(-.938 2.133)" style="fill:#fff"></path>
    </g>
  </g>
</svg>
