<svg width="24" height="24" viewBox="0 0 24 24" fill="none" xmlns="http://www.w3.org/2000/svg">
  <path
    d="M3 18.25C2.40326 18.25 1.83097 17.9917 1.40901 17.5319C0.987053 17.0721 0.75 16.6176 0.75 15.9674V3.03261C0.75 2.38238 0.987053 1.92786 1.40901 1.46808C1.83097 1.0083 2.40326 0.75 3 0.75H8.625L10.4483 3.79348H21C21.5967 3.79348 22.169 4.09457 22.591 4.55435C23.0129 5.01413 23.25 5.42586 23.25 6.07609"
    stroke="currentColor" stroke-width="1.5" stroke-linecap="round" stroke-linejoin="round"></path>
  <path
    d="M6.75 10.25C6.75 9.42157 7.42157 8.75 8.25 8.75H21.75C22.5784 8.75 23.25 9.42157 23.25 10.25V21.75C23.25 22.5784 22.5784 23.25 21.75 23.25H8.25C7.42157 23.25 6.75 22.5784 6.75 21.75V10.25Z"
    stroke="currentColor" stroke-width="1.5"></path>
  <path d="M10 23L15.7425 16.2857C16.1881 15.7647 16.9304 15.6121 17.5454 15.9152L23.4 18.8" stroke="currentColor"
    stroke-width="1.5"></path>
  <circle cx="11" cy="13" r="1.5" fill="currentColor"></circle>
</svg>
