<svg xmlns="http://www.w3.org/2000/svg" width="100%" height="100%" viewBox="0 0 24.761 24.761" focusable="false">
  <defs>
    <clipPath>
      <path d="M0 0H24.761V24.761H0z" class="mixed_cls-1" transform="translate(187.837 232.837)"></path>
    </clipPath>
    <style>
      .mixed_cls-1 {
        fill: #fff
      }

    </style>
  </defs>
  <g transform="translate(-187.837 -232.837)">
    <g transform="translate(187.837 232.837)">
      <path
        d="M9.543 8.254H1.805A1.807 1.807 0 0 1 0 6.448V1.805A1.807 1.807 0 0 1 1.805 0h7.738a1.807 1.807 0 0 1 1.806 1.805v4.643a1.807 1.807 0 0 1-1.806 1.806zM1.805 1.548a.258.258 0 0 0-.258.258v4.642a.258.258 0 0 0 .258.258h7.738a.258.258 0 0 0 .257-.258V1.805a.258.258 0 0 0-.258-.258zm0 0"
        class="mixed_cls-1"></path>
      <path
        d="M9.543 24.761H1.805A1.807 1.807 0 0 1 0 22.956V12.123a1.807 1.807 0 0 1 1.805-1.806h7.738a1.807 1.807 0 0 1 1.806 1.806v10.833a1.807 1.807 0 0 1-1.806 1.805zm-7.738-12.9a.258.258 0 0 0-.258.258v10.837a.258.258 0 0 0 .258.258h7.738a.258.258 0 0 0 .258-.258V12.123a.258.258 0 0 0-.258-.258zm0 0"
        class="mixed_cls-1"></path>
      <path
        d="M22.956 24.761h-7.738a1.807 1.807 0 0 1-1.806-1.805v-4.643a1.807 1.807 0 0 1 1.806-1.806h7.738a1.807 1.807 0 0 1 1.805 1.806v4.643a1.807 1.807 0 0 1-1.805 1.805zm-7.738-6.706a.258.258 0 0 0-.258.258v4.643a.258.258 0 0 0 .258.258h7.738a.258.258 0 0 0 .258-.258v-4.643a.258.258 0 0 0-.258-.258zm0 0"
        class="mixed_cls-1"></path>
      <path
        d="M22.956 14.444h-7.738a1.807 1.807 0 0 1-1.806-1.806V1.805A1.807 1.807 0 0 1 15.218 0h7.738a1.807 1.807 0 0 1 1.805 1.805v10.833a1.807 1.807 0 0 1-1.805 1.806zm-7.738-12.9a.258.258 0 0 0-.258.258v10.836a.258.258 0 0 0 .258.258h7.738a.258.258 0 0 0 .258-.258V1.805a.258.258 0 0 0-.258-.258zm0 0"
        class="mixed_cls-1"></path>
    </g>
  </g>
</svg>
