<svg width="353px" height="718px" viewBox="0 0 353 718" version="1.1" fill="none" stroke="none" stroke-width="1">
  <path
    d="M353,52.1 C353,23.3 329.7,0 300.9,0 L52.1,0 C23.3,7.10542736e-15 0,23.3 0,52.1 L0,665.9 C0,694.7 23.3,718 52.1,718 L300.9,718 C329.7,718 353,694.7 353,665.9 L353,52.1 Z M345,665.4 C345,690 325,710 300.4,710 L51.6,710 C27,710 7,690 7,665.4 L7,51.6 C7,27 27,7 51.6,7 L300.4,7 C325,7 345,27 345,51.6 L345,665.4 Z"
    fill="#e4e4e4" fill-rule="nonzero"></path>
  <path
    d="M301.9,19 L273.4,19 C267.3,19 265.1,18.9 264.7,26.6 C264.3,34.6 258.8,39.1 251.4,41.4 C248.9,42.2 246.1,42 243.4,42 L238,42 L117.2,42 L111.8,42 C109.1,42 106.3,42.3 103.8,41.5 C96.4,39.2 90.8,34.5 90.5,26.5 C90.1,18.8 87.9,19 81.8,19 L53,19 C35.4,19 22,33 22,50.5 L22,663.8 C22,681.3 35.4,695 52.9,695 L301.9,695 C319.4,695 334,681.2 334,663.8 L334,50.5 C334,33 319.4,19 301.9,19 Z">
  </path>
  <path
    d="M345,51.6 C345,27 325,7 300.4,7 L51.6,7 C27,7 7,27 7,51.6 L7,665.4 C7,690 27,710 51.6,710 L300.4,710 C325,710 345,690 345,665.4 L345,51.6 Z M217.7,24.1 C217.7,26.5 215.7,28.5 213.3,28.5 C210.9,28.5 208.9,26.5 208.9,24.1 C208.9,21.7 210.9,19.7 213.3,19.7 C215.8,19.8 217.7,21.7 217.7,24.1 Z M158.2,22 L197.2,22 C198.9,22 200.2,23 200.2,24.5 C200.2,26 198.9,27 197.2,27 L158.2,27 C156.5,27 155.2,26 155.2,24.5 C155.2,23 156.6,22 158.2,22 Z M334,663.8 C334,681.3 319.4,695 301.9,695 L52.9,695 C35.4,695 22,681.2 22,663.8 L22,50.5 C22,33 35.4,19 52.9,19 L81.7,19 C87.8,19 90,18.9 90.4,26.6 C90.8,34.6 96.3,39.1 103.7,41.4 C106.2,42.2 109,42 111.7,42 L117.1,42 L237.8,42 L243.2,42 C245.9,42 248.7,42.3 251.2,41.5 C258.6,39.2 264.2,34.5 264.5,26.5 C264.9,18.8 267.1,19 273.2,19 L301.7,19 C319.2,19 333.8,33 333.8,50.5 L333.8,663.8 L334,663.8 Z"
    fill="#e4e4e4" fill-rule="nonzero"></path>
</svg>
