<svg xmlns="http://www.w3.org/2000/svg" width="100%" height="100%" viewBox="0 0 33.863 33.863" focusable="false">
  <defs>
    <clipPath>
      <path d="M0 0H33.863V33.863H0z" class="block_music_cls-1-music" data-name="Rectangle 7831"></path>
    </clipPath>
    <style>
      .block_music_cls-1-music {
        fill: #ffe600
      }

    </style>
  </defs>
  <g>
    <path
      d="M25.362 21.536a14.065 14.065 0 0 0 1.886-6.192 8.645 8.645 0 0 0-.912-4.3c-1.071-2.193-2.91-3.426-4.687-4.616a13.25 13.25 0 0 1-3.465-2.926l-.159-.214a5.767 5.767 0 0 1-1.209-2.17A1.317 1.317 0 0 0 15.436 0a1.3 1.3 0 0 0-1.211 1.3v23.211a7.536 7.536 0 0 0-3.908-1.068c-3.59 0-6.513 2.337-6.513 5.21s2.923 5.21 6.513 5.21 6.513-2.337 6.513-5.21V13.471a9.376 9.376 0 0 1 6.039 7.1 7.347 7.347 0 0 1-.5.711A1.3 1.3 0 0 0 24.32 23a9.684 9.684 0 0 0 .956-1.344.82.82 0 0 0 .086-.12z"
      class="block_music_cls-1-music" transform="translate(1.399)"></path>
  </g>
</svg>
