<svg xmlns="http://www.w3.org/2000/svg" xmlns:xlink="http://www.w3.org/1999/xlink" width="536.316" height="396.082" viewBox="0 0 536.316 396.082">
  <defs>
    <linearGradient id="linear-gradient" x1="0.5" x2="0.5" y2="1" gradientUnits="objectBoundingBox">
      <stop offset="0" stop-color="#07f"/>
      <stop offset="1" stop-color="#2730b8"/>
    </linearGradient>
    <filter id="Tracé_32734" x="193.809" y="316.231" width="47.124" height="33.497" filterUnits="userSpaceOnUse">
      <feOffset dy="3" input="SourceAlpha"/>
      <feGaussianBlur stdDeviation="3" result="blur"/>
      <feFlood flood-opacity="0.161"/>
      <feComposite operator="in" in2="blur"/>
      <feComposite in="SourceGraphic"/>
    </filter>
    <filter id="Tracé_32737" x="204.319" y="339.74" width="56.581" height="38.022" filterUnits="userSpaceOnUse">
      <feOffset dy="3" input="SourceAlpha"/>
      <feGaussianBlur stdDeviation="3" result="blur-2"/>
      <feFlood flood-opacity="0.161"/>
      <feComposite operator="in" in2="blur-2"/>
      <feComposite in="SourceGraphic"/>
    </filter>
    <filter id="Tracé_32699" x="339.352" y="52.737" width="69.563" height="69.563" filterUnits="userSpaceOnUse">
      <feOffset dy="3" input="SourceAlpha"/>
      <feGaussianBlur stdDeviation="3" result="blur-3"/>
      <feFlood flood-opacity="0.161"/>
      <feComposite operator="in" in2="blur-3"/>
      <feComposite in="SourceGraphic"/>
    </filter>
  </defs>
  <g id="Groupe_9039" data-name="Groupe 9039" transform="translate(-877.546 -652.263)">
    <g id="Groupe_9038" data-name="Groupe 9038" transform="translate(46 20)">
      <g id="undraw_into_the_night_vumi" transform="translate(722 573.006)">
        <path id="Tracé_32700" data-name="Tracé 32700" d="M705.42,365.566c-3.307,25.787-10.178,46.49-19.608,63-12.549,22-34.015,30.864-53.191,40.139a127.791,127.791,0,0,1-17.23,6.819c-34.893,11.023-73.947,8.1-104.624,2.279a451.138,451.138,0,0,0-65.313-7.516q-9.393-.385-18.805-.383c-9.676.011-183.892,3.021-226.309-75.144-10.472-19.281-17.651-42.835-20.23-71.546-7.3-81.17,32.81-134.479,84.545-169.324,97.866-65.915,232.013-63.15,328.436,4.5C657.319,203.456,717.455,271.655,705.42,365.566Z" transform="translate(-61.105 -46.761)" fill="url(#linear-gradient)"/>
        <path id="Tracé_32701" data-name="Tracé 32701" d="M708.3,523.288c-12.654,23.529-36.694,36.068-56.029,45.988a124.612,124.612,0,0,1-17.374,7.293c-35.185,11.789-74.564,8.661-105.5,2.437a430.045,430.045,0,0,0-65.858-8.038q-9.472-.412-18.962-.409-14.635.018-29.262,1.051c-63.378,4.5-170.4-5.81-213.171-89.407L318.968,283.981,358.8,382.7l12.711,31.512,35.033-46.41,18.089-23.962,82.378,91.177,23.284-49.641,161.2,127Z" transform="translate(-72.719 -150.24)" fill="#f2f2f2"/>
        <path id="Tracé_32702" data-name="Tracé 32702" d="M302,261.728l16.314-35.766,22.589,52.08-19.452-37.648Z" transform="translate(-71.695 -62.103)" opacity="0.05"/>
        <path id="Tracé_32703" data-name="Tracé 32703" d="M556.312,658.218q-9.393-.424-18.805-.42L465.04,497.191Z" transform="translate(-167.571 -229.667)" opacity="0.05"/>
        <path id="Tracé_32704" data-name="Tracé 32704" d="M464.411,306.91l17.939-13.948,81.571,94.12-82.826-80.316Z" transform="translate(-132.198 -87.062)" opacity="0.05"/>
        <path id="Tracé_32705" data-name="Tracé 32705" d="M823.261,669.169a121.271,121.271,0,0,1-17.23,7.492L679.2,531.251Z" transform="translate(-247.352 -242.356)" opacity="0.05"/>
        <circle id="Ellipse_1762" data-name="Ellipse 1762" cx="1.882" cy="1.882" r="1.882" transform="translate(341.367 84.171)" fill="#f2f2f2"/>
        <circle id="Ellipse_1763" data-name="Ellipse 1763" cx="1.882" cy="1.882" r="1.882" transform="translate(289.287 148.8)" fill="#f2f2f2"/>
        <circle id="Ellipse_1764" data-name="Ellipse 1764" cx="1.255" cy="1.255" r="1.255" transform="translate(417.291 160.722)" fill="#f2f2f2"/>
        <circle id="Ellipse_1765" data-name="Ellipse 1765" cx="1.255" cy="1.255" r="1.255" transform="translate(153.754 188.958)" fill="#f2f2f2"/>
        <circle id="Ellipse_1766" data-name="Ellipse 1766" cx="1.255" cy="1.255" r="1.255" transform="translate(424.82 82.916)" fill="#f2f2f2"/>
        <circle id="Ellipse_1767" data-name="Ellipse 1767" cx="1.255" cy="1.255" r="1.255" transform="translate(502.626 143.153)" fill="#f2f2f2"/>
        <circle id="Ellipse_1768" data-name="Ellipse 1768" cx="1.255" cy="1.255" r="1.255" transform="translate(579.178 238.528)" fill="#f2f2f2"/>
        <path id="Tracé_32706" data-name="Tracé 32706" d="M303.392,120.194H301.66v-1.732h-.929v1.732H299v.929h1.732v1.731h.929v-1.731h1.732Z" transform="translate(-70.578 -22.055)" fill="#f2f2f2"/>
        <path id="Tracé_32707" data-name="Tracé 32707" d="M845.392,423.194H843.66v-1.732h-.928v1.732H841v.929h1.732v1.731h.928v-1.731h1.732Z" transform="translate(-272.489 -134.932)" fill="#f2f2f2"/>
        <path id="Tracé_32746" data-name="Tracé 32746" d="M266.861,0C414.245,0,533.722,8.428,533.722,18.824S417.343,72.493,269.959,72.493,0,29.22,0,18.824,119.478,0,266.861,0Z" transform="translate(109.546 382.846)" fill="#edf5fd"/>
        <path id="Tracé_32710" data-name="Tracé 32710" d="M599.413,632.16c0,17.321-9.271,12.545-20.706,12.545S558,649.481,558,632.16s20.706-50.179,20.706-50.179S599.413,614.839,599.413,632.16Z" transform="translate(-201.201 -248.561)" fill="#ffa365"/>
        <path id="Tracé_32711" data-name="Tracé 32711" d="M594.824,674.4c0,9.451-4.214,6.845-9.412,6.845S576,683.855,576,674.4s9.412-25.471,9.412-25.471S594.824,664.952,594.824,674.4Z" transform="translate(-207.907 -285.485)" fill="#f2ff78" opacity="0.78"/>
        <rect id="Rectangle_7739" data-name="Rectangle 7739" width="57.727" height="11.294" rx="5.647" transform="matrix(0.995, -0.105, 0.105, 0.995, 347.857, 391.561)" fill="#5e380b"/>
        <rect id="Rectangle_7740" data-name="Rectangle 7740" width="57.727" height="11.294" rx="5.647" transform="translate(349.249 381.972) rotate(11)" fill="#472600"/>
        <path id="Tracé_32712" data-name="Tracé 32712" d="M193,596.547c0,34.726,21.785,62.826,48.708,62.826" transform="translate(-66.228 -266.68)" fill="#41d1b2"/>
        <path id="Tracé_32713" data-name="Tracé 32713" d="M270.626,658.954c0-35.116,24.311-63.532,54.355-63.532" transform="translate(-95.146 -266.261)" fill="#07f"/>
        <path id="Tracé_32714" data-name="Tracé 32714" d="M221.125,601.564c0,32.986,13.892,59.678,31.06,59.678" transform="translate(-76.705 -268.549)" fill="#07f"/>
        <path id="Tracé_32715" data-name="Tracé 32715" d="M270.626,648.476c0-44.871,28.1-81.18,62.826-81.18" transform="translate(-95.146 -255.784)" fill="#41d1b2"/>
        <path id="Tracé_32716" data-name="Tracé 32716" d="M254.295,695.163s6.908-.213,8.989-1.7,10.626-3.253,11.142-.875,10.381,11.824,2.582,11.887-18.121-1.215-20.2-2.48S254.295,695.163,254.295,695.163Z" transform="translate(-89.062 -302.028)" fill="#a8a8a8"/>
        <path id="Tracé_32717" data-name="Tracé 32717" d="M277.148,705.863c-7.8.063-18.121-1.215-20.2-2.48-1.582-.964-2.213-4.422-2.424-6.018l-.231.009s.438,5.571,2.515,6.837,12.4,2.543,20.2,2.48c2.251-.018,3.029-.819,2.986-2.005C279.683,705.4,278.824,705.85,277.148,705.863Z" transform="translate(-89.062 -304.238)" opacity="0.2"/>
        <path id="Tracé_32723" data-name="Tracé 32723" d="M835.251,708.2c-5.359.043-12.451-.835-13.879-1.7-1.087-.662-1.521-3.039-1.665-4.135l-.159.006s.3,3.828,1.728,4.7,8.52,1.748,13.879,1.7c1.547-.013,2.081-.563,2.052-1.378C836.992,707.88,836.4,708.188,835.251,708.2Z" transform="translate(-299.636 -306.098)" opacity="0.2"/>
        <path id="Tracé_32731" data-name="Tracé 32731" d="M370.117,686.19c0,18.962-26.431,13.1-58.794,13.1s-58.4,5.865-58.4-13.1S279.35,663.1,311.712,663.1,370.117,667.228,370.117,686.19Z" transform="translate(-88.55 -291.475)" fill="#2b216e"/>
        <path id="Tracé_32732" data-name="Tracé 32732" d="M439.825,553.426a28.4,28.4,0,0,0-4.428,2.806,9.52,9.52,0,0,0-3.079,4.169,38.456,38.456,0,0,1-1.907-5.635,92.751,92.751,0,0,0-3.9-10.143,13.479,13.479,0,0,0,6.123-4.7c3.011,3,6.108,6.125,7.606,10.1.258.685,1.009,1.415,1.184,2.029C441.675,552.926,440.483,553.064,439.825,553.426Z" transform="translate(-153.22 -245.588)" fill="#eea886"/>
        <path id="Tracé_32733" data-name="Tracé 32733" d="M489.576,677.808a27.837,27.837,0,0,1,9.047,4.841.945.945,0,0,1,.411.557c.068.521-.627.734-1.132.879-1.485.428-2.434,1.823-3.527,2.915s-2.851,1.948-4.127,1.076a4,4,0,0,1-.867-.913l-5.39-7.035a32.674,32.674,0,0,1,5.738-2.519" transform="translate(-174.631 -296.879)" fill="#eea886"/>
        <g transform="matrix(1, 0, 0, 1, 109.55, 59.26)" filter="url(#Tracé_32734)">
          <path id="Tracé_32734-2" data-name="Tracé 32734" d="M501.043,679.722c.714.728,1.023,1.775,1.724,2.516a6.292,6.292,0,0,0,1.595,1.107l4.124,2.27a11.919,11.919,0,0,0,1.993.941,18.282,18.282,0,0,0,2.366.494,17.142,17.142,0,0,1,3.337.985c.809.331,1.71.9,1.706,1.776a1.931,1.931,0,0,1-.495,1.148c-1.626,2.048-4.5,2.5-7.1,2.777-5.629.6-11.39,1.041-16.893-.285a7.206,7.206,0,0,1-2.969-1.285c-1.661-1.376-1.991-3.883-1.371-5.948a3.216,3.216,0,0,1,1.311-1.95c.871-.5,1.958-.268,2.959-.345a9.315,9.315,0,0,0,3.051-.972c.629-.284,1.354-.649,1.488-1.4.125-.694-.691-1.39-.519-2.01C497.727,678.168,500.385,679.051,501.043,679.722Z" transform="translate(-285.95 -356.59)" fill="#fff"/>
        </g>
        <path id="Tracé_32736" data-name="Tracé 32736" d="M515.826,713.2q.867.571,1.732,1.144a3.1,3.1,0,0,1,1.259,1.241,2.857,2.857,0,0,1-.7,2.657,15.28,15.28,0,0,1-6.676,5.174,10.012,10.012,0,0,1-2.9.723,1.235,1.235,0,0,1-.674-.085c-.528-.279-.452-1.034-.459-1.631-.018-1.733-1.327-3.14-2.5-4.412s-2.375-2.84-2.106-4.551a5.658,5.658,0,0,1,1.493-2.663,11.072,11.072,0,0,1,2.27-2.141c1.223-.8,1.655-.37,2.806.364Q512.614,711.089,515.826,713.2Z" transform="translate(-181.624 -308.285)" fill="#eea886"/>
        <g transform="matrix(1, 0, 0, 1, 109.55, 59.26)" filter="url(#Tracé_32737)">
          <path id="Tracé_32737-2" data-name="Tracé 32737" d="M511.221,724.645a3.093,3.093,0,0,0,2.729-.615,6.947,6.947,0,0,0,1.772-2.278,19.119,19.119,0,0,0,1.1-2.415,5.164,5.164,0,0,1,1.551-2.635,3.268,3.268,0,0,1,3.543.255,18.591,18.591,0,0,1,2.717,2.6,18.363,18.363,0,0,0,7.715,4.293,83.924,83.924,0,0,0,8.716,1.863,4.963,4.963,0,0,1,1.677.54,3.379,3.379,0,0,1,1.245,3.67,8.173,8.173,0,0,1-2.172,3.478,8.7,8.7,0,0,1-2.887,2.235,9.169,9.169,0,0,1-2.925.554,49.7,49.7,0,0,1-14.419-1.129,39.554,39.554,0,0,0-5.286-1.055c-1.088-.1-2.183-.065-3.272-.139a17.129,17.129,0,0,1-6.24-1.646,2.209,2.209,0,0,1-1.138-.944,2.35,2.35,0,0,1-.084-1.25l.722-6.325c.063-.551.246-1.235.794-1.321.521-.082.9.452,1.228.865a4.468,4.468,0,0,0,5.352,1.171" transform="translate(-292.19 -370.54)" fill="#fff"/>
        </g>
        <path id="Tracé_32738" data-name="Tracé 32738" d="M430.686,602.395c3.174-.358,6.854-.417,9,1.948,1.316,1.451,1.716,3.482,2.171,5.387a35.028,35.028,0,0,0,3.439,9.158,48.218,48.218,0,0,1,3.008,5.351,38.23,38.23,0,0,1,1.55,6.094,36.8,36.8,0,0,0,12.886,20.5c-1.145,3.114-4.456,4.892-7.677,5.688a3.3,3.3,0,0,1-3.945-1.075,53.03,53.03,0,0,1-4.2-5.148c-4.643-6.2-9.356-12.53-11.885-19.851-.887-2.569-1.775-5.568-4.272-6.641a8.169,8.169,0,0,0-4.58-.162,62.3,62.3,0,0,0-10.048,2.58c-3.488,1.213-7.482,2.707-10.675.85a7.885,7.885,0,0,1-3.467-5.414,23.369,23.369,0,0,1-.009-6.606,6.8,6.8,0,0,1,.7-2.856,6.178,6.178,0,0,1,1.669-1.689,34.472,34.472,0,0,1,9.4-5.063,59.56,59.56,0,0,1,10.058-2.084Q427.231,602.784,430.686,602.395Z" transform="translate(-143.993 -268.79)" fill="#10009b"/>
        <path id="Tracé_32740" data-name="Tracé 32740" d="M473.149,637.97a16.432,16.432,0,0,1,4.01,2.849,14.5,14.5,0,0,1,2.737,4.911,5.95,5.95,0,0,1,.474,1.893,2.162,2.162,0,0,1-.7,1.756,3.134,3.134,0,0,1-1.98.484q-1.38.011-2.759-.072a4.648,4.648,0,0,1-1.634-.31,4.567,4.567,0,0,1-1.273-.964,17.857,17.857,0,0,1-3.908-5.276c-.666-1.469-1.763-4.855-.714-6.384C468.48,635.282,472.007,637.322,473.149,637.97Z" transform="translate(-168.288 -281.48)" fill="#eea886"/>
        <path id="Tracé_32741" data-name="Tracé 32741" d="M385.112,638.142c4.694,1.5,9.69,1.675,14.6,2.134a121.911,121.911,0,0,1,24.335,4.81,12.942,12.942,0,0,1,4.588,2.136,13.648,13.648,0,0,1,2.662,3.386,57.512,57.512,0,0,1,3.5,6.115c.891,1.9,1.571,3.9,2.4,5.834a41.018,41.018,0,0,0,12.794,16.387c1.024.778,2.163,1.626,2.427,2.885a4.02,4.02,0,0,1-.379,2.37c-1.21,2.818-3.722,4.868-6.357,6.437a6.7,6.7,0,0,0-2.937,2.555c-4.006-1.654-6.983-5.18-9.462-8.735s-4.677-7.375-7.854-10.323a27.57,27.57,0,0,1-4.09-3.99c-1.68-2.381-2.134-5.639-4.4-7.476-2.278-1.851-5.545-1.6-8.466-1.312a207.75,207.75,0,0,1-44.96-.487c-3.1-.372-6.291-.846-8.979-2.44s-4.781-4.585-4.4-7.687c.357-2.9,2.775-5.205,5.47-6.342s5.675-1.341,8.582-1.668A90.5,90.5,0,0,0,385.112,638.142Z" transform="translate(-124.747 -282.176)" fill="#1907b9"/>
        <path id="Tracé_32742" data-name="Tracé 32742" d="M337.43,609.056c.368-2.462,1.324-4.794,1.924-7.209a44.143,44.143,0,0,1,1.14-4.5c.015-.042.032-.082.048-.124a1.046,1.046,0,0,0,.769-.44,1.292,1.292,0,0,0,.065-.676,4.567,4.567,0,0,1,.021-.723,51.541,51.541,0,0,1,3.213-4.763c2.032-2.88,3.793-5.94,5.55-9,1.441-2.5,2.884-5.014,4.076-7.646.894-1.974,1.646-4.013,2.635-5.941,3.519-6.863,9.844-11.917,16.647-15.549,6.526-3.484,13.581-5.833,20.442-8.6a4.086,4.086,0,0,1,.479.565c3.707,5.067,4.107,11.726,5.632,17.817.616,2.459,1.439,4.91,1.438,7.445,0,3.742-1.79,7.223-3.568,10.515a57.287,57.287,0,0,1-5.6,8.942c-1.05,1.3-2.206,2.51-3.262,3.8-4.325,5.3-6.822,11.824-9.25,18.222-1.406,3.7-3.7,6.99-5.248,10.639a41.105,41.105,0,0,1-1.682,4.241,4.427,4.427,0,0,1-3.566,2.5,5.22,5.22,0,0,1-1.316-.206c-5.512-1.418-10.128-5.065-14.708-8.442-.817-.6-1.64-1.2-2.5-1.744s-1.766-1.042-2.665-1.535l-2.044-1.12c-2.233-1.224-4.47-2.449-6.8-3.484a12.234,12.234,0,0,1-2.008-1.031,12.261,12.261,0,0,1,.136-1.957Z" transform="translate(-119.981 -247.061)" fill="#07f"/>
        <circle id="Ellipse_1770" data-name="Ellipse 1770" cx="12.7" cy="12.7" r="12.7" transform="translate(276.813 282.018)" fill="#eea886"/>
        <path id="Tracé_32743" data-name="Tracé 32743" d="M449.476,521.693a3.009,3.009,0,0,0,3.128,1.47,4.383,4.383,0,0,0,2.919-2.082,8.283,8.283,0,0,0,1.082-3.5,3.669,3.669,0,0,0-.529-2.769,6.2,6.2,0,0,0-1.61-1.126,6.175,6.175,0,0,1-2.006-2.031c-.356-.587-.61-1.229-.93-1.836-1.155-2.194-3.4-3.978-5.881-3.9a25.421,25.421,0,0,0-3.5.7c-3.937.69-8.217-1.393-11.869.232A11.059,11.059,0,0,0,427.8,508.5q-1.542,1.272-2.965,2.68a6.137,6.137,0,0,0-1.807,2.63c-.5,1.863.684,3.945-.067,5.721a8.614,8.614,0,0,1-.916,1.438c-.829,1.215.072,5.96-.02,7.428a2.754,2.754,0,0,0,.508,2.035,3.31,3.31,0,0,0,2.5.737l1.649.02a2.154,2.154,0,0,0,.732-.075,2.224,2.224,0,0,0,.83-.64c1.371-1.445,1.668-6.17,3.66-6.153a1.459,1.459,0,0,1,.859.223c.361.265.467.751.723,1.118a2.107,2.107,0,0,0,2.446.571,5.482,5.482,0,0,0,2.083-1.683,8.213,8.213,0,0,1,1.948-1.86c1.061-.619,2.261-.889,3.294-1.588a27.979,27.979,0,0,0,2.129-2.079,1.854,1.854,0,0,1,2.258-.127C448.865,519.537,448.919,520.582,449.476,521.693Z" transform="translate(-151.421 -232.917)" fill="#2b216e"/>
        <path id="Tracé_32744" data-name="Tracé 32744" d="M411.337,566.6a20.228,20.228,0,0,1,8.849.711,4.684,4.684,0,0,1,2.466,1.463,4.477,4.477,0,0,1,.7,1.847,14.93,14.93,0,0,1-1.071,9,1.182,1.182,0,0,0-.148.962,1.689,1.689,0,0,0,.494.49,1.748,1.748,0,0,1-.106,2.614c-.237.173-.548.323-.594.613-.051.316.246.563.477.784a2.819,2.819,0,0,1,.787,2.591,5.679,5.679,0,0,0-.255,1.148,3.68,3.68,0,0,0,.414,1.365,5.971,5.971,0,0,1,.383,3.018,3.307,3.307,0,0,0-.035,1.476,3.348,3.348,0,0,0,.561.886c.913,1.231,1.113,3.291-.211,4.063a3.059,3.059,0,0,1,1.632,3.156c.791-.422,1.749.117,2.408.725a3.93,3.93,0,0,0,2.227,1.4c.624.031,1.282-.293,1.851-.036.866.391.836,1.8,1.688,2.216.747.369,1.787-.233,2.424.3.222.187.334.477.548.673.483.442,1.238.254,1.893.228A4.456,4.456,0,0,1,442.5,610.6a11.309,11.309,0,0,1,1.3,4.425,5.945,5.945,0,0,1-.049,2.543,2.184,2.184,0,0,1-1.792,1.614c-7.794.5-15.484-1.364-23.073-3.212a17.84,17.84,0,0,1-6.355-2.522,19.328,19.328,0,0,1-4.142-4.645,60.37,60.37,0,0,1-6.079-9.774c-2.057-4.5-2.974-9.419-3.874-14.283a13.258,13.258,0,0,1-.326-3.984,11.235,11.235,0,0,1,1.754-4.369,46.664,46.664,0,0,1,3.551-5.006,12.986,12.986,0,0,1,7.925-4.785Z" transform="translate(-142.624 -255.45)" opacity="0.1"/>
        <path id="Tracé_32745" data-name="Tracé 32745" d="M412.156,565.782a20.226,20.226,0,0,1,8.849.711,4.685,4.685,0,0,1,2.466,1.463,4.476,4.476,0,0,1,.7,1.847,14.929,14.929,0,0,1-1.071,9,1.182,1.182,0,0,0-.148.962,1.689,1.689,0,0,0,.494.49,1.748,1.748,0,0,1-.106,2.615c-.237.173-.548.323-.594.613-.051.316.246.563.477.784a2.819,2.819,0,0,1,.788,2.591,5.676,5.676,0,0,0-.255,1.148,3.68,3.68,0,0,0,.414,1.365,5.97,5.97,0,0,1,.383,3.018,3.307,3.307,0,0,0-.035,1.476,3.348,3.348,0,0,0,.561.887c.913,1.231,1.113,3.291-.211,4.063a3.059,3.059,0,0,1,1.632,3.156c.791-.422,1.749.118,2.408.726a3.929,3.929,0,0,0,2.227,1.4c.624.031,1.282-.293,1.851-.036.866.391.836,1.8,1.688,2.216.747.369,1.787-.233,2.424.3.222.187.334.477.548.673.483.443,1.238.254,1.893.228a4.456,4.456,0,0,1,3.779,2.307,11.31,11.31,0,0,1,1.3,4.425,5.945,5.945,0,0,1-.049,2.543,2.185,2.185,0,0,1-1.791,1.614c-7.794.5-15.484-1.364-23.073-3.212a17.84,17.84,0,0,1-6.355-2.522,19.325,19.325,0,0,1-4.142-4.645,60.367,60.367,0,0,1-6.079-9.774c-2.057-4.5-2.974-9.419-3.874-14.283a13.258,13.258,0,0,1-.326-3.984,11.234,11.234,0,0,1,1.754-4.369,46.653,46.653,0,0,1,3.551-5.006,12.986,12.986,0,0,1,7.924-4.785Z" transform="translate(-142.929 -255.145)" fill="#07f"/>
        <g id="Groupe_9034" data-name="Groupe 9034" transform="translate(513.857 310.436)">
          <path id="Tracé_32681" data-name="Tracé 32681" d="M860.637,642.684c1.929-3.573-.261-7.952-2.776-11.139s-5.588-6.511-5.523-10.581c.094-5.84,6.288-9.283,11.241-12.38a54.849,54.849,0,0,0,10.089-8.111,14.688,14.688,0,0,0,3.1-4.155c1.026-2.279,1-4.884.932-7.374q-.321-12.5-1.221-24.964" transform="translate(-846.909 -554.855)" fill="none" stroke="#7c859d" stroke-miterlimit="10" stroke-width="4"/>
          <path id="Tracé_32682" data-name="Tracé 32682" d="M908.216,550.244a9.08,9.08,0,0,0-4.542-7.456l-2.035,4.029.061-4.884a9.1,9.1,0,1,0,6.512,8.306Z" transform="translate(-869.253 -541.559)" fill="#41d1b2"/>
          <path id="Tracé_32683" data-name="Tracé 32683" d="M869.807,694.965a9.1,9.1,0,1,1,.44-7.326l-5.7,4.627,6.255-1.453A9.055,9.055,0,0,1,869.807,694.965Z" transform="translate(-844.027 -631.525)" fill="#41d1b2"/>
          <path id="Tracé_32684" data-name="Tracé 32684" d="M869.981,644.372a9.1,9.1,0,0,1-2.885-17.85l-.049,3.752,2.059-4.07h.024a9.1,9.1,0,1,1,.851,18.188Z" transform="translate(-851.745 -591.751)" fill="#41d1b2"/>
          <path id="Tracé_32685" data-name="Tracé 32685" d="M924.223,608.212a9.1,9.1,0,1,1,4.025-17.036l-1.628,4.407,3.309-3.174a9.1,9.1,0,0,1-5.726,15.8Z" transform="translate(-883.888 -570.294)" fill="#41d1b2"/>
          <path id="Tracé_32686" data-name="Tracé 32686" d="M907,559.917c-2.1.232-4.147.887-6.255,1.017s-4.424-.374-5.755-2.035a27.818,27.818,0,0,1-1.685-2.963,6.51,6.51,0,0,0-2.291-2.157,9.1,9.1,0,1,0,17.015,6.039C907.688,559.856,907.346,559.88,907,559.917Z" transform="translate(-869.262 -548.807)" opacity="0.1"/>
          <path id="Tracé_32687" data-name="Tracé 32687" d="M924.224,615.806a9.112,9.112,0,0,1-8.66-12.986,6.663,6.663,0,0,1,1.831,1.835,29.818,29.818,0,0,0,1.8,3.007c1.416,1.665,3.842,2.21,6.039,2.112s4.314-.724,6.511-.928c.305-.024.61-.045.92-.053A9.1,9.1,0,0,1,924.224,615.806Z" transform="translate(-883.889 -577.889)" opacity="0.1"/>
          <path id="Tracé_32688" data-name="Tracé 32688" d="M869.924,652.186a9.1,9.1,0,0,1-8.734-12.816,7.26,7.26,0,0,1,1.925,1.852,31.261,31.261,0,0,0,1.978,3.069c1.534,1.709,4.114,2.312,6.442,2.255,2.255-.049,4.424-.6,6.666-.773A9.1,9.1,0,0,1,869.924,652.186Z" transform="translate(-851.688 -599.564)" opacity="0.1"/>
          <path id="Tracé_32689" data-name="Tracé 32689" d="M869.746,703.443A9.1,9.1,0,0,1,853.15,696a9.06,9.06,0,0,1,2,1.782,35.386,35.386,0,0,0,2.442,3.231c1.86,1.827,4.863,2.58,7.537,2.649A39.5,39.5,0,0,0,869.746,703.443Z" transform="translate(-843.965 -640.004)" opacity="0.1"/>
          <path id="Tracé_32690" data-name="Tracé 32690" d="M839,741.6s7.183-.22,9.36-1.762,11.053-3.382,11.59-.912,10.8,12.3,2.686,12.364-18.847-1.262-21.008-2.58S839,741.6,839,741.6Z" transform="translate(-839 -657.89)" fill="#2b216e"/>
          <path id="Tracé_32691" data-name="Tracé 32691" d="M862.767,756.119c-8.111.065-18.847-1.266-21.008-2.58-1.628-1.005-2.3-4.6-2.519-6.259H839s.456,5.8,2.617,7.11,12.9,2.645,21.008,2.58c2.34,0,3.15-.851,3.105-2.084C865.4,755.623,864.513,756.087,862.767,756.119Z" transform="translate(-839 -663.558)" opacity="0.2"/>
        </g>
      </g>
      <g id="Groupe_9037" data-name="Groupe 9037" transform="translate(1141.897 655.979)">
        <g transform="matrix(1, 0, 0, 1, -310.35, -23.72)" filter="url(#Tracé_32699)">
          <path id="Tracé_32699-2" data-name="Tracé 32699" d="M25.781,0A25.781,25.781,0,1,1,0,25.781,25.781,25.781,0,0,1,25.781,0Z" transform="translate(348.35 58.74)" fill="#fff"/>
        </g>
        <rect id="Rectangle_7228" data-name="Rectangle 7228" width="30" height="15" rx="7.5" transform="translate(49.103 53.021)" fill="#07f" opacity="0.36"/>
        <rect id="Rectangle_7229" data-name="Rectangle 7229" width="15" height="15" rx="7.5" transform="translate(49.103 53.021)" fill="#07f"/>
      </g>
    </g>
  </g>
</svg>
