<?xml version="1.0" encoding="UTF-8"?> <svg xmlns="http://www.w3.org/2000/svg" xmlns:xlink="http://www.w3.org/1999/xlink" width="311px" height="311px" viewBox="0 0 311 311" version="1.1"><title>Slice</title><defs><linearGradient x1="61.3001224%" y1="95.0449954%" x2="25.9401018%" y2="28.0897042%" id="linearGradient-1"><stop stop-color="#4596D2" offset="0%"></stop><stop stop-color="#4597D3" offset="0.6599999%"></stop><stop stop-color="#3EB9EB" offset="26.01%"></stop><stop stop-color="#49C1ED" offset="51.22%"></stop><stop stop-color="#5AC3E6" offset="76.04%"></stop><stop stop-color="#5EC4E4" offset="100%"></stop></linearGradient><linearGradient x1="107.605453%" y1="49.9862755%" x2="-130.557141%" y2="49.9862755%" id="linearGradient-2"><stop stop-color="#FFE006" offset="0%"></stop><stop stop-color="#FBBC0D" offset="40.87%"></stop><stop stop-color="#F6A316" offset="77.54%"></stop><stop stop-color="#F59A1A" offset="100%"></stop></linearGradient><linearGradient x1="23.496625%" y1="38.6592806%" x2="-112.908689%" y2="-64.0391611%" id="linearGradient-3"><stop stop-color="#E84049" offset="0%"></stop><stop stop-color="#C40F62" offset="100%"></stop></linearGradient><linearGradient x1="-81.5750985%" y1="140.403862%" x2="-20.6616769%" y2="94.5454652%" id="linearGradient-4"><stop stop-color="#30A071" offset="0%"></stop><stop stop-color="#2CA771" offset="6.85%"></stop><stop stop-color="#4DB26F" offset="47.62%"></stop><stop stop-color="#5FB568" offset="80.09%"></stop><stop stop-color="#63B664" offset="100%"></stop></linearGradient></defs><g id="Page-1" stroke="none" stroke-width="1" fill="none" fill-rule="evenodd"><g id="Google-Play-Store" transform="translate(0.600000, -0.005486)" fill-rule="nonzero"><path d="M5.7,4.70548627 C2.1,8.40548627 0,14.2054863 0,21.7054863 L0,289.005486 C0,296.505486 2.1,302.305486 5.7,306.005486 L6.6,306.805486 L158.1,157.105486 L158.1,153.605486 L6.6,3.90548627 L5.7,4.70548627 Z" id="Path" fill="url(#linearGradient-1)"></path><path d="M208.5,207.005486 L158.1,157.105486 L158.1,153.605486 L208.6,103.705486 L209.7,104.405486 L269.5,138.005486 C286.6,147.605486 286.6,163.305486 269.5,172.905486 L209.7,206.505486 L208.5,207.005486 Z" id="Path" fill="url(#linearGradient-2)"></path><path d="M209.7,206.405486 L158.1,155.405486 L5.7,306.005486 C11.4,311.905486 20.6,312.605486 31.1,306.705486 L209.7,206.405486" id="Path" fill="url(#linearGradient-3)"></path><path d="M209.7,104.305486 L31.1,4.00548627 C20.6,-1.79451373 11.3,-1.09451373 5.7,4.80548627 L158.1,155.405486 L209.7,104.305486 L209.7,104.305486 Z" id="Path" fill="url(#linearGradient-4)"></path></g></g></svg> 