<svg xmlns="http://www.w3.org/2000/svg" xmlns:xlink="http://www.w3.org/1999/xlink" width="303.871" height="217.568" viewBox="0 0 303.871 217.568">
    <defs>
        <style>
            .cls-1,.cls-5,.cls-6{fill:#478bef}.cls-1,.cls-10,.cls-12,.cls-18,.cls-7{opacity:.1}.cls-2{fill:url(#linear-gradient)}.cls-28,.cls-3,.cls-4{fill:#fff}.cls-4{opacity:.04}.cls-6{opacity:.2}.cls-7{fill:#5a5773}.cls-8{fill:url(#linear-gradient-2)}.cls-9{fill:#3f3d56}.cls-11{fill:none}.cls-12{stroke:#478bef;stroke-miterlimit:10}.cls-13{fill:#efb7b9}.cls-14{fill:#003c95}.cls-15{fill:#632b01;opacity:.53}.cls-16{fill:#f9d048}.cls-17{fill:#2b216e}.cls-19{fill:#3daccf}.cls-20{fill:#fe0}.cls-21{fill:#41d1b2}.cls-22{fill:#476eef}.cls-23{fill:#0353c8}.cls-24{fill:#e1ebf0}.cls-25{fill:#b4d2d7}.cls-26{fill:#6fa5aa}.cls-27{fill:#1068e9}.cls-28{opacity:.4}
        </style>
        <linearGradient id="linear-gradient" x1=".5" x2=".5" y1="1" gradientUnits="objectBoundingBox">
            <stop offset="0" stop-color="gray" stop-opacity=".251"/>
            <stop offset=".54" stop-color="gray" stop-opacity=".122"/>
            <stop offset="1" stop-color="gray" stop-opacity=".102"/>
        </linearGradient>
        <linearGradient id="linear-gradient-2" x1=".5" x2=".5" y1="1" xlink:href="#linear-gradient"/>
    </defs>
    <g id="undraw_security_o890">
        <path id="Tracé_30776" d="M379.933 186.313c-7.051 14.544-21.367 24.27-36.2 30.683a137.624 137.624 0 0 1-63.662 10.614q-5.7-.379-11.371-1.213a143.411 143.411 0 0 1-38.018-11.071q-5.238-2.359-10.264-5.151a131.305 131.305 0 0 1-16.044-10.492q-1.919-1.465-3.784-3c-.862-.711-1.717-1.438-2.585-2.144a32.615 32.615 0 0 0-5.817-3.962 20.786 20.786 0 0 0-1.948-.86c-6.655-2.531-14.329-1.576-21.258.4-5.27 1.5-10.407 3.558-15.672 5.026a52.009 52.009 0 0 1-7.141 1.518 38 38 0 0 1-16.044-1.409l-.443-.138q-1.114-.35-2.21-.767l-.443-.17q-1.061-.409-2.078-.878l-.443-.2q-1.061-.494-2.078-1.043c-.244-.127-.486-.265-.724-.4a43.431 43.431 0 0 1-10.391-8.091c-.088-.088-.17-.178-.265-.265a37.575 37.575 0 0 1-1.237-1.4c-.149-.175-.3-.35-.443-.531q-.714-.87-1.377-1.781c-.066-.088-.13-.178-.194-.265a38.369 38.369 0 0 1-4.474-8.091 3.316 3.316 0 0 1-.1-.265q-.531-1.367-.969-2.778c-.119-.393-.234-.8-.334-1.189-.035-.117-.066-.236-.1-.353-1.465-5.766-1.632-11.761-1.632-17.721v-2.083c.042-9.64.191-19.445 1.613-28.953a1.208 1.208 0 0 1 .029-.2 90.426 90.426 0 0 1 1.94-9.505 70.12 70.12 0 0 1 3.267-9.632 89.487 89.487 0 0 1 13.313-21.183c13.308-16.333 30.76-30.044 51.188-35.176a75.329 75.329 0 0 1 64.23 13.9c5.413 4.309 10.277 9.412 16.357 12.716 5.307 2.876 11.519 4.068 17.2 1.8 4.7-1.871 7.754-2.8 13.029-2.516a109.21 109.21 0 0 1 31.938 6.69c.414.151.828.308 1.239.464 26.724 10.224 49.7 30.537 61.637 56.641q.475 1.035.921 2.086c7.122 16.639 9.696 36.125 1.842 52.338z" class="cls-1" data-name="Tracé 30776" transform="translate(-80.877 -40.043)"/>
        <ellipse id="Ellipse_1691" cx="23.426" cy="3.763" class="cls-1" data-name="Ellipse 1691" rx="23.426" ry="3.763" transform="translate(8.38 189.632)"/>
        <ellipse id="Ellipse_1692" cx="41.536" cy="4.033" class="cls-1" data-name="Ellipse 1692" rx="41.536" ry="4.033" transform="translate(200.422 209.502)"/>
        <rect id="Rectangle_6767" width="252.177" height="142.85" class="cls-2" data-name="Rectangle 6767" rx="12.49" transform="translate(30.702 28.591)"/>
        <rect id="Rectangle_6768" width="251.405" height="140.366" class="cls-3" data-name="Rectangle 6768" rx="12.49" transform="translate(31.103 30.6)"/>
        <rect id="Rectangle_6769" width="251.405" height="140.366" class="cls-3" data-name="Rectangle 6769" rx="12.49" transform="translate(31.103 30.6)"/>
        <rect id="Rectangle_6770" width="251.405" height="140.366" class="cls-4" data-name="Rectangle 6770" rx="12.49" transform="translate(31.103 30.6)"/>
        <path id="Tracé_30777" d="M394.749 149.29H145.9a1.276 1.276 0 0 0-1.276 1.276v5.395h251.391v-5.395a1.276 1.276 0 0 0-1.266-1.276z" class="cls-5" data-name="Tracé 30777" transform="translate(-113.517 -120.3)"/>
        <g id="buttons" transform="translate(34.398 30.6)">
            <ellipse id="Ellipse_1693" cx="1.725" cy="1.725" class="cls-3" data-name="Ellipse 1693" rx="1.725" ry="1.725"/>
            <ellipse id="Ellipse_1694" cx="1.725" cy="1.725" class="cls-3" data-name="Ellipse 1694" rx="1.725" ry="1.725" transform="translate(4.644)"/>
            <ellipse id="Ellipse_1695" cx="1.725" cy="1.725" class="cls-3" data-name="Ellipse 1695" rx="1.725" ry="1.725" transform="translate(9.288)"/>
        </g>
        <rect id="Rectangle_6771" width="67.467" height="5.726" class="cls-6" data-name="Rectangle 6771" rx="2.863" transform="translate(51.808 48.207)"/>
        <path id="Tracé_30838" d="M0 0h209.993v93.345H0z" class="cls-7" data-name="Tracé 30838" transform="translate(51.808 65.911)"/>
        <path id="Tracé_30780" d="M898.8 437.893a7.554 7.554 0 0 0-.711-2.019l-3.184-4.755h.019a8.02 8.02 0 0 1 0-3.561c.5-1.173-1.788-4.057-1.788-4.057a1.711 1.711 0 0 1 .448-1.616c.727-.892-.448-3.5-.448-3.5s-.557-5.453-.613-6.286-.5-5.45-.5-5.45l-1.061-9.789-1.889-25.944-.035-.486c.234-.114.358-.186.358-.186l-.377-14.345.326-.295c2.85-2.579 9.423-8.55 9.357-8.68s-.8-9.969-.881-12.432a14.816 14.816 0 0 0-1.13-5.09c-.165-.326-.64-2.478-.836-3.389l-.088-.406s-1.926-3.673-1.759-5.342.5-2.919-3.606-3.5a15.918 15.918 0 0 1-5.5-1.919 15.658 15.658 0 0 0-3.943-1.974s-1.152-2.123-1.953-1.4a11.148 11.148 0 0 1-.756-2.364l-.024-.149a7.82 7.82 0 0 0 3.089-4.421c.026-.1.048-.2.072-.305a.862.862 0 0 0 .247.045c.7 0 1.128-.777 1.781-1.024.265-.1.592-.119.8-.329a.778.778 0 0 0 .175-.586 1.2 1.2 0 0 0 0-.218v-.077.027c-.178-.966-.926-1.823-.844-2.8.08-.923.892-1.735.825-2.635a1.438 1.438 0 0 0-.019-.212v.032a2.272 2.272 0 0 0-.531-.939 3.015 3.015 0 0 0-1.093-.918c-.369-.162-.8-.2-1.141-.393-1.014-.552-1.011-1.99-1.613-2.972A2.629 2.629 0 0 0 877.5 290c-.754.074-1.436.475-2.181.6a5.7 5.7 0 0 1-3.022-.531 8.321 8.321 0 0 0-2.983-.8 2.533 2.533 0 0 0-2.473 1.51c-.167.531-.085 1.1-.212 1.64a3.571 3.571 0 0 1-1.924 2.1c-.531.295-1.162.632-1.327 1.189v-.042a1.05 1.05 0 0 0-.026.135 1.006 1.006 0 0 0 0 .178 3.346 3.346 0 0 0 .337 1.109 3.06 3.06 0 0 1-.016 2.139c-.2.5-.531.947-.722 1.449a2.851 2.851 0 0 0-.175.727v-.042a2.947 2.947 0 0 0 0 .34 2.389 2.389 0 0 0 .265 1.115 2 2 0 0 0 1.191 1c.531.122.862-.4 1.422-.265a2.245 2.245 0 0 1 .295.093c.019.119.037.239.058.356a7.8 7.8 0 0 0 2.691 4.556 1.718 1.718 0 0 0 .029.194 17.823 17.823 0 0 1 .22 3.2s-.836-1.223-1.982 1.138a24.082 24.082 0 0 1-4.023 1.921c-1.032.2-4.7 1.473-4.7 1.473a3.232 3.232 0 0 1-1.9.613c-1.144 0-2.094 2.5-1.956 3.864s-.082 2.364-1.146 2.42-.483 2.213-.475 2.25l-.1.464c-.207.95-.658 2.988-.817 3.306a14.86 14.86 0 0 0-1.133 5.09c-.082 2.463-.8 12.265-.878 12.432-.056.109 4.447 4.225 7.613 7.1l.459.414-1.457 13.608a3.633 3.633 0 0 0 1.5 2.654c0 .159 0 .321-.016.488a17.021 17.021 0 0 1-.446 4.023c-.446.892-.334 5.673-.334 5.673s-.448 9.733-1.006 10.792a7.364 7.364 0 0 0-.5 3.715c.167.435-.56 12.124-.56 12.124l-.557 5.23s.167 5-.337 5.116-.783 3.561-.783 3.561-1.786 2.447-1.006 3.336-.114 1.282-.2 1.5-1.7 1.061-.531 4.171a.916.916 0 0 0 .037.09c-1.1 1.526-4.58 6.448-4.368 7.2a1.972 1.972 0 0 0 .929 1.115c.82.491 2.226.719 4.463 0 3.715-1.2 3.45-2.059 3.45-2.059a1.576 1.576 0 0 1 1.566-1.5 4.4 4.4 0 0 0 2.683-1.528l-.18-.671-.247-.929c.029-.265.218-.73 1.061-.987 1.287-.39.95-2.837.95-2.837s-.111-2.558.446-2.892.337-4.562.337-4.562a31.351 31.351 0 0 1 1.507-5.119c.892-2.059 1.958-14.292 1.958-14.292s.724-6.008 1.4-7.732a43.77 43.77 0 0 0 1.287-6.562s4.137-8.011 4.19-9.792c0 0 .531-1.669 1.061.167s2.022 6.231 2.022 6.231l1.451 5.395 1.733 8.064 1.12 6.788a10.556 10.556 0 0 0 .265 3.45c.435.892 1.061 2.945.727 3.336s.669 2.226.95 2.614 0 8.621 0 8.621 1.284 7.008 3.129 8.226a2.255 2.255 0 0 0 .409.212c-.026.759-.053 1.775-.019 2.306a.883.883 0 0 0 .058.348 9.7 9.7 0 0 0 2.46 1.725c.393 0 1.786.974 1.844 1.446s4.084 2.473 4.654 2.531 3.336.555 3.715-.223a1.287 1.287 0 0 0 .076-.713zm-9.89-100.231l.287.247s.295 2.3.5 2.983a5.761 5.761 0 0 1-.042 2.025 4.657 4.657 0 0 0 .295 1.459c.249.5-.5 1.592-.5 1.592h-.671l-.21-8.592zm-19.963-25.655v-.05a.164.164 0 0 0-.008.05zm-10.309 33.077a.969.969 0 0 1-.042-.708 2.121 2.121 0 0 0 .141-.393 6.083 6.083 0 0 0 .154-1.061.08.08 0 0 0 0-.013 5.614 5.614 0 0 1-.04-2.011c.2-.653.5-2.983.5-2.983l.191-.162.443-.385a3.15 3.15 0 0 1 .032-.379 29.558 29.558 0 0 1 .048 4.357 6.458 6.458 0 0 0-.839 2.473 10.152 10.152 0 0 1-.172 2.065 4.233 4.233 0 0 1-.419-.799z" class="cls-8" data-name="Tracé 30780" transform="translate(-629.762 -223.143)"/>
        <path id="Tracé_30784" d="M1005.107 827.051c-.39.775-3.129.265-3.694.223s-4.556-2.051-4.612-2.521-1.438-1.438-1.826-1.438a9.7 9.7 0 0 1-2.436-1.717.848.848 0 0 1-.056-.345c-.058-.91.056-3.253.056-3.253l8.027.443 3.9 5.867a7.568 7.568 0 0 1 .706 2.009 1.326 1.326 0 0 1-.065.732z" class="cls-9" data-name="Tracé 30784" transform="translate(-736.382 -611.563)"/>
        <path id="Tracé_30786" d="M1005.15 836.058c-.39.775-3.129.265-3.694.223s-4.556-2.051-4.612-2.521-1.438-1.438-1.826-1.438a9.7 9.7 0 0 1-2.436-1.717.846.846 0 0 1-.056-.345l2.6 1.645a10.976 10.976 0 0 1 2.1 1.69c.443.629 3.935 1.937 4.224 1.964a19.873 19.873 0 0 1 3.76-.234 1.326 1.326 0 0 1-.06.733z" class="cls-10" data-name="Tracé 30786" transform="translate(-736.425 -620.57)"/>
        <path id="Tracé_30787" d="M861.224 823.009a4.342 4.342 0 0 1-2.654 1.52 1.563 1.563 0 0 0-1.55 1.494s.265.86-3.4 2.051c-2.216.714-3.609.488-4.421 0a1.974 1.974 0 0 1-.921-1.109c-.249-.884 4.649-7.61 4.649-7.61l4.458-.265 3.184 1.438.488 1.823z" class="cls-9" data-name="Tracé 30787" transform="translate(-630.445 -612.364)"/>
        <path id="Tracé_30789" d="M863.8 832.009a4.343 4.343 0 0 1-2.654 1.52 1.563 1.563 0 0 0-1.55 1.494s.265.86-3.4 2.051c-2.216.714-3.609.488-4.421 0 2.088-.218 6.7-1.536 7.165-1.993.555-.555 1.247-2.078 1.717-2.1a18.471 18.471 0 0 0 2.98-1.637z" class="cls-11" data-name="Tracé 30789" transform="translate(-633.02 -621.363)"/>
        <path id="Tracé_30790" d="M863.8 832.009a4.343 4.343 0 0 1-2.654 1.52 1.563 1.563 0 0 0-1.55 1.494s.265.86-3.4 2.051c-2.216.714-3.609.488-4.421 0 2.088-.218 6.7-1.536 7.165-1.993.555-.555 1.247-2.078 1.717-2.1a18.471 18.471 0 0 0 2.98-1.637z" class="cls-10" data-name="Tracé 30790" transform="translate(-633.02 -621.363)"/>
        <path id="Tracé_30792" d="M936.973 351.814a4.119 4.119 0 0 0-.454 3.131 7.786 7.786 0 0 1-9.439-.353c-.167-1.125-.361-1.95-.361-1.95s12.081-3.442 10.254-.828z" class="cls-10" data-name="Tracé 30792" transform="translate(-688.081 -268.362)"/>
        <path id="Tracé_30794" d="M902.177 350.031l-2.547 45.363-13.838-2.906-2.742-18.188 2.715-24.413 2.043.263 3.6.459 3.569.22 3.869-.43z" class="cls-10" data-name="Tracé 30794" transform="translate(-648.843 -257.045)"/>
        <path id="Tracé_30796" d="M939.23 396.3l4.983.167-1.4 1.961s.1 3.962.764 5.1.47 18.681.47 18.681l-1.327 2.518-2.269-2.823.029-23.166z" class="cls-9" data-name="Tracé 30796" transform="translate(-697.272 -301.765)"/>
        <path id="Tracé_30798" d="M928.8 336.86l-4.649 5.148 2.656 2.768 4.4-4.291z" class="cls-10" data-name="Tracé 30798" transform="translate(-679.036 -247.473)"/>
        <path id="Tracé_30800" d="M902.49 342.295l-4.707-4.7-.443 2.462 2.16 5.4z" class="cls-10" data-name="Tracé 30800" transform="translate(-659.341 -248.009)"/>
        <path id="Tracé_30802" d="M918.618 579.363a22.974 22.974 0 0 1-7.165 2.072c-4.567.581-7.555-5.23-7.555-5.23l-1.743 2.269c-.555 2.409-9 3.017-12.427 2.1a5.49 5.49 0 0 1-1.969-.931c.048-1.2.058-2.2.058-2.2l6.2-2.324 7.961-2.545 6.7 3.211 9.8 1.881z" class="cls-10" data-name="Tracé 30802" transform="translate(-659.459 -431.267)"/>
        <path id="Tracé_30803" d="M929.132 391.331l-2.545 45.36-13.841-2.906L910 415.6l2.712-24.413 2.043.265a24.762 24.762 0 0 1-.3 2.654c-.332 1.552 1.717 12.567 1.717 12.567s3.893 12.352 5.644 10.572 4.246-11.182 4.246-11.182c1.69-3.487.029-13.268-.1-13.464a3.944 3.944 0 0 1-.159-.889z" class="cls-10" data-name="Tracé 30803" transform="translate(-675.798 -298.011)"/>
        <path id="Tracé_30804" d="M999.025 509.726l.117 4.445-1.279 1.16L997 504.57h1.911z" class="cls-10" data-name="Tracé 30804" transform="translate(-739.712 -381.304)"/>
        <path id="Tracé_30805" d="M890.813 493.1a6.178 6.178 0 0 1-.151 1.061c0-.1 0-.154-.021-.162-.08-.021.016-.427.172-.899z" class="cls-10" data-name="Tracé 30805" transform="translate(-661.555 -372.878)"/>
        <path id="Tracé_30806" d="M889.884 502.153l-.873 10.752s-1.308-1.186-3-2.731l.2-1.905s.714-4.681.974-6.99a4.265 4.265 0 0 0 .456.873z" class="cls-10" data-name="Tracé 30806" transform="translate(-658.174 -378.887)"/>
        <ellipse id="Ellipse_1696" cx="1.218" cy="1.218" class="cls-9" data-name="Ellipse 1696" rx="1.218" ry="1.218" transform="translate(243.922 123.266)"/>
        <ellipse id="Ellipse_1697" cx="1.218" cy="1.218" class="cls-9" data-name="Ellipse 1697" rx="1.218" ry="1.218" transform="translate(243.922 129.008)"/>
        <path id="Tracé_30808" d="M992.47 804.34s5 .387 5.5.775-5.5-.775-5.5-.775z" class="cls-12" data-name="Tracé 30808" transform="translate(-736.384 -601.528)"/>
        <path id="Tracé_30809" d="M880.3 789.53s1.061 1.327.61 1.937-.61-1.937-.61-1.937z" class="cls-12" data-name="Tracé 30809" transform="translate(-653.979 -590.648)"/>
        <path id="Tracé_30810" d="M885.1 805.573s1.937-1.274 2.712-.427-2.712.427-2.712.427z" class="cls-12" data-name="Tracé 30810" transform="translate(-657.505 -601.907)"/>
        <path id="Tracé_30811" d="M932.964 320.252a7.732 7.732 0 0 1-.249 1.966.884.884 0 0 1-.515-.865c.034-.316.244-.605.2-.918-.066-.483-.65-.679-.958-1.061a2.469 2.469 0 0 1-.265-1.73c.032-.6-.119-1.327-.679-1.531-.167-.061-.35-.066-.512-.135-.44-.186-.576-.732-.87-1.109a2.293 2.293 0 0 0-2.654-.382 12.612 12.612 0 0 1-1.194.5 1.561 1.561 0 0 1-1.25-.093c-.175-.111-.316-.265-.5-.377a1.713 1.713 0 0 0-1.905.464 6.585 6.585 0 0 1-1.592 1.372c-.295.133-.658.212-.8.5a1.047 1.047 0 0 0-.085.5 14.84 14.84 0 0 1-.093 3.091c-.138.65-.594 1.388-1.255 1.308a1.239 1.239 0 0 1-.242-.061 7.775 7.775 0 1 1 15.417-1.438z" class="cls-10" data-name="Tracé 30811" transform="translate(-681.248 -240.187)"/>
        <g id="Groupe_7464" data-name="Groupe 7464" transform="translate(217.82 66.864)">
            <path id="Tracé_30781" d="M937.019 359.345v3.3l-6.772 3.4s-6.724-4.068-5.066-5.687c1.061-1.024.857-3.837.571-5.772-.167-1.125-.361-1.95-.361-1.95s12.079-3.45 10.253-.831a4.119 4.119 0 0 0-.454 3.131 14.223 14.223 0 0 0 1.829 4.409z" class="cls-13" data-name="Tracé 30781" transform="translate(-904.578 -335.224)"/>
            <path id="Tracé_30782" d="M869 446.849l-.873 10.752s-1.308-1.186-3-2.73c-3.139-2.863-7.6-6.958-7.544-7.066.082-.167.8-9.922.873-12.374a14.807 14.807 0 0 1 1.12-5.063 31.493 31.493 0 0 0 .8-3.293c.064-.295.1-.486.1-.486l1.465-.589s6.1 6.809 6.1 6.934-.417 5.355-.417 5.355l-.432.377-.188.162s-.292 2.285-.5 2.969a5.331 5.331 0 0 0 .04 2 6.16 6.16 0 0 1-.151 1.061 2.22 2.22 0 0 1-.141.39.973.973 0 0 0 .042.706 4.263 4.263 0 0 0 .456.873z" class="cls-14" data-name="Tracé 30782" transform="translate(-855.107 -390.447)"/>
            <path id="Tracé_30783" d="M1008.41 447.827c.064.13-6.446 6.071-9.266 8.637l-1.279 1.16-.865-10.753h2.242s.748-1.08.5-1.579a4.613 4.613 0 0 1-.289-1.451 5.789 5.789 0 0 0 .04-2.014c-.207-.687-.5-2.969-.5-2.969l-.284-.244-.337-.295s-.417-5.23-.417-5.355 6.1-6.934 6.1-6.934l1.454.581.085.406c.2.9.666 3.046.828 3.373a14.805 14.805 0 0 1 1.12 5.063c.072 2.447.783 12.206.868 12.374z" class="cls-14" data-name="Tracé 30783" transform="translate(-957.532 -390.469)"/>
            <path id="Tracé_30785" d="M1005.107 827.051c-.39.775-3.129.265-3.694.223s-4.556-2.051-4.612-2.521-1.438-1.438-1.826-1.438a9.7 9.7 0 0 1-2.436-1.717.848.848 0 0 1-.056-.345c-.058-.91.056-3.253.056-3.253l8.027.443 3.9 5.867a7.568 7.568 0 0 1 .706 2.009 1.326 1.326 0 0 1-.065.732z" class="cls-15" data-name="Tracé 30785" transform="translate(-954.202 -678.427)"/>
            <path id="Tracé_30788" d="M861.224 823.009a4.342 4.342 0 0 1-2.654 1.52 1.563 1.563 0 0 0-1.55 1.494s.265.86-3.4 2.051c-2.216.714-3.609.488-4.421 0a1.974 1.974 0 0 1-.921-1.109c-.249-.884 4.649-7.61 4.649-7.61l4.458-.265 3.184 1.438.488 1.823z" class="cls-15" data-name="Tracé 30788" transform="translate(-848.265 -679.228)"/>
            <path id="Tracé_30791" d="M906.071 635.718a7.984 7.984 0 0 0 0 3.543s-7.43.387-9.245-.831-3.1-8.194-3.1-8.194.265-8.192 0-8.579-1.274-2.213-.942-2.6-.265-2.436-.719-3.322a9.943 9.943 0 0 1-.265-3.431l-1.109-6.756-1.714-8.024-1.457-5.371s-1.494-4.373-2-6.2-1.043-.167-1.043-.167c-.053 1.773-4.15 9.744-4.15 9.744a43.857 43.857 0 0 1-1.274 6.53c-.663 1.714-1.385 7.7-1.385 7.7s-1.061 12.177-1.937 14.226a31.392 31.392 0 0 0-1.478 5.092s.223 4.209-.332 4.54-.464 2.879-.464 2.879.332 2.433-.942 2.823-1.061 1.218-1.061 1.218-7.085 1.162-8.247-1.94.443-3.927.531-4.15.971-.608.2-1.5 1-3.32 1-3.32.279-3.431.775-3.543.334-5.092.334-5.092l.552-5.2s.722-11.625.555-12.068a7.371 7.371 0 0 1 .5-3.715c.555-1.061.995-10.742.995-10.742s-.111-4.758.332-5.644a16.454 16.454 0 0 0 .44-4c.048-1.2.058-2.2.058-2.2l6.2-2.325 7.961-2.545 6.7 3.211 9.8 1.881.122 1.69 1.871 25.822 1.061 9.741s.443 4.593.5 5.424.608 6.257.608 6.257 1.162 2.6.443 3.487a1.681 1.681 0 0 0-.443 1.592s2.268 2.897 1.769 4.059z" class="cls-5" data-name="Tracé 30791" transform="translate(-858.932 -498.109)"/>
            <path id="Tracé_30793" d="M932.95 320.245a7.738 7.738 0 1 1-2.266-5.509 7.775 7.775 0 0 1 2.266 5.509z" class="cls-13" data-name="Tracé 30793" transform="translate(-899.055 -307.043)"/>
            <path id="Tracé_30795" d="M902.177 351.288l-2.547 45.363-13.838-2.906-2.742-18.185 2.715-24.41 2.043.26 3.6.459 3.569.22 3.869-.43z" class="cls-3" data-name="Tracé 30795" transform="translate(-866.663 -324.835)"/>
            <path id="Tracé_30797" d="M939.23 396.3l4.983.167-1.4 1.961s.1 3.962.764 5.1.47 18.681.47 18.681l-1.327 2.518-2.269-2.823.029-23.166z" class="cls-5" data-name="Tracé 30797" transform="translate(-915.092 -368.629)"/>
            <path id="Tracé_30799" d="M928.8 335.61l-4.649 5.148 2.656 2.768 4.4-4.291z" class="cls-3" data-name="Tracé 30799" transform="translate(-896.857 -313.418)"/>
            <path id="Tracé_30801" d="M903.118 341.045l-4.7-4.7-.443 2.463 2.16 5.4z" class="cls-3" data-name="Tracé 30801" transform="translate(-877.624 -313.954)"/>
            <path id="Tracé_30807" d="M884.125 375.272s-.828-1.218-1.964 1.133a23.748 23.748 0 0 1-3.98 1.911c-1.019.194-4.644 1.467-4.644 1.467a3.206 3.206 0 0 1-1.881.608c-1.136 0-2.078 2.492-1.94 3.848s-.082 2.354-1.133 2.409-.472 2.24-.472 2.24l7 8.027s.443 7.39.223 7.613a6.557 6.557 0 0 0-.831 2.463c.194.074-1.061 8.247-1.061 8.247l-1.688 15.86s0 2.654 3.434 3.569 11.88.31 12.424-2.1l1.743-2.271s2.988 5.814 7.555 5.233a21.961 21.961 0 0 0 7.475-2.242l-.5-19.008-.332-13.7 7.13-11.716s-1.911-3.654-1.743-5.307.5-2.906-3.572-3.487a15.619 15.619 0 0 1-5.453-1.911 15.589 15.589 0 0 0-3.9-1.964s-1.141-2.123-1.934-1.4a26.092 26.092 0 0 1 .73 3.45 11.414 11.414 0 0 0 .249 2.685c.125.21 1.786 9.977.1 13.464 0 0-2.481 9.4-4.246 11.182s-5.644-10.572-5.644-10.572-2.049-11.018-1.717-12.567.572-7.164.572-7.164z" class="cls-14" data-name="Tracé 30807" transform="translate(-862.727 -352.722)"/>
            <ellipse id="Ellipse_1698" cx="1.218" cy="1.218" class="cls-16" data-name="Ellipse 1698" rx="1.218" ry="1.218" transform="translate(26.102 56.402)"/>
            <ellipse id="Ellipse_1699" cx="1.218" cy="1.218" class="cls-16" data-name="Ellipse 1699" rx="1.218" ry="1.218" transform="translate(26.102 62.144)"/>
            <path id="Tracé_30812" d="M908.621 306.214c.2.045.387.149.592.175.661.08 1.117-.658 1.255-1.308a14.312 14.312 0 0 0 .1-3.091 1.011 1.011 0 0 1 .082-.5c.151-.287.515-.366.8-.5a6.873 6.873 0 0 0 1.592-1.372 1.7 1.7 0 0 1 1.9-.464c.178.106.321.265.5.377a1.592 1.592 0 0 0 1.253.093c.411-.122.8-.337 1.191-.5a2.3 2.3 0 0 1 2.654.379c.295.379.43.923.87 1.109.162.069.345.077.512.138.56.21.7.934.679 1.531a2.572 2.572 0 0 0 .265 1.73c.308.377.892.573.958 1.061.042.313-.165.605-.2.918a.881.881 0 0 0 .83.939c.69 0 1.117-.772 1.762-1.019.265-.1.586-.119.8-.329a.878.878 0 0 0 .164-.719c-.13-1.016-.945-1.9-.857-2.919.082-.977.987-1.828.8-2.789a2.26 2.26 0 0 0-.531-.947 3.067 3.067 0 0 0-1.083-.915 11.143 11.143 0 0 1-1.133-.39c-1-.549-1-1.982-1.592-2.959a2.6 2.6 0 0 0-2.42-1.2c-.746.074-1.422.47-2.16.6a5.6 5.6 0 0 1-2.993-.531 8.185 8.185 0 0 0-2.953-.8 2.518 2.518 0 0 0-2.452 1.5c-.165.531-.082 1.1-.21 1.632a3.563 3.563 0 0 1-1.905 2.091c-.581.324-1.279.7-1.348 1.356a2.8 2.8 0 0 0 .332 1.2 3.06 3.06 0 0 1-.016 2.123c-.194.5-.518.942-.714 1.441a2.588 2.588 0 0 0 .055 2.135 1.979 1.979 0 0 0 1.213 1c.522.119.851-.398 1.408-.276z" class="cls-17" data-name="Tracé 30812" transform="translate(-890.486 -292.02)"/>
        </g>
        <g id="Groupe_7462" class="cls-18" data-name="Groupe 7462" transform="translate(233.07 73.155)">
            <path id="Tracé_30813" d="M910.466 335.615c-.138.65-.6 1.388-1.258 1.308-.2-.026-.39-.13-.592-.175-.555-.122-.884.4-1.406.265a1.984 1.984 0 0 1-1.215-1 2.3 2.3 0 0 1-.247-.868 2.424 2.424 0 0 0 .247 1.367 1.985 1.985 0 0 0 1.215 1c.531.122.852-.4 1.406-.265a5.992 5.992 0 0 0 .592.172c.661.082 1.12-.655 1.258-1.306a7.667 7.667 0 0 0 .127-1.743 6.536 6.536 0 0 1-.127 1.245z" data-name="Tracé 30813" transform="translate(-905.733 -329.423)"/>
            <path id="Tracé_30814" d="M908.451 318.13a3.055 3.055 0 0 0-.175-1.282 6.792 6.792 0 0 1-.305-.839 1.2 1.2 0 0 0-.026.135 2.843 2.843 0 0 0 .332 1.2 3.04 3.04 0 0 1 .174.786z" data-name="Tracé 30814" transform="translate(-907.353 -315.935)"/>
            <path id="Tracé_30815" d="M984.036 318.73c-.125.754-.735 1.462-.8 2.256a1.905 1.905 0 0 0 0 .409c.136-.927.956-1.747.8-2.665z" data-name="Tracé 30815" transform="translate(-962.664 -317.933)"/>
            <path id="Tracé_30816" d="M976.627 339.83a.624.624 0 0 1-.151.3c-.2.21-.531.226-.8.329-.645.247-1.061 1.027-1.762 1.019a.889.889 0 0 1-.8-.616 1.371 1.371 0 0 0-.037.175.881.881 0 0 0 .831.937c.693 0 1.117-.772 1.762-1.016.265-.1.589-.119.8-.329a.878.878 0 0 0 .164-.719c.001-.035-.004-.056-.007-.08z" data-name="Tracé 30816" transform="translate(-955.211 -333.434)"/>
            <path id="Tracé_30817" d="M970.42 333.652c-.066-.483-.65-.679-.958-1.061a1.454 1.454 0 0 1-.292-.87 1.958 1.958 0 0 0 .292 1.369c.305.371.77.531.918.913a.853.853 0 0 0 .04-.351z" data-name="Tracé 30817" transform="translate(-952.332 -327.476)"/>
            <path id="Tracé_30818" d="M935.9 319.125c.021-.6-.122-1.327-.682-1.531-.164-.061-.348-.069-.51-.135-.44-.186-.578-.732-.87-1.109a2.3 2.3 0 0 0-2.654-.382c-.4.162-.778.377-1.192.5a1.56 1.56 0 0 1-1.25-.093c-.175-.111-.318-.265-.5-.377a1.711 1.711 0 0 0-1.905.464 6.592 6.592 0 0 1-1.592 1.372c-.3.133-.658.212-.812.5a1.043 1.043 0 0 0-.082.5v.31a.755.755 0 0 1 .077-.308c.154-.287.515-.366.812-.5a6.873 6.873 0 0 0 1.592-1.372 1.7 1.7 0 0 1 1.905-.464c.178.106.321.265.5.374a1.55 1.55 0 0 0 1.25.093 12.263 12.263 0 0 0 1.191-.5 2.3 2.3 0 0 1 2.654.379c.292.377.43.923.87 1.109.162.069.345.077.509.138a1.274 1.274 0 0 1 .674 1.184z" data-name="Tracé 30818" transform="translate(-919.041 -315.727)"/>
        </g>
        <path id="Tracé_30837" d="M0 0h1.507v33.939H0z" class="cls-19" data-name="Tracé 30837" transform="translate(31.052 121.318)"/>
        <path id="Tracé_30827" d="M129.172 618.4l-.1 1.529-.133 2.157-.056.9-.133 2.16-.058.9-.133 2.157-1.52 24.538a4.155 4.155 0 0 1-4.148 3.9h-7.9a4.153 4.153 0 0 1-4.145-3.9l-1.525-24.541-.133-2.157-.056-.9-.132-2.163-.056-.9-.133-2.157-.1-1.529a2.152 2.152 0 0 1 2.149-2.285h16.158a2.149 2.149 0 0 1 2.147 2.29z" class="cls-16" data-name="Tracé 30827" transform="translate(-87.14 -463.246)"/>
        <path id="Tracé_30828" d="M102.375 590.46l-.133 2.157h-20l-.133-2.157z" class="cls-20" data-name="Tracé 30828" transform="translate(-60.438 -433.778)"/>
        <path id="Tracé_30829" d="M102.709 601.98l-.133 2.16H82.955l-.135-2.16z" class="cls-20" data-name="Tracé 30829" transform="translate(-60.96 -442.241)"/>
        <path id="Tracé_30830" d="M103.046 613.51l-.133 2.157H83.675l-.135-2.157z" class="cls-20" data-name="Tracé 30830" transform="translate(-61.489 -450.711)"/>
        <path id="Tracé_30831" d="M46.781 526.584c8.778 6.35 12.435 16.285 12.435 16.285s-10.58-.364-19.371-6.714S27.41 519.87 27.41 519.87s10.59.364 19.371 6.714z" class="cls-21" data-name="Tracé 30831" transform="translate(-27.41 -392.544)"/>
        <path id="Tracé_30832" d="M27.46 519.87s10.98 6.1 14.5 11.145 17.291 11.856 17.291 11.856" class="cls-19" data-name="Tracé 30832" transform="translate(-27.447 -392.544)"/>
        <path id="Tracé_30833" d="M92.595 486.884a21.277 21.277 0 0 1 6.769 8.863 19.34 19.34 0 0 1-17.3-12.517 21.115 21.115 0 0 1 10.531 3.654z" class="cls-21" data-name="Tracé 30833" transform="translate(-67.558 -365.627)"/>
        <path id="Tracé_30834" d="M82.06 483.18s5.976 3.317 7.892 6.063 9.412 6.453 9.412 6.453" class="cls-19" data-name="Tracé 30834" transform="translate(-67.558 -365.59)"/>
        <path id="Tracé_30835" d="M155.03 507.362a29.419 29.419 0 0 0-6.65 13.913 26.744 26.744 0 0 0 19.875-21.844 29.423 29.423 0 0 0-13.225 7.931z" class="cls-21" data-name="Tracé 30835" transform="translate(-116.28 -377.528)"/>
        <path id="Tracé_30836" d="M168.255 499.43s-7.149 6.183-8.966 10.444-10.909 11.41-10.909 11.41" class="cls-19" data-name="Tracé 30836" transform="translate(-116.28 -377.528)"/>
        <g id="shield" transform="translate(131.421 76.372)">
            <path id="Tracé_30839" d="M56.8 46.613a35.216 35.216 0 0 1-8.434 13.139 44.149 44.149 0 0 1-16.484 9.766 5.043 5.043 0 0 1-1.6.283h-.06a5.115 5.115 0 0 1-.983-.1 5.324 5.324 0 0 1-.676-.184 44.146 44.146 0 0 1-16.5-9.761 35.149 35.149 0 0 1-8.436-13.134C.22 37.378.414 27.193.57 19.009v-.126c.031-.676.052-1.386.063-2.17A7.4 7.4 0 0 1 7.6 9.467c8.027-.448 14.235-3.067 19.54-8.236l.046-.043a4.471 4.471 0 0 1 6.07 0l.045.043c5.306 5.17 11.514 7.788 19.54 8.236a7.4 7.4 0 0 1 6.966 7.247c.011.789.031 1.5.063 2.17v.053c.157 8.199.35 18.404-3.07 27.676zm0 0" class="cls-22" data-name="Tracé 30839" transform="translate(-.5)"/>
            <path id="Tracé_30840" d="M245.469 46.616a35.216 35.216 0 0 1-8.434 13.139 44.149 44.149 0 0 1-16.484 9.766 5.043 5.043 0 0 1-1.6.283V0a4.478 4.478 0 0 1 2.975 1.188l.045.043c5.306 5.17 11.514 7.788 19.54 8.236a7.4 7.4 0 0 1 6.966 7.247c.011.789.032 1.5.063 2.17v.053c.16 8.203.348 18.407-3.071 27.679zm0 0" class="cls-23" data-name="Tracé 30840" transform="translate(-189.168 -.003)"/>
            <path id="Tracé_30841" d="M125.687 145.794a17.418 17.418 0 0 1-17.335 17.4h-.061a17.4 17.4 0 1 1 0-34.792h.061a17.418 17.418 0 0 1 17.335 17.392zm0 0" class="cls-3" data-name="Tracé 30841" transform="translate(-78.571 -110.893)"/>
            <path id="Tracé_30842" d="M236.284 145.794a17.418 17.418 0 0 1-17.335 17.4V128.4a17.418 17.418 0 0 1 17.335 17.394zm0 0" class="cls-24" data-name="Tracé 30842" transform="translate(-189.168 -110.893)"/>
            <path id="Tracé_30843" d="M170.843 215.476l-7.835 7.836-1.693 1.688a2.05 2.05 0 0 1-2.9 0l-3.64-3.642a2.048 2.048 0 0 1 2.9-2.9l2.193 2.193 8.08-8.08a2.048 2.048 0 0 1 2.9 2.9zm0 0" class="cls-25" data-name="Tracé 30843" transform="translate(-133.227 -183.081)"/>
            <path id="Tracé_30844" d="M226.784 215.476l-7.835 7.836v-5.794l4.939-4.938a2.048 2.048 0 0 1 2.9 2.9zm0 0" class="cls-26" data-name="Tracé 30844" transform="translate(-189.168 -183.081)"/>
        </g>
        <g id="Groupe_7463" data-name="Groupe 7463" transform="translate(143.575 93.195)">
            <path id="Tracé_30845" d="M17.969 0A17.97 17.97 0 1 1 0 17.97 17.97 17.97 0 0 1 17.969 0z" class="cls-5" data-name="Tracé 30845" transform="translate(0 .02)"/>
            <path id="Tracé_30846" d="M237.392 146.839c0 10.16-8.826 17.945-18.977 17.981l-.083-36.07c10.15.036 19.06 7.93 19.06 18.089zm0 0" class="cls-27" data-name="Tracé 30846" transform="translate(-200.686 -128.749)"/>
            <g id="Groupe_6996" data-name="Groupe 6996" transform="translate(7.009 11.976)">
                <rect id="Rectangle_5932" width="22.814" height="10.822" class="cls-28" data-name="Rectangle 5932" rx="5.411"/>
                <path id="Tracé_22631" d="M5.248 0h3.558a5.331 5.331 0 0 1 5.248 5.411 5.331 5.331 0 0 1-5.248 5.411H5.248A5.331 5.331 0 0 1 0 5.411 5.331 5.331 0 0 1 5.248 0z" class="cls-3" data-name="Tracé 22631"/>
            </g>
        </g>
    </g>
</svg>
