<svg xmlns="http://www.w3.org/2000/svg" xmlns:xlink="http://www.w3.org/1999/xlink" width="500" zoomAndPan="magnify" viewBox="0 0 375 374.999991" height="500" preserveAspectRatio="xMidYMid meet" version="1.0"><defs><g/><clipPath id="2df62ac515"><path d="M 7.941406 178.949219 L 81.199219 178.949219 L 81.199219 252.210938 L 7.941406 252.210938 Z M 7.941406 178.949219 " clip-rule="nonzero"/></clipPath><clipPath id="390595cc40"><path d="M 23.5 199 L 72.15625 199 L 72.15625 227 L 23.5 227 Z M 23.5 199 " clip-rule="nonzero"/></clipPath><clipPath id="e0511426d8"><path d="M 37 195.339844 L 49 195.339844 L 49 235.605469 L 37 235.605469 Z M 37 195.339844 " clip-rule="nonzero"/></clipPath></defs><rect x="-37.5" width="450" fill="#ffffff" y="-37.499999" height="449.999989" fill-opacity="1"/><rect x="-37.5" width="450" fill="#ffffff" y="-37.499999" height="449.999989" fill-opacity="1"/><g clip-path="url(#2df62ac515)"><path fill="#100f0d" d="M 70.484375 235 L 70.285156 235.257812 L 73.660156 237.828125 L 73.894531 237.539062 C 73.980469 237.453125 74.039062 237.339844 74.09375 237.253906 L 70.6875 234.738281 C 70.601562 234.828125 70.542969 234.914062 70.484375 235 Z M 71.523438 233.5 L 75.046875 235.835938 C 75.191406 235.636719 75.308594 235.433594 75.453125 235.230469 L 71.871094 232.949219 C 71.785156 233.152344 71.640625 233.324219 71.523438 233.5 Z M 72.679688 231.679688 L 76.347656 233.785156 L 76.695312 233.152344 L 72.96875 231.101562 Z M 68.925781 236.90625 L 72.101562 239.707031 C 72.277344 239.535156 72.421875 239.332031 72.566406 239.15625 L 69.332031 236.414062 C 69.214844 236.589844 69.070312 236.730469 68.925781 236.90625 Z M 67.453125 238.464844 L 70.457031 241.46875 L 70.976562 240.949219 L 67.914062 238.003906 Z M 73.660156 229.800781 L 77.472656 231.679688 C 77.589844 231.449219 77.675781 231.246094 77.792969 231.015625 L 73.949219 229.222656 C 73.863281 229.398438 73.777344 229.601562 73.660156 229.800781 Z M 75.914062 223.765625 L 80.015625 224.835938 C 80.074219 224.605469 80.128906 224.375 80.1875 224.113281 L 76.058594 223.132812 C 76 223.363281 75.972656 223.566406 75.914062 223.765625 Z M 74.558594 227.839844 L 78.484375 229.457031 C 78.570312 229.222656 78.65625 228.992188 78.746094 228.761719 L 74.789062 227.230469 C 74.703125 227.433594 74.613281 227.636719 74.558594 227.839844 Z M 76.433594 221.371094 L 76.375 221.6875 L 80.535156 222.496094 L 80.59375 222.148438 C 80.621094 222.035156 80.621094 221.917969 80.648438 221.804688 L 76.464844 221.082031 C 76.464844 221.167969 76.464844 221.253906 76.433594 221.371094 Z M 76.695312 219.578125 L 80.910156 220.101562 L 80.996094 219.378906 L 76.78125 218.945312 Z M 76.894531 217.441406 L 81.140625 217.675781 C 81.167969 217.441406 81.167969 217.183594 81.167969 216.953125 L 76.925781 216.808594 C 76.925781 217.011719 76.925781 217.210938 76.894531 217.441406 Z M 75.277344 225.816406 L 79.292969 227.144531 L 79.523438 226.453125 L 75.480469 225.183594 Z M 53.042969 246.839844 L 54.140625 250.941406 C 54.371094 250.882812 54.605469 250.824219 54.835938 250.738281 L 53.652344 246.664062 C 53.476562 246.722656 53.246094 246.78125 53.042969 246.839844 Z M 48.855469 247.675781 L 49.40625 251.890625 L 50.128906 251.777344 L 49.492188 247.589844 Z M 55.09375 246.203125 L 56.480469 250.21875 L 57.171875 249.988281 L 55.699219 246 Z M 47.039062 247.851562 L 46.71875 247.878906 L 47.007812 252.125 L 47.382812 252.09375 L 47.761719 252.066406 L 47.414062 247.851562 Z M 44.582031 247.964844 L 44.582031 252.210938 L 45.304688 252.210938 L 45.21875 247.964844 Z M 50.964844 247.328125 L 51.800781 251.488281 C 52.035156 251.429688 52.292969 251.371094 52.523438 251.34375 L 51.601562 247.214844 C 51.398438 247.242188 51.167969 247.273438 50.964844 247.328125 Z M 64.480469 241.121094 L 67.078125 244.472656 C 67.28125 244.328125 67.453125 244.152344 67.65625 244.007812 L 64.96875 240.71875 C 64.796875 240.863281 64.652344 240.976562 64.480469 241.121094 Z M 66.355469 239.535156 L 66.125 239.734375 L 68.957031 242.910156 L 69.214844 242.679688 L 69.476562 242.421875 L 66.585938 239.300781 Z M 62.746094 242.390625 L 65.144531 245.886719 L 65.75 245.480469 L 63.296875 242.015625 Z M 60.925781 243.519531 L 63.0625 247.1875 C 63.265625 247.070312 63.496094 246.953125 63.699219 246.808594 L 61.476562 243.199219 C 61.304688 243.316406 61.101562 243.402344 60.925781 243.519531 Z M 59.339844 244.414062 L 59.050781 244.558594 L 60.957031 248.339844 L 61.589844 247.996094 L 59.628906 244.242188 Z M 57.085938 245.453125 L 58.734375 249.351562 C 58.964844 249.265625 59.167969 249.148438 59.398438 249.0625 L 57.664062 245.191406 C 57.492188 245.28125 57.289062 245.367188 57.085938 245.453125 Z M 30.695312 249.46875 C 30.925781 249.554688 31.15625 249.640625 31.386719 249.726562 L 32.917969 245.769531 C 32.714844 245.683594 32.511719 245.625 32.3125 245.539062 Z M 32.976562 250.332031 L 33.667969 250.5625 L 34.9375 246.519531 L 34.332031 246.320312 Z M 30.347656 244.671875 L 28.46875 248.484375 C 28.703125 248.601562 28.902344 248.6875 29.132812 248.800781 L 30.925781 244.960938 C 30.75 244.875 30.550781 244.789062 30.347656 244.671875 Z M 35.3125 251.027344 C 35.546875 251.082031 35.777344 251.140625 36.035156 251.199219 L 37.019531 247.070312 C 36.816406 247.011719 36.585938 246.984375 36.382812 246.925781 Z M 38.460938 247.386719 L 37.652344 251.546875 L 38 251.605469 C 38.113281 251.632812 38.230469 251.632812 38.347656 251.660156 L 39.066406 247.472656 C 38.953125 247.445312 38.867188 247.445312 38.75 247.417969 Z M 21.683594 238.464844 L 18.679688 241.46875 L 19.203125 241.988281 L 22.148438 238.925781 Z M 23.242188 239.9375 L 20.441406 243.113281 C 20.617188 243.289062 20.816406 243.433594 20.992188 243.574219 L 23.734375 240.34375 C 23.5625 240.226562 23.417969 240.082031 23.242188 239.9375 Z M 28.46875 243.664062 L 26.363281 247.359375 L 26.996094 247.707031 L 29.046875 243.980469 Z M 26.652344 242.535156 L 24.3125 246.058594 C 24.515625 246.203125 24.714844 246.320312 24.917969 246.464844 L 27.199219 242.882812 C 26.996094 242.796875 26.824219 242.652344 26.652344 242.535156 Z M 25.148438 241.496094 L 24.890625 241.292969 L 22.320312 244.671875 L 22.609375 244.90625 C 22.695312 244.992188 22.8125 245.046875 22.898438 245.105469 L 25.410156 241.699219 C 25.324219 241.613281 25.238281 241.554688 25.148438 241.496094 Z M 40.050781 251.921875 L 40.773438 252.007812 L 41.203125 247.792969 L 40.570312 247.707031 Z M 42.476562 252.125 C 42.707031 252.152344 42.964844 252.152344 43.199219 252.152344 L 43.34375 247.90625 C 43.140625 247.90625 42.910156 247.90625 42.707031 247.878906 Z M 17.757812 233.757812 L 14.261719 236.15625 L 14.667969 236.761719 L 18.132812 234.308594 Z M 19.027344 235.492188 L 15.679688 238.089844 C 15.824219 238.292969 15.996094 238.464844 16.140625 238.667969 L 19.433594 235.980469 C 19.289062 235.808594 19.171875 235.664062 19.027344 235.492188 Z M 20.617188 237.367188 L 20.414062 237.136719 L 17.238281 239.964844 L 17.46875 240.226562 L 17.730469 240.484375 L 20.847656 237.597656 Z M 13.308594 224.054688 L 9.210938 225.152344 C 9.269531 225.382812 9.324219 225.613281 9.414062 225.847656 L 13.484375 224.660156 C 13.425781 224.460938 13.367188 224.257812 13.308594 224.054688 Z M 16.632812 231.9375 L 12.964844 234.074219 C 13.078125 234.277344 13.195312 234.507812 13.339844 234.710938 L 16.949219 232.488281 C 16.832031 232.3125 16.746094 232.113281 16.632812 231.9375 Z M 15.734375 230.351562 L 15.589844 230.0625 L 11.808594 231.9375 L 11.980469 232.257812 L 12.15625 232.574219 L 15.910156 230.609375 Z M 14.695312 228.097656 L 10.796875 229.746094 C 10.886719 229.976562 11 230.175781 11.085938 230.410156 L 14.957031 228.675781 C 14.871094 228.503906 14.78125 228.300781 14.695312 228.097656 Z M 12.183594 215.59375 L 7.941406 215.59375 L 7.941406 216.316406 L 12.183594 216.230469 Z M 12.820312 221.976562 L 8.660156 222.8125 C 8.71875 223.046875 8.777344 223.304688 8.804688 223.535156 L 12.933594 222.613281 C 12.90625 222.382812 12.878906 222.179688 12.820312 221.976562 Z M 12.300781 218.050781 L 12.269531 217.730469 L 8.027344 218.019531 L 8.082031 218.769531 L 12.300781 218.425781 Z M 13.945312 226.105469 L 9.933594 227.492188 L 10.164062 228.183594 L 14.148438 226.710938 Z M 12.472656 219.867188 L 8.257812 220.417969 L 8.371094 221.140625 L 12.558594 220.503906 Z M 13.253906 207.394531 L 9.152344 206.324219 C 9.09375 206.558594 9.035156 206.789062 8.980469 207.046875 L 13.109375 208.03125 C 13.136719 207.796875 13.195312 207.597656 13.253906 207.394531 Z M 12.703125 209.789062 L 12.761719 209.472656 L 8.605469 208.664062 L 8.546875 209.011719 C 8.515625 209.125 8.515625 209.242188 8.488281 209.359375 L 12.675781 210.078125 C 12.675781 209.992188 12.675781 209.90625 12.703125 209.789062 Z M 15.476562 201.359375 L 11.664062 199.480469 C 11.550781 199.714844 11.460938 199.914062 11.347656 200.144531 L 15.1875 201.9375 C 15.273438 201.761719 15.359375 201.5625 15.476562 201.359375 Z M 13.859375 205.34375 L 9.84375 204.015625 L 9.613281 204.707031 L 13.65625 205.980469 Z M 14.609375 203.324219 L 10.683594 201.707031 C 10.597656 201.9375 10.507812 202.167969 10.421875 202.398438 L 14.378906 203.929688 C 14.4375 203.726562 14.523438 203.523438 14.609375 203.324219 Z M 16.488281 199.480469 L 12.820312 197.375 L 12.472656 198.007812 L 16.199219 200.058594 Z M 17.613281 197.664062 L 14.089844 195.324219 C 13.945312 195.527344 13.832031 195.726562 13.6875 195.929688 L 17.265625 198.210938 C 17.351562 198.007812 17.496094 197.835938 17.613281 197.664062 Z M 20.210938 194.253906 L 17.035156 191.453125 C 16.863281 191.628906 16.71875 191.828125 16.574219 192.003906 L 19.808594 194.746094 C 19.921875 194.574219 20.066406 194.398438 20.210938 194.253906 Z M 18.652344 196.160156 L 18.855469 195.902344 L 15.476562 193.332031 L 15.246094 193.621094 C 15.160156 193.707031 15.101562 193.820312 15.042969 193.910156 L 18.449219 196.421875 C 18.535156 196.335938 18.59375 196.246094 18.652344 196.160156 Z M 21.683594 192.695312 L 18.679688 189.691406 L 18.160156 190.210938 L 21.222656 193.15625 Z M 12.242188 213.71875 L 7.996094 213.488281 C 7.96875 213.71875 7.96875 213.976562 7.96875 214.207031 L 12.214844 214.351562 C 12.214844 214.152344 12.242188 213.949219 12.242188 213.71875 Z M 12.445312 211.582031 L 8.226562 211.0625 L 8.140625 211.785156 L 12.359375 212.214844 Z M 24.660156 190.039062 L 22.058594 186.691406 C 21.859375 186.835938 21.683594 187.007812 21.484375 187.152344 L 24.167969 190.445312 C 24.339844 190.300781 24.484375 190.15625 24.660156 190.039062 Z M 29.800781 186.746094 L 30.085938 186.601562 L 28.183594 182.820312 L 27.863281 182.992188 L 27.546875 183.167969 L 29.511719 186.921875 Z M 26.390625 188.769531 L 24.023438 185.273438 L 23.417969 185.679688 L 25.871094 189.144531 Z M 36.09375 184.320312 L 34.996094 180.222656 C 34.765625 180.277344 34.535156 180.335938 34.304688 180.421875 L 35.488281 184.496094 C 35.691406 184.4375 35.890625 184.378906 36.09375 184.320312 Z M 32.050781 185.707031 L 30.40625 181.808594 C 30.175781 181.894531 29.972656 182.011719 29.742188 182.097656 L 31.472656 185.96875 C 31.648438 185.882812 31.847656 185.792969 32.050781 185.707031 Z M 22.78125 191.628906 L 23.011719 191.425781 L 20.183594 188.25 L 19.921875 188.480469 L 19.664062 188.738281 L 22.550781 191.859375 Z M 34.042969 184.957031 L 32.65625 180.945312 L 31.964844 181.175781 L 33.4375 185.160156 Z M 28.210938 187.644531 L 26.074219 183.976562 C 25.871094 184.089844 25.640625 184.207031 25.4375 184.351562 L 27.660156 187.960938 C 27.835938 187.84375 28.039062 187.730469 28.210938 187.644531 Z M 44.554688 178.949219 L 43.832031 178.949219 L 43.917969 183.195312 L 44.554688 183.195312 Z M 39.730469 179.269531 L 39.011719 179.382812 L 39.644531 183.570312 L 40.28125 183.484375 Z M 37.335938 179.671875 C 37.105469 179.730469 36.84375 179.789062 36.613281 179.816406 L 37.539062 183.945312 C 37.738281 183.890625 37.972656 183.859375 38.171875 183.800781 Z M 41.78125 179.066406 L 41.40625 179.09375 L 41.753906 183.3125 L 42.070312 183.28125 L 42.390625 183.253906 L 42.101562 179.007812 Z M 63.988281 189.664062 L 64.25 189.867188 L 66.816406 186.488281 L 66.53125 186.257812 C 66.441406 186.171875 66.328125 186.113281 66.242188 186.054688 L 63.726562 189.460938 C 63.816406 189.546875 63.902344 189.605469 63.988281 189.664062 Z M 62.488281 188.625 L 64.824219 185.101562 C 64.625 184.957031 64.421875 184.839844 64.21875 184.699219 L 61.9375 188.277344 C 62.140625 188.363281 62.3125 188.507812 62.488281 188.625 Z M 65.894531 191.222656 L 68.695312 188.046875 C 68.523438 187.875 68.320312 187.730469 68.148438 187.585938 L 65.402344 190.820312 C 65.578125 190.933594 65.75 191.078125 65.894531 191.222656 Z M 53.132812 179.960938 L 52.148438 184.089844 C 52.351562 184.148438 52.582031 184.175781 52.785156 184.234375 L 53.851562 180.136719 C 53.59375 180.078125 53.363281 180.019531 53.132812 179.960938 Z M 60.667969 187.46875 L 62.777344 183.800781 L 62.140625 183.457031 L 60.089844 187.179688 Z M 67.453125 192.695312 L 70.457031 189.691406 L 69.9375 189.171875 L 66.992188 192.234375 Z M 51.109375 179.558594 C 50.992188 179.527344 50.878906 179.527344 50.761719 179.5 L 50.042969 183.6875 C 50.15625 183.714844 50.242188 183.714844 50.359375 183.746094 L 50.675781 183.800781 L 51.484375 179.644531 Z M 48.367188 179.152344 L 47.933594 183.367188 L 48.570312 183.457031 L 49.089844 179.238281 Z M 45.765625 183.222656 C 45.96875 183.222656 46.199219 183.222656 46.402344 183.253906 L 46.632812 179.007812 C 46.402344 178.980469 46.144531 178.980469 45.910156 178.980469 Z M 58.789062 186.488281 L 60.667969 182.675781 C 60.4375 182.558594 60.234375 182.472656 60.003906 182.359375 L 58.214844 186.199219 C 58.386719 186.285156 58.589844 186.371094 58.789062 186.488281 Z M 56.164062 180.828125 L 55.46875 180.597656 L 54.199219 184.640625 L 54.804688 184.839844 Z M 58.445312 181.664062 C 58.214844 181.578125 57.980469 181.492188 57.75 181.40625 L 56.21875 185.363281 C 56.421875 185.449219 56.625 185.503906 56.828125 185.59375 Z M 76.320312 209.183594 L 80.476562 208.347656 C 80.417969 208.117188 80.359375 207.855469 80.332031 207.625 L 76.203125 208.550781 C 76.230469 208.75 76.289062 208.980469 76.320312 209.183594 Z M 75.828125 207.105469 L 79.929688 206.007812 C 79.871094 205.777344 79.8125 205.546875 79.726562 205.316406 L 75.65625 206.5 C 75.710938 206.671875 75.769531 206.902344 75.828125 207.105469 Z M 75.191406 205.054688 L 79.207031 203.667969 L 78.976562 202.976562 L 74.992188 204.449219 Z M 76.664062 211.292969 L 80.882812 210.742188 L 80.765625 210.023438 L 76.578125 210.65625 Z M 76.953125 215.566406 L 81.199219 215.566406 L 81.199219 214.84375 L 76.953125 214.929688 Z M 76.867188 213.113281 L 76.894531 213.429688 L 81.140625 213.140625 L 81.113281 212.765625 L 81.082031 212.390625 L 76.867188 212.734375 Z M 74.441406 203.0625 L 78.339844 201.417969 C 78.253906 201.1875 78.136719 200.984375 78.050781 200.753906 L 74.183594 202.484375 C 74.269531 202.660156 74.355469 202.859375 74.441406 203.0625 Z M 68.523438 193.792969 L 68.722656 194.023438 L 71.902344 191.195312 L 71.667969 190.933594 L 71.410156 190.675781 L 68.289062 193.5625 Z M 73.402344 200.808594 L 73.546875 201.097656 L 77.328125 199.191406 L 76.984375 198.558594 L 73.230469 200.523438 Z M 70.109375 195.671875 L 73.460938 193.070312 C 73.316406 192.871094 73.140625 192.695312 72.996094 192.492188 L 69.707031 195.179688 C 69.851562 195.351562 69.996094 195.496094 70.109375 195.671875 Z M 71.378906 197.402344 L 74.875 195.007812 L 74.46875 194.398438 L 71.003906 196.855469 Z M 72.507812 199.222656 L 76.175781 197.085938 C 76.058594 196.882812 75.941406 196.652344 75.796875 196.449219 L 72.1875 198.671875 C 72.304688 198.847656 72.421875 199.046875 72.507812 199.222656 Z M 72.507812 199.222656 " fill-opacity="1" fill-rule="nonzero"/></g><g clip-path="url(#390595cc40)"><path fill="#100f0d" d="M 23.511719 225.867188 L 23.503906 223.050781 C 23.5 222.09375 24.273438 221.3125 25.230469 221.3125 C 25.199219 210.792969 24.960938 210.835938 25.828125 210.832031 C 28.066406 202.371094 33.667969 199.292969 33.667969 199.292969 L 32.117188 210.8125 C 32.882812 210.808594 32.671875 211.664062 32.679688 214.0625 L 47.53125 214.019531 C 48.234375 212.945312 49.425781 212.300781 50.707031 212.296875 L 69.105469 211.378906 C 70.753906 211.300781 72.136719 212.613281 72.144531 214.265625 L 72.152344 217.355469 C 72.160156 219.007812 70.78125 220.328125 69.132812 220.257812 L 50.734375 219.457031 C 49.449219 219.457031 48.253906 218.820312 47.542969 217.753906 L 32.691406 217.800781 L 32.703125 221.289062 C 33.660156 221.285156 34.4375 222.058594 34.441406 223.015625 L 34.449219 225.828125 C 34.453125 226.375 34.011719 226.816406 33.46875 226.820312 L 24.5 226.847656 C 23.957031 226.847656 23.511719 226.410156 23.511719 225.867188 " fill-opacity="1" fill-rule="nonzero"/></g><g clip-path="url(#e0511426d8)"><path fill="#100f0d" d="M 44.945312 225.539062 L 44.945312 205.402344 C 49.199219 203.441406 49.25 197.410156 45.046875 195.367188 L 45.046875 200.476562 C 45.046875 200.476562 42.816406 201.992188 42.625 202.179688 C 42.433594 201.992188 40.207031 200.476562 40.207031 200.476562 L 40.207031 195.367188 C 35.992188 197.414062 36.0625 203.441406 40.304688 205.402344 L 40.304688 225.539062 C 36.050781 227.503906 36 233.53125 40.207031 235.574219 L 40.207031 230.464844 C 40.207031 230.464844 42.433594 228.953125 42.625 228.761719 C 42.816406 228.953125 45.046875 230.464844 45.046875 230.464844 L 45.046875 235.574219 C 49.257812 233.527344 49.191406 227.5 44.945312 225.539062 " fill-opacity="1" fill-rule="nonzero"/></g><g fill="#000000" fill-opacity="1"><g transform="translate(96.190443, 240.498741)"><g><path d="M 5.03125 0.34375 C 4.84375 -0.320312 4.410156 -1.789062 3.734375 -4.0625 C 3.054688 -6.34375 2.375 -8.570312 1.6875 -10.75 C 1.5625 -11.132812 1.351562 -11.414062 1.0625 -11.59375 C 0.769531 -11.78125 0.375 -11.878906 -0.125 -11.890625 L -0.140625 -11.96875 L -0.015625 -12.828125 C 0.148438 -12.828125 0.460938 -12.816406 0.921875 -12.796875 C 1.378906 -12.773438 1.820312 -12.765625 2.25 -12.765625 C 2.832031 -12.765625 3.414062 -12.796875 4 -12.859375 C 4.59375 -12.921875 4.976562 -12.960938 5.15625 -12.984375 L 5.21875 -12.84375 L 5.125 -12.0625 C 4.445312 -12.007812 3.988281 -11.929688 3.75 -11.828125 C 3.519531 -11.722656 3.40625 -11.53125 3.40625 -11.25 C 3.40625 -11.019531 3.585938 -10.210938 3.953125 -8.828125 C 4.328125 -7.441406 4.707031 -6.054688 5.09375 -4.671875 C 5.488281 -3.285156 5.75 -2.375 5.875 -1.9375 L 6 -1.9375 L 8.828125 -9.640625 L 8.453125 -10.75 C 8.328125 -11.132812 8.125 -11.410156 7.84375 -11.578125 C 7.5625 -11.753906 7.164062 -11.859375 6.65625 -11.890625 L 6.609375 -11.96875 L 6.75 -12.828125 C 6.925781 -12.828125 7.238281 -12.816406 7.6875 -12.796875 C 8.144531 -12.773438 8.585938 -12.765625 9.015625 -12.765625 C 9.523438 -12.765625 10.085938 -12.796875 10.703125 -12.859375 C 11.328125 -12.921875 11.734375 -12.960938 11.921875 -12.984375 L 11.984375 -12.84375 L 11.90625 -12.0625 C 11.207031 -12.007812 10.738281 -11.929688 10.5 -11.828125 C 10.269531 -11.722656 10.15625 -11.519531 10.15625 -11.21875 C 10.15625 -10.945312 10.503906 -9.5625 11.203125 -7.0625 C 11.898438 -4.5625 12.382812 -2.851562 12.65625 -1.9375 L 12.765625 -1.9375 C 12.796875 -2.019531 12.828125 -2.101562 12.859375 -2.1875 C 12.890625 -2.28125 12.925781 -2.382812 12.96875 -2.5 C 15 -7.957031 16.015625 -10.878906 16.015625 -11.265625 C 16.015625 -11.515625 15.90625 -11.691406 15.6875 -11.796875 C 15.476562 -11.910156 15.132812 -11.96875 14.65625 -11.96875 L 13.65625 -11.96875 L 13.609375 -12.046875 L 13.75 -12.90625 C 13.925781 -12.894531 14.300781 -12.867188 14.875 -12.828125 C 15.445312 -12.785156 16 -12.765625 16.53125 -12.765625 C 17.019531 -12.765625 17.460938 -12.769531 17.859375 -12.78125 C 18.265625 -12.800781 18.53125 -12.816406 18.65625 -12.828125 L 18.515625 -11.890625 C 18.117188 -11.859375 17.835938 -11.785156 17.671875 -11.671875 C 17.515625 -11.554688 17.367188 -11.304688 17.234375 -10.921875 L 13.03125 -0.09375 L 11.78125 0.34375 C 11.65625 -0.125 11.347656 -1.195312 10.859375 -2.875 C 10.367188 -4.5625 9.84375 -6.320312 9.28125 -8.15625 L 9.15625 -8.15625 L 6.3125 -0.09375 Z M 5.03125 0.34375 "/></g></g></g><g fill="#000000" fill-opacity="1"><g transform="translate(114.855176, 240.498741)"><g><path d="M 1.28125 -0.6875 C 1.894531 -0.800781 2.304688 -0.972656 2.515625 -1.203125 C 2.734375 -1.441406 2.84375 -1.84375 2.84375 -2.40625 L 2.859375 -10.828125 C 2.859375 -11.253906 2.804688 -11.539062 2.703125 -11.6875 C 2.609375 -11.832031 2.414062 -11.90625 2.125 -11.90625 L 1.4375 -11.875 L 1.40625 -11.953125 L 1.546875 -12.828125 C 1.710938 -12.828125 1.84375 -12.820312 1.9375 -12.8125 C 2.738281 -12.78125 3.347656 -12.765625 3.765625 -12.765625 C 4.328125 -12.765625 5.039062 -12.828125 5.90625 -12.953125 L 5.828125 -12.046875 C 5.429688 -11.984375 5.148438 -11.90625 4.984375 -11.8125 C 4.816406 -11.71875 4.703125 -11.554688 4.640625 -11.328125 C 4.578125 -11.109375 4.535156 -10.75 4.515625 -10.25 L 4.390625 -7 L 7.765625 -6.96875 C 8.597656 -6.96875 9.582031 -7.035156 10.71875 -7.171875 L 10.75 -10.828125 C 10.75 -11.253906 10.695312 -11.539062 10.59375 -11.6875 C 10.488281 -11.832031 10.289062 -11.90625 10 -11.90625 C 9.8125 -11.90625 9.585938 -11.894531 9.328125 -11.875 L 9.28125 -11.953125 L 9.421875 -12.828125 C 9.566406 -12.816406 9.832031 -12.800781 10.21875 -12.78125 C 10.613281 -12.769531 11.003906 -12.765625 11.390625 -12.765625 C 12.023438 -12.765625 12.828125 -12.828125 13.796875 -12.953125 L 13.71875 -12.046875 C 13.21875 -11.984375 12.878906 -11.875 12.703125 -11.71875 C 12.535156 -11.5625 12.441406 -11.289062 12.421875 -10.90625 C 12.347656 -9.394531 12.285156 -7.773438 12.234375 -6.046875 C 12.179688 -4.316406 12.15625 -3.007812 12.15625 -2.125 C 12.15625 -1.632812 12.210938 -1.300781 12.328125 -1.125 C 12.453125 -0.957031 12.6875 -0.875 13.03125 -0.875 C 13.1875 -0.875 13.488281 -0.894531 13.9375 -0.9375 L 13.96875 -0.859375 L 13.796875 0.0625 C 13.609375 0.0625 13.457031 0.0546875 13.34375 0.046875 C 12.46875 0.015625 11.796875 0 11.328125 0 L 9.015625 0.046875 L 9.203125 -0.859375 C 9.640625 -0.867188 9.960938 -0.925781 10.171875 -1.03125 C 10.378906 -1.144531 10.519531 -1.347656 10.59375 -1.640625 C 10.675781 -1.929688 10.71875 -2.382812 10.71875 -3 L 10.71875 -6.03125 L 7.671875 -6.046875 C 7.335938 -6.035156 6.867188 -6.015625 6.265625 -5.984375 C 5.671875 -5.953125 5.03125 -5.898438 4.34375 -5.828125 L 4.265625 -2.25 C 4.265625 -1.695312 4.320312 -1.328125 4.4375 -1.140625 C 4.5625 -0.960938 4.800781 -0.875 5.15625 -0.875 C 5.3125 -0.875 5.609375 -0.894531 6.046875 -0.9375 L 6.09375 -0.859375 L 5.90625 0.0625 C 5.789062 0.0507812 5.566406 0.0351562 5.234375 0.015625 C 4.898438 0.00390625 4.554688 0 4.203125 0 C 3.585938 0 2.929688 0.0234375 2.234375 0.078125 C 1.535156 0.128906 1.175781 0.179688 1.15625 0.234375 Z M 1.28125 -0.6875 "/></g></g></g><g fill="#000000" fill-opacity="1"><g transform="translate(129.955186, 240.498741)"><g><path d="M 3 -0.6875 C 3.488281 -0.78125 3.835938 -0.898438 4.046875 -1.046875 C 4.265625 -1.191406 4.40625 -1.390625 4.46875 -1.640625 C 4.539062 -1.898438 4.578125 -2.300781 4.578125 -2.84375 L 4.578125 -3.734375 C 4.578125 -4.140625 4.535156 -4.5 4.453125 -4.8125 C 4.367188 -5.132812 4.210938 -5.53125 3.984375 -6 L 2.1875 -9.65625 C 1.832031 -10.363281 1.582031 -10.84375 1.4375 -11.09375 C 1.289062 -11.34375 1.082031 -11.539062 0.8125 -11.6875 C 0.550781 -11.832031 0.164062 -11.925781 -0.34375 -11.96875 L -0.375 -12.046875 L -0.265625 -12.828125 C -0.117188 -12.816406 0.160156 -12.800781 0.578125 -12.78125 C 0.992188 -12.769531 1.445312 -12.765625 1.9375 -12.765625 C 2.40625 -12.765625 2.953125 -12.785156 3.578125 -12.828125 C 4.203125 -12.878906 4.609375 -12.914062 4.796875 -12.9375 L 4.84375 -12.796875 L 4.796875 -12.09375 C 4.191406 -12.039062 3.785156 -11.960938 3.578125 -11.859375 C 3.367188 -11.753906 3.265625 -11.585938 3.265625 -11.359375 C 3.265625 -11.191406 3.429688 -10.71875 3.765625 -9.9375 C 4.097656 -9.164062 4.441406 -8.40625 4.796875 -7.65625 C 5.148438 -6.90625 5.390625 -6.414062 5.515625 -6.1875 L 5.609375 -6.1875 L 7.90625 -10.4375 C 8.113281 -10.832031 8.21875 -11.171875 8.21875 -11.453125 C 8.21875 -11.796875 7.796875 -11.992188 6.953125 -12.046875 L 6.921875 -12.125 L 7.03125 -12.90625 C 7.195312 -12.894531 7.53125 -12.867188 8.03125 -12.828125 C 8.539062 -12.785156 8.953125 -12.765625 9.265625 -12.765625 C 9.585938 -12.765625 9.941406 -12.773438 10.328125 -12.796875 C 10.722656 -12.816406 10.984375 -12.832031 11.109375 -12.84375 L 11.1875 -12.703125 L 11.0625 -11.96875 C 10.632812 -11.882812 10.300781 -11.769531 10.0625 -11.625 C 9.820312 -11.488281 9.609375 -11.289062 9.421875 -11.03125 C 9.242188 -10.769531 8.984375 -10.332031 8.640625 -9.71875 C 8.554688 -9.5625 8.488281 -9.441406 8.4375 -9.359375 L 6.4375 -5.828125 C 6.257812 -5.523438 6.144531 -5.175781 6.09375 -4.78125 C 6.050781 -4.394531 6.019531 -3.695312 6 -2.6875 L 6 -2.25 C 5.976562 -1.726562 6.03125 -1.367188 6.15625 -1.171875 C 6.289062 -0.972656 6.53125 -0.875 6.875 -0.875 C 7.09375 -0.875 7.296875 -0.878906 7.484375 -0.890625 C 7.671875 -0.910156 7.796875 -0.925781 7.859375 -0.9375 L 7.90625 -0.859375 L 7.71875 0.0625 C 7.53125 0.0507812 7.1875 0.0351562 6.6875 0.015625 C 6.1875 0.00390625 5.679688 0 5.171875 0 C 4.753906 0 4.304688 0.03125 3.828125 0.09375 C 3.347656 0.164062 3.035156 0.210938 2.890625 0.234375 Z M 3 -0.6875 "/></g></g></g><g fill="#000000" fill-opacity="1"><g transform="translate(140.729472, 240.498741)"><g/></g></g><g fill="#000000" fill-opacity="1"><g transform="translate(144.694721, 240.498741)"><g><path d="M 4.390625 0.234375 C 3.828125 0.234375 3.3125 0.179688 2.84375 0.078125 C 2.375 -0.015625 1.988281 -0.117188 1.6875 -0.234375 C 1.394531 -0.359375 1.25 -0.425781 1.25 -0.4375 L 1.140625 -0.640625 C 1.148438 -0.722656 1.175781 -0.921875 1.21875 -1.234375 C 1.257812 -1.554688 1.296875 -1.972656 1.328125 -2.484375 C 1.367188 -3.003906 1.390625 -3.550781 1.390625 -4.125 L 2.28125 -4.234375 C 2.28125 -3.222656 2.347656 -2.476562 2.484375 -2 C 2.617188 -1.519531 2.863281 -1.1875 3.21875 -1 C 3.582031 -0.820312 4.140625 -0.734375 4.890625 -0.734375 C 5.734375 -0.734375 6.40625 -0.929688 6.90625 -1.328125 C 7.414062 -1.722656 7.671875 -2.265625 7.671875 -2.953125 C 7.671875 -3.347656 7.535156 -3.707031 7.265625 -4.03125 C 6.992188 -4.351562 6.671875 -4.625 6.296875 -4.84375 C 5.921875 -5.070312 5.363281 -5.382812 4.625 -5.78125 C 3.9375 -6.132812 3.367188 -6.460938 2.921875 -6.765625 C 2.484375 -7.066406 2.113281 -7.421875 1.8125 -7.828125 C 1.507812 -8.242188 1.359375 -8.726562 1.359375 -9.28125 C 1.359375 -9.976562 1.5625 -10.609375 1.96875 -11.171875 C 2.382812 -11.742188 2.941406 -12.191406 3.640625 -12.515625 C 4.335938 -12.847656 5.113281 -13.015625 5.96875 -13.015625 C 6.507812 -13.015625 7.003906 -12.976562 7.453125 -12.90625 C 7.910156 -12.832031 8.269531 -12.753906 8.53125 -12.671875 C 8.800781 -12.585938 8.972656 -12.535156 9.046875 -12.515625 L 9.09375 -12.390625 C 9.082031 -12.304688 9.050781 -12.117188 9 -11.828125 C 8.945312 -11.535156 8.882812 -11.128906 8.8125 -10.609375 C 8.75 -10.085938 8.695312 -9.550781 8.65625 -9 L 7.875 -8.921875 L 7.765625 -9.015625 C 7.773438 -9.066406 7.785156 -9.191406 7.796875 -9.390625 C 7.804688 -9.585938 7.8125 -9.8125 7.8125 -10.0625 C 7.8125 -10.769531 7.640625 -11.253906 7.296875 -11.515625 C 6.953125 -11.785156 6.332031 -11.921875 5.4375 -11.921875 C 4.695312 -11.921875 4.085938 -11.738281 3.609375 -11.375 C 3.140625 -11.007812 2.90625 -10.550781 2.90625 -10 C 2.90625 -9.46875 3.132812 -9.003906 3.59375 -8.609375 C 4.0625 -8.210938 4.742188 -7.78125 5.640625 -7.3125 C 6.503906 -6.875 7.160156 -6.507812 7.609375 -6.21875 C 8.066406 -5.9375 8.46875 -5.582031 8.8125 -5.15625 C 9.164062 -4.726562 9.34375 -4.234375 9.34375 -3.671875 C 9.34375 -2.921875 9.128906 -2.25 8.703125 -1.65625 C 8.285156 -1.0625 7.703125 -0.597656 6.953125 -0.265625 C 6.203125 0.0664062 5.347656 0.234375 4.390625 0.234375 Z M 4.390625 0.234375 "/></g></g></g><g fill="#000000" fill-opacity="1"><g transform="translate(155.308787, 240.498741)"><g><path d="M 10.671875 -3.34375 C 10.441406 -2.257812 10.257812 -1.140625 10.125 0.015625 L 10.03125 0.140625 C 7.21875 0.046875 5.191406 0 3.953125 0 C 2.960938 0 2.03125 0.0664062 1.15625 0.203125 L 1.28125 -0.71875 C 1.882812 -0.800781 2.296875 -0.957031 2.515625 -1.1875 C 2.734375 -1.425781 2.84375 -1.832031 2.84375 -2.40625 L 2.859375 -10.828125 C 2.859375 -11.253906 2.804688 -11.539062 2.703125 -11.6875 C 2.609375 -11.832031 2.414062 -11.90625 2.125 -11.90625 L 1.4375 -11.875 L 1.40625 -11.953125 L 1.546875 -12.828125 C 2.910156 -12.785156 3.835938 -12.765625 4.328125 -12.765625 C 5.921875 -12.765625 7.15625 -12.78125 8.03125 -12.8125 C 8.914062 -12.851562 9.6875 -12.921875 10.34375 -13.015625 L 10.40625 -12.890625 C 10.164062 -11.835938 10.007812 -10.726562 9.9375 -9.5625 L 8.984375 -9.484375 L 9.015625 -10.34375 C 9.015625 -10.8125 8.953125 -11.132812 8.828125 -11.3125 C 8.710938 -11.5 8.453125 -11.617188 8.046875 -11.671875 C 7.648438 -11.734375 6.953125 -11.765625 5.953125 -11.765625 C 5.484375 -11.765625 5.160156 -11.75 4.984375 -11.71875 C 4.816406 -11.695312 4.707031 -11.632812 4.65625 -11.53125 C 4.601562 -11.4375 4.566406 -11.253906 4.546875 -10.984375 L 4.390625 -7.09375 L 6.453125 -7.078125 C 6.972656 -7.078125 7.789062 -7.148438 8.90625 -7.296875 L 8.984375 -7.203125 L 8.703125 -6.015625 C 7.210938 -6.054688 6.273438 -6.078125 5.890625 -6.078125 C 5.453125 -6.078125 4.9375 -6.03125 4.34375 -5.9375 L 4.265625 -2.109375 C 4.265625 -1.722656 4.296875 -1.453125 4.359375 -1.296875 C 4.429688 -1.140625 4.570312 -1.035156 4.78125 -0.984375 C 4.988281 -0.929688 5.347656 -0.90625 5.859375 -0.90625 C 6.972656 -0.90625 7.769531 -0.957031 8.25 -1.0625 C 8.726562 -1.164062 9.066406 -1.378906 9.265625 -1.703125 C 9.460938 -2.023438 9.613281 -2.570312 9.71875 -3.34375 L 10.609375 -3.453125 Z M 10.671875 -3.34375 "/></g></g></g><g fill="#000000" fill-opacity="1"><g transform="translate(167.144474, 240.498741)"><g><path d="M 6.59375 0.0625 L 6.671875 -0.71875 C 7.359375 -0.769531 7.828125 -0.847656 8.078125 -0.953125 C 8.328125 -1.066406 8.453125 -1.242188 8.453125 -1.484375 C 8.453125 -1.753906 8.394531 -2.078125 8.28125 -2.453125 L 7.625 -4.625 C 7.300781 -4.644531 6.601562 -4.65625 5.53125 -4.65625 C 4.894531 -4.65625 4.164062 -4.597656 3.34375 -4.484375 L 2.609375 -2.40625 C 2.484375 -2.039062 2.421875 -1.78125 2.421875 -1.625 C 2.421875 -1.332031 2.515625 -1.117188 2.703125 -0.984375 C 2.890625 -0.859375 3.195312 -0.796875 3.625 -0.796875 L 4.765625 -0.796875 L 4.8125 -0.71875 L 4.6875 0.140625 C 4.53125 0.128906 4.160156 0.101562 3.578125 0.0625 C 3.003906 0.0195312 2.445312 0 1.90625 0 C 1.40625 0 0.945312 0.00390625 0.53125 0.015625 C 0.113281 0.0351562 -0.160156 0.0507812 -0.296875 0.0625 L -0.140625 -0.875 C 0.234375 -0.914062 0.535156 -1.046875 0.765625 -1.265625 C 0.992188 -1.492188 1.210938 -1.878906 1.421875 -2.421875 L 5.328125 -12.671875 L 6.59375 -13.015625 L 6.75 -13.015625 C 6.832031 -12.691406 7.035156 -11.945312 7.359375 -10.78125 C 7.691406 -9.625 8.09375 -8.25 8.5625 -6.65625 C 9.039062 -5.0625 9.5 -3.597656 9.9375 -2.265625 C 10.101562 -1.773438 10.316406 -1.425781 10.578125 -1.21875 C 10.847656 -1.019531 11.28125 -0.894531 11.875 -0.84375 L 11.90625 -0.765625 L 11.765625 0.0625 C 11.609375 0.0625 11.316406 0.0507812 10.890625 0.03125 C 10.472656 0.0078125 10.054688 0 9.640625 0 C 9.003906 0 8.382812 0.0234375 7.78125 0.078125 C 7.1875 0.128906 6.8125 0.171875 6.65625 0.203125 Z M 5.46875 -5.46875 C 5.945312 -5.46875 6.570312 -5.503906 7.34375 -5.578125 L 5.75 -10.828125 L 5.609375 -10.828125 L 3.703125 -5.46875 Z M 5.46875 -5.46875 "/></g></g></g><g fill="#000000" fill-opacity="1"><g transform="translate(178.839983, 240.498741)"><g><path d="M 10.265625 0.328125 C 9.929688 0.328125 9.570312 0.15625 9.1875 -0.1875 C 8.8125 -0.53125 8.460938 -0.992188 8.140625 -1.578125 L 6 -5.46875 L 4.328125 -5.46875 L 4.265625 -2.484375 C 4.265625 -1.972656 4.296875 -1.609375 4.359375 -1.390625 C 4.429688 -1.171875 4.5625 -1.023438 4.75 -0.953125 C 4.9375 -0.878906 5.257812 -0.84375 5.71875 -0.84375 L 5.75 -0.765625 L 5.578125 0.078125 C 5.410156 0.0664062 5.085938 0.0507812 4.609375 0.03125 C 4.128906 0.0195312 3.628906 0.015625 3.109375 0.015625 C 2.640625 0.015625 2.222656 0.0195312 1.859375 0.03125 C 1.503906 0.0507812 1.265625 0.0664062 1.140625 0.078125 L 1.328125 -0.828125 C 1.753906 -0.878906 2.070312 -0.953125 2.28125 -1.046875 C 2.5 -1.140625 2.644531 -1.285156 2.71875 -1.484375 C 2.800781 -1.691406 2.84375 -2 2.84375 -2.40625 L 2.859375 -10.828125 C 2.859375 -11.253906 2.804688 -11.539062 2.703125 -11.6875 C 2.609375 -11.832031 2.414062 -11.90625 2.125 -11.90625 C 1.988281 -11.90625 1.851562 -11.898438 1.71875 -11.890625 C 1.59375 -11.878906 1.5 -11.875 1.4375 -11.875 L 1.40625 -11.953125 L 1.546875 -12.828125 C 1.703125 -12.816406 2 -12.800781 2.4375 -12.78125 C 2.882812 -12.769531 3.328125 -12.765625 3.765625 -12.765625 C 4.222656 -12.765625 4.703125 -12.773438 5.203125 -12.796875 C 5.703125 -12.816406 6.046875 -12.832031 6.234375 -12.84375 C 7.472656 -12.84375 8.453125 -12.5625 9.171875 -12 C 9.898438 -11.445312 10.265625 -10.679688 10.265625 -9.703125 C 10.265625 -8.898438 10.003906 -8.164062 9.484375 -7.5 C 8.972656 -6.832031 8.25 -6.285156 7.3125 -5.859375 L 9.515625 -2.359375 C 9.910156 -1.722656 10.289062 -1.28125 10.65625 -1.03125 C 11.019531 -0.78125 11.472656 -0.65625 12.015625 -0.65625 L 12.09375 -0.578125 L 11.96875 0.09375 Z M 6.4375 -6.390625 C 6.4375 -6.347656 6.632812 -6.429688 7.03125 -6.640625 C 7.4375 -6.859375 7.796875 -7.1875 8.109375 -7.625 C 8.429688 -8.070312 8.59375 -8.644531 8.59375 -9.34375 C 8.59375 -11.101562 7.375 -11.984375 4.9375 -11.984375 C 4.800781 -11.984375 4.707031 -11.953125 4.65625 -11.890625 C 4.613281 -11.835938 4.585938 -11.71875 4.578125 -11.53125 C 4.453125 -9.476562 4.382812 -7.832031 4.375 -6.59375 Z M 6.4375 -6.390625 "/></g></g></g><g fill="#000000" fill-opacity="1"><g transform="translate(191.076197, 240.498741)"><g><path d="M 6.796875 0.234375 C 5.585938 0.234375 4.53125 -0.015625 3.625 -0.515625 C 2.71875 -1.023438 2.019531 -1.742188 1.53125 -2.671875 C 1.039062 -3.597656 0.796875 -4.691406 0.796875 -5.953125 C 0.796875 -7.285156 1.097656 -8.488281 1.703125 -9.5625 C 2.304688 -10.644531 3.140625 -11.488281 4.203125 -12.09375 C 5.265625 -12.707031 6.460938 -13.015625 7.796875 -13.015625 C 8.296875 -13.015625 8.800781 -12.976562 9.3125 -12.90625 C 9.820312 -12.832031 10.253906 -12.753906 10.609375 -12.671875 C 10.960938 -12.597656 11.1875 -12.550781 11.28125 -12.53125 L 11.359375 -12.40625 C 11.335938 -12.320312 11.296875 -12.125 11.234375 -11.8125 C 11.171875 -11.507812 11.101562 -11.113281 11.03125 -10.625 C 10.957031 -10.132812 10.898438 -9.613281 10.859375 -9.0625 L 9.90625 -8.984375 C 9.914062 -9.046875 9.925781 -9.164062 9.9375 -9.34375 C 9.957031 -9.53125 9.96875 -9.738281 9.96875 -9.96875 C 9.96875 -11.207031 8.984375 -11.828125 7.015625 -11.828125 C 6.128906 -11.828125 5.351562 -11.613281 4.6875 -11.1875 C 4.019531 -10.757812 3.503906 -10.15625 3.140625 -9.375 C 2.785156 -8.59375 2.609375 -7.671875 2.609375 -6.609375 C 2.609375 -5.453125 2.796875 -4.429688 3.171875 -3.546875 C 3.554688 -2.660156 4.09375 -1.972656 4.78125 -1.484375 C 5.476562 -1.003906 6.285156 -0.765625 7.203125 -0.765625 C 8.109375 -0.765625 8.835938 -1.019531 9.390625 -1.53125 C 9.941406 -2.050781 10.347656 -2.847656 10.609375 -3.921875 L 11.5625 -4.015625 C 11.519531 -3.804688 11.429688 -3.359375 11.296875 -2.671875 C 11.171875 -1.984375 11.082031 -1.335938 11.03125 -0.734375 L 10.90625 -0.5625 C 10.90625 -0.550781 10.703125 -0.472656 10.296875 -0.328125 C 9.890625 -0.191406 9.378906 -0.0664062 8.765625 0.046875 C 8.160156 0.171875 7.503906 0.234375 6.796875 0.234375 Z M 6.796875 0.234375 "/></g></g></g><g fill="#000000" fill-opacity="1"><g transform="translate(203.61281, 240.498741)"><g><path d="M 1.28125 -0.6875 C 1.894531 -0.800781 2.304688 -0.972656 2.515625 -1.203125 C 2.734375 -1.441406 2.84375 -1.84375 2.84375 -2.40625 L 2.859375 -10.828125 C 2.859375 -11.253906 2.804688 -11.539062 2.703125 -11.6875 C 2.609375 -11.832031 2.414062 -11.90625 2.125 -11.90625 L 1.4375 -11.875 L 1.40625 -11.953125 L 1.546875 -12.828125 C 1.710938 -12.828125 1.84375 -12.820312 1.9375 -12.8125 C 2.738281 -12.78125 3.347656 -12.765625 3.765625 -12.765625 C 4.328125 -12.765625 5.039062 -12.828125 5.90625 -12.953125 L 5.828125 -12.046875 C 5.429688 -11.984375 5.148438 -11.90625 4.984375 -11.8125 C 4.816406 -11.71875 4.703125 -11.554688 4.640625 -11.328125 C 4.578125 -11.109375 4.535156 -10.75 4.515625 -10.25 L 4.390625 -7 L 7.765625 -6.96875 C 8.597656 -6.96875 9.582031 -7.035156 10.71875 -7.171875 L 10.75 -10.828125 C 10.75 -11.253906 10.695312 -11.539062 10.59375 -11.6875 C 10.488281 -11.832031 10.289062 -11.90625 10 -11.90625 C 9.8125 -11.90625 9.585938 -11.894531 9.328125 -11.875 L 9.28125 -11.953125 L 9.421875 -12.828125 C 9.566406 -12.816406 9.832031 -12.800781 10.21875 -12.78125 C 10.613281 -12.769531 11.003906 -12.765625 11.390625 -12.765625 C 12.023438 -12.765625 12.828125 -12.828125 13.796875 -12.953125 L 13.71875 -12.046875 C 13.21875 -11.984375 12.878906 -11.875 12.703125 -11.71875 C 12.535156 -11.5625 12.441406 -11.289062 12.421875 -10.90625 C 12.347656 -9.394531 12.285156 -7.773438 12.234375 -6.046875 C 12.179688 -4.316406 12.15625 -3.007812 12.15625 -2.125 C 12.15625 -1.632812 12.210938 -1.300781 12.328125 -1.125 C 12.453125 -0.957031 12.6875 -0.875 13.03125 -0.875 C 13.1875 -0.875 13.488281 -0.894531 13.9375 -0.9375 L 13.96875 -0.859375 L 13.796875 0.0625 C 13.609375 0.0625 13.457031 0.0546875 13.34375 0.046875 C 12.46875 0.015625 11.796875 0 11.328125 0 L 9.015625 0.046875 L 9.203125 -0.859375 C 9.640625 -0.867188 9.960938 -0.925781 10.171875 -1.03125 C 10.378906 -1.144531 10.519531 -1.347656 10.59375 -1.640625 C 10.675781 -1.929688 10.71875 -2.382812 10.71875 -3 L 10.71875 -6.03125 L 7.671875 -6.046875 C 7.335938 -6.035156 6.867188 -6.015625 6.265625 -5.984375 C 5.671875 -5.953125 5.03125 -5.898438 4.34375 -5.828125 L 4.265625 -2.25 C 4.265625 -1.695312 4.320312 -1.328125 4.4375 -1.140625 C 4.5625 -0.960938 4.800781 -0.875 5.15625 -0.875 C 5.3125 -0.875 5.609375 -0.894531 6.046875 -0.9375 L 6.09375 -0.859375 L 5.90625 0.0625 C 5.789062 0.0507812 5.566406 0.0351562 5.234375 0.015625 C 4.898438 0.00390625 4.554688 0 4.203125 0 C 3.585938 0 2.929688 0.0234375 2.234375 0.078125 C 1.535156 0.128906 1.175781 0.179688 1.15625 0.234375 Z M 1.28125 -0.6875 "/></g></g></g><g fill="#000000" fill-opacity="1"><g transform="translate(218.712821, 240.498741)"><g><path d="M 2.171875 -4.0625 L 1.6875 -6.46875 L 1.75 -6.75 L 4.125 -8.28125 C 4.882812 -8.800781 5.265625 -9.375 5.265625 -10 C 5.265625 -10.789062 4.90625 -11.394531 4.1875 -11.8125 C 3.46875 -12.238281 2.472656 -12.484375 1.203125 -12.546875 L 1.15625 -12.765625 L 1.828125 -13.828125 L 2.109375 -13.90625 C 2.921875 -13.882812 3.671875 -13.722656 4.359375 -13.421875 C 5.046875 -13.128906 5.585938 -12.734375 5.984375 -12.234375 C 6.390625 -11.742188 6.59375 -11.203125 6.59375 -10.609375 C 6.59375 -10.035156 6.476562 -9.539062 6.25 -9.125 C 6.019531 -8.707031 5.742188 -8.359375 5.421875 -8.078125 C 5.097656 -7.804688 4.65625 -7.492188 4.09375 -7.140625 C 3.71875 -6.898438 3.441406 -6.710938 3.265625 -6.578125 L 3.203125 -6.390625 L 3.625 -4.484375 L 3.5625 -4.328125 L 2.34375 -3.984375 Z M 2.859375 0.234375 C 2.503906 0.234375 2.226562 0.125 2.03125 -0.09375 C 1.84375 -0.3125 1.75 -0.582031 1.75 -0.90625 C 1.75 -1.25 1.859375 -1.539062 2.078125 -1.78125 C 2.304688 -2.019531 2.609375 -2.140625 2.984375 -2.140625 C 3.347656 -2.140625 3.628906 -2.03125 3.828125 -1.8125 C 4.023438 -1.59375 4.125 -1.320312 4.125 -1 C 4.125 -0.65625 4.003906 -0.363281 3.765625 -0.125 C 3.535156 0.113281 3.234375 0.234375 2.859375 0.234375 Z M 2.859375 0.234375 "/></g></g></g><g fill="#000000" fill-opacity="1"><g transform="translate(225.922384, 240.498741)"><g/></g></g><g fill="#000000" fill-opacity="1"><g transform="translate(229.887633, 240.498741)"><g><path d="M 0.46875 2.21875 L 0.515625 2.0625 C 1.066406 1.726562 1.492188 1.378906 1.796875 1.015625 C 2.097656 0.648438 2.3125 0.210938 2.4375 -0.296875 C 2.5625 -0.816406 2.625 -1.488281 2.625 -2.3125 L 2.640625 -10.828125 C 2.640625 -11.253906 2.59375 -11.535156 2.5 -11.671875 C 2.40625 -11.816406 2.207031 -11.890625 1.90625 -11.890625 C 1.738281 -11.890625 1.554688 -11.878906 1.359375 -11.859375 C 1.171875 -11.835938 1.039062 -11.820312 0.96875 -11.8125 L 0.921875 -11.890625 L 1.0625 -12.765625 L 3.234375 -12.765625 C 3.585938 -12.765625 4.019531 -12.785156 4.53125 -12.828125 C 5.050781 -12.878906 5.390625 -12.921875 5.546875 -12.953125 L 5.46875 -12.046875 C 5.132812 -11.992188 4.894531 -11.929688 4.75 -11.859375 C 4.601562 -11.796875 4.5 -11.691406 4.4375 -11.546875 C 4.375 -11.410156 4.335938 -11.195312 4.328125 -10.90625 C 4.273438 -9.664062 4.222656 -8.222656 4.171875 -6.578125 C 4.128906 -4.929688 4.09375 -3.515625 4.0625 -2.328125 C 4.050781 -0.960938 3.785156 0.128906 3.265625 0.953125 C 2.753906 1.773438 1.929688 2.421875 0.796875 2.890625 Z M 0.46875 2.21875 "/></g></g></g><g fill="#000000" fill-opacity="1"><g transform="translate(236.436305, 240.498741)"><g><path d="M 6.5625 0.234375 C 5.15625 0.234375 4.070312 -0.144531 3.3125 -0.90625 C 2.550781 -1.675781 2.171875 -2.769531 2.171875 -4.1875 L 2.171875 -10.828125 C 2.171875 -11.253906 2.117188 -11.539062 2.015625 -11.6875 C 1.910156 -11.832031 1.710938 -11.90625 1.421875 -11.90625 C 1.285156 -11.90625 1.148438 -11.898438 1.015625 -11.890625 C 0.890625 -11.878906 0.796875 -11.875 0.734375 -11.875 L 0.703125 -11.953125 L 0.84375 -12.828125 C 1 -12.816406 1.300781 -12.800781 1.75 -12.78125 C 2.195312 -12.769531 2.648438 -12.765625 3.109375 -12.765625 C 3.472656 -12.765625 3.878906 -12.785156 4.328125 -12.828125 C 4.785156 -12.878906 5.082031 -12.921875 5.21875 -12.953125 L 5.125 -12.046875 C 4.632812 -11.984375 4.304688 -11.875 4.140625 -11.71875 C 3.972656 -11.5625 3.875 -11.289062 3.84375 -10.90625 L 3.6875 -5.015625 C 3.6875 -3.691406 3.972656 -2.675781 4.546875 -1.96875 C 5.117188 -1.257812 5.945312 -0.90625 7.03125 -0.90625 C 8.132812 -0.90625 8.972656 -1.191406 9.546875 -1.765625 C 10.117188 -2.347656 10.40625 -3.191406 10.40625 -4.296875 C 10.394531 -5.359375 10.375 -6.570312 10.34375 -7.9375 C 10.3125 -9.3125 10.289062 -10.273438 10.28125 -10.828125 C 10.257812 -11.296875 10.203125 -11.59375 10.109375 -11.71875 C 10.023438 -11.84375 9.835938 -11.90625 9.546875 -11.90625 C 9.378906 -11.90625 9.207031 -11.898438 9.03125 -11.890625 C 8.863281 -11.878906 8.75 -11.875 8.6875 -11.875 L 8.640625 -11.953125 L 8.78125 -12.828125 C 8.9375 -12.816406 9.238281 -12.800781 9.6875 -12.78125 C 10.132812 -12.769531 10.585938 -12.765625 11.046875 -12.765625 C 11.410156 -12.765625 11.796875 -12.785156 12.203125 -12.828125 C 12.609375 -12.878906 12.867188 -12.921875 12.984375 -12.953125 L 12.90625 -12.046875 C 12.507812 -11.992188 12.210938 -11.929688 12.015625 -11.859375 C 11.828125 -11.785156 11.695312 -11.675781 11.625 -11.53125 C 11.5625 -11.394531 11.53125 -11.1875 11.53125 -10.90625 L 11.53125 -4.171875 C 11.53125 -2.765625 11.09375 -1.675781 10.21875 -0.90625 C 9.351562 -0.144531 8.132812 0.234375 6.5625 0.234375 Z M 6.5625 0.234375 "/></g></g></g><g fill="#000000" fill-opacity="1"><g transform="translate(250.074387, 240.498741)"><g><path d="M 4.390625 0.234375 C 3.828125 0.234375 3.3125 0.179688 2.84375 0.078125 C 2.375 -0.015625 1.988281 -0.117188 1.6875 -0.234375 C 1.394531 -0.359375 1.25 -0.425781 1.25 -0.4375 L 1.140625 -0.640625 C 1.148438 -0.722656 1.175781 -0.921875 1.21875 -1.234375 C 1.257812 -1.554688 1.296875 -1.972656 1.328125 -2.484375 C 1.367188 -3.003906 1.390625 -3.550781 1.390625 -4.125 L 2.28125 -4.234375 C 2.28125 -3.222656 2.347656 -2.476562 2.484375 -2 C 2.617188 -1.519531 2.863281 -1.1875 3.21875 -1 C 3.582031 -0.820312 4.140625 -0.734375 4.890625 -0.734375 C 5.734375 -0.734375 6.40625 -0.929688 6.90625 -1.328125 C 7.414062 -1.722656 7.671875 -2.265625 7.671875 -2.953125 C 7.671875 -3.347656 7.535156 -3.707031 7.265625 -4.03125 C 6.992188 -4.351562 6.671875 -4.625 6.296875 -4.84375 C 5.921875 -5.070312 5.363281 -5.382812 4.625 -5.78125 C 3.9375 -6.132812 3.367188 -6.460938 2.921875 -6.765625 C 2.484375 -7.066406 2.113281 -7.421875 1.8125 -7.828125 C 1.507812 -8.242188 1.359375 -8.726562 1.359375 -9.28125 C 1.359375 -9.976562 1.5625 -10.609375 1.96875 -11.171875 C 2.382812 -11.742188 2.941406 -12.191406 3.640625 -12.515625 C 4.335938 -12.847656 5.113281 -13.015625 5.96875 -13.015625 C 6.507812 -13.015625 7.003906 -12.976562 7.453125 -12.90625 C 7.910156 -12.832031 8.269531 -12.753906 8.53125 -12.671875 C 8.800781 -12.585938 8.972656 -12.535156 9.046875 -12.515625 L 9.09375 -12.390625 C 9.082031 -12.304688 9.050781 -12.117188 9 -11.828125 C 8.945312 -11.535156 8.882812 -11.128906 8.8125 -10.609375 C 8.75 -10.085938 8.695312 -9.550781 8.65625 -9 L 7.875 -8.921875 L 7.765625 -9.015625 C 7.773438 -9.066406 7.785156 -9.191406 7.796875 -9.390625 C 7.804688 -9.585938 7.8125 -9.8125 7.8125 -10.0625 C 7.8125 -10.769531 7.640625 -11.253906 7.296875 -11.515625 C 6.953125 -11.785156 6.332031 -11.921875 5.4375 -11.921875 C 4.695312 -11.921875 4.085938 -11.738281 3.609375 -11.375 C 3.140625 -11.007812 2.90625 -10.550781 2.90625 -10 C 2.90625 -9.46875 3.132812 -9.003906 3.59375 -8.609375 C 4.0625 -8.210938 4.742188 -7.78125 5.640625 -7.3125 C 6.503906 -6.875 7.160156 -6.507812 7.609375 -6.21875 C 8.066406 -5.9375 8.46875 -5.582031 8.8125 -5.15625 C 9.164062 -4.726562 9.34375 -4.234375 9.34375 -3.671875 C 9.34375 -2.921875 9.128906 -2.25 8.703125 -1.65625 C 8.285156 -1.0625 7.703125 -0.597656 6.953125 -0.265625 C 6.203125 0.0664062 5.347656 0.234375 4.390625 0.234375 Z M 4.390625 0.234375 "/></g></g></g><g fill="#000000" fill-opacity="1"><g transform="translate(260.688453, 240.498741)"><g><path d="M 2.671875 -0.78125 C 3.335938 -0.832031 3.796875 -0.914062 4.046875 -1.03125 C 4.304688 -1.144531 4.472656 -1.351562 4.546875 -1.65625 C 4.628906 -1.957031 4.671875 -2.488281 4.671875 -3.25 L 4.671875 -11.984375 C 3.535156 -11.941406 2.765625 -11.878906 2.359375 -11.796875 C 1.953125 -11.710938 1.671875 -11.519531 1.515625 -11.21875 C 1.367188 -10.914062 1.238281 -10.332031 1.125 -9.46875 L 0.1875 -9.375 C 0.34375 -10.644531 0.441406 -11.800781 0.484375 -12.84375 L 0.65625 -13.015625 L 2.328125 -12.796875 L 8.546875 -12.796875 L 10.25 -13.015625 L 10.421875 -12.84375 C 10.460938 -11.75 10.5625 -10.625 10.71875 -9.46875 L 9.78125 -9.375 C 9.632812 -10.257812 9.488281 -10.851562 9.34375 -11.15625 C 9.195312 -11.46875 8.9375 -11.671875 8.5625 -11.765625 C 8.1875 -11.859375 7.460938 -11.929688 6.390625 -11.984375 C 6.316406 -11.179688 6.242188 -9.765625 6.171875 -7.734375 C 6.109375 -5.703125 6.078125 -3.875 6.078125 -2.25 C 6.078125 -1.75 6.160156 -1.394531 6.328125 -1.1875 C 6.503906 -0.976562 6.800781 -0.875 7.21875 -0.875 C 7.613281 -0.875 7.976562 -0.894531 8.3125 -0.9375 L 8.375 -0.859375 L 8.203125 0.0625 L 7.53125 0.046875 L 5.25 0 C 4.519531 0 3.601562 0.0234375 2.5 0.078125 Z M 2.671875 -0.78125 "/></g></g></g><g fill="#000000" fill-opacity="1"><g transform="translate(271.622943, 240.498741)"><g/></g></g><g fill="#000000" fill-opacity="1"><g transform="translate(275.588192, 240.498741)"><g><path d="M 0.6875 -0.578125 L 8.15625 -11.890625 L 4.6875 -11.765625 C 4.0625 -11.742188 3.566406 -11.640625 3.203125 -11.453125 C 2.847656 -11.273438 2.578125 -10.992188 2.390625 -10.609375 C 2.203125 -10.222656 2.066406 -9.6875 1.984375 -9 L 1.046875 -8.921875 C 1.054688 -9.023438 1.085938 -9.257812 1.140625 -9.625 C 1.191406 -10 1.242188 -10.488281 1.296875 -11.09375 C 1.359375 -11.707031 1.394531 -12.285156 1.40625 -12.828125 L 1.609375 -13.015625 L 5.109375 -12.796875 L 10.28125 -12.65625 L 10.5 -12.0625 C 7.945312 -8.664062 5.367188 -4.910156 2.765625 -0.796875 L 6.84375 -0.9375 C 7.53125 -0.957031 8.085938 -1.234375 8.515625 -1.765625 C 8.941406 -2.296875 9.265625 -3.128906 9.484375 -4.265625 L 10.421875 -4.375 C 10.398438 -4.25 10.359375 -3.992188 10.296875 -3.609375 C 10.234375 -3.234375 10.160156 -2.722656 10.078125 -2.078125 C 10.003906 -1.441406 9.953125 -0.835938 9.921875 -0.265625 L 9.625 0.0625 L 2.359375 -0.0625 L 0.96875 0.0625 Z M 0.6875 -0.578125 "/></g></g></g><g fill="#000000" fill-opacity="1"><g transform="translate(286.963276, 240.498741)"><g><path d="M 2.671875 -0.78125 C 3.335938 -0.832031 3.796875 -0.914062 4.046875 -1.03125 C 4.304688 -1.144531 4.472656 -1.351562 4.546875 -1.65625 C 4.628906 -1.957031 4.671875 -2.488281 4.671875 -3.25 L 4.671875 -11.984375 C 3.535156 -11.941406 2.765625 -11.878906 2.359375 -11.796875 C 1.953125 -11.710938 1.671875 -11.519531 1.515625 -11.21875 C 1.367188 -10.914062 1.238281 -10.332031 1.125 -9.46875 L 0.1875 -9.375 C 0.34375 -10.644531 0.441406 -11.800781 0.484375 -12.84375 L 0.65625 -13.015625 L 2.328125 -12.796875 L 8.546875 -12.796875 L 10.25 -13.015625 L 10.421875 -12.84375 C 10.460938 -11.75 10.5625 -10.625 10.71875 -9.46875 L 9.78125 -9.375 C 9.632812 -10.257812 9.488281 -10.851562 9.34375 -11.15625 C 9.195312 -11.46875 8.9375 -11.671875 8.5625 -11.765625 C 8.1875 -11.859375 7.460938 -11.929688 6.390625 -11.984375 C 6.316406 -11.179688 6.242188 -9.765625 6.171875 -7.734375 C 6.109375 -5.703125 6.078125 -3.875 6.078125 -2.25 C 6.078125 -1.75 6.160156 -1.394531 6.328125 -1.1875 C 6.503906 -0.976562 6.800781 -0.875 7.21875 -0.875 C 7.613281 -0.875 7.976562 -0.894531 8.3125 -0.9375 L 8.375 -0.859375 L 8.203125 0.0625 L 7.53125 0.046875 L 5.25 0 C 4.519531 0 3.601562 0.0234375 2.5 0.078125 Z M 2.671875 -0.78125 "/></g></g></g><g fill="#000000" fill-opacity="1"><g transform="translate(297.897766, 240.498741)"><g><path d="M 6.359375 0.234375 C 5.273438 0.234375 4.3125 -0.0234375 3.46875 -0.546875 C 2.625 -1.066406 1.96875 -1.796875 1.5 -2.734375 C 1.03125 -3.679688 0.796875 -4.753906 0.796875 -5.953125 C 0.796875 -7.265625 1.085938 -8.457031 1.671875 -9.53125 C 2.253906 -10.601562 3.050781 -11.453125 4.0625 -12.078125 C 5.070312 -12.703125 6.179688 -13.015625 7.390625 -13.015625 C 8.503906 -13.015625 9.488281 -12.753906 10.34375 -12.234375 C 11.195312 -11.710938 11.863281 -10.984375 12.34375 -10.046875 C 12.832031 -9.109375 13.078125 -8.039062 13.078125 -6.84375 C 13.078125 -5.53125 12.773438 -4.332031 12.171875 -3.25 C 11.578125 -2.164062 10.769531 -1.3125 9.75 -0.6875 C 8.726562 -0.0703125 7.597656 0.234375 6.359375 0.234375 Z M 6.96875 -0.78125 C 7.8125 -0.78125 8.5625 -1 9.21875 -1.4375 C 9.875 -1.882812 10.378906 -2.5 10.734375 -3.28125 C 11.097656 -4.070312 11.28125 -4.976562 11.28125 -6 C 11.28125 -7.132812 11.085938 -8.140625 10.703125 -9.015625 C 10.316406 -9.890625 9.78125 -10.570312 9.09375 -11.0625 C 8.40625 -11.5625 7.613281 -11.8125 6.71875 -11.8125 C 5.90625 -11.8125 5.179688 -11.585938 4.546875 -11.140625 C 3.910156 -10.703125 3.414062 -10.085938 3.0625 -9.296875 C 2.707031 -8.515625 2.53125 -7.613281 2.53125 -6.59375 C 2.53125 -5.457031 2.71875 -4.453125 3.09375 -3.578125 C 3.46875 -2.703125 3.988281 -2.015625 4.65625 -1.515625 C 5.332031 -1.023438 6.101562 -0.78125 6.96875 -0.78125 Z M 6.96875 -0.78125 "/></g></g></g><g fill="#000000" fill-opacity="1"><g transform="translate(311.756129, 240.498741)"><g><path d="M 6.359375 0.234375 C 5.273438 0.234375 4.3125 -0.0234375 3.46875 -0.546875 C 2.625 -1.066406 1.96875 -1.796875 1.5 -2.734375 C 1.03125 -3.679688 0.796875 -4.753906 0.796875 -5.953125 C 0.796875 -7.265625 1.085938 -8.457031 1.671875 -9.53125 C 2.253906 -10.601562 3.050781 -11.453125 4.0625 -12.078125 C 5.070312 -12.703125 6.179688 -13.015625 7.390625 -13.015625 C 8.503906 -13.015625 9.488281 -12.753906 10.34375 -12.234375 C 11.195312 -11.710938 11.863281 -10.984375 12.34375 -10.046875 C 12.832031 -9.109375 13.078125 -8.039062 13.078125 -6.84375 C 13.078125 -5.53125 12.773438 -4.332031 12.171875 -3.25 C 11.578125 -2.164062 10.769531 -1.3125 9.75 -0.6875 C 8.726562 -0.0703125 7.597656 0.234375 6.359375 0.234375 Z M 6.96875 -0.78125 C 7.8125 -0.78125 8.5625 -1 9.21875 -1.4375 C 9.875 -1.882812 10.378906 -2.5 10.734375 -3.28125 C 11.097656 -4.070312 11.28125 -4.976562 11.28125 -6 C 11.28125 -7.132812 11.085938 -8.140625 10.703125 -9.015625 C 10.316406 -9.890625 9.78125 -10.570312 9.09375 -11.0625 C 8.40625 -11.5625 7.613281 -11.8125 6.71875 -11.8125 C 5.90625 -11.8125 5.179688 -11.585938 4.546875 -11.140625 C 3.910156 -10.703125 3.414062 -10.085938 3.0625 -9.296875 C 2.707031 -8.515625 2.53125 -7.613281 2.53125 -6.59375 C 2.53125 -5.457031 2.71875 -4.453125 3.09375 -3.578125 C 3.46875 -2.703125 3.988281 -2.015625 4.65625 -1.515625 C 5.332031 -1.023438 6.101562 -0.78125 6.96875 -0.78125 Z M 6.96875 -0.78125 "/></g></g></g><g fill="#000000" fill-opacity="1"><g transform="translate(325.614492, 240.498741)"><g><path d="M 1.484375 -0.71875 C 2.003906 -0.800781 2.359375 -0.957031 2.546875 -1.1875 C 2.742188 -1.425781 2.84375 -1.832031 2.84375 -2.40625 L 2.859375 -10.828125 C 2.859375 -11.253906 2.804688 -11.539062 2.703125 -11.6875 C 2.609375 -11.832031 2.414062 -11.90625 2.125 -11.90625 C 1.988281 -11.90625 1.851562 -11.898438 1.71875 -11.890625 C 1.59375 -11.878906 1.5 -11.875 1.4375 -11.875 L 1.40625 -11.953125 L 1.546875 -12.828125 C 1.703125 -12.816406 2 -12.800781 2.4375 -12.78125 C 2.882812 -12.769531 3.332031 -12.765625 3.78125 -12.765625 C 4.144531 -12.765625 4.554688 -12.785156 5.015625 -12.828125 C 5.484375 -12.878906 5.789062 -12.921875 5.9375 -12.953125 L 5.859375 -12.046875 C 5.410156 -11.992188 5.101562 -11.90625 4.9375 -11.78125 C 4.769531 -11.664062 4.671875 -11.523438 4.640625 -11.359375 C 4.609375 -11.203125 4.570312 -10.8125 4.53125 -10.1875 C 4.445312 -9.050781 4.382812 -7.753906 4.34375 -6.296875 C 4.3125 -4.835938 4.296875 -3.554688 4.296875 -2.453125 C 4.296875 -1.960938 4.332031 -1.613281 4.40625 -1.40625 C 4.488281 -1.207031 4.640625 -1.070312 4.859375 -1 C 5.078125 -0.9375 5.457031 -0.90625 6 -0.90625 C 6.8125 -0.90625 7.40625 -0.96875 7.78125 -1.09375 C 8.164062 -1.226562 8.453125 -1.488281 8.640625 -1.875 C 8.835938 -2.269531 9.019531 -2.894531 9.1875 -3.75 L 10.0625 -3.84375 L 10.125 -3.75 C 10.082031 -3.53125 10 -3.046875 9.875 -2.296875 C 9.75 -1.554688 9.640625 -0.769531 9.546875 0.0625 L 9.4375 0.1875 C 9.050781 0.15625 8.253906 0.113281 7.046875 0.0625 C 5.835938 0.0195312 4.835938 0 4.046875 0 C 3.421875 0 2.847656 0.0234375 2.328125 0.078125 C 1.816406 0.128906 1.492188 0.171875 1.359375 0.203125 Z M 1.484375 -0.71875 "/></g></g></g><g fill="#000000" fill-opacity="1"><g transform="translate(335.767954, 240.498741)"><g/></g></g><g fill="#000000" fill-opacity="1"><g transform="translate(339.733203, 240.498741)"><g><path d="M 1.25 -0.6875 C 1.875 -0.800781 2.296875 -0.972656 2.515625 -1.203125 C 2.734375 -1.441406 2.84375 -1.84375 2.84375 -2.40625 L 2.859375 -10.828125 C 2.859375 -11.253906 2.804688 -11.539062 2.703125 -11.6875 C 2.609375 -11.832031 2.414062 -11.90625 2.125 -11.90625 L 1.28125 -11.875 L 1.25 -11.953125 L 1.390625 -12.828125 C 1.597656 -12.828125 1.765625 -12.820312 1.890625 -12.8125 L 3.765625 -12.765625 C 4.367188 -12.765625 5.140625 -12.828125 6.078125 -12.953125 L 6 -12.046875 C 5.445312 -11.984375 5.070312 -11.875 4.875 -11.71875 C 4.6875 -11.5625 4.578125 -11.289062 4.546875 -10.90625 C 4.472656 -9.34375 4.40625 -7.707031 4.34375 -6 C 4.289062 -4.300781 4.265625 -3.050781 4.265625 -2.25 C 4.265625 -1.695312 4.320312 -1.328125 4.4375 -1.140625 C 4.5625 -0.960938 4.800781 -0.875 5.15625 -0.875 C 5.382812 -0.875 5.738281 -0.894531 6.21875 -0.9375 L 6.25 -0.859375 L 6.078125 0.0625 C 5.890625 0.0625 5.742188 0.0546875 5.640625 0.046875 C 4.703125 0.015625 3.972656 0 3.453125 0 C 2.796875 0 2.019531 0.078125 1.125 0.234375 Z M 1.25 -0.6875 "/></g></g></g><g fill="#000000" fill-opacity="1"><g transform="translate(346.962792, 240.498741)"><g><path d="M 2.671875 -0.78125 C 3.335938 -0.832031 3.796875 -0.914062 4.046875 -1.03125 C 4.304688 -1.144531 4.472656 -1.351562 4.546875 -1.65625 C 4.628906 -1.957031 4.671875 -2.488281 4.671875 -3.25 L 4.671875 -11.984375 C 3.535156 -11.941406 2.765625 -11.878906 2.359375 -11.796875 C 1.953125 -11.710938 1.671875 -11.519531 1.515625 -11.21875 C 1.367188 -10.914062 1.238281 -10.332031 1.125 -9.46875 L 0.1875 -9.375 C 0.34375 -10.644531 0.441406 -11.800781 0.484375 -12.84375 L 0.65625 -13.015625 L 2.328125 -12.796875 L 8.546875 -12.796875 L 10.25 -13.015625 L 10.421875 -12.84375 C 10.460938 -11.75 10.5625 -10.625 10.71875 -9.46875 L 9.78125 -9.375 C 9.632812 -10.257812 9.488281 -10.851562 9.34375 -11.15625 C 9.195312 -11.46875 8.9375 -11.671875 8.5625 -11.765625 C 8.1875 -11.859375 7.460938 -11.929688 6.390625 -11.984375 C 6.316406 -11.179688 6.242188 -9.765625 6.171875 -7.734375 C 6.109375 -5.703125 6.078125 -3.875 6.078125 -2.25 C 6.078125 -1.75 6.160156 -1.394531 6.328125 -1.1875 C 6.503906 -0.976562 6.800781 -0.875 7.21875 -0.875 C 7.613281 -0.875 7.976562 -0.894531 8.3125 -0.9375 L 8.375 -0.859375 L 8.203125 0.0625 L 7.53125 0.046875 L 5.25 0 C 4.519531 0 3.601562 0.0234375 2.5 0.078125 Z M 2.671875 -0.78125 "/></g></g></g><g fill="#000000" fill-opacity="1"><g transform="translate(357.897282, 240.498741)"><g><path d="M 2.125 -4.203125 L 1.96875 -13.34375 L 2.109375 -13.546875 L 3.765625 -13.90625 L 3.953125 -13.6875 L 2.90625 -4.1875 L 2.34375 -4.046875 Z M 2.34375 0.234375 C 1.976562 0.234375 1.695312 0.125 1.5 -0.09375 C 1.3125 -0.3125 1.21875 -0.582031 1.21875 -0.90625 C 1.21875 -1.25 1.332031 -1.539062 1.5625 -1.78125 C 1.789062 -2.019531 2.09375 -2.140625 2.46875 -2.140625 C 2.820312 -2.140625 3.097656 -2.03125 3.296875 -1.8125 C 3.503906 -1.59375 3.609375 -1.320312 3.609375 -1 C 3.609375 -0.65625 3.488281 -0.363281 3.25 -0.125 C 3.019531 0.113281 2.71875 0.234375 2.34375 0.234375 Z M 2.34375 0.234375 "/></g></g></g><g fill="#000000" fill-opacity="1"><g transform="translate(95.982922, 214.55206)"><g><path d="M 19.351562 0 L 19.351562 -4.1875 L 6.949219 -4.1875 L 19.320312 -21.398438 L 19.320312 -24.777344 L 1.589844 -24.777344 L 1.589844 -20.585938 L 13.441406 -20.585938 L 0.875 -3.214844 L 0.875 0 Z M 19.351562 0 "/></g></g></g><g fill="#000000" fill-opacity="1"><g transform="translate(119.619915, 214.55206)"><g><path d="M 12.566406 0 L 12.566406 -20.585938 L 20.101562 -20.585938 L 20.101562 -24.777344 L 0.324219 -24.777344 L 0.324219 -20.585938 L 7.890625 -20.585938 L 7.890625 0 Z M 12.566406 0 "/></g></g></g><g fill="#000000" fill-opacity="1"><g transform="translate(143.32185, 214.55206)"><g><path d="M 13.28125 0.453125 C 21.496094 0.453125 25.328125 -5.550781 25.328125 -12.402344 C 25.328125 -19.253906 21.496094 -25.230469 13.28125 -25.230469 C 5.097656 -25.230469 1.265625 -19.253906 1.265625 -12.402344 C 1.265625 -5.550781 5.097656 0.453125 13.28125 0.453125 Z M 13.28125 -3.734375 C 8.765625 -3.734375 6.136719 -7.242188 6.136719 -12.402344 C 6.136719 -17.535156 8.765625 -21.007812 13.28125 -21.007812 C 17.859375 -21.007812 20.457031 -17.535156 20.457031 -12.402344 C 20.457031 -7.242188 17.859375 -3.734375 13.28125 -3.734375 Z M 13.28125 -3.734375 "/></g></g></g><g fill="#000000" fill-opacity="1"><g transform="translate(173.192381, 214.55206)"><g><path d="M 13.28125 0.453125 C 21.496094 0.453125 25.328125 -5.550781 25.328125 -12.402344 C 25.328125 -19.253906 21.496094 -25.230469 13.28125 -25.230469 C 5.097656 -25.230469 1.265625 -19.253906 1.265625 -12.402344 C 1.265625 -5.550781 5.097656 0.453125 13.28125 0.453125 Z M 13.28125 -3.734375 C 8.765625 -3.734375 6.136719 -7.242188 6.136719 -12.402344 C 6.136719 -17.535156 8.765625 -21.007812 13.28125 -21.007812 C 17.859375 -21.007812 20.457031 -17.535156 20.457031 -12.402344 C 20.457031 -7.242188 17.859375 -3.734375 13.28125 -3.734375 Z M 13.28125 -3.734375 "/></g></g></g><g fill="#000000" fill-opacity="1"><g transform="translate(203.062918, 214.55206)"><g><path d="M 17.371094 0 L 17.371094 -4.1875 L 6.882812 -4.1875 L 6.882812 -24.777344 L 2.207031 -24.777344 L 2.207031 0 Z M 17.371094 0 "/></g></g></g><g fill="#000000" fill-opacity="1"><g transform="translate(224.03768, 214.55206)"><g><path d="M 12.046875 0.453125 C 17.890625 0.453125 21.300781 -2.5 21.300781 -7.175781 C 21.300781 -12.792969 16.398438 -13.898438 12.273438 -14.808594 C 9.253906 -15.488281 6.589844 -16.074219 6.589844 -18.347656 C 6.589844 -20.230469 8.28125 -21.238281 10.617188 -21.238281 C 13.152344 -21.238281 15.261719 -20.035156 15.878906 -17.40625 L 20.652344 -17.40625 C 19.871094 -22.761719 15.488281 -25.230469 10.714844 -25.230469 C 5.714844 -25.230469 1.949219 -22.730469 1.949219 -17.957031 C 1.949219 -12.730469 6.558594 -11.722656 10.617188 -10.8125 C 13.769531 -10.132812 16.59375 -9.515625 16.59375 -6.949219 C 16.59375 -4.578125 14.644531 -3.539062 12.078125 -3.539062 C 9.480469 -3.539062 6.785156 -4.511719 5.976562 -8.054688 L 1.136719 -8.054688 C 1.753906 -1.65625 7.273438 0.453125 12.046875 0.453125 Z M 12.046875 0.453125 "/></g></g></g></svg>