<svg xmlns="http://www.w3.org/2000/svg" xmlns:xlink="http://www.w3.org/1999/xlink" width="500" zoomAndPan="magnify" viewBox="0 0 375 374.999991" height="500" preserveAspectRatio="xMidYMid meet" version="1.0"><defs><g/><clipPath id="b19c8f4612"><path d="M 114.78125 73.707031 L 260.519531 73.707031 L 260.519531 219.445312 L 114.78125 219.445312 Z M 114.78125 73.707031 " clip-rule="nonzero"/></clipPath><clipPath id="bd6cc01615"><path d="M 145.738281 114 L 242.527344 114 L 242.527344 169 L 145.738281 169 Z M 145.738281 114 " clip-rule="nonzero"/></clipPath><clipPath id="2bb6a66c3b"><path d="M 172 106.308594 L 195 106.308594 L 195 186.410156 L 172 186.410156 Z M 172 106.308594 " clip-rule="nonzero"/></clipPath></defs><rect x="-37.5" width="450" fill="#ffffff" y="-37.499999" height="449.999989" fill-opacity="1"/><rect x="-37.5" width="450" fill="#ffffff" y="-37.499999" height="449.999989" fill-opacity="1"/><g clip-path="url(#b19c8f4612)"><path fill="#100f0d" d="M 239.207031 185.207031 L 238.804688 185.726562 L 245.527344 190.839844 L 245.984375 190.265625 C 246.15625 190.089844 246.273438 189.863281 246.386719 189.6875 L 239.609375 184.691406 C 239.4375 184.863281 239.320312 185.035156 239.207031 185.207031 Z M 241.273438 182.222656 L 248.285156 186.875 C 248.570312 186.472656 248.800781 186.070312 249.085938 185.667969 L 241.964844 181.128906 C 241.792969 181.53125 241.503906 181.875 241.273438 182.222656 Z M 243.574219 178.601562 L 250.867188 182.796875 L 251.558594 181.53125 L 244.148438 177.453125 Z M 236.105469 189 L 242.425781 194.570312 C 242.769531 194.226562 243.054688 193.824219 243.34375 193.480469 L 236.910156 188.023438 C 236.679688 188.367188 236.390625 188.65625 236.105469 189 Z M 233.175781 192.101562 L 239.148438 198.078125 L 240.183594 197.042969 L 234.09375 191.183594 Z M 245.527344 174.867188 L 253.109375 178.601562 C 253.339844 178.144531 253.511719 177.742188 253.742188 177.28125 L 246.101562 173.71875 C 245.929688 174.0625 245.753906 174.464844 245.527344 174.867188 Z M 250.007812 162.863281 L 258.164062 164.988281 C 258.277344 164.527344 258.394531 164.070312 258.507812 163.550781 L 250.292969 161.597656 C 250.179688 162.058594 250.121094 162.460938 250.007812 162.863281 Z M 247.308594 170.960938 L 255.121094 174.179688 C 255.292969 173.71875 255.464844 173.261719 255.636719 172.800781 L 247.765625 169.753906 C 247.59375 170.15625 247.421875 170.558594 247.308594 170.960938 Z M 251.039062 158.09375 L 250.925781 158.726562 L 259.199219 160.335938 L 259.3125 159.644531 C 259.371094 159.414062 259.371094 159.1875 259.425781 158.957031 L 251.097656 157.519531 C 251.097656 157.691406 251.097656 157.863281 251.039062 158.09375 Z M 251.558594 154.53125 L 259.945312 155.566406 L 260.117188 154.128906 L 251.730469 153.269531 Z M 251.960938 150.28125 L 260.402344 150.742188 C 260.460938 150.28125 260.460938 149.765625 260.460938 149.304688 L 252.015625 149.019531 C 252.015625 149.421875 252.015625 149.824219 251.960938 150.28125 Z M 248.742188 166.941406 L 256.726562 169.582031 L 257.1875 168.203125 L 249.144531 165.675781 Z M 204.511719 208.761719 L 206.691406 216.917969 C 207.152344 216.804688 207.613281 216.6875 208.070312 216.515625 L 205.714844 208.417969 C 205.371094 208.53125 204.914062 208.644531 204.511719 208.761719 Z M 196.179688 210.425781 L 197.273438 218.8125 L 198.707031 218.585938 L 197.445312 210.253906 Z M 208.589844 207.496094 L 211.347656 215.480469 L 212.726562 215.023438 L 209.796875 207.09375 Z M 192.5625 210.773438 L 191.929688 210.828125 L 192.503906 219.273438 L 193.25 219.214844 L 193.996094 219.160156 L 193.308594 210.773438 Z M 187.679688 211 L 187.679688 219.445312 L 189.113281 219.445312 L 188.941406 211 Z M 200.375 209.738281 L 202.039062 218.007812 C 202.5 217.894531 203.015625 217.78125 203.476562 217.722656 L 201.636719 209.507812 C 201.234375 209.566406 200.777344 209.621094 200.375 209.738281 Z M 227.257812 197.386719 L 232.429688 204.050781 C 232.832031 203.761719 233.175781 203.417969 233.578125 203.132812 L 228.234375 196.582031 C 227.890625 196.871094 227.601562 197.101562 227.257812 197.386719 Z M 230.992188 194.226562 L 230.53125 194.628906 L 236.164062 200.949219 L 236.679688 200.488281 L 237.195312 199.972656 L 231.453125 193.769531 Z M 223.8125 199.914062 L 228.578125 206.867188 L 229.785156 206.0625 L 224.902344 199.167969 Z M 220.191406 202.15625 L 224.445312 209.449219 C 224.84375 209.21875 225.304688 208.992188 225.707031 208.703125 L 221.285156 201.523438 C 220.9375 201.753906 220.539062 201.925781 220.191406 202.15625 Z M 217.03125 203.9375 L 216.457031 204.222656 L 220.25 211.75 L 220.882812 211.402344 L 221.515625 211.058594 L 217.609375 203.589844 Z M 212.550781 206.003906 L 215.828125 213.757812 C 216.285156 213.585938 216.6875 213.355469 217.148438 213.183594 L 213.703125 205.488281 C 213.355469 205.660156 212.953125 205.832031 212.550781 206.003906 Z M 160.046875 213.988281 C 160.507812 214.160156 160.964844 214.332031 161.425781 214.503906 L 164.472656 206.636719 C 164.070312 206.464844 163.667969 206.347656 163.265625 206.175781 Z M 164.585938 215.710938 L 165.964844 216.171875 L 168.492188 208.128906 L 167.285156 207.726562 Z M 159.359375 204.453125 L 155.625 212.035156 C 156.082031 212.265625 156.484375 212.4375 156.945312 212.667969 L 160.507812 205.027344 C 160.164062 204.855469 159.761719 204.683594 159.359375 204.453125 Z M 169.238281 217.089844 C 169.699219 217.207031 170.15625 217.320312 170.675781 217.433594 L 172.628906 209.21875 C 172.226562 209.105469 171.765625 209.046875 171.363281 208.933594 Z M 175.5 209.851562 L 173.890625 218.125 L 174.582031 218.238281 C 174.8125 218.296875 175.039062 218.296875 175.269531 218.355469 L 176.707031 210.023438 C 176.476562 209.96875 176.304688 209.96875 176.074219 209.910156 Z M 142.125 192.101562 L 136.148438 198.078125 L 137.183594 199.109375 L 143.042969 193.019531 Z M 145.226562 195.03125 L 139.65625 201.351562 C 140 201.695312 140.402344 201.984375 140.746094 202.269531 L 146.203125 195.835938 C 145.859375 195.605469 145.570312 195.320312 145.226562 195.03125 Z M 155.625 202.441406 L 151.429688 209.796875 L 152.695312 210.484375 L 156.773438 203.074219 Z M 152.003906 200.203125 L 147.351562 207.210938 C 147.753906 207.496094 148.15625 207.726562 148.558594 208.015625 L 153.097656 200.890625 C 152.695312 200.71875 152.351562 200.429688 152.003906 200.203125 Z M 149.019531 198.132812 L 148.5 197.730469 L 143.386719 204.453125 L 143.960938 204.914062 C 144.136719 205.085938 144.363281 205.199219 144.539062 205.3125 L 149.535156 198.535156 C 149.363281 198.363281 149.191406 198.25 149.019531 198.132812 Z M 178.660156 218.871094 L 180.097656 219.042969 L 180.957031 210.65625 L 179.695312 210.484375 Z M 183.484375 219.273438 C 183.945312 219.332031 184.460938 219.332031 184.921875 219.332031 L 185.207031 210.886719 C 184.804688 210.886719 184.347656 210.886719 183.945312 210.828125 Z M 134.3125 182.738281 L 127.359375 187.507812 L 128.164062 188.710938 L 135.058594 183.828125 Z M 136.839844 186.183594 L 130.175781 191.355469 C 130.464844 191.757812 130.808594 192.101562 131.09375 192.503906 L 137.644531 187.160156 C 137.355469 186.816406 137.125 186.53125 136.839844 186.183594 Z M 140 189.917969 L 139.597656 189.460938 L 133.277344 195.089844 L 133.738281 195.605469 L 134.253906 196.125 L 140.457031 190.378906 Z M 125.464844 163.4375 L 117.308594 165.621094 C 117.421875 166.078125 117.539062 166.539062 117.710938 167 L 125.808594 164.644531 C 125.695312 164.242188 125.582031 163.839844 125.464844 163.4375 Z M 132.070312 179.121094 L 124.777344 183.371094 C 125.007812 183.773438 125.234375 184.230469 125.523438 184.632812 L 132.703125 180.210938 C 132.472656 179.867188 132.300781 179.464844 132.070312 179.121094 Z M 130.289062 175.960938 L 130.003906 175.386719 L 122.476562 179.121094 L 122.824219 179.75 L 123.167969 180.382812 L 130.636719 176.476562 Z M 128.222656 171.480469 L 120.46875 174.753906 C 120.640625 175.214844 120.871094 175.613281 121.042969 176.074219 L 128.738281 172.628906 C 128.566406 172.285156 128.394531 171.882812 128.222656 171.480469 Z M 123.226562 146.605469 L 114.78125 146.605469 L 114.78125 148.042969 L 123.226562 147.871094 Z M 124.488281 159.300781 L 116.214844 160.964844 C 116.332031 161.425781 116.445312 161.941406 116.503906 162.402344 L 124.71875 160.566406 C 124.660156 160.105469 124.605469 159.703125 124.488281 159.300781 Z M 123.453125 151.488281 L 123.398438 150.855469 L 114.953125 151.429688 L 115.011719 152.175781 L 115.066406 152.925781 L 123.453125 152.234375 Z M 126.730469 167.515625 L 118.746094 170.273438 L 119.203125 171.652344 L 127.132812 168.722656 Z M 123.800781 155.105469 L 115.414062 156.199219 L 115.640625 157.636719 L 123.972656 156.371094 Z M 125.351562 130.289062 L 117.195312 128.164062 C 117.078125 128.625 116.964844 129.085938 116.847656 129.601562 L 125.0625 131.554688 C 125.121094 131.09375 125.234375 130.691406 125.351562 130.289062 Z M 124.257812 135.058594 L 124.375 134.425781 L 116.101562 132.820312 L 115.988281 133.507812 C 115.929688 133.738281 115.929688 133.96875 115.871094 134.195312 L 124.203125 135.632812 C 124.203125 135.460938 124.203125 135.289062 124.257812 135.058594 Z M 129.773438 118.285156 L 122.191406 114.550781 C 121.960938 115.011719 121.789062 115.414062 121.558594 115.871094 L 129.199219 119.433594 C 129.371094 119.089844 129.542969 118.6875 129.773438 118.285156 Z M 126.558594 126.210938 L 118.570312 123.570312 L 118.113281 124.949219 L 126.15625 127.476562 Z M 128.050781 122.191406 L 120.238281 118.972656 C 120.066406 119.433594 119.894531 119.894531 119.722656 120.351562 L 127.589844 123.398438 C 127.707031 122.996094 127.878906 122.59375 128.050781 122.191406 Z M 131.785156 114.550781 L 124.488281 110.359375 L 123.800781 111.621094 L 131.210938 115.699219 Z M 134.023438 110.933594 L 127.015625 106.277344 C 126.730469 106.679688 126.5 107.082031 126.210938 107.484375 L 133.335938 112.023438 C 133.507812 111.621094 133.796875 111.277344 134.023438 110.933594 Z M 139.195312 104.152344 L 132.875 98.582031 C 132.53125 98.925781 132.242188 99.328125 131.957031 99.671875 L 138.390625 105.128906 C 138.621094 104.785156 138.90625 104.441406 139.195312 104.152344 Z M 136.09375 107.945312 L 136.496094 107.429688 L 129.773438 102.316406 L 129.3125 102.890625 C 129.140625 103.0625 129.027344 103.292969 128.914062 103.464844 L 135.691406 108.460938 C 135.863281 108.289062 135.976562 108.117188 136.09375 107.945312 Z M 142.125 101.050781 L 136.148438 95.078125 L 135.117188 96.109375 L 141.207031 101.96875 Z M 123.339844 142.871094 L 114.894531 142.410156 C 114.839844 142.871094 114.839844 143.386719 114.839844 143.847656 L 123.28125 144.136719 C 123.28125 143.734375 123.339844 143.332031 123.339844 142.871094 Z M 123.742188 138.621094 L 115.355469 137.585938 L 115.183594 139.023438 L 123.570312 139.882812 Z M 148.042969 95.765625 L 142.871094 89.101562 C 142.46875 89.390625 142.125 89.734375 141.722656 90.023438 L 147.066406 96.570312 C 147.410156 96.285156 147.695312 95.996094 148.042969 95.765625 Z M 158.265625 89.21875 L 158.839844 88.929688 L 155.050781 81.40625 L 153.785156 82.09375 L 157.691406 89.5625 Z M 151.488281 93.238281 L 146.777344 86.289062 L 145.570312 87.09375 L 150.453125 93.984375 Z M 170.789062 84.390625 L 168.605469 76.234375 C 168.148438 76.351562 167.6875 76.464844 167.226562 76.636719 L 169.582031 84.738281 C 169.984375 84.621094 170.386719 84.507812 170.789062 84.390625 Z M 162.746094 87.148438 L 159.472656 79.394531 C 159.011719 79.566406 158.613281 79.796875 158.152344 79.96875 L 161.597656 87.667969 C 161.941406 87.496094 162.34375 87.320312 162.746094 87.148438 Z M 144.308594 98.925781 L 144.765625 98.523438 L 139.136719 92.203125 L 138.621094 92.664062 L 138.101562 93.179688 L 143.847656 99.386719 Z M 166.710938 85.65625 L 163.953125 77.671875 L 162.574219 78.128906 L 165.503906 86.058594 Z M 155.105469 91 L 150.855469 83.703125 C 150.453125 83.933594 149.996094 84.164062 149.59375 84.449219 L 154.015625 91.628906 C 154.359375 91.402344 154.761719 91.171875 155.105469 91 Z M 187.621094 73.707031 L 186.183594 73.707031 L 186.355469 82.152344 L 187.621094 82.152344 Z M 178.027344 74.339844 L 176.589844 74.570312 L 177.855469 82.898438 L 179.121094 82.726562 Z M 173.261719 75.144531 C 172.800781 75.257812 172.285156 75.375 171.824219 75.429688 L 173.660156 83.644531 C 174.0625 83.53125 174.523438 83.472656 174.925781 83.359375 Z M 182.105469 73.9375 L 181.359375 73.996094 L 182.050781 82.382812 L 182.679688 82.324219 L 183.3125 82.265625 L 182.738281 73.824219 Z M 226.28125 95.019531 L 226.796875 95.421875 L 231.910156 88.699219 L 231.335938 88.242188 C 231.164062 88.070312 230.933594 87.953125 230.761719 87.839844 L 225.765625 94.617188 C 225.9375 94.789062 226.109375 94.90625 226.28125 95.019531 Z M 223.292969 92.953125 L 227.949219 85.941406 C 227.546875 85.65625 227.144531 85.425781 226.742188 85.140625 L 222.203125 92.261719 C 222.605469 92.433594 222.949219 92.722656 223.292969 92.953125 Z M 230.074219 98.121094 L 235.644531 91.800781 C 235.300781 91.457031 234.898438 91.171875 234.554688 90.882812 L 229.097656 97.316406 C 229.441406 97.546875 229.785156 97.835938 230.074219 98.121094 Z M 204.683594 75.71875 L 202.730469 83.933594 C 203.132812 84.046875 203.589844 84.105469 203.992188 84.21875 L 206.117188 76.0625 C 205.601562 75.949219 205.140625 75.832031 204.683594 75.71875 Z M 219.675781 90.652344 L 223.867188 83.359375 L 222.605469 82.667969 L 218.527344 90.078125 Z M 233.175781 101.050781 L 239.148438 95.078125 L 238.117188 94.042969 L 232.257812 100.132812 Z M 200.660156 74.914062 C 200.429688 74.855469 200.203125 74.855469 199.972656 74.800781 L 198.535156 83.128906 C 198.765625 83.1875 198.9375 83.1875 199.167969 83.242188 L 199.800781 83.359375 L 201.40625 75.085938 Z M 195.203125 74.109375 L 194.34375 82.496094 L 195.605469 82.667969 L 196.640625 74.28125 Z M 190.035156 82.210938 C 190.4375 82.210938 190.894531 82.210938 191.296875 82.265625 L 191.757812 73.824219 C 191.296875 73.765625 190.78125 73.765625 190.320312 73.765625 Z M 215.941406 88.699219 L 219.675781 81.117188 C 219.214844 80.886719 218.8125 80.714844 218.355469 80.484375 L 214.792969 88.125 C 215.136719 88.296875 215.539062 88.472656 215.941406 88.699219 Z M 210.714844 77.441406 L 209.335938 76.980469 L 206.808594 85.023438 L 208.015625 85.425781 Z M 215.253906 79.105469 C 214.792969 78.933594 214.332031 78.761719 213.875 78.589844 L 210.828125 86.460938 C 211.230469 86.632812 211.632812 86.746094 212.035156 86.917969 Z M 250.8125 133.851562 L 259.082031 132.1875 C 258.96875 131.726562 258.851562 131.210938 258.796875 130.75 L 250.582031 132.589844 C 250.636719 132.992188 250.753906 133.449219 250.8125 133.851562 Z M 249.835938 129.714844 L 257.992188 127.535156 C 257.875 127.074219 257.761719 126.613281 257.589844 126.15625 L 249.488281 128.511719 C 249.605469 128.855469 249.71875 129.3125 249.835938 129.714844 Z M 248.570312 125.636719 L 256.554688 122.878906 L 256.097656 121.5 L 248.167969 124.429688 Z M 251.5 138.046875 L 259.886719 136.953125 L 259.65625 135.519531 L 251.328125 136.78125 Z M 252.074219 146.546875 L 260.519531 146.546875 L 260.519531 145.113281 L 252.074219 145.285156 Z M 251.902344 141.664062 L 251.960938 142.296875 L 260.402344 141.722656 L 260.347656 140.976562 L 260.289062 140.230469 L 251.902344 140.917969 Z M 247.078125 121.675781 L 254.832031 118.398438 C 254.660156 117.941406 254.429688 117.539062 254.257812 117.078125 L 246.558594 120.523438 C 246.730469 120.871094 246.90625 121.273438 247.078125 121.675781 Z M 235.300781 103.234375 L 235.703125 103.695312 L 242.023438 98.0625 L 241.5625 97.546875 L 241.046875 97.03125 L 234.839844 102.773438 Z M 245.007812 117.195312 L 245.296875 117.769531 L 252.820312 113.976562 L 252.132812 112.710938 L 244.664062 116.617188 Z M 238.460938 106.96875 L 245.125 101.796875 C 244.835938 101.394531 244.492188 101.050781 244.203125 100.648438 L 237.65625 105.992188 C 237.941406 106.335938 238.230469 106.625 238.460938 106.96875 Z M 240.988281 110.414062 L 247.9375 105.648438 L 247.132812 104.441406 L 240.242188 109.324219 Z M 243.226562 114.035156 L 250.523438 109.78125 C 250.292969 109.382812 250.0625 108.921875 249.777344 108.519531 L 242.597656 112.941406 C 242.824219 113.289062 243.054688 113.6875 243.226562 114.035156 Z M 243.226562 114.035156 " fill-opacity="1" fill-rule="nonzero"/></g><g clip-path="url(#bd6cc01615)"><path fill="#100f0d" d="M 145.761719 167.039062 L 145.746094 161.4375 C 145.738281 159.535156 147.277344 157.984375 149.179688 157.976562 C 149.113281 137.050781 148.644531 137.140625 150.367188 137.132812 C 154.820312 120.300781 165.960938 114.179688 165.960938 114.179688 L 162.875 137.089844 C 164.398438 137.085938 163.980469 138.785156 164 143.558594 L 193.539062 143.46875 C 194.941406 141.335938 197.3125 140.050781 199.863281 140.046875 L 236.460938 138.222656 C 239.742188 138.058594 242.492188 140.671875 242.503906 143.957031 L 242.523438 150.105469 C 242.535156 153.394531 239.792969 156.019531 236.511719 155.878906 L 199.910156 154.285156 C 197.363281 154.289062 194.976562 153.019531 193.5625 150.902344 L 164.023438 150.992188 L 164.042969 157.929688 C 165.949219 157.921875 167.496094 159.464844 167.5 161.367188 L 167.519531 166.964844 C 167.523438 168.046875 166.652344 168.929688 165.570312 168.933594 L 147.722656 168.988281 C 146.640625 168.988281 145.761719 168.121094 145.761719 167.039062 " fill-opacity="1" fill-rule="nonzero"/></g><g clip-path="url(#2bb6a66c3b)"><path fill="#100f0d" d="M 188.398438 166.390625 L 188.398438 126.332031 C 196.863281 122.425781 196.964844 110.433594 188.597656 106.367188 L 188.597656 116.53125 C 188.597656 116.53125 184.164062 119.539062 183.785156 119.921875 C 183.402344 119.539062 178.96875 116.53125 178.96875 116.53125 L 178.96875 106.367188 C 170.585938 110.4375 170.722656 122.429688 179.164062 126.332031 L 179.164062 166.390625 C 170.707031 170.296875 170.605469 182.285156 178.96875 186.351562 L 178.96875 176.1875 C 178.96875 176.1875 183.402344 173.179688 183.785156 172.796875 C 184.164062 173.179688 188.597656 176.1875 188.597656 176.1875 L 188.597656 186.351562 C 196.980469 182.28125 196.84375 170.289062 188.398438 166.390625 " fill-opacity="1" fill-rule="nonzero"/></g><g fill="#000000" fill-opacity="1"><g transform="translate(13.899447, 288.238448)"><g><path d="M 6.53125 0.4375 C 6.289062 -0.425781 5.726562 -2.332031 4.84375 -5.28125 C 3.96875 -8.226562 3.082031 -11.113281 2.1875 -13.9375 C 2.03125 -14.445312 1.757812 -14.816406 1.375 -15.046875 C 1 -15.285156 0.488281 -15.410156 -0.15625 -15.421875 L -0.1875 -15.53125 L -0.03125 -16.65625 C 0.195312 -16.65625 0.601562 -16.640625 1.1875 -16.609375 C 1.78125 -16.585938 2.351562 -16.578125 2.90625 -16.578125 C 3.675781 -16.578125 4.441406 -16.613281 5.203125 -16.6875 C 5.960938 -16.769531 6.457031 -16.828125 6.6875 -16.859375 L 6.765625 -16.671875 L 6.65625 -15.65625 C 5.769531 -15.59375 5.175781 -15.488281 4.875 -15.34375 C 4.570312 -15.207031 4.421875 -14.957031 4.421875 -14.59375 C 4.421875 -14.300781 4.660156 -13.253906 5.140625 -11.453125 C 5.617188 -9.660156 6.113281 -7.863281 6.625 -6.0625 C 7.132812 -4.257812 7.46875 -3.082031 7.625 -2.53125 L 7.78125 -2.53125 L 11.453125 -12.515625 L 10.984375 -13.9375 C 10.804688 -14.445312 10.535156 -14.8125 10.171875 -15.03125 C 9.804688 -15.257812 9.296875 -15.390625 8.640625 -15.421875 L 8.578125 -15.53125 L 8.765625 -16.65625 C 8.992188 -16.65625 9.398438 -16.640625 9.984375 -16.609375 C 10.578125 -16.585938 11.148438 -16.578125 11.703125 -16.578125 C 12.367188 -16.578125 13.101562 -16.613281 13.90625 -16.6875 C 14.707031 -16.769531 15.234375 -16.828125 15.484375 -16.859375 L 15.5625 -16.671875 L 15.453125 -15.65625 C 14.546875 -15.59375 13.941406 -15.488281 13.640625 -15.34375 C 13.335938 -15.207031 13.1875 -14.945312 13.1875 -14.5625 C 13.1875 -14.195312 13.632812 -12.394531 14.53125 -9.15625 C 15.4375 -5.914062 16.066406 -3.707031 16.421875 -2.53125 L 16.578125 -2.53125 C 16.609375 -2.625 16.644531 -2.726562 16.6875 -2.84375 C 16.726562 -2.957031 16.773438 -3.09375 16.828125 -3.25 C 19.460938 -10.320312 20.78125 -14.113281 20.78125 -14.625 C 20.78125 -14.945312 20.640625 -15.175781 20.359375 -15.3125 C 20.085938 -15.457031 19.640625 -15.53125 19.015625 -15.53125 L 17.71875 -15.53125 L 17.671875 -15.640625 L 17.84375 -16.75 C 18.070312 -16.738281 18.554688 -16.707031 19.296875 -16.65625 C 20.046875 -16.601562 20.769531 -16.578125 21.46875 -16.578125 C 22.09375 -16.578125 22.660156 -16.582031 23.171875 -16.59375 C 23.691406 -16.613281 24.039062 -16.632812 24.21875 -16.65625 L 24.03125 -15.421875 C 23.519531 -15.390625 23.160156 -15.300781 22.953125 -15.15625 C 22.742188 -15.007812 22.550781 -14.679688 22.375 -14.171875 L 16.90625 -0.125 L 15.296875 0.4375 C 15.117188 -0.164062 14.710938 -1.5625 14.078125 -3.75 C 13.453125 -5.9375 12.773438 -8.21875 12.046875 -10.59375 L 11.890625 -10.59375 L 8.1875 -0.125 Z M 6.53125 0.4375 "/></g></g></g><g fill="#000000" fill-opacity="1"><g transform="translate(38.132292, 288.238448)"><g><path d="M 1.671875 -0.890625 C 2.460938 -1.046875 2.992188 -1.273438 3.265625 -1.578125 C 3.546875 -1.878906 3.6875 -2.394531 3.6875 -3.125 L 3.71875 -14.046875 C 3.71875 -14.597656 3.648438 -14.96875 3.515625 -15.15625 C 3.390625 -15.351562 3.132812 -15.453125 2.75 -15.453125 L 1.875 -15.40625 L 1.828125 -15.5 L 2 -16.65625 C 2.226562 -16.65625 2.40625 -16.644531 2.53125 -16.625 C 3.5625 -16.59375 4.347656 -16.578125 4.890625 -16.578125 C 5.617188 -16.578125 6.546875 -16.65625 7.671875 -16.8125 L 7.578125 -15.640625 C 7.054688 -15.546875 6.6875 -15.4375 6.46875 -15.3125 C 6.25 -15.195312 6.097656 -14.992188 6.015625 -14.703125 C 5.941406 -14.421875 5.890625 -13.953125 5.859375 -13.296875 L 5.703125 -9.078125 L 10.0625 -9.046875 C 11.15625 -9.046875 12.441406 -9.132812 13.921875 -9.3125 L 13.9375 -14.046875 C 13.9375 -14.597656 13.867188 -14.96875 13.734375 -15.15625 C 13.609375 -15.351562 13.359375 -15.453125 12.984375 -15.453125 C 12.742188 -15.453125 12.445312 -15.4375 12.09375 -15.40625 L 12.046875 -15.5 L 12.234375 -16.65625 C 12.421875 -16.632812 12.765625 -16.613281 13.265625 -16.59375 C 13.765625 -16.582031 14.269531 -16.578125 14.78125 -16.578125 C 15.613281 -16.578125 16.65625 -16.65625 17.90625 -16.8125 L 17.796875 -15.640625 C 17.148438 -15.546875 16.710938 -15.398438 16.484375 -15.203125 C 16.265625 -15.003906 16.144531 -14.65625 16.125 -14.15625 C 16.019531 -12.195312 15.929688 -10.09375 15.859375 -7.84375 C 15.796875 -5.59375 15.765625 -3.894531 15.765625 -2.75 C 15.765625 -2.113281 15.84375 -1.6875 16 -1.46875 C 16.15625 -1.25 16.457031 -1.140625 16.90625 -1.140625 C 17.113281 -1.140625 17.503906 -1.164062 18.078125 -1.21875 L 18.140625 -1.125 L 17.90625 0.078125 C 17.65625 0.078125 17.460938 0.0664062 17.328125 0.046875 C 16.179688 0.015625 15.304688 0 14.703125 0 L 11.703125 0.046875 L 11.9375 -1.125 C 12.507812 -1.132812 12.929688 -1.207031 13.203125 -1.34375 C 13.472656 -1.488281 13.660156 -1.75 13.765625 -2.125 C 13.867188 -2.507812 13.921875 -3.101562 13.921875 -3.90625 L 13.921875 -7.828125 L 9.96875 -7.859375 C 9.53125 -7.835938 8.921875 -7.804688 8.140625 -7.765625 C 7.359375 -7.722656 6.523438 -7.660156 5.640625 -7.578125 L 5.546875 -2.90625 C 5.546875 -2.195312 5.625 -1.722656 5.78125 -1.484375 C 5.9375 -1.253906 6.238281 -1.140625 6.6875 -1.140625 C 6.894531 -1.140625 7.285156 -1.164062 7.859375 -1.21875 L 7.90625 -1.125 L 7.671875 0.078125 C 7.515625 0.0546875 7.21875 0.0351562 6.78125 0.015625 C 6.351562 0.00390625 5.914062 0 5.46875 0 C 4.664062 0 3.804688 0.03125 2.890625 0.09375 C 1.984375 0.164062 1.523438 0.238281 1.515625 0.3125 Z M 1.671875 -0.890625 "/></g></g></g><g fill="#000000" fill-opacity="1"><g transform="translate(57.736977, 288.238448)"><g><path d="M 3.90625 -0.890625 C 4.53125 -1.003906 4.976562 -1.15625 5.25 -1.34375 C 5.53125 -1.539062 5.710938 -1.800781 5.796875 -2.125 C 5.890625 -2.457031 5.9375 -2.976562 5.9375 -3.6875 L 5.9375 -4.84375 C 5.9375 -5.375 5.882812 -5.84375 5.78125 -6.25 C 5.675781 -6.664062 5.472656 -7.175781 5.171875 -7.78125 L 2.828125 -12.546875 C 2.378906 -13.460938 2.0625 -14.078125 1.875 -14.390625 C 1.6875 -14.710938 1.414062 -14.96875 1.0625 -15.15625 C 0.71875 -15.351562 0.21875 -15.476562 -0.4375 -15.53125 L -0.5 -15.640625 L -0.34375 -16.65625 C -0.144531 -16.632812 0.21875 -16.613281 0.75 -16.59375 C 1.289062 -16.582031 1.882812 -16.578125 2.53125 -16.578125 C 3.132812 -16.578125 3.835938 -16.601562 4.640625 -16.65625 C 5.453125 -16.71875 5.976562 -16.757812 6.21875 -16.78125 L 6.296875 -16.59375 L 6.21875 -15.6875 C 5.4375 -15.613281 4.910156 -15.507812 4.640625 -15.375 C 4.367188 -15.25 4.234375 -15.039062 4.234375 -14.75 C 4.234375 -14.519531 4.453125 -13.898438 4.890625 -12.890625 C 5.328125 -11.890625 5.773438 -10.90625 6.234375 -9.9375 C 6.691406 -8.96875 7 -8.332031 7.15625 -8.03125 L 7.28125 -8.03125 L 10.25 -13.546875 C 10.53125 -14.054688 10.671875 -14.492188 10.671875 -14.859375 C 10.671875 -15.304688 10.125 -15.566406 9.03125 -15.640625 L 8.96875 -15.734375 L 9.125 -16.75 C 9.332031 -16.738281 9.765625 -16.707031 10.421875 -16.65625 C 11.085938 -16.601562 11.617188 -16.578125 12.015625 -16.578125 C 12.429688 -16.578125 12.894531 -16.585938 13.40625 -16.609375 C 13.914062 -16.640625 14.25 -16.660156 14.40625 -16.671875 L 14.515625 -16.5 L 14.359375 -15.53125 C 13.804688 -15.425781 13.375 -15.28125 13.0625 -15.09375 C 12.75 -14.914062 12.472656 -14.65625 12.234375 -14.3125 C 12.003906 -13.976562 11.664062 -13.414062 11.21875 -12.625 C 11.113281 -12.414062 11.023438 -12.257812 10.953125 -12.15625 L 8.34375 -7.578125 C 8.125 -7.171875 7.984375 -6.71875 7.921875 -6.21875 C 7.859375 -5.71875 7.8125 -4.804688 7.78125 -3.484375 L 7.78125 -2.90625 C 7.757812 -2.238281 7.832031 -1.773438 8 -1.515625 C 8.164062 -1.265625 8.472656 -1.140625 8.921875 -1.140625 C 9.203125 -1.140625 9.460938 -1.148438 9.703125 -1.171875 C 9.941406 -1.191406 10.109375 -1.207031 10.203125 -1.21875 L 10.25 -1.125 L 10.015625 0.078125 C 9.773438 0.0546875 9.328125 0.0351562 8.671875 0.015625 C 8.023438 0.00390625 7.375 0 6.71875 0 C 6.175781 0 5.59375 0.0390625 4.96875 0.125 C 4.34375 0.21875 3.9375 0.28125 3.75 0.3125 Z M 3.90625 -0.890625 "/></g></g></g><g fill="#000000" fill-opacity="1"><g transform="translate(71.725472, 288.238448)"><g/></g></g><g fill="#000000" fill-opacity="1"><g transform="translate(76.873647, 288.238448)"><g><path d="M 5.703125 0.3125 C 4.972656 0.3125 4.300781 0.242188 3.6875 0.109375 C 3.082031 -0.015625 2.582031 -0.15625 2.1875 -0.3125 C 1.800781 -0.46875 1.609375 -0.554688 1.609375 -0.578125 L 1.484375 -0.828125 C 1.503906 -0.929688 1.539062 -1.191406 1.59375 -1.609375 C 1.644531 -2.023438 1.691406 -2.566406 1.734375 -3.234375 C 1.773438 -3.898438 1.796875 -4.609375 1.796875 -5.359375 L 2.96875 -5.484375 C 2.96875 -4.179688 3.050781 -3.21875 3.21875 -2.59375 C 3.394531 -1.976562 3.71875 -1.550781 4.1875 -1.3125 C 4.65625 -1.082031 5.375 -0.96875 6.34375 -0.96875 C 7.4375 -0.96875 8.3125 -1.222656 8.96875 -1.734375 C 9.632812 -2.242188 9.96875 -2.941406 9.96875 -3.828125 C 9.96875 -4.347656 9.785156 -4.816406 9.421875 -5.234375 C 9.066406 -5.648438 8.644531 -6.003906 8.15625 -6.296875 C 7.675781 -6.585938 6.960938 -6.988281 6.015625 -7.5 C 5.109375 -7.957031 4.367188 -8.378906 3.796875 -8.765625 C 3.222656 -9.160156 2.738281 -9.628906 2.34375 -10.171875 C 1.957031 -10.710938 1.765625 -11.335938 1.765625 -12.046875 C 1.765625 -12.941406 2.03125 -13.757812 2.5625 -14.5 C 3.09375 -15.238281 3.8125 -15.820312 4.71875 -16.25 C 5.632812 -16.675781 6.644531 -16.890625 7.75 -16.890625 C 8.445312 -16.890625 9.085938 -16.835938 9.671875 -16.734375 C 10.265625 -16.640625 10.734375 -16.539062 11.078125 -16.4375 C 11.429688 -16.332031 11.648438 -16.265625 11.734375 -16.234375 L 11.8125 -16.078125 C 11.789062 -15.972656 11.742188 -15.726562 11.671875 -15.34375 C 11.609375 -14.96875 11.53125 -14.441406 11.4375 -13.765625 C 11.351562 -13.085938 11.285156 -12.394531 11.234375 -11.6875 L 10.21875 -11.578125 L 10.0625 -11.703125 C 10.082031 -11.773438 10.097656 -11.9375 10.109375 -12.1875 C 10.128906 -12.4375 10.140625 -12.726562 10.140625 -13.0625 C 10.140625 -13.976562 9.914062 -14.609375 9.46875 -14.953125 C 9.019531 -15.304688 8.210938 -15.484375 7.046875 -15.484375 C 6.097656 -15.484375 5.3125 -15.242188 4.6875 -14.765625 C 4.070312 -14.285156 3.765625 -13.691406 3.765625 -12.984375 C 3.765625 -12.285156 4.0625 -11.679688 4.65625 -11.171875 C 5.257812 -10.660156 6.144531 -10.101562 7.3125 -9.5 C 8.4375 -8.925781 9.289062 -8.453125 9.875 -8.078125 C 10.46875 -7.703125 10.988281 -7.238281 11.4375 -6.6875 C 11.894531 -6.132812 12.125 -5.492188 12.125 -4.765625 C 12.125 -3.785156 11.847656 -2.910156 11.296875 -2.140625 C 10.753906 -1.367188 10 -0.765625 9.03125 -0.328125 C 8.0625 0.0976562 6.953125 0.3125 5.703125 0.3125 Z M 5.703125 0.3125 "/></g></g></g><g fill="#000000" fill-opacity="1"><g transform="translate(90.654129, 288.238448)"><g><path d="M 13.84375 -4.34375 C 13.539062 -2.9375 13.304688 -1.476562 13.140625 0.03125 L 13 0.1875 C 9.363281 0.0625 6.738281 0 5.125 0 C 3.84375 0 2.640625 0.0859375 1.515625 0.265625 L 1.671875 -0.9375 C 2.441406 -1.039062 2.96875 -1.242188 3.25 -1.546875 C 3.539062 -1.847656 3.6875 -2.375 3.6875 -3.125 L 3.71875 -14.046875 C 3.71875 -14.597656 3.648438 -14.96875 3.515625 -15.15625 C 3.390625 -15.351562 3.132812 -15.453125 2.75 -15.453125 L 1.875 -15.40625 L 1.828125 -15.5 L 2 -16.65625 C 3.769531 -16.601562 4.976562 -16.578125 5.625 -16.578125 C 7.6875 -16.578125 9.289062 -16.597656 10.4375 -16.640625 C 11.582031 -16.679688 12.578125 -16.765625 13.421875 -16.890625 L 13.5 -16.734375 C 13.1875 -15.359375 12.988281 -13.914062 12.90625 -12.40625 L 11.65625 -12.3125 L 11.703125 -13.421875 C 11.703125 -14.023438 11.625 -14.441406 11.46875 -14.671875 C 11.3125 -14.910156 10.972656 -15.066406 10.453125 -15.140625 C 9.929688 -15.222656 9.023438 -15.265625 7.734375 -15.265625 C 7.117188 -15.265625 6.695312 -15.25 6.46875 -15.21875 C 6.25 -15.1875 6.101562 -15.101562 6.03125 -14.96875 C 5.96875 -14.84375 5.925781 -14.601562 5.90625 -14.25 L 5.703125 -9.203125 L 8.375 -9.1875 C 9.050781 -9.1875 10.109375 -9.28125 11.546875 -9.46875 L 11.65625 -9.34375 L 11.296875 -7.796875 C 9.367188 -7.847656 8.15625 -7.875 7.65625 -7.875 C 7.082031 -7.875 6.410156 -7.816406 5.640625 -7.703125 L 5.546875 -2.734375 C 5.546875 -2.234375 5.585938 -1.878906 5.671875 -1.671875 C 5.753906 -1.472656 5.929688 -1.335938 6.203125 -1.265625 C 6.472656 -1.203125 6.9375 -1.171875 7.59375 -1.171875 C 9.050781 -1.171875 10.085938 -1.238281 10.703125 -1.375 C 11.316406 -1.519531 11.753906 -1.796875 12.015625 -2.203125 C 12.273438 -2.617188 12.476562 -3.332031 12.625 -4.34375 L 13.765625 -4.46875 Z M 13.84375 -4.34375 "/></g></g></g><g fill="#000000" fill-opacity="1"><g transform="translate(106.020668, 288.238448)"><g><path d="M 8.5625 0.078125 L 8.65625 -0.9375 C 9.539062 -1.007812 10.148438 -1.113281 10.484375 -1.25 C 10.816406 -1.382812 10.984375 -1.609375 10.984375 -1.921875 C 10.984375 -2.273438 10.90625 -2.691406 10.75 -3.171875 L 9.890625 -6.015625 C 9.472656 -6.023438 8.570312 -6.03125 7.1875 -6.03125 C 6.351562 -6.03125 5.40625 -5.960938 4.34375 -5.828125 L 3.375 -3.125 C 3.21875 -2.65625 3.140625 -2.316406 3.140625 -2.109375 C 3.140625 -1.722656 3.257812 -1.445312 3.5 -1.28125 C 3.75 -1.125 4.148438 -1.046875 4.703125 -1.046875 L 6.1875 -1.046875 L 6.25 -0.9375 L 6.09375 0.1875 C 5.882812 0.164062 5.40625 0.128906 4.65625 0.078125 C 3.90625 0.0234375 3.175781 0 2.46875 0 C 1.832031 0 1.238281 0.00390625 0.6875 0.015625 C 0.144531 0.0351562 -0.210938 0.0546875 -0.390625 0.078125 L -0.1875 -1.140625 C 0.300781 -1.191406 0.691406 -1.359375 0.984375 -1.640625 C 1.285156 -1.929688 1.570312 -2.429688 1.84375 -3.140625 L 6.921875 -16.4375 L 8.5625 -16.890625 L 8.765625 -16.890625 C 8.867188 -16.472656 9.132812 -15.507812 9.5625 -14 C 9.988281 -12.488281 10.507812 -10.703125 11.125 -8.640625 C 11.738281 -6.578125 12.332031 -4.675781 12.90625 -2.9375 C 13.113281 -2.300781 13.390625 -1.851562 13.734375 -1.59375 C 14.078125 -1.332031 14.632812 -1.164062 15.40625 -1.09375 L 15.453125 -0.984375 L 15.265625 0.078125 C 15.054688 0.078125 14.675781 0.0625 14.125 0.03125 C 13.582031 0.0078125 13.046875 0 12.515625 0 C 11.679688 0 10.878906 0.03125 10.109375 0.09375 C 9.335938 0.164062 8.847656 0.222656 8.640625 0.265625 Z M 7.109375 -7.109375 C 7.722656 -7.109375 8.523438 -7.148438 9.515625 -7.234375 L 7.46875 -14.046875 L 7.28125 -14.046875 L 4.8125 -7.109375 Z M 7.109375 -7.109375 "/></g></g></g><g fill="#000000" fill-opacity="1"><g transform="translate(121.205206, 288.238448)"><g><path d="M 13.3125 0.421875 C 12.882812 0.421875 12.421875 0.203125 11.921875 -0.234375 C 11.429688 -0.679688 10.976562 -1.289062 10.5625 -2.0625 L 7.78125 -7.109375 L 5.625 -7.109375 L 5.546875 -3.21875 C 5.546875 -2.5625 5.585938 -2.085938 5.671875 -1.796875 C 5.753906 -1.515625 5.914062 -1.328125 6.15625 -1.234375 C 6.40625 -1.140625 6.828125 -1.09375 7.421875 -1.09375 L 7.46875 -0.984375 L 7.234375 0.109375 C 7.023438 0.0859375 6.609375 0.0664062 5.984375 0.046875 C 5.359375 0.0351562 4.707031 0.03125 4.03125 0.03125 C 3.425781 0.03125 2.890625 0.0351562 2.421875 0.046875 C 1.953125 0.0664062 1.640625 0.0859375 1.484375 0.109375 L 1.71875 -1.0625 C 2.269531 -1.132812 2.679688 -1.226562 2.953125 -1.34375 C 3.234375 -1.46875 3.425781 -1.664062 3.53125 -1.9375 C 3.632812 -2.207031 3.6875 -2.601562 3.6875 -3.125 L 3.71875 -14.046875 C 3.71875 -14.597656 3.648438 -14.96875 3.515625 -15.15625 C 3.390625 -15.351562 3.132812 -15.453125 2.75 -15.453125 C 2.582031 -15.453125 2.410156 -15.441406 2.234375 -15.421875 C 2.066406 -15.410156 1.945312 -15.40625 1.875 -15.40625 L 1.828125 -15.5 L 2 -16.65625 C 2.207031 -16.632812 2.597656 -16.613281 3.171875 -16.59375 C 3.742188 -16.582031 4.316406 -16.578125 4.890625 -16.578125 C 5.484375 -16.578125 6.101562 -16.585938 6.75 -16.609375 C 7.40625 -16.640625 7.851562 -16.660156 8.09375 -16.671875 C 9.707031 -16.671875 10.976562 -16.304688 11.90625 -15.578125 C 12.84375 -14.847656 13.3125 -13.851562 13.3125 -12.59375 C 13.3125 -11.550781 12.976562 -10.59375 12.3125 -9.71875 C 11.644531 -8.851562 10.707031 -8.144531 9.5 -7.59375 L 12.359375 -3.0625 C 12.859375 -2.238281 13.347656 -1.664062 13.828125 -1.34375 C 14.304688 -1.019531 14.890625 -0.859375 15.578125 -0.859375 L 15.6875 -0.75 L 15.53125 0.125 Z M 8.34375 -8.296875 C 8.34375 -8.242188 8.601562 -8.351562 9.125 -8.625 C 9.644531 -8.90625 10.113281 -9.332031 10.53125 -9.90625 C 10.945312 -10.476562 11.15625 -11.21875 11.15625 -12.125 C 11.15625 -14.414062 9.570312 -15.5625 6.40625 -15.5625 C 6.226562 -15.5625 6.109375 -15.519531 6.046875 -15.4375 C 5.984375 -15.363281 5.945312 -15.203125 5.9375 -14.953125 C 5.78125 -12.304688 5.691406 -10.175781 5.671875 -8.5625 Z M 8.34375 -8.296875 "/></g></g></g><g fill="#000000" fill-opacity="1"><g transform="translate(137.09176, 288.238448)"><g><path d="M 8.8125 0.3125 C 7.257812 0.3125 5.890625 -0.015625 4.703125 -0.671875 C 3.523438 -1.335938 2.617188 -2.269531 1.984375 -3.46875 C 1.359375 -4.675781 1.046875 -6.097656 1.046875 -7.734375 C 1.046875 -9.460938 1.429688 -11.023438 2.203125 -12.421875 C 2.984375 -13.816406 4.0625 -14.910156 5.4375 -15.703125 C 6.820312 -16.492188 8.382812 -16.890625 10.125 -16.890625 C 10.757812 -16.890625 11.410156 -16.835938 12.078125 -16.734375 C 12.742188 -16.640625 13.304688 -16.546875 13.765625 -16.453125 C 14.234375 -16.359375 14.523438 -16.296875 14.640625 -16.265625 L 14.75 -16.109375 C 14.71875 -16.003906 14.660156 -15.75 14.578125 -15.34375 C 14.503906 -14.945312 14.414062 -14.425781 14.3125 -13.78125 C 14.21875 -13.144531 14.144531 -12.472656 14.09375 -11.765625 L 12.859375 -11.65625 C 12.867188 -11.738281 12.882812 -11.894531 12.90625 -12.125 C 12.925781 -12.363281 12.9375 -12.632812 12.9375 -12.9375 C 12.9375 -14.539062 11.660156 -15.34375 9.109375 -15.34375 C 7.960938 -15.34375 6.953125 -15.066406 6.078125 -14.515625 C 5.210938 -13.960938 4.546875 -13.175781 4.078125 -12.15625 C 3.609375 -11.144531 3.375 -9.953125 3.375 -8.578125 C 3.375 -7.078125 3.617188 -5.753906 4.109375 -4.609375 C 4.609375 -3.460938 5.3125 -2.570312 6.21875 -1.9375 C 7.125 -1.300781 8.164062 -0.984375 9.34375 -0.984375 C 10.519531 -0.984375 11.46875 -1.316406 12.1875 -1.984375 C 12.90625 -2.648438 13.429688 -3.6875 13.765625 -5.09375 L 15.015625 -5.203125 C 14.960938 -4.941406 14.847656 -4.363281 14.671875 -3.46875 C 14.492188 -2.582031 14.375 -1.75 14.3125 -0.96875 L 14.15625 -0.734375 C 14.15625 -0.710938 13.890625 -0.609375 13.359375 -0.421875 C 12.828125 -0.242188 12.164062 -0.078125 11.375 0.078125 C 10.59375 0.234375 9.738281 0.3125 8.8125 0.3125 Z M 8.8125 0.3125 "/></g></g></g><g fill="#000000" fill-opacity="1"><g transform="translate(153.368328, 288.238448)"><g><path d="M 1.671875 -0.890625 C 2.460938 -1.046875 2.992188 -1.273438 3.265625 -1.578125 C 3.546875 -1.878906 3.6875 -2.394531 3.6875 -3.125 L 3.71875 -14.046875 C 3.71875 -14.597656 3.648438 -14.96875 3.515625 -15.15625 C 3.390625 -15.351562 3.132812 -15.453125 2.75 -15.453125 L 1.875 -15.40625 L 1.828125 -15.5 L 2 -16.65625 C 2.226562 -16.65625 2.40625 -16.644531 2.53125 -16.625 C 3.5625 -16.59375 4.347656 -16.578125 4.890625 -16.578125 C 5.617188 -16.578125 6.546875 -16.65625 7.671875 -16.8125 L 7.578125 -15.640625 C 7.054688 -15.546875 6.6875 -15.4375 6.46875 -15.3125 C 6.25 -15.195312 6.097656 -14.992188 6.015625 -14.703125 C 5.941406 -14.421875 5.890625 -13.953125 5.859375 -13.296875 L 5.703125 -9.078125 L 10.0625 -9.046875 C 11.15625 -9.046875 12.441406 -9.132812 13.921875 -9.3125 L 13.9375 -14.046875 C 13.9375 -14.597656 13.867188 -14.96875 13.734375 -15.15625 C 13.609375 -15.351562 13.359375 -15.453125 12.984375 -15.453125 C 12.742188 -15.453125 12.445312 -15.4375 12.09375 -15.40625 L 12.046875 -15.5 L 12.234375 -16.65625 C 12.421875 -16.632812 12.765625 -16.613281 13.265625 -16.59375 C 13.765625 -16.582031 14.269531 -16.578125 14.78125 -16.578125 C 15.613281 -16.578125 16.65625 -16.65625 17.90625 -16.8125 L 17.796875 -15.640625 C 17.148438 -15.546875 16.710938 -15.398438 16.484375 -15.203125 C 16.265625 -15.003906 16.144531 -14.65625 16.125 -14.15625 C 16.019531 -12.195312 15.929688 -10.09375 15.859375 -7.84375 C 15.796875 -5.59375 15.765625 -3.894531 15.765625 -2.75 C 15.765625 -2.113281 15.84375 -1.6875 16 -1.46875 C 16.15625 -1.25 16.457031 -1.140625 16.90625 -1.140625 C 17.113281 -1.140625 17.503906 -1.164062 18.078125 -1.21875 L 18.140625 -1.125 L 17.90625 0.078125 C 17.65625 0.078125 17.460938 0.0664062 17.328125 0.046875 C 16.179688 0.015625 15.304688 0 14.703125 0 L 11.703125 0.046875 L 11.9375 -1.125 C 12.507812 -1.132812 12.929688 -1.207031 13.203125 -1.34375 C 13.472656 -1.488281 13.660156 -1.75 13.765625 -2.125 C 13.867188 -2.507812 13.921875 -3.101562 13.921875 -3.90625 L 13.921875 -7.828125 L 9.96875 -7.859375 C 9.53125 -7.835938 8.921875 -7.804688 8.140625 -7.765625 C 7.359375 -7.722656 6.523438 -7.660156 5.640625 -7.578125 L 5.546875 -2.90625 C 5.546875 -2.195312 5.625 -1.722656 5.78125 -1.484375 C 5.9375 -1.253906 6.238281 -1.140625 6.6875 -1.140625 C 6.894531 -1.140625 7.285156 -1.164062 7.859375 -1.21875 L 7.90625 -1.125 L 7.671875 0.078125 C 7.515625 0.0546875 7.21875 0.0351562 6.78125 0.015625 C 6.351562 0.00390625 5.914062 0 5.46875 0 C 4.664062 0 3.804688 0.03125 2.890625 0.09375 C 1.984375 0.164062 1.523438 0.238281 1.515625 0.3125 Z M 1.671875 -0.890625 "/></g></g></g><g fill="#000000" fill-opacity="1"><g transform="translate(172.973013, 288.238448)"><g><path d="M 2.8125 -5.28125 L 2.1875 -8.40625 L 2.265625 -8.765625 L 5.359375 -10.75 C 6.347656 -11.425781 6.84375 -12.171875 6.84375 -12.984375 C 6.84375 -14.003906 6.375 -14.785156 5.4375 -15.328125 C 4.5 -15.878906 3.207031 -16.195312 1.5625 -16.28125 L 1.515625 -16.578125 L 2.375 -17.953125 L 2.734375 -18.0625 C 3.785156 -18.019531 4.757812 -17.804688 5.65625 -17.421875 C 6.550781 -17.046875 7.257812 -16.535156 7.78125 -15.890625 C 8.300781 -15.253906 8.5625 -14.546875 8.5625 -13.765625 C 8.5625 -13.015625 8.410156 -12.367188 8.109375 -11.828125 C 7.816406 -11.296875 7.457031 -10.851562 7.03125 -10.5 C 6.613281 -10.144531 6.039062 -9.734375 5.3125 -9.265625 C 4.820312 -8.953125 4.460938 -8.707031 4.234375 -8.53125 L 4.15625 -8.296875 L 4.703125 -5.828125 L 4.625 -5.625 L 3.046875 -5.171875 Z M 3.71875 0.3125 C 3.25 0.3125 2.890625 0.171875 2.640625 -0.109375 C 2.390625 -0.398438 2.265625 -0.753906 2.265625 -1.171875 C 2.265625 -1.617188 2.410156 -2 2.703125 -2.3125 C 2.992188 -2.625 3.382812 -2.78125 3.875 -2.78125 C 4.34375 -2.78125 4.707031 -2.632812 4.96875 -2.34375 C 5.226562 -2.0625 5.359375 -1.710938 5.359375 -1.296875 C 5.359375 -0.847656 5.207031 -0.46875 4.90625 -0.15625 C 4.601562 0.15625 4.207031 0.3125 3.71875 0.3125 Z M 3.71875 0.3125 "/></g></g></g><g fill="#000000" fill-opacity="1"><g transform="translate(182.333348, 288.238448)"><g/></g></g><g fill="#000000" fill-opacity="1"><g transform="translate(187.481523, 288.238448)"><g><path d="M 0.59375 2.890625 L 0.671875 2.671875 C 1.390625 2.242188 1.941406 1.789062 2.328125 1.3125 C 2.710938 0.832031 2.988281 0.257812 3.15625 -0.40625 C 3.320312 -1.070312 3.40625 -1.929688 3.40625 -2.984375 L 3.4375 -14.046875 C 3.4375 -14.597656 3.375 -14.960938 3.25 -15.140625 C 3.125 -15.328125 2.863281 -15.421875 2.46875 -15.421875 C 2.257812 -15.421875 2.03125 -15.40625 1.78125 -15.375 C 1.53125 -15.351562 1.351562 -15.335938 1.25 -15.328125 L 1.203125 -15.421875 L 1.375 -16.578125 L 4.1875 -16.578125 C 4.65625 -16.578125 5.222656 -16.601562 5.890625 -16.65625 C 6.554688 -16.71875 6.992188 -16.769531 7.203125 -16.8125 L 7.109375 -15.640625 C 6.671875 -15.566406 6.351562 -15.484375 6.15625 -15.390625 C 5.96875 -15.304688 5.832031 -15.171875 5.75 -14.984375 C 5.675781 -14.804688 5.632812 -14.53125 5.625 -14.15625 C 5.550781 -12.539062 5.484375 -10.664062 5.421875 -8.53125 C 5.359375 -6.394531 5.3125 -4.554688 5.28125 -3.015625 C 5.257812 -1.242188 4.914062 0.171875 4.25 1.234375 C 3.582031 2.296875 2.515625 3.132812 1.046875 3.75 Z M 0.59375 2.890625 "/></g></g></g><g fill="#000000" fill-opacity="1"><g transform="translate(195.983815, 288.238448)"><g><path d="M 8.5 0.3125 C 6.6875 0.3125 5.285156 -0.179688 4.296875 -1.171875 C 3.304688 -2.171875 2.8125 -3.59375 2.8125 -5.4375 L 2.8125 -14.046875 C 2.8125 -14.597656 2.742188 -14.96875 2.609375 -15.15625 C 2.484375 -15.351562 2.226562 -15.453125 1.84375 -15.453125 C 1.675781 -15.453125 1.503906 -15.441406 1.328125 -15.421875 C 1.148438 -15.410156 1.03125 -15.40625 0.96875 -15.40625 L 0.90625 -15.5 L 1.09375 -16.65625 C 1.300781 -16.632812 1.691406 -16.613281 2.265625 -16.59375 C 2.847656 -16.582031 3.4375 -16.578125 4.03125 -16.578125 C 4.5 -16.578125 5.023438 -16.601562 5.609375 -16.65625 C 6.203125 -16.71875 6.585938 -16.769531 6.765625 -16.8125 L 6.65625 -15.640625 C 6.019531 -15.546875 5.59375 -15.398438 5.375 -15.203125 C 5.15625 -15.003906 5.03125 -14.65625 5 -14.15625 L 4.78125 -6.5 C 4.78125 -4.78125 5.15625 -3.460938 5.90625 -2.546875 C 6.65625 -1.628906 7.726562 -1.171875 9.125 -1.171875 C 10.550781 -1.171875 11.632812 -1.546875 12.375 -2.296875 C 13.125 -3.054688 13.5 -4.144531 13.5 -5.5625 C 13.476562 -6.957031 13.453125 -8.539062 13.421875 -10.3125 C 13.390625 -12.09375 13.363281 -13.335938 13.34375 -14.046875 C 13.3125 -14.648438 13.238281 -15.035156 13.125 -15.203125 C 13.007812 -15.367188 12.765625 -15.453125 12.390625 -15.453125 C 12.179688 -15.453125 11.960938 -15.441406 11.734375 -15.421875 C 11.503906 -15.410156 11.347656 -15.40625 11.265625 -15.40625 L 11.21875 -15.5 L 11.390625 -16.65625 C 11.597656 -16.632812 11.992188 -16.613281 12.578125 -16.59375 C 13.160156 -16.582031 13.742188 -16.578125 14.328125 -16.578125 C 14.796875 -16.578125 15.296875 -16.601562 15.828125 -16.65625 C 16.359375 -16.71875 16.703125 -16.769531 16.859375 -16.8125 L 16.75 -15.640625 C 16.226562 -15.566406 15.84375 -15.484375 15.59375 -15.390625 C 15.34375 -15.296875 15.171875 -15.15625 15.078125 -14.96875 C 14.992188 -14.789062 14.953125 -14.519531 14.953125 -14.15625 L 14.953125 -5.40625 C 14.953125 -3.582031 14.390625 -2.171875 13.265625 -1.171875 C 12.140625 -0.179688 10.550781 0.3125 8.5 0.3125 Z M 8.5 0.3125 "/></g></g></g><g fill="#000000" fill-opacity="1"><g transform="translate(213.690441, 288.238448)"><g><path d="M 5.703125 0.3125 C 4.972656 0.3125 4.300781 0.242188 3.6875 0.109375 C 3.082031 -0.015625 2.582031 -0.15625 2.1875 -0.3125 C 1.800781 -0.46875 1.609375 -0.554688 1.609375 -0.578125 L 1.484375 -0.828125 C 1.503906 -0.929688 1.539062 -1.191406 1.59375 -1.609375 C 1.644531 -2.023438 1.691406 -2.566406 1.734375 -3.234375 C 1.773438 -3.898438 1.796875 -4.609375 1.796875 -5.359375 L 2.96875 -5.484375 C 2.96875 -4.179688 3.050781 -3.21875 3.21875 -2.59375 C 3.394531 -1.976562 3.71875 -1.550781 4.1875 -1.3125 C 4.65625 -1.082031 5.375 -0.96875 6.34375 -0.96875 C 7.4375 -0.96875 8.3125 -1.222656 8.96875 -1.734375 C 9.632812 -2.242188 9.96875 -2.941406 9.96875 -3.828125 C 9.96875 -4.347656 9.785156 -4.816406 9.421875 -5.234375 C 9.066406 -5.648438 8.644531 -6.003906 8.15625 -6.296875 C 7.675781 -6.585938 6.960938 -6.988281 6.015625 -7.5 C 5.109375 -7.957031 4.367188 -8.378906 3.796875 -8.765625 C 3.222656 -9.160156 2.738281 -9.628906 2.34375 -10.171875 C 1.957031 -10.710938 1.765625 -11.335938 1.765625 -12.046875 C 1.765625 -12.941406 2.03125 -13.757812 2.5625 -14.5 C 3.09375 -15.238281 3.8125 -15.820312 4.71875 -16.25 C 5.632812 -16.675781 6.644531 -16.890625 7.75 -16.890625 C 8.445312 -16.890625 9.085938 -16.835938 9.671875 -16.734375 C 10.265625 -16.640625 10.734375 -16.539062 11.078125 -16.4375 C 11.429688 -16.332031 11.648438 -16.265625 11.734375 -16.234375 L 11.8125 -16.078125 C 11.789062 -15.972656 11.742188 -15.726562 11.671875 -15.34375 C 11.609375 -14.96875 11.53125 -14.441406 11.4375 -13.765625 C 11.351562 -13.085938 11.285156 -12.394531 11.234375 -11.6875 L 10.21875 -11.578125 L 10.0625 -11.703125 C 10.082031 -11.773438 10.097656 -11.9375 10.109375 -12.1875 C 10.128906 -12.4375 10.140625 -12.726562 10.140625 -13.0625 C 10.140625 -13.976562 9.914062 -14.609375 9.46875 -14.953125 C 9.019531 -15.304688 8.210938 -15.484375 7.046875 -15.484375 C 6.097656 -15.484375 5.3125 -15.242188 4.6875 -14.765625 C 4.070312 -14.285156 3.765625 -13.691406 3.765625 -12.984375 C 3.765625 -12.285156 4.0625 -11.679688 4.65625 -11.171875 C 5.257812 -10.660156 6.144531 -10.101562 7.3125 -9.5 C 8.4375 -8.925781 9.289062 -8.453125 9.875 -8.078125 C 10.46875 -7.703125 10.988281 -7.238281 11.4375 -6.6875 C 11.894531 -6.132812 12.125 -5.492188 12.125 -4.765625 C 12.125 -3.785156 11.847656 -2.910156 11.296875 -2.140625 C 10.753906 -1.367188 10 -0.765625 9.03125 -0.328125 C 8.0625 0.0976562 6.953125 0.3125 5.703125 0.3125 Z M 5.703125 0.3125 "/></g></g></g><g fill="#000000" fill-opacity="1"><g transform="translate(227.470922, 288.238448)"><g><path d="M 3.453125 -1.015625 C 4.328125 -1.085938 4.925781 -1.195312 5.25 -1.34375 C 5.582031 -1.488281 5.800781 -1.753906 5.90625 -2.140625 C 6.007812 -2.535156 6.0625 -3.226562 6.0625 -4.21875 L 6.0625 -15.5625 C 4.582031 -15.507812 3.578125 -15.425781 3.046875 -15.3125 C 2.523438 -15.195312 2.164062 -14.941406 1.96875 -14.546875 C 1.78125 -14.160156 1.609375 -13.40625 1.453125 -12.28125 L 0.234375 -12.171875 C 0.441406 -13.816406 0.570312 -15.316406 0.625 -16.671875 L 0.859375 -16.890625 L 3.015625 -16.59375 L 11.078125 -16.59375 L 13.296875 -16.890625 L 13.53125 -16.671875 C 13.582031 -15.253906 13.710938 -13.789062 13.921875 -12.28125 L 12.703125 -12.171875 C 12.503906 -13.316406 12.3125 -14.085938 12.125 -14.484375 C 11.9375 -14.890625 11.597656 -15.148438 11.109375 -15.265625 C 10.617188 -15.390625 9.679688 -15.488281 8.296875 -15.5625 C 8.191406 -14.519531 8.09375 -12.679688 8 -10.046875 C 7.914062 -7.410156 7.875 -5.03125 7.875 -2.90625 C 7.875 -2.269531 7.988281 -1.816406 8.21875 -1.546875 C 8.445312 -1.273438 8.828125 -1.140625 9.359375 -1.140625 C 9.878906 -1.140625 10.359375 -1.164062 10.796875 -1.21875 L 10.875 -1.125 L 10.640625 0.078125 L 9.78125 0.046875 L 6.8125 0 C 5.863281 0 4.675781 0.0351562 3.25 0.109375 Z M 3.453125 -1.015625 "/></g></g></g><g fill="#000000" fill-opacity="1"><g transform="translate(241.667431, 288.238448)"><g/></g></g><g fill="#000000" fill-opacity="1"><g transform="translate(246.815606, 288.238448)"><g><path d="M 0.890625 -0.75 L 10.59375 -15.421875 L 6.09375 -15.265625 C 5.269531 -15.234375 4.625 -15.097656 4.15625 -14.859375 C 3.6875 -14.628906 3.332031 -14.257812 3.09375 -13.75 C 2.851562 -13.25 2.679688 -12.5625 2.578125 -11.6875 L 1.359375 -11.578125 C 1.367188 -11.710938 1.410156 -12.019531 1.484375 -12.5 C 1.554688 -12.976562 1.625 -13.609375 1.6875 -14.390625 C 1.757812 -15.179688 1.804688 -15.9375 1.828125 -16.65625 L 2.078125 -16.890625 L 6.640625 -16.59375 L 13.34375 -16.421875 L 13.625 -15.65625 C 10.3125 -11.25 6.96875 -6.378906 3.59375 -1.046875 L 8.875 -1.21875 C 9.769531 -1.238281 10.492188 -1.59375 11.046875 -2.28125 C 11.609375 -2.976562 12.03125 -4.066406 12.3125 -5.546875 L 13.53125 -5.671875 C 13.488281 -5.515625 13.425781 -5.1875 13.34375 -4.6875 C 13.269531 -4.195312 13.179688 -3.535156 13.078125 -2.703125 C 12.984375 -1.867188 12.914062 -1.082031 12.875 -0.34375 L 12.484375 0.078125 L 3.0625 -0.078125 L 1.25 0.078125 Z M 0.890625 -0.75 "/></g></g></g><g fill="#000000" fill-opacity="1"><g transform="translate(261.584131, 288.238448)"><g><path d="M 3.453125 -1.015625 C 4.328125 -1.085938 4.925781 -1.195312 5.25 -1.34375 C 5.582031 -1.488281 5.800781 -1.753906 5.90625 -2.140625 C 6.007812 -2.535156 6.0625 -3.226562 6.0625 -4.21875 L 6.0625 -15.5625 C 4.582031 -15.507812 3.578125 -15.425781 3.046875 -15.3125 C 2.523438 -15.195312 2.164062 -14.941406 1.96875 -14.546875 C 1.78125 -14.160156 1.609375 -13.40625 1.453125 -12.28125 L 0.234375 -12.171875 C 0.441406 -13.816406 0.570312 -15.316406 0.625 -16.671875 L 0.859375 -16.890625 L 3.015625 -16.59375 L 11.078125 -16.59375 L 13.296875 -16.890625 L 13.53125 -16.671875 C 13.582031 -15.253906 13.710938 -13.789062 13.921875 -12.28125 L 12.703125 -12.171875 C 12.503906 -13.316406 12.3125 -14.085938 12.125 -14.484375 C 11.9375 -14.890625 11.597656 -15.148438 11.109375 -15.265625 C 10.617188 -15.390625 9.679688 -15.488281 8.296875 -15.5625 C 8.191406 -14.519531 8.09375 -12.679688 8 -10.046875 C 7.914062 -7.410156 7.875 -5.03125 7.875 -2.90625 C 7.875 -2.269531 7.988281 -1.816406 8.21875 -1.546875 C 8.445312 -1.273438 8.828125 -1.140625 9.359375 -1.140625 C 9.878906 -1.140625 10.359375 -1.164062 10.796875 -1.21875 L 10.875 -1.125 L 10.640625 0.078125 L 9.78125 0.046875 L 6.8125 0 C 5.863281 0 4.675781 0.0351562 3.25 0.109375 Z M 3.453125 -1.015625 "/></g></g></g><g fill="#000000" fill-opacity="1"><g transform="translate(275.780626, 288.238448)"><g><path d="M 8.25 0.3125 C 6.84375 0.3125 5.59375 -0.0234375 4.5 -0.703125 C 3.40625 -1.378906 2.554688 -2.328125 1.953125 -3.546875 C 1.347656 -4.773438 1.046875 -6.171875 1.046875 -7.734375 C 1.046875 -9.429688 1.421875 -10.976562 2.171875 -12.375 C 2.921875 -13.769531 3.953125 -14.867188 5.265625 -15.671875 C 6.578125 -16.484375 8.019531 -16.890625 9.59375 -16.890625 C 11.039062 -16.890625 12.316406 -16.550781 13.421875 -15.875 C 14.535156 -15.195312 15.40625 -14.25 16.03125 -13.03125 C 16.65625 -11.820312 16.96875 -10.4375 16.96875 -8.875 C 16.96875 -7.175781 16.578125 -5.625 15.796875 -4.21875 C 15.023438 -2.8125 13.976562 -1.703125 12.65625 -0.890625 C 11.332031 -0.0859375 9.863281 0.3125 8.25 0.3125 Z M 9.046875 -1.015625 C 10.140625 -1.015625 11.109375 -1.300781 11.953125 -1.875 C 12.804688 -2.445312 13.46875 -3.242188 13.9375 -4.265625 C 14.40625 -5.285156 14.640625 -6.457031 14.640625 -7.78125 C 14.640625 -9.25 14.390625 -10.550781 13.890625 -11.6875 C 13.390625 -12.820312 12.691406 -13.710938 11.796875 -14.359375 C 10.898438 -15.003906 9.875 -15.328125 8.71875 -15.328125 C 7.65625 -15.328125 6.710938 -15.039062 5.890625 -14.46875 C 5.066406 -13.894531 4.425781 -13.09375 3.96875 -12.0625 C 3.507812 -11.039062 3.28125 -9.875 3.28125 -8.5625 C 3.28125 -7.082031 3.519531 -5.773438 4 -4.640625 C 4.488281 -3.503906 5.171875 -2.613281 6.046875 -1.96875 C 6.921875 -1.332031 7.921875 -1.015625 9.046875 -1.015625 Z M 9.046875 -1.015625 "/></g></g></g><g fill="#000000" fill-opacity="1"><g transform="translate(293.77324, 288.238448)"><g><path d="M 8.25 0.3125 C 6.84375 0.3125 5.59375 -0.0234375 4.5 -0.703125 C 3.40625 -1.378906 2.554688 -2.328125 1.953125 -3.546875 C 1.347656 -4.773438 1.046875 -6.171875 1.046875 -7.734375 C 1.046875 -9.429688 1.421875 -10.976562 2.171875 -12.375 C 2.921875 -13.769531 3.953125 -14.867188 5.265625 -15.671875 C 6.578125 -16.484375 8.019531 -16.890625 9.59375 -16.890625 C 11.039062 -16.890625 12.316406 -16.550781 13.421875 -15.875 C 14.535156 -15.195312 15.40625 -14.25 16.03125 -13.03125 C 16.65625 -11.820312 16.96875 -10.4375 16.96875 -8.875 C 16.96875 -7.175781 16.578125 -5.625 15.796875 -4.21875 C 15.023438 -2.8125 13.976562 -1.703125 12.65625 -0.890625 C 11.332031 -0.0859375 9.863281 0.3125 8.25 0.3125 Z M 9.046875 -1.015625 C 10.140625 -1.015625 11.109375 -1.300781 11.953125 -1.875 C 12.804688 -2.445312 13.46875 -3.242188 13.9375 -4.265625 C 14.40625 -5.285156 14.640625 -6.457031 14.640625 -7.78125 C 14.640625 -9.25 14.390625 -10.550781 13.890625 -11.6875 C 13.390625 -12.820312 12.691406 -13.710938 11.796875 -14.359375 C 10.898438 -15.003906 9.875 -15.328125 8.71875 -15.328125 C 7.65625 -15.328125 6.710938 -15.039062 5.890625 -14.46875 C 5.066406 -13.894531 4.425781 -13.09375 3.96875 -12.0625 C 3.507812 -11.039062 3.28125 -9.875 3.28125 -8.5625 C 3.28125 -7.082031 3.519531 -5.773438 4 -4.640625 C 4.488281 -3.503906 5.171875 -2.613281 6.046875 -1.96875 C 6.921875 -1.332031 7.921875 -1.015625 9.046875 -1.015625 Z M 9.046875 -1.015625 "/></g></g></g><g fill="#000000" fill-opacity="1"><g transform="translate(311.76588, 288.238448)"><g><path d="M 1.921875 -0.9375 C 2.597656 -1.039062 3.0625 -1.242188 3.3125 -1.546875 C 3.5625 -1.847656 3.6875 -2.375 3.6875 -3.125 L 3.71875 -14.046875 C 3.71875 -14.597656 3.648438 -14.96875 3.515625 -15.15625 C 3.390625 -15.351562 3.132812 -15.453125 2.75 -15.453125 C 2.582031 -15.453125 2.410156 -15.441406 2.234375 -15.421875 C 2.066406 -15.410156 1.945312 -15.40625 1.875 -15.40625 L 1.828125 -15.5 L 2 -16.65625 C 2.207031 -16.632812 2.597656 -16.613281 3.171875 -16.59375 C 3.742188 -16.582031 4.328125 -16.578125 4.921875 -16.578125 C 5.390625 -16.578125 5.921875 -16.601562 6.515625 -16.65625 C 7.117188 -16.71875 7.515625 -16.769531 7.703125 -16.8125 L 7.59375 -15.640625 C 7.019531 -15.566406 6.625 -15.453125 6.40625 -15.296875 C 6.195312 -15.140625 6.066406 -14.957031 6.015625 -14.75 C 5.972656 -14.539062 5.925781 -14.03125 5.875 -13.21875 C 5.769531 -11.738281 5.691406 -10.050781 5.640625 -8.15625 C 5.585938 -6.269531 5.5625 -4.609375 5.5625 -3.171875 C 5.5625 -2.546875 5.613281 -2.097656 5.71875 -1.828125 C 5.820312 -1.566406 6.015625 -1.390625 6.296875 -1.296875 C 6.585938 -1.210938 7.082031 -1.171875 7.78125 -1.171875 C 8.832031 -1.171875 9.601562 -1.253906 10.09375 -1.421875 C 10.59375 -1.597656 10.96875 -1.9375 11.21875 -2.4375 C 11.476562 -2.945312 11.710938 -3.753906 11.921875 -4.859375 L 13.0625 -5 L 13.140625 -4.859375 C 13.085938 -4.585938 12.976562 -3.960938 12.8125 -2.984375 C 12.644531 -2.015625 12.503906 -0.992188 12.390625 0.078125 L 12.25 0.234375 C 11.75 0.203125 10.710938 0.15625 9.140625 0.09375 C 7.578125 0.03125 6.28125 0 5.25 0 C 4.4375 0 3.695312 0.03125 3.03125 0.09375 C 2.363281 0.164062 1.941406 0.222656 1.765625 0.265625 Z M 1.921875 -0.9375 "/></g></g></g><g fill="#000000" fill-opacity="1"><g transform="translate(324.948346, 288.238448)"><g/></g></g><g fill="#000000" fill-opacity="1"><g transform="translate(330.096522, 288.238448)"><g><path d="M 1.609375 -0.890625 C 2.421875 -1.046875 2.96875 -1.273438 3.25 -1.578125 C 3.539062 -1.878906 3.6875 -2.394531 3.6875 -3.125 L 3.71875 -14.046875 C 3.71875 -14.597656 3.648438 -14.96875 3.515625 -15.15625 C 3.390625 -15.351562 3.132812 -15.453125 2.75 -15.453125 L 1.671875 -15.40625 L 1.609375 -15.5 L 1.796875 -16.65625 C 2.078125 -16.65625 2.296875 -16.644531 2.453125 -16.625 L 4.890625 -16.578125 C 5.671875 -16.578125 6.664062 -16.65625 7.875 -16.8125 L 7.78125 -15.640625 C 7.070312 -15.546875 6.585938 -15.398438 6.328125 -15.203125 C 6.078125 -15.003906 5.9375 -14.65625 5.90625 -14.15625 C 5.800781 -12.125 5.710938 -10 5.640625 -7.78125 C 5.578125 -5.570312 5.546875 -3.945312 5.546875 -2.90625 C 5.546875 -2.195312 5.625 -1.722656 5.78125 -1.484375 C 5.9375 -1.253906 6.238281 -1.140625 6.6875 -1.140625 C 6.976562 -1.140625 7.4375 -1.164062 8.0625 -1.21875 L 8.109375 -1.125 L 7.875 0.078125 C 7.632812 0.078125 7.445312 0.0664062 7.3125 0.046875 C 6.09375 0.015625 5.144531 0 4.46875 0 C 3.625 0 2.617188 0.101562 1.453125 0.3125 Z M 1.609375 -0.890625 "/></g></g></g><g fill="#000000" fill-opacity="1"><g transform="translate(339.482869, 288.238448)"><g><path d="M 3.453125 -1.015625 C 4.328125 -1.085938 4.925781 -1.195312 5.25 -1.34375 C 5.582031 -1.488281 5.800781 -1.753906 5.90625 -2.140625 C 6.007812 -2.535156 6.0625 -3.226562 6.0625 -4.21875 L 6.0625 -15.5625 C 4.582031 -15.507812 3.578125 -15.425781 3.046875 -15.3125 C 2.523438 -15.195312 2.164062 -14.941406 1.96875 -14.546875 C 1.78125 -14.160156 1.609375 -13.40625 1.453125 -12.28125 L 0.234375 -12.171875 C 0.441406 -13.816406 0.570312 -15.316406 0.625 -16.671875 L 0.859375 -16.890625 L 3.015625 -16.59375 L 11.078125 -16.59375 L 13.296875 -16.890625 L 13.53125 -16.671875 C 13.582031 -15.253906 13.710938 -13.789062 13.921875 -12.28125 L 12.703125 -12.171875 C 12.503906 -13.316406 12.3125 -14.085938 12.125 -14.484375 C 11.9375 -14.890625 11.597656 -15.148438 11.109375 -15.265625 C 10.617188 -15.390625 9.679688 -15.488281 8.296875 -15.5625 C 8.191406 -14.519531 8.09375 -12.679688 8 -10.046875 C 7.914062 -7.410156 7.875 -5.03125 7.875 -2.90625 C 7.875 -2.269531 7.988281 -1.816406 8.21875 -1.546875 C 8.445312 -1.273438 8.828125 -1.140625 9.359375 -1.140625 C 9.878906 -1.140625 10.359375 -1.164062 10.796875 -1.21875 L 10.875 -1.125 L 10.640625 0.078125 L 9.78125 0.046875 L 6.8125 0 C 5.863281 0 4.675781 0.0351562 3.25 0.109375 Z M 3.453125 -1.015625 "/></g></g></g><g fill="#000000" fill-opacity="1"><g transform="translate(353.679365, 288.238448)"><g><path d="M 2.75 -5.46875 L 2.546875 -17.328125 L 2.734375 -17.59375 L 4.890625 -18.0625 L 5.125 -17.765625 L 3.765625 -5.4375 L 3.046875 -5.25 Z M 3.046875 0.3125 C 2.578125 0.3125 2.21875 0.171875 1.96875 -0.109375 C 1.71875 -0.398438 1.59375 -0.753906 1.59375 -1.171875 C 1.59375 -1.617188 1.738281 -2 2.03125 -2.3125 C 2.320312 -2.625 2.710938 -2.78125 3.203125 -2.78125 C 3.671875 -2.78125 4.035156 -2.632812 4.296875 -2.34375 C 4.554688 -2.0625 4.6875 -1.710938 4.6875 -1.296875 C 4.6875 -0.847656 4.53125 -0.46875 4.21875 -0.15625 C 3.914062 0.15625 3.523438 0.3125 3.046875 0.3125 Z M 3.046875 0.3125 "/></g></g></g><g fill="#000000" fill-opacity="1"><g transform="translate(104.795167, 253.639297)"><g><path d="M 21.246094 0 L 21.246094 -4.597656 L 7.628906 -4.597656 L 21.210938 -23.492188 L 21.210938 -27.199219 L 1.746094 -27.199219 L 1.746094 -22.601562 L 14.757812 -22.601562 L 0.960938 -3.53125 L 0.960938 0 Z M 21.246094 0 "/></g></g></g><g fill="#000000" fill-opacity="1"><g transform="translate(130.745342, 253.639297)"><g><path d="M 13.796875 0 L 13.796875 -22.601562 L 22.066406 -22.601562 L 22.066406 -27.199219 L 0.355469 -27.199219 L 0.355469 -22.601562 L 8.664062 -22.601562 L 8.664062 0 Z M 13.796875 0 "/></g></g></g><g fill="#000000" fill-opacity="1"><g transform="translate(156.766814, 253.639297)"><g><path d="M 14.582031 0.5 C 23.601562 0.5 27.808594 -6.097656 27.808594 -13.617188 C 27.808594 -21.140625 23.601562 -27.699219 14.582031 -27.699219 C 5.597656 -27.699219 1.390625 -21.140625 1.390625 -13.617188 C 1.390625 -6.097656 5.597656 0.5 14.582031 0.5 Z M 14.582031 -4.101562 C 9.625 -4.101562 6.738281 -7.949219 6.738281 -13.617188 C 6.738281 -19.25 9.625 -23.066406 14.582031 -23.066406 C 19.605469 -23.066406 22.460938 -19.25 22.460938 -13.617188 C 22.460938 -7.949219 19.605469 -4.101562 14.582031 -4.101562 Z M 14.582031 -4.101562 "/></g></g></g><g fill="#000000" fill-opacity="1"><g transform="translate(189.560559, 253.639297)"><g><path d="M 14.582031 0.5 C 23.601562 0.5 27.808594 -6.097656 27.808594 -13.617188 C 27.808594 -21.140625 23.601562 -27.699219 14.582031 -27.699219 C 5.597656 -27.699219 1.390625 -21.140625 1.390625 -13.617188 C 1.390625 -6.097656 5.597656 0.5 14.582031 0.5 Z M 14.582031 -4.101562 C 9.625 -4.101562 6.738281 -7.949219 6.738281 -13.617188 C 6.738281 -19.25 9.625 -23.066406 14.582031 -23.066406 C 19.605469 -23.066406 22.460938 -19.25 22.460938 -13.617188 C 22.460938 -7.949219 19.605469 -4.101562 14.582031 -4.101562 Z M 14.582031 -4.101562 "/></g></g></g><g fill="#000000" fill-opacity="1"><g transform="translate(222.35431, 253.639297)"><g><path d="M 19.074219 0 L 19.074219 -4.597656 L 7.558594 -4.597656 L 7.558594 -27.199219 L 2.425781 -27.199219 L 2.425781 0 Z M 19.074219 0 "/></g></g></g><g fill="#000000" fill-opacity="1"><g transform="translate(245.38172, 253.639297)"><g><path d="M 13.226562 0.5 C 19.644531 0.5 23.386719 -2.746094 23.386719 -7.878906 C 23.386719 -14.046875 18.003906 -15.257812 13.476562 -16.257812 C 10.160156 -17.003906 7.238281 -17.648438 7.238281 -20.140625 C 7.238281 -22.210938 9.089844 -23.316406 11.65625 -23.316406 C 14.4375 -23.316406 16.753906 -21.996094 17.433594 -19.109375 L 22.671875 -19.109375 C 21.816406 -24.992188 17.003906 -27.699219 11.765625 -27.699219 C 6.273438 -27.699219 2.140625 -24.953125 2.140625 -19.714844 C 2.140625 -13.976562 7.203125 -12.871094 11.65625 -11.871094 C 15.117188 -11.121094 18.21875 -10.445312 18.21875 -7.628906 C 18.21875 -5.027344 16.078125 -3.886719 13.261719 -3.886719 C 10.410156 -3.886719 7.449219 -4.957031 6.558594 -8.839844 L 1.246094 -8.839844 C 1.925781 -1.816406 7.984375 0.5 13.226562 0.5 Z M 13.226562 0.5 "/></g></g></g></svg>