<svg xmlns="http://www.w3.org/2000/svg" width="100%" height="100%" viewBox="0 0 24.761 24.761" focusable="false">
  <defs>
    <clipPath>
      <path d="M0 0H24.761V24.761H0z" class="btn_pulse_cls-1" transform="translate(187.837 232.837)"></path>
    </clipPath>
    <style>
      .btn_pulse_cls-1 {
        fill: #fff
      }

    </style>
  </defs>
  <g transform="translate(-187.837 -232.837)">
    <g transform="translate(187.837 232.837)">
      <g>
        <path
          d="M12.38 0A12.381 12.381 0 0 0 0 12.38c0 .255.011.506.026.757l6.749-.029 2.316-9.085a.917.917 0 0 1 1.8.15l.932 11.139 1.567-7.4a.917.917 0 0 1 1.759-.122l1.924 5.325 7.654.093c.019-.273.031-.549.031-.827A12.381 12.381 0 0 0 12.38 0z"
          class="btn_pulse_cls-1"></path>
        <path
          d="M15.568 14.335l-1.048-2.9-2.19 10.355a.919.919 0 0 1-.9.727h-.058a.917.917 0 0 1-.857-.839l-1-11.913-1.137 4.485a.918.918 0 0 1-.886.691l-7.218.03a12.38 12.38 0 0 0 24.2.068l-8.052-.1a.916.916 0 0 1-.854-.604z"
          class="btn_pulse_cls-1"></path>
      </g>
    </g>
  </g>
</svg>
