<?xml version="1.0" encoding="UTF-8"?> <svg xmlns="http://www.w3.org/2000/svg" xmlns:xlink="http://www.w3.org/1999/xlink" width="60px" height="60px" viewBox="0 0 60 60" version="1.1"><title>large / QR code color</title><g id="large-/-QR-code-color" stroke="none" stroke-width="1" fill="none" fill-rule="evenodd"><g id="Fill" transform="translate(11.000000, 9.000000)" fill="#C6FAA0"><rect x="13" y="16" width="30" height="30" rx="3"></rect><rect id="Fill-Copy-2" x="0" y="0" width="5" height="5"></rect></g><g id="Path" transform="translate(7.000000, 5.000000)" stroke="#252628" stroke-linecap="round" stroke-linejoin="round" stroke-width="1.5"><g transform="translate(8.500000, 8.500000) rotate(-270.000000) translate(-8.500000, -8.500000) "><rect id="Rectangle" x="4" y="8" width="5" height="5"></rect><polyline points="4 3.5 12.823678 3.5 12.823678 5.5"></polyline><line x1="13" y1="9.5" x2="13" y2="13"></line><path d="M9.09494702e-13,6 L9.09494702e-13,1.71428571 C9.09494702e-13,0.767511857 0.767511857,4.54747351e-13 1.71428571,4.54747351e-13 L6,4.54747351e-13"></path><path d="M11,4.54747351e-13 L15.2857143,4.54747351e-13 C16.2324881,4.54747351e-13 17,0.767511857 17,1.71428571 L17,6"></path><path d="M17,11 L17,15.2857143 C17,16.2324881 16.2324881,17 15.2857143,17 L11,17"></path><path d="M6,17 L1.71428571,17 C0.767511857,17 9.09494702e-13,16.2324881 9.09494702e-13,15.2857143 L9.09494702e-13,11"></path></g><g id="qr-code-scan-copy" transform="translate(17.000000, 20.000000)"><rect id="Rectangle" fill="#FFFFFF" x="6" y="6" width="4" height="4"></rect><rect id="Rectangle" fill="#FFFFFF" x="6" y="20" width="4" height="4"></rect><rect id="Rectangle" fill="#FFFFFF" x="20" y="6" width="4" height="4"></rect><polyline id="Path" points="6 16 14 16 14 18"></polyline><polyline id="Path" points="18 18 18 24 24 24 24 18 22 18"></polyline><line x1="14.5" y1="22" x2="14.5" y2="24" id="Path"></line><polyline id="Path" points="14 6 14 12 16 12"></polyline><line x1="20" y1="14.5" x2="24" y2="14.5" id="Path"></line><path d="M0,7 L0,2 C0,0.8954305 0.8954305,0 2,0 L7,0" id="Path"></path><path d="M23,0 L28,0 C29.1045695,0 30,0.8954305 30,2 L30,7" id="Path"></path><path d="M30,23 L30,28 C30,29.1045695 29.1045695,30 28,30 L23,30" id="Path"></path><path d="M7,30 L2,30 C0.8954305,30 0,29.1045695 0,28 L0,23" id="Path"></path></g></g></g></svg> 