<svg xmlns="http://www.w3.org/2000/svg" width="100%" height="100%" viewBox="0 0 24.761 24.761" fit=""
  preserveAspectRatio="xMidYMid meet" focusable="false">
  <defs>
    <clipPath id="btn_shake_clip-path">
      <path id="btn_shake_Rectangle_7831" d="M0 0H24.761V24.761H0z" class="btn_shake_cls-1" data-name="Rectangle 7831"
        transform="translate(187.837 232.837)"></path>
    </clipPath>
    <style>
      .btn_shake_cls-1 {
        fill: #fff
      }

    </style>
  </defs>
  <g transform="translate(-187.837 -232.837)">
    <g transform="translate(187.837 232.837)">
      <g>
        <path
          d="M24.761 4.238a2.159 2.159 0 0 0-.637-1.538L22.075.652A2.175 2.175 0 0 0 19 .649l-2.079 2.057a3.617 3.617 0 0 0-3.032.1l-1.829.914a2.174 2.174 0 0 0-2.927 3.051L.861 16.4a3.623 3.623 0 0 0 .2 4.9l2.377 2.377a3.622 3.622 0 0 0 4.9.2l9.631-8.273a2.174 2.174 0 0 0 3.055-2.928l.914-1.828a3.617 3.617 0 0 0 .1-3.025l2.082-2.056a2.159 2.159 0 0 0 .641-1.529zM7.4 22.784a2.186 2.186 0 0 1-2.939-.124l-2.375-2.377a2.186 2.186 0 0 1-.124-2.939l8.168-9.509 6.781 6.781zM19.668 14.3a.724.724 0 0 1-1.025 0l-8.2-8.2a.725.725 0 1 1 1.025-1.025l8.2 8.2a.724.724 0 0 1 0 1.025zm.979-4.091l-.666 1.331-6.775-6.776 1.331-.664a2.171 2.171 0 0 1 2.509.407L20.24 7.7a2.171 2.171 0 0 1 .407 2.508zM23.1 4.747l-1.892 1.871-3.074-3.074 1.891-1.868a.725.725 0 0 1 1.025 0l2.05 2.05a.724.724 0 0 1 0 1.021z"
          class="btn_shake_cls-1"></path>
      </g>
    </g>
  </g>
</svg>
