<svg xmlns="http://www.w3.org/2000/svg" width="100%" height="100%" viewBox="0 0 33.86 33.86" focusable="false">
  <defs>
    <clipPath>
      <path fill="#fff" stroke="#707070" d="M0 0H33.86V33.86H0z" transform="translate(207 1072)"></path>
    </clipPath>
  </defs>
  <g clip-path="url('/41382/smartpage/create/switchy2.zaions.com/CSY8?navigate=design#babuak5f7a')"
    transform="translate(-207 -1072)">
    <g>
      <path fill="#95bf46"
        d="M26.083 6.683a.327.327 0 0 0-.3-.275l-2.725-.2-2.006-1.993a.823.823 0 0 0-.737-.094l-1.011.312C18.7 2.694 17.638 1.1 15.764 1.1c-.052 0-.105 0-.158.005A2.278 2.278 0 0 0 13.841.091c-4.367 0-6.453 5.459-7.107 8.233l-3.056.948c-.947.3-.977.327-1.1 1.219C2.483 11.167 0 30.333 0 30.333l19.311 3.618 10.463-2.264s-3.673-24.834-3.7-25zM18.24 4.761l-1.634.506v-.352a8.015 8.015 0 0 0-.39-2.638c.967.123 1.61 1.223 2.024 2.484zM15.019 2.49a8.1 8.1 0 0 1 .443 2.942v.189l-3.376 1.045c.65-2.508 1.868-3.719 2.933-4.176zm-1.3-1.228a.986.986 0 0 1 .56.189c-1.4.659-2.9 2.317-3.533 5.629l-2.668.826c.742-2.526 2.5-6.645 5.64-6.645z"
        transform="translate(209.039 1071.91)"></path>
      <path fill="#5e8e3e"
        d="M25.787 6.409l-2.725-.2-2.006-1.993a.5.5 0 0 0-.279-.128l-1.46 29.866 10.463-2.263s-3.673-24.834-3.7-25a.327.327 0 0 0-.3-.275"
        transform="translate(209.039 1071.91)"></path>
      <path fill="#fff"
        d="M15.764 12.19l-1.29 3.838a5.935 5.935 0 0 0-2.516-.6c-2.031 0-2.134 1.275-2.134 1.6 0 1.753 4.569 2.424 4.569 6.53 0 3.23-2.049 5.31-4.811 5.31a6.693 6.693 0 0 1-5.01-2.068l.888-2.933a6.345 6.345 0 0 0 3.213 1.5 1.3 1.3 0 0 0 1.352-1.309c0-2.286-3.749-2.388-3.749-6.145 0-3.162 2.27-6.222 6.851-6.222a5.636 5.636 0 0 1 2.637.506"
        transform="translate(209.039 1071.91)"></path>
    </g>
  </g>
</svg>
