<?xml version="1.0" encoding="UTF-8"?> <svg xmlns="http://www.w3.org/2000/svg" xmlns:xlink="http://www.w3.org/1999/xlink" width="16px" height="16px" viewBox="0 0 16 16" version="1.1"><title>Data-Analytics</title><g id="Pages" stroke="none" stroke-width="1" fill="none" fill-rule="evenodd" stroke-linecap="round" stroke-linejoin="round"><g id="Pricing-–-Feature-Bottom-Fold---XL" transform="translate(-941.000000, -947.000000)" stroke="#2A5BD7" stroke-width="0.975"><g id="Data-Analytics" transform="translate(941.000000, 947.000000)"><path d="M11.66555,7.592 L12.6672,10.2375 L14.6172,10.2375 C14.8186878,10.2295946 15.0034452,10.3490445 15.0789361,10.5360229 C15.154427,10.7230014 15.1043955,10.9372452 14.9539,11.07145 L13.2639,12.25185 L14.2012,14.4053 C14.2851422,14.6075222 14.2308949,14.8407511 14.0663262,14.9851715 C13.9017575,15.1295919 13.6634589,15.1530923 13.47385,15.0436 L11.206,13.76895 L8.93945,15.0436 C8.74984108,15.1530923 8.51154251,15.1295919 8.34697382,14.9851715 C8.18240512,14.8407511 8.12815782,14.6075222 8.2121,14.4053 L9.15005,12.25185 L7.46005,11.07145 C7.3090822,10.9377839 7.25844572,10.7236417 7.33355848,10.5365161 C7.40867125,10.3493905 7.59331325,10.2296898 7.7948,10.2375 L9.7448,10.2375 L10.7484,7.592 C10.8388554,7.42280976 11.0151221,7.31717131 11.206975,7.31717131 C11.3988279,7.31717131 11.5750946,7.42280976 11.66555,7.592 L11.66555,7.592 Z" id="Path"></path><line x1="2.4375" y1="9.2625" x2="5.3625" y2="9.2625" id="Path"></line><line x1="5.3625" y1="9.2625" x2="5.3625" y2="4.3875" id="Path"></line><line x1="7.3125" y1="7.8" x2="7.3125" y2="5.3625" id="Path"></line><line x1="3.4125" y1="9.2625" x2="3.4125" y2="6.3375" id="Path"></line><path d="M4.875,13.1625 L1.4625,13.1625 C0.924022369,13.1625 0.4875,12.7259776 0.4875,12.1875 L0.4875,1.4625 C0.4875,0.924022369 0.924022369,0.4875 1.4625,0.4875 L8.37135,0.4875 C8.62975569,0.4875 8.87757105,0.590188139 9.06035,0.77285 L10.92715,2.63965 C11.1098119,2.82242895 11.2125,3.07024431 11.2125,3.32865 L11.2125,4.875" id="Path"></path></g></g></g></svg> 