<svg xmlns="http://www.w3.org/2000/svg" width="100%" height="100%" viewBox="0 0 24.761 24.761" focusable="false">
  <defs>
    <clipPath>
      <path d="M0 0H24.761V24.761H0z" class="btn_swing_cls-1" transform="translate(187.837 232.837)"></path>
    </clipPath>
    <style>
      .btn_swing_cls-1 {
        fill: #fff
      }

    </style>
  </defs>
  <g transform="translate(-187.837 -232.837)">
    <g transform="translate(187.837 232.837)">
      <path
        d="M16.134 15.217a.725.725 0 0 0-.67 1.264 3.8 3.8 0 0 1 1.365 2.553 3.97 3.97 0 0 0 .922 2.1 2.393 2.393 0 0 0 3.384-3.384 13.154 13.154 0 0 0-5.001-2.533z"
        class="btn_swing_cls-1"></path>
      <path
        d="M8.627 9.545A.725.725 0 0 0 9.3 8.281a3.8 3.8 0 0 1-1.369-2.554 3.97 3.97 0 0 0-.921-2.1 2.393 2.393 0 1 0-3.385 3.384 13.154 13.154 0 0 0 5 2.534z"
        class="btn_swing_cls-1"></path>
      <path
        d="M9.2 15.264a.726.726 0 0 0-.916.2 3.8 3.8 0 0 1-2.558 1.366 3.97 3.97 0 0 0-2.1.922 2.393 2.393 0 0 0 3.384 3.383 13.153 13.153 0 0 0 2.534-5 .725.725 0 0 0-.344-.871z"
        class="btn_swing_cls-1"></path>
      <path id="btn_swing_Tracé_32854"
        d="M15.565 9.5a.725.725 0 0 0 .916-.2 3.8 3.8 0 0 1 2.553-1.365 3.969 3.969 0 0 0 2.1-.922 2.393 2.393 0 0 0-3.384-3.386 13.145 13.145 0 0 0-2.534 5 .725.725 0 0 0 .349.873z"
        class="btn_swing_cls-1"></path>
      <path
        d="M12.971 16.621a.725.725 0 0 0-1.181 0c-.025.034-.608.854-1.2 1.86A7.344 7.344 0 0 0 9.324 21.7a3.056 3.056 0 0 0 6.113 0 7.344 7.344 0 0 0-1.266-3.223c-.592-1.007-1.176-1.826-1.2-1.86z"
        class="btn_swing_cls-1"></path>
      <path
        d="M21.7 9.324a7.344 7.344 0 0 0-3.223 1.266c-1.007.592-1.826 1.176-1.86 1.2a.725.725 0 0 0 0 1.181c.034.025.854.608 1.86 1.2a7.344 7.344 0 0 0 3.223 1.266 3.056 3.056 0 1 0 0-6.113z"
        class="btn_swing_cls-1"></path>
      <path
        d="M6.28 14.171c1.007-.592 1.826-1.176 1.86-1.2a.725.725 0 0 0 0-1.181c-.034-.025-.854-.608-1.86-1.2a7.344 7.344 0 0 0-3.224-1.266 3.056 3.056 0 0 0 0 6.113 7.344 7.344 0 0 0 3.224-1.266z"
        class="btn_swing_cls-1"></path>
      <circle cx="2.279" cy="2.279" r="2.279" class="btn_swing_cls-1" transform="translate(10.101 10.101)"></circle>
      <path
        d="M11.79 8.14a.725.725 0 0 0 1.181 0c.025-.034.608-.854 1.2-1.86a7.344 7.344 0 0 0 1.266-3.223 3.056 3.056 0 1 0-6.113 0A7.344 7.344 0 0 0 10.59 6.28c.592 1.006 1.176 1.826 1.2 1.86z"
        class="btn_swing_cls-1"></path>
    </g>
  </g>
</svg>
