<svg width="24" height="24" viewBox="0 0 24 24" fill="none" xmlns="http://www.w3.org/2000/svg">
  <path
    d="M0.75 3.25C0.75 2.42157 1.42157 1.75 2.25 1.75H21.75C22.5784 1.75 23.25 2.42157 23.25 3.25V20.75C23.25 21.5784 22.5784 22.25 21.75 22.25H2.25C1.42157 22.25 0.75 21.5784 0.75 20.75V3.25Z"
    stroke="currentColor" stroke-width="1.5"></path>
  <ellipse cx="4.5" cy="5.5" rx="1.5" ry="1.5" fill="currentColor"></ellipse>
  <path
    d="M6.55978 12.9428C6.22442 13.1859 6.14966 13.6549 6.39279 13.9902C6.63592 14.3256 7.10487 14.4003 7.44022 14.1572L6.55978 12.9428ZM24.0198 12.0094L18.4242 6.62897L17.3845 7.71022L22.9802 13.0906L24.0198 12.0094ZM15.544 6.42922L6.55978 12.9428L7.44022 14.1572L16.4245 7.64364L15.544 6.42922ZM18.4242 6.62897C17.639 5.87402 16.4259 5.78989 15.544 6.42922L16.4245 7.64364C16.7184 7.43053 17.1228 7.45857 17.3845 7.71022L18.4242 6.62897Z"
    fill="currentColor"></path>
  <path d="M1 12.75L6.03649 9.09854C6.60081 8.68941 7.3726 8.72292 7.89934 9.17942L10 11" stroke="currentColor"
    stroke-width="1.5"></path>
  <path d="M1.5 13.75H22.5" stroke="currentColor" stroke-width="1.5"></path>
  <path d="M3 16.75H18" stroke="currentColor" stroke-width="1.5"></path>
  <path d="M3 19.25H12" stroke="currentColor" stroke-width="1.5"></path>
</svg>
