<svg xmlns="http://www.w3.org/2000/svg" xmlns:xlink="http://www.w3.org/1999/xlink" width="100%" height="100%"
  viewBox="0 0 33.86 33.86" focusable="false">
  <g transform="translate(-443 -426)">
    <path
      d="M25.32,10.408,26.648,9.08A1.321,1.321,0,0,0,24.78,7.212L23.452,8.54A14.174,14.174,0,0,0,15.631,5.3V2.642h1.277a1.321,1.321,0,0,0,0-2.642h-5.2a1.321,1.321,0,0,0,0,2.642h1.277V5.3A14.31,14.31,0,1,0,25.32,10.408ZM14.31,31.218A11.668,11.668,0,1,1,25.978,19.55,11.682,11.682,0,0,1,14.31,31.218Zm6.122-17.79a1.321,1.321,0,0,1,0,1.868l-5.188,5.188a1.321,1.321,0,1,1-1.868-1.868l5.187-5.188A1.321,1.321,0,0,1,20.432,13.428Zm0,0"
      transform="translate(445.619 426)" fill="#00a8ff"></path>
  </g>
</svg>
