<svg xmlns="http://www.w3.org/2000/svg" width="111.573" height="88.473" viewBox="0 0 111.573 88.473">
  <g id="Groupe_7105" data-name="Groupe 7105" transform="translate(-9176.361 1000.817)">
    <path id="Tracé_30399" data-name="Tracé 30399" d="M12.371,49.558S32.69,44.236,29.691,35.841-4.926,25.888.375,15.978,47.959,15.1,44.5-.545" transform="matrix(0.766, 0.643, -0.643, 0.766, 9212.619, -983.209)" fill="none" stroke="#fff" stroke-width="6" opacity="0.96"/>
    <path id="Tracé_142" data-name="Tracé 142" d="M-.1,28.516,3.69,46.534,41.4-.14Z" transform="translate(9246.917 -998.886) rotate(8)" fill="#90bde6"/>
    <path id="Tracé_143" data-name="Tracé 143" d="M-.11,31.731,34.854-.118,20.846,41.3Z" transform="translate(9253.403 -997.997) rotate(8)" fill="#d1ecf7"/>
    <path id="Tracé_144" data-name="Tracé 144" d="M2.7-.009-.051,14.816,9.426,2.623Z" transform="translate(9246.208 -966.956) rotate(8)" fill="#344bc7"/>
    <path id="Tracé_145" data-name="Tracé 145" d="M54.206-.184-.074,21.248l12.78,7.225Z" transform="translate(9234.23 -1000.625) rotate(8)" fill="#d1ecf7"/>
  </g>
</svg>
