<svg xmlns="http://www.w3.org/2000/svg" width="100%" height="100%" viewBox="0 0 24 24" focusable="false">
  <g transform="translate(-5417 14873)">
    <rect width="24" height="24" transform="translate(5417 -14873)" fill="none"></rect>
    <path
      d="M20.228,32H1.839A1.839,1.839,0,0,0,0,33.839V47.324a1.839,1.839,0,0,0,1.839,1.839H20.228a1.839,1.839,0,0,0,1.839-1.839V33.839A1.839,1.839,0,0,0,20.228,32Zm0,15.324H11.616c.034-.172.031.138.031-.858a2.413,2.413,0,0,0-2.574-2.207,9.249,9.249,0,0,1-1.716.306,9.115,9.115,0,0,1-1.716-.306,2.413,2.413,0,0,0-2.574,2.207c0,1-.008.686.031.858H1.839V36.291H20.228Zm-6.436-3.065h4.291a.307.307,0,0,0,.306-.306V43.34a.307.307,0,0,0-.306-.306H13.792a.307.307,0,0,0-.306.306v.613A.307.307,0,0,0,13.792,44.259Zm0-2.452h4.291a.307.307,0,0,0,.306-.306v-.613a.307.307,0,0,0-.306-.306H13.792a.307.307,0,0,0-.306.306V41.5A.307.307,0,0,0,13.792,41.807Zm0-2.452h4.291a.307.307,0,0,0,.306-.306v-.613a.307.307,0,0,0-.306-.306H13.792a.307.307,0,0,0-.306.306v.613A.307.307,0,0,0,13.792,39.355ZM7.355,43.033A2.452,2.452,0,1,0,4.9,40.581,2.454,2.454,0,0,0,7.355,43.033Z"
      transform="translate(5417.967 -14901.582)" fill="#7c3aed"></path>
  </g>
</svg>
