<svg xmlns="http://www.w3.org/2000/svg" width="100%" height="100%" viewBox="0 0 33.863 33.863" focusable="false">
  <defs>
    <clipPath>
      <path d="M0 0H33.863V33.863H0z" style="fill:#354052">
      </path>
    </clipPath>
  </defs>
  <g>
    <g transform="translate(0 5.077)">
      <path
        d="M33.166 3.71A4.243 4.243 0 0 0 30.181.725C27.531 0 16.931 0 16.931 0S6.332 0 3.682.7A4.329 4.329 0 0 0 .7 3.71a44.705 44.705 0 0 0-.7 8.145A44.541 44.541 0 0 0 .7 20a4.243 4.243 0 0 0 2.985 2.985c2.678.725 13.249.725 13.249.725s10.6 0 13.249-.7a4.243 4.243 0 0 0 2.985-2.985 44.707 44.707 0 0 0 .7-8.145 42.434 42.434 0 0 0-.7-8.173zm0 0"
        style="fill:red"></path>
      <path d="M9.913 15.11l8.814-5.077-8.814-5.077zm0 0" transform="translate(3.644 1.822)" style="fill:#fff"></path>
    </g>
  </g>
</svg>
