<svg xmlns="http://www.w3.org/2000/svg" xmlns:xlink="http://www.w3.org/1999/xlink" width="33.859" height="33.859" viewBox="0 0 33.859 33.859">
  <defs>
    <clipPath id="clip-path">
      <rect id="Rectangle_8869" data-name="Rectangle 8869" width="33.86" height="33.86" transform="translate(-16572 20055)" fill="#fff"/>
    </clipPath>
  </defs>
  <g id="Groupe_de_masques_984" data-name="Groupe de masques 984" transform="translate(16572 -20055)" clip-path="url(#clip-path)">
    <path id="youtube_8_" data-name="youtube (8)" d="M33.162,3.388A4.242,4.242,0,0,0,30.178.4C27.528-.322,16.93-.322,16.93-.322s-10.6,0-13.248.7A4.328,4.328,0,0,0,.7,3.388,44.7,44.7,0,0,0,0,11.532a44.533,44.533,0,0,0,.7,8.144,4.243,4.243,0,0,0,2.984,2.984c2.677.725,13.248.725,13.248.725s10.6,0,13.248-.7A4.242,4.242,0,0,0,33.163,19.7a44.712,44.712,0,0,0,.7-8.144,42.429,42.429,0,0,0-.7-8.172ZM13.555,16.608V6.456l8.813,5.076Zm0,0" transform="translate(-16572 20060.398)" fill="#fff"/>
  </g>
</svg>
