<svg xmlns="http://www.w3.org/2000/svg" width="100%" height="100%" viewBox="0 0 24.761 24.761" focusable="false">
  <defs>
    <clipPath>
      <path d="M0 0H24.761V24.761H0z" class="btn_wobble_cls-1" transform="translate(187.837 232.837)"></path>
    </clipPath>
    <style>
      .btn_wobble_cls-1 {
        fill: #fff
      }

    </style>
  </defs>
  <g transform="translate(-187.837 -232.837)">
    <g transform="translate(187.837 232.837)">
      <g>
        <g>
          <path
            d="M7.706 21.331a9.474 9.474 0 0 1-4.276-4.277.563.563 0 1 0-1.007.5A10.6 10.6 0 0 0 7.2 22.337a.563.563 0 0 0 .5-1.007z"
            class="btn_wobble_cls-1"></path>
          <path
            d="M6.7 23.342a11.687 11.687 0 0 1-5.282-5.282.563.563 0 0 0-1.007.5A12.818 12.818 0 0 0 6.2 24.349a.563.563 0 0 0 .5-1.007z"
            class="btn_wobble_cls-1"></path>
          <path
            d="M18.061 1.418A11.687 11.687 0 0 1 23.342 6.7a.563.563 0 1 0 1.007-.5A12.818 12.818 0 0 0 18.564.412a.563.563 0 1 0-.5 1.007z"
            class="btn_wobble_cls-1"></path>
          <path
            d="M17.054 3.43a9.474 9.474 0 0 1 4.276 4.276.563.563 0 1 0 1.007-.5 10.6 10.6 0 0 0-4.779-4.779.563.563 0 1 0-.5 1.007z"
            class="btn_wobble_cls-1"></path>
          <path
            d="M24.266 14.557L10.2.48a1.727 1.727 0 0 0-2.388 0L.495 7.8a1.69 1.69 0 0 0 0 2.389l14.067 14.075a1.686 1.686 0 0 0 2.388 0l7.316-7.321a1.69 1.69 0 0 0 0-2.389zm-4.172 4.412l-1.125 1.125a.563.563 0 0 1-.8-.8l1.131-1.121a.563.563 0 0 1 .8.8zm-5.744 1.9L2.484 9 9 2.485 20.87 14.35z"
            class="btn_wobble_cls-1"></path>
          <path d="M6.918 5.792L5.792 6.918a.563.563 0 1 0 .8.8l1.122-1.13a.563.563 0 0 0-.8-.8z"
            class="btn_wobble_cls-1"></path>
          <circle cx=".563" cy=".563" r=".563" class="btn_wobble_cls-1" transform="translate(8.441 3.376)"></circle>
        </g>
      </g>
    </g>
  </g>
</svg>
