<svg xmlns="http://www.w3.org/2000/svg" width="100%" height="100%" viewBox="0 0 33.86 33.86" focusable="false">
  <defs>
    <clipPath>
      <path fill="#fff" stroke="#707070" d="M0 0H33.86V33.86H0z" transform="translate(207 1072)"></path>
    </clipPath>
    <style>
      .cls-4 {
        fill: #01579b
      }

    </style>
  </defs>
  <g clip-path="url('/41382/smartpage/create/switchy2.zaions.com/CSY8?navigate=design#clip-path')"
    transform="translate(-207 -1072)">
    <g id="wordpress" transform="translate(204.582 1069.582)">
      <circle id="Ellipse_2028" cx="16.084" cy="16.084" r="16.084" fill="#fff" transform="translate(3.265 3.265)">
      </circle>
      <path id="Tracé_34422"
        d="M5.644 19.349a13.7 13.7 0 0 0 7.725 12.335L6.83 13.771a13.647 13.647 0 0 0-1.186 5.578zm22.959-.69a7.2 7.2 0 0 0-1.43-3.779 6.448 6.448 0 0 1-1.35-3.214 2.65 2.65 0 0 1 2.6-2.432c.06 0 .115 0 .177.006a13.7 13.7 0 0 0-20.431 2.185 1.356 1.356 0 0 0 .523.033c1.429 0 3.652-.171 3.652-.171a.565.565 0 0 1 .085 1.127s-.74.09-1.566.13l5.081 15.228 3-8.995-2.23-6.208q-.721-.041-1.438-.13a.565.565 0 0 1 .084-1.127s2.268.171 3.613.171c1.435 0 3.653-.171 3.653-.171a.565.565 0 0 1 .089 1.127s-.745.09-1.57.13l5.046 15.085 1.37-4.562a12.688 12.688 0 0 0 1.039-4.434zm-9.014 1.886L15.477 32.5a13.573 13.573 0 0 0 3.872.559 13.756 13.756 0 0 0 4.553-.777 2 2 0 0 1-.1-.189l-4.213-11.549zm11.789-7.776a10.289 10.289 0 0 1 .093 1.409 12.965 12.965 0 0 1-1.044 4.915L26.242 31.2a13.727 13.727 0 0 0 5.135-18.431z"
        class="cls-4"></path>
      <path id="Tracé_34423"
        d="M2.419 19.349a16.93 16.93 0 1 0 16.93-16.93 16.95 16.95 0 0 0-16.93 16.93zm1.608 0a15.322 15.322 0 1 1 15.322 15.318A15.336 15.336 0 0 1 4.027 19.349z"
        class="cls-4"></path>
    </g>
  </g>
</svg>
