<svg fill="none" height="114" viewBox="0 0 120 114" width="120" xmlns="http://www.w3.org/2000/svg" xmlns:xlink="http://www.w3.org/1999/xlink"><filter id="a" color-interpolation-filters="sRGB" filterUnits="userSpaceOnUse" height="68.0257" width="115.996" x="3.27246" y="45.9743"><feFlood flood-opacity="0" result="BackgroundImageFix"/><feColorMatrix in="SourceAlpha" type="matrix" values="0 0 0 0 0 0 0 0 0 0 0 0 0 0 0 0 0 0 127 0"/><feOffset/><feGaussianBlur stdDeviation=".5"/><feColorMatrix type="matrix" values="0 0 0 0 0.195278 0 0 0 0 0.308333 0 0 0 0 0.226933 0 0 0 0.15 0"/><feBlend in2="BackgroundImageFix" mode="normal" result="effect1_dropShadow"/><feColorMatrix in="SourceAlpha" type="matrix" values="0 0 0 0 0 0 0 0 0 0 0 0 0 0 0 0 0 0 127 0"/><feOffset dy="2"/><feGaussianBlur stdDeviation="2"/><feColorMatrix type="matrix" values="0 0 0 0 0 0 0 0 0 0 0 0 0 0 0 0 0 0 0.08 0"/><feBlend in2="effect1_dropShadow" mode="normal" result="effect2_dropShadow"/><feBlend in="SourceGraphic" in2="effect2_dropShadow" mode="normal" result="shape"/></filter><filter id="b" color-interpolation-filters="sRGB" filterUnits="userSpaceOnUse" height="85.5548" width="119.269" x="0" y="20.9206"><feFlood flood-opacity="0" result="BackgroundImageFix"/><feColorMatrix in="SourceAlpha" type="matrix" values="0 0 0 0 0 0 0 0 0 0 0 0 0 0 0 0 0 0 127 0"/><feOffset/><feGaussianBlur stdDeviation=".5"/><feColorMatrix type="matrix" values="0 0 0 0 0.195278 0 0 0 0 0.308333 0 0 0 0 0.226933 0 0 0 0.15 0"/><feBlend in2="BackgroundImageFix" mode="normal" result="effect1_dropShadow"/><feColorMatrix in="SourceAlpha" type="matrix" values="0 0 0 0 0 0 0 0 0 0 0 0 0 0 0 0 0 0 127 0"/><feOffset dy="2"/><feGaussianBlur stdDeviation="2"/><feColorMatrix type="matrix" values="0 0 0 0 0 0 0 0 0 0 0 0 0 0 0 0 0 0 0.08 0"/><feBlend in2="effect1_dropShadow" mode="normal" result="effect2_dropShadow"/><feBlend in="SourceGraphic" in2="effect2_dropShadow" mode="normal" result="shape"/></filter><filter id="c" color-interpolation-filters="sRGB" filterUnits="userSpaceOnUse" height="98.2492" width="115.555" x="4.44434" y="0"><feFlood flood-opacity="0" result="BackgroundImageFix"/><feColorMatrix in="SourceAlpha" type="matrix" values="0 0 0 0 0 0 0 0 0 0 0 0 0 0 0 0 0 0 127 0"/><feOffset/><feGaussianBlur stdDeviation=".5"/><feColorMatrix type="matrix" values="0 0 0 0 0.195278 0 0 0 0 0.308333 0 0 0 0 0.226933 0 0 0 0.15 0"/><feBlend in2="BackgroundImageFix" mode="normal" result="effect1_dropShadow"/><feColorMatrix in="SourceAlpha" type="matrix" values="0 0 0 0 0 0 0 0 0 0 0 0 0 0 0 0 0 0 127 0"/><feOffset dy="2"/><feGaussianBlur stdDeviation="2"/><feColorMatrix type="matrix" values="0 0 0 0 0 0 0 0 0 0 0 0 0 0 0 0 0 0 0.08 0"/><feBlend in2="effect1_dropShadow" mode="normal" result="effect2_dropShadow"/><feBlend in="SourceGraphic" in2="effect2_dropShadow" mode="normal" result="shape"/></filter><g filter="url(#a)"><path clip-rule="evenodd" d="m7.27246 104.015c0 2.201 1.78119 3.985 3.97844 3.985h74.1081c1.0566 0 2.0698-.421 2.8161-1.17l25.9319-26.0282c1.549-1.5555 1.549-4.0738 0-5.6292l-25.9319-26.0282c-.7463-.7491-1.7595-1.1701-2.8161-1.1701h-74.1081c-2.19724 0-3.97844 1.7841-3.97844 3.9847zm93.21354-26.3965c0-3.3153-2.6779-6.0029-5.9809-6.0029s-5.9806 2.6876-5.9806 6.0029 2.6776 6.0029 5.9806 6.0029 5.9809-2.6876 5.9809-6.0029z" fill="#f5f5f5" fill-rule="evenodd"/></g><ellipse cx="32.1897" cy="86.9911" fill="#1890ff" fill-opacity=".2" rx="12.9572" ry="13.0056"/><g filter="url(#b)"><path clip-rule="evenodd" d="m4.13552 76.1617c-.5664 2.1263.69445 4.3136 2.81618 4.8855l71.5736 19.2918c1.0202.275 2.1067.132 3.0201-.3977l31.7416-18.3943c1.897-1.0994 2.546-3.5333 1.449-5.4397l-18.3459-31.8944c-.5279-.9178-1.3979-1.5881-2.418-1.8631l-71.5736-19.2914c-2.1218-.5719-4.3009.6882-4.8673 2.8146zm96.84448-1.2811c.855-3.2023-1.0384-6.494-4.2288-7.352-3.1904-.8581-6.4698 1.0423-7.3247 4.2447-.8549 3.2023 1.0385 6.4939 4.2289 7.352 3.1904.858 6.4696-1.0424 7.3246-4.2447z" fill="#f9f9f9" fill-rule="evenodd"/></g><path d="m40.1371 52.2252c2.0412-1.445 4.8948-.6775 5.9427 1.5983l10.7459 23.3369c1.4185 3.0806-1.3902 6.415-4.6623 5.5349l-31.6772-8.5195c-3.2721-.88-4.0435-5.1772-1.2804-7.1332z" fill="#1890ff" fill-opacity=".2"/><g filter="url(#c)"><path clip-rule="evenodd" d="m8.97666 49.0714c-1.09684 1.9068-.44428 4.3461 1.45754 5.4482l64.1832 37.1944c.9139.5296 1.9999.6732 3.0187.3992l35.4199-9.5262c2.119-.5697 3.375-2.7539 2.807-4.8802l-9.49-35.5522c-.273-1.0226-.94-1.8948-1.854-2.4244l-64.1835-37.19433c-1.9018-1.10212-4.3327-.44973-5.4295 1.45715zm93.87234 23.9212c1.652-2.8711.672-6.5424-2.189-8.2001-2.8601-1.6576-6.5177-.6739-8.1692 2.1973-1.6515 2.8711-.6715 6.5424 2.189 8.2 2.8605 1.6577 6.5182.674 8.1692-2.1972z" fill="#fff" fill-rule="evenodd"/></g><rect fill="#1890ff" fill-opacity=".2" height="29.985" rx="4" transform="matrix(.865218 .501396 -.498605 .866829 48.6455 21.4727)" width="29.9293"/></svg>