<?xml version="1.0" encoding="UTF-8"?> <svg xmlns="http://www.w3.org/2000/svg" xmlns:xlink="http://www.w3.org/1999/xlink" width="17px" height="17px" viewBox="0 0 17 17" version="1.1"><title>Analytics</title><g id="Pages" stroke="none" stroke-width="1" fill="none" fill-rule="evenodd" stroke-linecap="round" stroke-linejoin="round"><g id="Pricing-–-Feature-Bottom-Fold---XL" transform="translate(-558.000000, -839.000000)" stroke="#2A5BD7"><g id="Analytics" transform="translate(559.000000, 840.000000)"><line x1="0.47187" y1="14.6475" x2="14.17437" y2="14.6475" id="Path"></line><path d="M1.73187,11.8125 L3.465,11.8125 C3.6389697,11.8125 3.78,11.9535303 3.78,12.1275 L3.78,14.6475 L1.41687,14.6475 L1.41687,12.1275 C1.41687,11.9535303 1.5579003,11.8125 1.73187,11.8125 Z" id="Path"></path><path d="M6.45687,6.1425 L8.19,6.1425 C8.3639697,6.1425 8.505,6.2835303 8.505,6.4575 L8.505,14.6475 L6.14187,14.6475 L6.14187,6.4575 C6.14187,6.2835303 6.2829003,6.1425 6.45687,6.1425 Z" id="Path"></path><path d="M11.18187,8.9775 L12.915,8.9775 C13.0889697,8.9775 13.23,9.1185303 13.23,9.2925 L13.23,14.6475 L10.8675,14.6475 L10.8675,9.2925 C10.8675,9.11877604 11.0081464,8.97784745 11.18187,8.9775 Z" id="Path"></path><line x1="4.33629" y1="3.22623" x2="1.80558" y2="5.75442" id="Path"></line><line x1="9.01593" y1="3.98475" x2="6.07131" y2="3.19725" id="Path"></line><line x1="12.84696" y1="1.82007" x2="10.59093" y2="3.58407" id="Path"></line><circle id="Oval" cx="5.19687" cy="2.83563" r="1"></circle><circle id="Oval" cx="13.7025" cy="1.4175" r="1"></circle><circle id="Oval" cx="9.9225" cy="4.2525" r="1"></circle><circle id="Oval" cx="1.41687" cy="6.61563" r="1"></circle></g></g></g></svg> 