<?xml version="1.0" encoding="UTF-8"?> <svg xmlns="http://www.w3.org/2000/svg" xmlns:xlink="http://www.w3.org/1999/xlink" width="15px" height="15px" viewBox="0 0 15 15" version="1.1"><title>x-small/complimentary domain/default</title><g id="x-small/complimentary-domain/default" stroke="none" stroke-width="1" fill="none" fill-rule="evenodd" stroke-linecap="round" stroke-linejoin="round"><path d="M13.8280047,6.47695439 L13.8280047,2.24618516 C13.8280047,1.77886729 13.4177694,1.40003131 12.9117186,1.40003131 L1.91628605,1.40003131 C1.41023524,1.40003131 1,1.77886729 1,2.24618516 L1,11.5538775 C1,12.0211953 1.41023524,12.4000313 1.91628605,12.4000313 L5.58143024,12.4000313" id="Path" stroke="#2A5BD7"></path><line x1="1" y1="3.93849285" x2="13.8280047" y2="3.93849285" id="Path" stroke="#2A5BD7"></line><line x1="3.4692315" y1="10.2795783" x2="7.06416592" y2="6.68464389" id="Path-9" stroke="#2A5BD7"></line><g id="path" transform="translate(7.500000, 7.500000)" stroke="#2A5BD7" stroke-width="0.9"><circle id="Oval" cx="3.5" cy="3.5" r="3.5"></circle><path d="M5,2 L3.42575867,4.78451034 C3.35490863,4.9093742 3.24679755,4.98745255 3.12929599,4.99861712 C3.01179443,5.0097817 2.89640015,4.95294003 2.81286127,4.84274564 L2,3.76431406" id="Path"></path></g></g></svg> 