<?xml version="1.0" encoding="UTF-8"?> <svg xmlns="http://www.w3.org/2000/svg" width="16" height="16" viewBox="0 0 16 16" fill="none"><g clip-path="url(#clip0_169_2308)"><path fill-rule="evenodd" clip-rule="evenodd" d="M1.5 1C1.36739 1 1.24021 1.05268 1.14645 1.14645C1.05268 1.24021 1 1.36739 1 1.5V9.5C1 9.63261 1.05268 9.75978 1.14645 9.85355C1.24021 9.94732 1.36739 10 1.5 10H3.5C3.77614 10 4 10.2239 4 10.5V12.5L5.2 11.6C5.42091 11.4343 5.73431 11.4791 5.9 11.7C6.06569 11.9209 6.02091 12.2343 5.8 12.4L3.8 13.9C3.64849 14.0136 3.44579 14.0319 3.27639 13.9472C3.107 13.8625 3 13.6894 3 13.5V11H1.5C1.10218 11 0.720645 10.842 0.43934 10.5607C0.158035 10.2794 0 9.89782 0 9.5V1.5C0 1.10218 0.158035 0.720644 0.43934 0.43934C0.720644 0.158035 1.10218 0 1.5 0H12.5C12.8978 0 13.2794 0.158035 13.5607 0.43934C13.842 0.720644 14 1.10217 14 1.5V4.5C14 4.77614 13.7761 5 13.5 5C13.2239 5 13 4.77614 13 4.5V1.5C13 1.36739 12.9473 1.24022 12.8536 1.14645C12.7598 1.05268 12.6326 1 12.5 1H1.5Z" fill="#2A5BD7"></path><path fill-rule="evenodd" clip-rule="evenodd" d="M3 3.5C3 3.22386 3.22386 3 3.5 3H10.5C10.7761 3 11 3.22386 11 3.5C11 3.77614 10.7761 4 10.5 4H3.5C3.22386 4 3 3.77614 3 3.5Z" fill="#2A5BD7"></path><path fill-rule="evenodd" clip-rule="evenodd" d="M3 6.5C3 6.22386 3.22386 6 3.5 6H5.5C5.77614 6 6 6.22386 6 6.5C6 6.77614 5.77614 7 5.5 7H3.5C3.22386 7 3 6.77614 3 6.5Z" fill="#2A5BD7"></path><path fill-rule="evenodd" clip-rule="evenodd" d="M7 6.5C7 6.22386 7.22386 6 7.5 6H15.5C15.7761 6 16 6.22386 16 6.5V12.5C16 12.7761 15.7761 13 15.5 13H14V15.5C14 15.7022 13.8782 15.8845 13.6913 15.9619C13.5045 16.0393 13.2894 15.9966 13.1464 15.8536L10.2929 13H7.5C7.22386 13 7 12.7761 7 12.5V6.5ZM8 7V12H10.5C10.6326 12 10.7598 12.0527 10.8536 12.1464L13 14.2929V12.5C13 12.2239 13.2239 12 13.5 12H15V7H8Z" fill="#2A5BD7"></path><path fill-rule="evenodd" clip-rule="evenodd" d="M9 8.5C9 8.22386 9.22386 8 9.5 8H13.5C13.7761 8 14 8.22386 14 8.5C14 8.77614 13.7761 9 13.5 9H9.5C9.22386 9 9 8.77614 9 8.5Z" fill="#2A5BD7"></path><path fill-rule="evenodd" clip-rule="evenodd" d="M9 10.5C9 10.2239 9.22386 10 9.5 10H13.5C13.7761 10 14 10.2239 14 10.5C14 10.7761 13.7761 11 13.5 11H9.5C9.22386 11 9 10.7761 9 10.5Z" fill="#2A5BD7"></path></g><defs><clipPath id="clip0_169_2308"><rect width="16" height="16" fill="white"></rect></clipPath></defs></svg> 