<?xml version="1.0" encoding="UTF-8"?> <svg xmlns="http://www.w3.org/2000/svg" xmlns:xlink="http://www.w3.org/1999/xlink" width="15px" height="15px" viewBox="0 0 15 15" version="1.1"><title>x-small / customizable backhalves / default</title><g id="x-small-/-customizable-backhalves-/-default" stroke="none" stroke-width="1" fill="none" fill-rule="evenodd" stroke-linecap="round" stroke-linejoin="round"><g id="Customizable-backhalves" transform="translate(1.000000, 2.000000)" stroke="#2A5BD7"><g id="app-window-star-1"><path d="M12.1283318,4.80001445 L12.1283318,0.800002408 C12.1283318,0.358173278 11.7404719,0 11.2620224,0 L0.866309417,0 C0.387859937,0 0,0.358173278 0,0.800002408 L0,9.6000289 C0,10.041858 0.387859937,10.4000313 0.866309417,10.4000313 L4.33154709,10.4000313" id="Path"></path><line x1="0" y1="2.40000723" x2="12.1283318" y2="2.40000723" id="Path"></line><path d="M9.93830163,5.82988422 L10.8265576,8.00002408 L12.5591764,8.00002408 C12.7381629,7.99390097 12.9021018,8.09204268 12.9691117,8.24543112 C13.0361216,8.39881955 12.9918232,8.57453979 12.8583419,8.68482615 L11.3567389,9.65282906 L12.1889735,11.4197677 C12.264097,11.5856186 12.2161777,11.7772444 12.0699125,11.8958837 C11.9236474,12.0145231 11.7116916,12.0336886 11.5432842,11.9435026 L9.53286883,10.8981661 L7.52303098,11.9435026 C7.3546236,12.0336886 7.1426678,12.0145231 6.99640267,11.8958837 C6.85013754,11.7772444 6.80221823,11.5856186 6.87734169,11.4197677 L7.70437842,9.65282906 L6.20277543,8.68482615 C6.06897225,8.57504205 6.02411523,8.39954962 6.09063417,8.24610012 C6.1571531,8.09265062 6.32075364,7.99421907 6.49963079,8.00002408 L8.23224962,8.00002408 L9.12223816,5.82988422 C9.20241678,5.69050481 9.35936356,5.60338231 9.5302699,5.60338231 C9.70117623,5.60338231 9.85812302,5.69050481 9.93830163,5.82988422 Z" id="Path"></path></g><line x1="2.4692315" y1="8.27957831" x2="6.06416592" y2="4.68464389" id="Path-9"></line></g></g></svg> 