<?xml version="1.0" encoding="UTF-8"?> <svg xmlns="http://www.w3.org/2000/svg" xmlns:xlink="http://www.w3.org/1999/xlink" width="16px" height="16px" viewBox="0 0 16 16" version="1.1"><title>Support</title><g id="Pages" stroke="none" stroke-width="1" fill="none" fill-rule="evenodd" stroke-linecap="round" stroke-linejoin="round"><g id="Pricing-–-Feature-Bottom-Fold---XL" transform="translate(-941.000000, -983.000000)" stroke="#2A5BD7" stroke-width="0.975"><g id="Support" transform="translate(941.000000, 983.000000)"><path d="M2.925,11.7 L2.4375,11.7 C1.36054474,11.7 0.4875,10.8269553 0.4875,9.75 L0.4875,7.8 C0.4875,6.72304474 1.36054474,5.85 2.4375,5.85 L2.925,5.85 C3.19423882,5.85 3.4125,6.06826118 3.4125,6.3375 L3.4125,11.2125 C3.4125,11.4817388 3.19423882,11.7 2.925,11.7 Z" id="Path"></path><path d="M13.1625,11.7 L12.675,11.7 C12.4057612,11.7 12.1875,11.4817388 12.1875,11.2125 L12.1875,6.3375 C12.1875,6.06826118 12.4057612,5.85 12.675,5.85 L13.1625,5.85 C14.2394553,5.85 15.1125,6.72304474 15.1125,7.8 L15.1125,9.75 C15.1125,10.8269553 14.2394553,11.7 13.1625,11.7 Z" id="Path"></path><path d="M2.4375,5.85 C2.4375,2.88837303 4.83837303,0.4875 7.8,0.4875 L7.8,0.4875 C9.22222343,0.4875 10.5861963,1.05247606 11.5918601,2.05813989 C12.5975239,3.06380372 13.1625,4.42777657 13.1625,5.85" id="Path"></path><path d="M9.75,14.1375 L11.2125,14.1375 C12.2894553,14.1375 13.1625,13.2644553 13.1625,12.1875 L13.1625,12.1875 L13.1625,11.7" id="Path"></path><path d="M8.775,15.1125 L7.8,15.1125 C7.26152237,15.1125 6.825,14.6759776 6.825,14.1375 L6.825,14.1375 C6.825,13.5990224 7.26152237,13.1625 7.8,13.1625 L8.775,13.1625 C9.31347763,13.1625 9.75,13.5990224 9.75,14.1375 L9.75,14.1375 C9.75,14.6759776 9.31347763,15.1125 8.775,15.1125 Z" id="Path"></path><path d="M5.85,10.0373 C6.95500819,11.0442545 8.64499181,11.0442545 9.75,10.0373" id="Path"></path><line x1="5.85" y1="6.49025" x2="5.85" y2="7.34305" id="Path"></line><line x1="9.75" y1="6.49025" x2="9.75" y2="7.34305" id="Path"></line></g></g></g></svg> 