<?xml version="1.0" encoding="UTF-8"?> <svg xmlns="http://www.w3.org/2000/svg" xmlns:xlink="http://www.w3.org/1999/xlink" width="15px" height="15px" viewBox="0 0 15 15" version="1.1"><title>x-small/location device/default</title><g id="x-small/location-device/default" stroke="none" stroke-width="1" fill="none" fill-rule="evenodd"><g id="path" transform="translate(1.550000, 0.549992)"><g id="Path" fill="#2A5BD7" fill-rule="nonzero"><path d="M4.40932956,0.866342475 C4.6578577,0.866342475 4.85932956,1.06781434 4.85932956,1.31634248 C4.85932956,1.53725638 4.70014191,1.72099001 4.49021763,1.75909237 L4.40932956,1.76634248 L2.05308855,1.76634248 C1.45730584,1.76634248 0.969182607,2.20803973 0.906747433,2.7726901 L0.9,2.89545239 L0.9,11.871476 C0.9,12.1694187 1.02036288,12.45558 1.23530205,12.6672266 C1.42066276,12.849748 1.66329887,12.9639495 1.92237156,12.9927839 L2.05308855,13.0000082 L5.8858817,13.0000082 C6.19303955,13.0001189 6.48725189,12.8801682 6.70350605,12.6672266 C6.88773962,12.4858152 7.00248858,12.2496584 7.03151413,11.9982615 L7.0388081,11.871476 L7.0388081,8.68321089 C7.0388081,8.43468275 7.24027997,8.23321089 7.4888081,8.23321089 C7.709722,8.23321089 7.89345564,8.39239853 7.931558,8.60232282 L7.9388081,8.68321089 L7.9388081,11.871476 C7.9388081,12.411039 7.72134089,12.9280646 7.3349715,13.3085155 C6.99270095,13.6455431 6.54278399,13.8509174 6.06572973,13.8922578 L5.88571956,13.9000083 L2.05325068,13.9000083 C1.51018533,13.9002038 0.988890977,13.6876715 0.6038366,13.3085155 C0.260397149,12.9703369 0.0504112604,12.5242475 0.00798772268,12.0503392 L0,11.871476 L0,2.89545239 C0,1.82428328 0.838906323,0.949235628 1.90005118,0.871899 L2.05308855,0.866342475 L4.40932956,0.866342475 Z"></path><path d="M7.4888081,10.3999369 C7.73733624,10.3999369 7.9388081,10.6014088 7.9388081,10.8499369 C7.9388081,11.0708508 7.77962046,11.2545844 7.56969617,11.2926868 L7.4888081,11.2999369 L0.45,11.2999369 C0.201471863,11.2999369 0,11.098465 0,10.8499369 C0,10.629023 0.159187645,10.4452894 0.369111931,10.407187 L0.45,10.3999369 L7.4888081,10.3999369 Z"></path><path d="M10.488912,0.0822893261 L4.57516332,2.57916778 C4.21253433,2.73099326 3.97115955,3.07850277 3.9587573,3.47011712 L3.96306316,3.59940698 C3.99669936,3.94008161 4.20469771,4.24333679 4.51819976,4.397985 L6.47,5.3580082 L7.446498,7.28231225 C7.62370938,7.63033165 7.98703809,7.84399596 8.3780539,7.83264788 C8.76926668,7.82129409 9.11955806,7.58668632 9.27556976,7.22920471 L11.8166516,1.40025756 C11.9824986,1.02165227 11.8964457,0.580461606 11.6005623,0.289930653 C11.3072869,0.00196063855 10.8671841,-0.0799006119 10.488912,0.0822893261 Z M10.8412789,0.910438678 C10.8868699,0.890898376 10.9376511,0.900287707 10.9700011,0.932108705 C10.999743,0.961312533 11.0079462,1.00337017 10.9919569,1.03987162 L8.45062891,6.86938176 C8.43461468,6.9060763 8.39629715,6.93173948 8.35194506,6.93307721 C8.307396,6.93431957 8.26723392,6.91070128 8.24879285,6.87448559 L7.20557333,4.81867644 C7.16150885,4.73184129 7.09046637,4.66164225 7.00311117,4.61861797 L4.91610457,3.59072316 C4.87896615,3.57240295 4.85711253,3.5363003 4.8582598,3.49860543 C4.85950687,3.4606962 4.88387349,3.42561536 4.92398754,3.40881821 L10.8412789,0.910438678 Z"></path></g><g id="data-file-bars" transform="translate(2.019796, 4.356999)" stroke="#2A5BD7" stroke-linecap="round" stroke-linejoin="round"><polyline id="Path" points="0 0 0 4.09300882 4.43020382 4.09300882"></polyline><line x1="1.83232155" y1="3.92821361" x2="1.83232155" y2="1.96699794" id="Path-2"></line><line x1="3.58843086" y1="3.92821361" x2="3.58843086" y2="2.57607784" id="Path-2-Copy"></line></g></g></g></svg> 