<?xml version="1.0" encoding="UTF-8"?> <svg xmlns="http://www.w3.org/2000/svg" xmlns:xlink="http://www.w3.org/1999/xlink" width="15px" height="15px" viewBox="0 0 15 15" version="1.1"><title>x-small/link in bio/default</title><g id="x-small/link-in-bio/default" stroke="none" stroke-width="1" fill="none" fill-rule="evenodd"><g id="icon-lib" transform="translate(3.000000, 1.000000)" stroke="#2A5BD7" stroke-width="0.9"><g id="Group-7"><rect id="Fill-Copy" x="1.51381353" y="7.07264151" width="4.68960642" height="1" rx="0.5"></rect><rect id="Fill-Copy" x="1.51381353" y="9.28018868" width="4.68960642" height="1" rx="0.5"></rect><path d="M0,6.01637593 L0,1.44 C-9.73949402e-17,0.64470996 0.64470996,-7.59521947e-17 1.44,0 L6.42855178,0 C7.22384182,-1.4609241e-16 7.86855178,0.64470996 7.86855178,1.44 L7.86855178,11.314717 C7.86855178,12.110007 7.22384182,12.754717 6.42855178,12.754717 L1.78784627,12.754717 L1.78784627,12.754717" id="Rectangle" stroke-linecap="round" stroke-linejoin="round" transform="translate(3.934276, 6.377358) rotate(180.000000) translate(-3.934276, -6.377358) "></path><ellipse id="Oval" cx="3.85861674" cy="3.31132075" rx="1" ry="1"></ellipse><polyline id="Path" stroke-linecap="round" stroke-linejoin="round" points="7.62260909 2.38639937 9.23265877 2.38639937 9.23265877 4.01139937 9.23265877 2.38639937 6.29552353 5.04144423"></polyline></g></g></g></svg> 