<?xml version="1.0" encoding="UTF-8"?> <svg xmlns="http://www.w3.org/2000/svg" xmlns:xlink="http://www.w3.org/1999/xlink" width="16px" height="16px" viewBox="0 0 16 16" version="1.1"><title>QR Codes</title><g id="Pages" stroke="none" stroke-width="1" fill="none" fill-rule="evenodd" stroke-linecap="round" stroke-linejoin="round"><g id="Pricing-–-Feature-Bottom-Fold---XL" transform="translate(-559.000000, -876.000000)" stroke="#2A5BD7" stroke-width="0.975"><g id="QR-Codes" transform="translate(559.000000, 876.000000)"><rect id="Rectangle" x="3.4125" y="3.4125" width="1.95" height="1.95"></rect><rect id="Rectangle" x="3.4125" y="10.2375" width="1.95" height="1.95"></rect><rect id="Rectangle" x="10.2375" y="3.4125" width="1.95" height="1.95"></rect><polyline id="Path" points="3.4125 8.2875 7.3125 8.2875 7.3125 9.2625"></polyline><polyline id="Path" points="9.2625 9.2625 9.2625 12.1875 12.1875 12.1875 12.1875 9.2625 11.2125 9.2625"></polyline><line x1="7.3125" y1="11.2125" x2="7.3125" y2="12.1875" id="Path"></line><polyline id="Path" points="7.3125 3.4125 7.3125 6.3375 8.2875 6.3375"></polyline><line x1="10.2375" y1="7.3125" x2="12.1875" y2="7.3125" id="Path"></line><path d="M0.4875,3.9 L0.4875,1.4625 C0.4875,0.924022369 0.924022369,0.4875 1.4625,0.4875 L3.9,0.4875" id="Path"></path><path d="M11.7,0.4875 L14.1375,0.4875 C14.6759776,0.4875 15.1125,0.924022369 15.1125,1.4625 L15.1125,3.9" id="Path"></path><path d="M15.1125,11.7 L15.1125,14.1375 C15.1125,14.6759776 14.6759776,15.1125 14.1375,15.1125 L11.7,15.1125" id="Path"></path><path d="M3.9,15.1125 L1.4625,15.1125 C0.924022369,15.1125 0.4875,14.6759776 0.4875,14.1375 L0.4875,11.7" id="Path"></path></g></g></g></svg> 