<?xml version="1.0" encoding="UTF-8"?> <svg xmlns="http://www.w3.org/2000/svg" xmlns:xlink="http://www.w3.org/1999/xlink" width="16px" height="16px" viewBox="0 0 16 16" version="1.1"><title>Scale links</title><g id="Pages" stroke="none" stroke-width="1" fill="none" fill-rule="evenodd" stroke-linecap="round" stroke-linejoin="round"><g id="Pricing-–-Feature-Bottom-Fold---XL" transform="translate(-941.000000, -840.000000)" stroke="#2A5BD7" stroke-width="0.975"><g id="Scale-links" transform="translate(941.000000, 840.000000)"><circle id="Oval" cx="11.2125" cy="11.21315" r="3.9"></circle><polyline id="Path" points="12.9363 11.21315 11.2125 11.21315 11.2125 9.48935"></polyline><path d="M12.74715,5.5666 C14.2012,5.0323 15.1125,4.2666 15.1125,3.41315 C15.1125,1.79725 11.83845,0.48815 7.8,0.48815 C3.76155,0.48815 0.4875,1.79725 0.4875,3.41315 C0.4875,5.02905 3.76155,6.33815 7.8,6.33815" id="Path"></path><path d="M0.4875,7.31315 C0.4875,8.60275 2.57465,9.69735 5.47105,10.08605" id="Path"></path><path d="M0.4875,3.41315 L0.4875,11.21315 C0.4875,12.5944 2.88145,13.75205 6.10025,14.0582" id="Path"></path><line x1="15.1125" y1="6.85295" x2="15.1125" y2="3.41315" id="Path"></line><path d="M12.74715,5.5666 C14.2012,5.0323 15.1125,4.2666 15.1125,3.41315 C15.1125,1.79725 11.83845,0.48815 7.8,0.48815 C3.76155,0.48815 0.4875,1.79725 0.4875,3.41315 C0.4875,5.02905 3.76155,6.33815 7.8,6.33815" id="Path"></path><path d="M0.4875,7.31315 C0.4875,8.60275 2.57465,9.69735 5.47105,10.08605" id="Path"></path><path d="M0.4875,3.41315 L0.4875,11.21315 C0.4875,12.5944 2.88145,13.75205 6.10025,14.0582" id="Path"></path><line x1="15.1125" y1="6.85295" x2="15.1125" y2="3.41315" id="Path"></line></g></g></g></svg> 