<?xml version="1.0" encoding="UTF-8"?> <svg xmlns="http://www.w3.org/2000/svg" xmlns:xlink="http://www.w3.org/1999/xlink" width="16px" height="16px" viewBox="0 0 16 16" version="1.1"><title>Uptime</title><g id="Pages" stroke="none" stroke-width="1" fill="none" fill-rule="evenodd" stroke-linecap="round" stroke-linejoin="round"><g id="Pricing-–-Feature-Bottom-Fold---XL" transform="translate(-941.000000, -912.000000)" stroke="#2A5BD7" stroke-width="0.975"><g id="Uptime" transform="translate(941.000000, 912.000000)"><circle id="Oval" cx="11.2125" cy="11.2125" r="3.9"></circle><path d="M12.9506,10.0789 L11.06235,12.59635 C10.9773677,12.7092383 10.8476921,12.7798282 10.7067529,12.789922 C10.5658137,12.8000158 10.4274021,12.7486257 10.3272,12.649 L9.3522,11.674" id="Path"></path><path d="M5.3625,9.2625 C3.87303899,9.26261744 2.62135265,8.14346087 2.45546678,6.66326628 C2.28958091,5.1830717 3.26247856,3.81460531 4.71501513,3.48501216 C6.1675517,3.15541901 7.6357948,3.96996938 8.125,5.3768" id="Path"></path><polyline id="Path" points="6.3375 6.3375 5.3625 6.3375 5.3625 5.3625"></polyline><path d="M4.875,13.1625 L1.4625,13.1625 C0.924022369,13.1625 0.4875,12.7259776 0.4875,12.1875 L0.4875,1.4625 C0.4875,0.924022369 0.924022369,0.4875 1.4625,0.4875 L8.37135,0.4875 C8.62984896,0.487727568 8.87767743,0.590599766 9.06035,0.7735 L10.92715,2.63965 C11.1099711,2.82258826 11.2126172,3.07066909 11.2125001,3.3293 L11.2125001,4.875" id="Path"></path></g></g></g></svg> 