<?xml version="1.0" encoding="UTF-8"?> <svg xmlns="http://www.w3.org/2000/svg" xmlns:xlink="http://www.w3.org/1999/xlink" width="16px" height="16px" viewBox="0 0 16 16" version="1.1"><title>User-Permissions</title><g id="Pages" stroke="none" stroke-width="1" fill="none" fill-rule="evenodd" stroke-linecap="round" stroke-linejoin="round"><g id="Pricing-–-Feature-Bottom-Fold---XL" transform="translate(-941.000000, -876.000000)" stroke="#2A5BD7" stroke-width="0.975"><g id="User-Permissions" transform="translate(941.000000, 876.000000)"><path d="M12.1875,7.8 C12.1875,7.53076118 11.9692388,7.3125 11.7,7.3125 L3.9,7.3125 C3.63076118,7.3125 3.4125,7.53076118 3.4125,7.8" id="Path"></path><circle id="Oval" cx="2.925" cy="11.45625" r="1.70625"></circle><path d="M5.3625,15.1125 C4.88239446,14.2123021 3.94522427,13.65 2.925,13.65 C1.90477573,13.65 0.967605539,14.2123021 0.4875,15.1125" id="Path"></path><circle id="Oval" cx="12.675" cy="11.45625" r="1.70625"></circle><path d="M15.1125,15.1125 C14.6323945,14.2123021 13.6952243,13.65 12.675,13.65 C11.6547757,13.65 10.7176055,14.2123021 10.2375,15.1125" id="Path"></path><circle id="Oval" cx="7.8" cy="2.19375" r="1.70625"></circle><path d="M9.91185,5.3625 C9.38463781,4.74348429 8.61245094,4.38685434 7.79935,4.38685434 C6.98624906,4.38685434 6.21406219,4.74348429 5.68685,5.3625" id="Path"></path></g></g></g></svg> 