<svg xmlns="http://www.w3.org/2000/svg" width="100%" height="100%" viewBox="0 0 24.761 24.761" focusable="false">
  <defs>
    <clipPath>
      <path d="M0 0H24.761V24.761H0z" class="btn_zoom_cls-1" transform="translate(187.837 232.837)"></path>
    </clipPath>
    <style>
      .btn_zoom_cls-1 {
        fill: #fff
      }

    </style>
  </defs>
  <g transform="translate(-187.837 -232.837)">
    <g transform="translate(187.837 232.837)">
      <g>
        <g>
          <path
            d="M24.478 23.109l-6.986-6.986a9.868 9.868 0 1 0-1.368 1.368l6.986 6.986a.967.967 0 0 0 1.368-1.368zm-9-7.636a7.933 7.933 0 1 1 0-11.219 7.942 7.942 0 0 1-.005 11.219z"
            class="btn_zoom_cls-1"></path>
        </g>
      </g>
      <g>
        <g>
          <path
            d="M14.6 8.9h-3.769V5.127a.967.967 0 0 0-1.935 0V8.9H5.127a.967.967 0 0 0 0 1.935H8.9V14.6a.967.967 0 0 0 1.935 0v-3.769H14.6a.967.967 0 0 0 0-1.935z"
            class="btn_zoom_cls-1"></path>
        </g>
      </g>
    </g>
  </g>
</svg>
